<svg xmlns="http://www.w3.org/2000/svg" width="60" height="60" viewBox="0 0 60 60">
    <defs>
        <linearGradient id="prefix__a" x1="50%" x2="50%" y1="100%" y2="0%">
            <stop offset="0%" stop-color="#3D8BE8"/>
            <stop offset="100%" stop-color="#89BEEC"/>
        </linearGradient>
    </defs>
    <g fill="none" fill-rule="evenodd">
        <circle cx="30" cy="30" r="30" fill="#4191E9" opacity=".05"/>
        <path fill="url(#prefix__a)" fill-rule="nonzero" d="M30 10c8.284 0 15 6.716 15 15 0 2.974-.865 5.745-2.358 8.077l5.304 9.186.053.106c.264.609-.137 1.32-.819 1.39l-5.007.506-2.942 4.083-.075.092c-.447.49-1.26.417-1.602-.177l-4.906-8.496c-.86.153-1.745.233-2.648.233s-1.788-.08-2.648-.233l-4.906 8.496c-.342.594-1.155.667-1.602.177l-.075-.092-2.943-4.084-5.006-.506c-.682-.069-1.083-.78-.82-1.389l.054-.106 5.304-9.186C15.865 30.745 15 27.974 15 25c0-8.284 6.716-15 15-15zM18.661 34.82l-4.102 7.104 3.917.396c.244.024.469.138.634.316l.077.094 2.3 3.194 3.848-6.663c-2.614-.855-4.912-2.409-6.674-4.44zm22.679 0c-1.762 2.032-4.06 3.586-6.675 4.44l3.848 6.663 2.3-3.193.077-.094c.165-.178.39-.292.634-.316l3.917-.396zM30 12c-7.18 0-13 5.82-13 13s5.82 13 13 13 13-5.82 13-13-5.82-13-13-13zm-.897 5.557c.367-.743 1.427-.743 1.794 0l1.823 3.697 4.081.593c.781.114 1.116 1.033.633 1.62l-.079.086-2.952 2.877.697 4.064c.134.78-.641 1.383-1.35 1.1l-.1-.046L30 29.63l-3.65 1.918c-.7.368-1.513-.182-1.463-.944l.013-.11.696-4.064-2.951-2.877c-.566-.551-.296-1.492.44-1.683l.114-.023 4.08-.593zM30 20.26l-1.16 2.352c-.146.295-.428.5-.753.547l-2.596.377 1.878 1.83c.207.201.315.48.301.764l-.013.122-.444 2.583 2.322-1.22c.255-.133.553-.15.819-.05l.111.05 2.321 1.22-.443-2.583c-.049-.284.028-.573.205-.795l.083-.09 1.877-1.831-2.595-.377c-.285-.041-.536-.203-.692-.44l-.06-.107L30 20.259z"/>
    </g>
</svg>
