<svg xmlns="http://www.w3.org/2000/svg" width="24" height="24" viewBox="0 0 24 24">
    <path fill="#31364E" fill-rule="evenodd" d="M18.05 11.57c-.008-1.64.734-2.875 2.234-3.785-.84-1.203-2.11-1.863-3.782-1.992-1.586-.125-3.317.922-3.954.922-.672 0-2.203-.88-3.41-.88C6.645 5.876 4 7.82 4 11.782c0 1.172.215 2.38.64 3.625.571 1.64 2.634 5.656 4.787 5.59 1.125-.027 1.922-.797 3.383-.797 1.422 0 2.157.797 3.411.797 2.172-.031 4.036-3.683 4.579-5.328-2.907-1.367-2.75-4.016-2.75-4.098zm-2.524-7.332c1.219-1.445 1.11-2.765 1.07-3.238-1.078.063-2.32.734-3.032 1.559-.781.882-1.242 1.976-1.14 3.21 1.164.09 2.226-.511 3.102-1.53z"/>
</svg>
