<svg xmlns="http://www.w3.org/2000/svg" width="32" height="32" viewBox="0 0 32 32">
    <path fill="#FFF" d="M16 4c6.627 0 12 5.373 12 12s-5.373 12-12 12S4 22.627 4 16 9.373 4 16 4zm0 2C10.477 6 6 10.477 6 16s4.477 10 10 10 10-4.477 10-10S21.523 6 16 6zm4.944 6.468l.087.078c.362.362.388.934.078 1.327l-.078.087-6.071 6.07c-.363.363-.935.39-1.327.079l-.087-.078-2.253-2.253c-.39-.39-.39-1.024 0-1.414.363-.363.934-.389 1.327-.078l.087.078 1.546 1.544 5.364-5.362c.362-.363.934-.389 1.327-.078z"/>
</svg>
