<svg xmlns="http://www.w3.org/2000/svg" xmlns:xlink="http://www.w3.org/1999/xlink" width="32" height="32" viewBox="0 0 32 32">
    <defs>
        <filter id="nn29xm45ha" width="340.6%" height="340.6%" x="-120.3%" y="-114.1%" filterUnits="objectBoundingBox">
            <feOffset dy="2" in="SourceAlpha" result="shadowOffsetOuter1"/>
            <feGaussianBlur in="shadowOffsetOuter1" result="shadowBlurOuter1" stdDeviation="12.5"/>
            <feColorMatrix in="shadowBlurOuter1" values="0 0 0 0 0.239215686 0 0 0 0 0.545098039 0 0 0 0 0.909803922 0 0 0 0.1 0"/>
        </filter>
        <filter id="fc5nl2vldc" width="200%" height="200%" x="-50%" y="-43.8%" filterUnits="objectBoundingBox">
            <feOffset dy="2" in="SourceAlpha" result="shadowOffsetOuter1"/>
            <feGaussianBlur in="shadowOffsetOuter1" result="shadowBlurOuter1" stdDeviation="5"/>
            <feColorMatrix in="shadowBlurOuter1" values="0 0 0 0 0.239215686 0 0 0 0 0.545098039 0 0 0 0 0.909803922 0 0 0 0.1 0"/>
        </filter>
        <circle id="oftp8g1xvb" cx="16" cy="16" r="16"/>
        <circle id="1sxnh5fl3d" cx="16" cy="16" r="16"/>
    </defs>
    <g fill="none" fill-rule="evenodd">
        <g>
            <g transform="translate(-195 -88) translate(195 88)">
                <use fill="#000" filter="url(#nn29xm45ha)" xlink:href="#oftp8g1xvb"/>
                <g opacity=".8">
                    <use fill="#000" filter="url(#fc5nl2vldc)" xlink:href="#1sxnh5fl3d"/>
                    <use fill="#FFF" xlink:href="#1sxnh5fl3d"/>
                </g>
                <rect width="12" height="12" x="8" y="12" stroke="#2465B3" stroke-width="2" rx="3"/>
                <rect width="14" height="14" x="11" y="7" fill="#2465B3" rx="2"/>
                <path fill="#FAFAFA" fill-rule="nonzero" d="M21 10c.513 0 .936.386.993.883L22 11v5c0 .552-.448 1-1 1-.513 0-.936-.386-.993-.883L20 16v-2.586l-4.293 4.293c-.39.39-1.024.39-1.414 0-.36-.36-.388-.928-.083-1.32l.083-.094L18.584 12H16c-.513 0-.936-.386-.993-.883L15 11c0-.513.386-.936.883-.993L16 10h5z" opacity=".8"/>
            </g>
        </g>
    </g>
</svg>
