<svg xmlns="http://www.w3.org/2000/svg" width="24" height="24" viewBox="0 0 24 24">
    <g fill="none" fill-rule="evenodd">
        <g>
            <g>
                <g transform="translate(-292 -699) translate(0 684) translate(292 15)">
                    <rect width="23" height="23" x=".5" y=".5" stroke="#E9E9E9" rx="4"/>
                    <path stroke="#6F7283" stroke-linecap="round" stroke-linejoin="round" stroke-width="2" d="M19 13v4c0 1.105-.895 2-2 2H7c-1.105 0-2-.895-2-2V7c0-1.105.895-2 2-2h4"/>
                    <path fill="#6F7283" fill-rule="nonzero" d="M19 4h.02c.023 0 .046.002.07.004L19 4c.05 0 .1.004.149.011l.052.01c.022.004.043.009.065.015l.046.014.06.021.051.023.061.03.037.022c.025.016.05.032.074.05l.022.017c.063.05.12.107.17.17l-.08-.09c.036.035.068.073.097.112.018.024.034.049.05.074l.021.037c.011.02.022.04.031.06l.023.053.021.06.014.045.016.065.009.053.004.031.003.03.003.055L20 5v4c0 .552-.448 1-1 1-.513 0-.936-.386-.993-.883L18 9V7.414l-3.293 3.293c-.39.39-1.024.39-1.414 0-.36-.36-.388-.928-.083-1.32l.083-.094L16.584 6H15c-.513 0-.936-.386-.993-.883L14 5c0-.513.386-.936.883-.993L15 4h4z"/>
                </g>
            </g>
        </g>
    </g>
</svg>
