<svg xmlns="http://www.w3.org/2000/svg" width="24" height="24" viewBox="0 0 24 24">
    <path fill="#3D8BE8" d="M12 1c3.511 0 6.356 2.8 6.356 6.256v2.21c.841.283 1.466 1.08 1.466 1.99v8.4c0 1.181-.978 2.1-2.133 2.1H6.31c-1.155 0-2.133-.962-2.133-2.1v-8.4c0-.91.625-1.707 1.466-1.99v-2.21C5.644 3.8 8.49 1 12 1zm5.689 9.756H6.31c-.4 0-.711.306-.711.7v8.4c0 .394.311.7.711.7H17.69c.4 0 .711-.306.711-.7v-8.4c0-.393-.311-.7-.711-.7zM12 12.156c.8 0 1.422.656 1.422 1.4 0 .585-.343 1.074-.848 1.286l.493 2.914h-2.134l.493-2.914c-.505-.212-.848-.7-.848-1.286 0-.787.622-1.4 1.422-1.4zm0-9.844c-2.756 0-5.022 2.232-5.022 4.944l-.001 2.1h10.045v-2.1c0-2.712-2.266-4.944-5.022-4.944z"/>
</svg>
