<svg xmlns="http://www.w3.org/2000/svg" xmlns:xlink="http://www.w3.org/1999/xlink" width="60" height="60" viewBox="0 0 60 60">
    <defs>
        <linearGradient id="e0zivhqpcc" x1="50%" x2="50%" y1="100%" y2="0%">
            <stop offset="0%" stop-color="#3D8BE8"/>
            <stop offset="100%" stop-color="#89BEEC"/>
        </linearGradient>
        <filter id="ypmebiz4ua" width="153.3%" height="153.3%" x="-26.7%" y="-23.3%" filterUnits="objectBoundingBox">
            <feOffset dy="2" in="SourceAlpha" result="shadowOffsetOuter1"/>
            <feGaussianBlur in="shadowOffsetOuter1" result="shadowBlurOuter1" stdDeviation="5"/>
            <feColorMatrix in="shadowBlurOuter1" values="0 0 0 0 0.239215686 0 0 0 0 0.545098039 0 0 0 0 0.909803922 0 0 0 0.2 0"/>
        </filter>
        <circle id="1zrummzuub" cx="30" cy="30" r="30"/>
        <rect id="ku63c73j2d" width="60" height="60" x="0" y="0" rx="30"/>
    </defs>
    <g fill="none" fill-rule="evenodd">
        <g>
            <g>
                <g>
                    <g transform="translate(-230 -410) translate(0 110) translate(230 300)">
                        <use fill="#000" filter="url(#ypmebiz4ua)" xlink:href="#1zrummzuub"/>
                        <use fill="#FFF" xlink:href="#1zrummzuub"/>
                    </g>
                    <g transform="translate(-230 -410) translate(0 110) translate(230 300)">
                        <use fill="url(#e0zivhqpcc)" xlink:href="#ku63c73j2d"/>
                        <use fill="#FFF" fill-opacity=".2" xlink:href="#ku63c73j2d"/>
                    </g>
                    <path fill="#FFF" fill-rule="nonzero" d="M39.494 28.917l-13.05-7.767c-.16-.094-.324-.15-.511-.15-.511 0-.928.422-.928.938H25v16.125h.005c0 .515.417.937.928.937.192 0 .351-.066.525-.16l13.036-7.757c.31-.258.506-.647.506-1.083 0-.436-.197-.82-.506-1.083z" transform="translate(-230 -410) translate(0 110) translate(230 300)"/>
                </g>
            </g>
        </g>
    </g>
</svg>
