<svg xmlns="http://www.w3.org/2000/svg" width="100" height="100" viewBox="0 0 100 100">
    <defs>
        <linearGradient id="prefix__a" x1="50%" x2="50%" y1="100%" y2="0%">
            <stop offset="0%" stop-color="#3D8BE8"/>
            <stop offset="100%" stop-color="#89BEEC"/>
        </linearGradient>
    </defs>
    <path fill="url(#prefix__a)" d="M66 21c.552 0 1 .448 1 1v3h3c.513 0 .936.386.993.883L71 26v6c0 .552-.448 1-1 1h-2.088l-3.75 41.272c-.136 1.485-1.339 2.636-2.81 2.723l-.178.005H38.826c-1.551 0-2.847-1.183-2.987-2.728L32.087 33H30c-.513 0-.936-.386-.993-.883L29 32v-6c0-.552.448-1 1-1h3v-3c0-.513.386-.936.883-.993L34 21zm-.095 12H34.094l3.737 41.09c.043.476.414.849.878.903l.117.007h22.348c.517 0 .949-.394.995-.91L65.905 33zM69 27H31v4h38v-4zm-4-4H35v2h30v-2zM35 59h30v2H35v-2zm-1-14h31v2H34v-2zm1 6h30v4H35v-4z"/>
</svg>
