<?xml version="1.0" encoding="UTF-8"?>
<svg width="50px" height="55px" viewBox="0 0 50 55" version="1.1" xmlns="http://www.w3.org/2000/svg" xmlns:xlink="http://www.w3.org/1999/xlink">
    <!-- Generator: Sketch 58 (84663) - https://sketch.com -->
    <title>Group 4</title>
    <desc>Created with Sketch.</desc>
    <g id="Roman-Edits" stroke="none" stroke-width="1" fill="none" fill-rule="evenodd">
        <g id="Profile_Member-#7-v2-Copy-4" transform="translate(-180.000000, -592.000000)" fill="#E9E9E9">
            <g id="Group-4" transform="translate(180.000000, 592.000000)">
                <path d="M5.44871795,42.1153846 L5.44871795,12.6282051 C5.44871795,12.1794872 5.57692308,11.7307692 5.83333333,11.4102564 C7.11538462,13.7820513 9.67948718,15.3846154 12.5641026,15.3846154 C14.1025641,15.3846154 15.3205128,14.1666667 15.3205128,12.6282051 C15.3205128,11.7307692 14.8717949,10.9615385 14.2307692,10.4487179 L25.1282051,10.4487179 C26.2179487,13.3333333 29.0384615,15.3846154 32.2435897,15.3846154 C33.7820513,15.3846154 35.000641,14.1666667 35.000641,12.6282051 C35.000641,11.7307692 34.5512821,10.9615385 33.9102564,10.4487179 L37.1794872,10.4487179 C38.3974359,10.4487179 39.3589744,11.4102564 39.3589744,12.6282051 L39.3589744,42.1794872 C39.3589744,43.3974359 38.3974359,44.3589744 37.1794872,44.3589744 L7.62820513,44.3589744 C6.41025641,44.3589744 5.44871795,43.3326923 5.44871795,42.1153846 M39.5512821,5.32051282 C38.5262821,2.24358974 35.6416667,4.93827201e-13 32.2435897,4.93827201e-13 C28.974359,4.93827201e-13 26.2179487,2.05128205 25.1282051,4.93589744 L19.7435897,4.93589744 C18.6538462,2.05128205 15.8333333,4.93827201e-13 12.6282051,4.93827201e-13 C9.23076923,4.93827201e-13 6.34615385,2.24358974 5.32051282,5.32051282 C2.24358974,6.34615385 -4.26325641e-13,9.23076923 -4.26325641e-13,12.6282051 L-4.26325641e-13,42.1794872 C-4.26325641e-13,45.5762821 2.24358974,48.4608974 5.32051282,49.4871795 C6.34615385,52.5641026 9.23076923,54.8076923 12.6282051,54.8076923 L42.1794872,54.8076923 C46.4102564,54.8076923 49.8076923,51.3455128 49.8076923,47.1788462 L49.8076923,17.5641026 C49.8076923,14.1666667 47.5641026,11.2820513 44.4871795,10.2564103 C43.7179487,7.94871795 41.8589744,6.08974359 39.5512821,5.32051282" id="Fill-1"></path>
                <path d="M16.218141,25.5125641 C16.218141,23.7176923 17.6925,22.2433333 19.4873718,22.2433333 C21.2822436,22.2433333 22.7566026,23.7176923 22.7566026,25.5125641 C22.7566026,27.3074359 21.2822436,28.7817949 19.4873718,28.7817949 C17.6925,28.7817949 16.218141,27.3074359 16.218141,25.5125641 L16.218141,25.5125641 Z M27.3078846,29.2946154 C27.8848077,28.1407692 28.2053205,26.8587179 28.2053205,25.5125641 C28.2053205,20.7048718 24.2950641,16.7946154 19.4873718,16.7946154 C14.6796795,16.7946154 10.7694231,20.7048718 10.7694231,25.5125641 C10.7694231,30.3202564 14.6796795,34.2305128 19.4873718,34.2305128 C20.9617308,34.2305128 22.3078846,33.8458974 23.4617308,33.2689744 L30.4489103,39.2946154 C30.9617308,39.7433333 31.6027564,39.935641 32.2437821,39.935641 C33.0130128,39.935641 33.7822436,39.6151282 34.2950641,38.9741026 C35.2566026,37.8202564 35.1283974,36.0894872 34.0386538,35.1279487 L27.3078846,29.2946154 Z" id="Fill-4"></path>
            </g>
        </g>
    </g>
</svg>