<svg xmlns="http://www.w3.org/2000/svg" width="35" height="36" viewBox="0 0 35 36">
    <path fill="#3D8BE8" fill-rule="evenodd" d="M17.59 10.17c.78.001 6.282.03 7.735.434.857.234 1.532.919 1.763 1.788.428 1.587.412 4.896.412 4.896s0 3.292-.412 4.88c-.23.869-.906 1.554-1.763 1.788-1.453.388-6.956.416-7.734.418h-.184c-.776-.003-6.265-.031-7.734-.435-.857-.234-1.532-.919-1.763-1.788-.37-1.414-.408-4.235-.411-4.785v-.188c.003-.548.04-3.357.411-4.786.23-.87.923-1.571 1.763-1.805 1.453-.388 6.955-.416 7.734-.418zm-2.085 4.06v6.083l5.207-3.042-5.207-3.041z"/>
</svg>
