<svg xmlns="http://www.w3.org/2000/svg" width="20" height="16" viewBox="0 0 20 16">
    <path fill="#3D8BE8" fill-rule="evenodd" d="M19.404 1.851c-.561.812-1.224 1.49-1.987 2.035.01.11.017.283.017.516 0 1.057-.155 2.113-.464 3.169-.308 1.056-.783 2.065-1.423 3.027-.64.961-1.4 1.815-2.282 2.56-.882.744-1.943 1.34-3.184 1.784-1.24.444-2.569.667-3.983.667-2.201 0-4.234-.59-6.098-1.768.303.033.618.05.943.05 1.842 0 3.493-.561 4.952-1.684-.864-.011-1.636-.272-2.316-.784-.679-.511-1.148-1.162-1.406-1.951.224.044.477.067.758.067.337 0 .685-.045 1.044-.134-.92-.189-1.684-.645-2.29-1.367-.607-.723-.91-1.557-.91-2.502v-.05c.539.3 1.14.467 1.802.5-.539-.366-.968-.839-1.288-1.417-.32-.578-.48-1.2-.48-1.867 0-.7.18-1.362.539-1.985.999 1.212 2.209 2.182 3.63 2.91 1.42.728 2.944 1.131 4.573 1.21-.068-.29-.102-.59-.102-.901 0-1.09.39-2.018 1.171-2.785C11.4.384 12.341 0 13.442 0c1.145 0 2.11.417 2.897 1.25.91-.177 1.751-.5 2.526-.967-.292.945-.876 1.674-1.751 2.185.842-.1 1.605-.306 2.29-.617z"/>
</svg>
