<svg xmlns="http://www.w3.org/2000/svg" width="24" height="24" viewBox="0 0 24 24">
    <path fill="#3DDB85" d="M16.481 14c-.481 0-.873-.393-.873-.874s.392-.873.873-.873c.482 0 .873.391.873.873 0 .481-.391.873-.873.873m-9.649 0c-.481 0-.873-.392-.873-.873s.392-.873.873-.873c.482 0 .873.391.873.873 0 .481-.391.873-.873.873m9.962-5.258l1.745-3.022c.1-.174.04-.396-.133-.496-.174-.1-.395-.04-.496.133l-1.766 3.06c-1.351-.617-2.868-.96-4.487-.96-1.62 0-3.136.343-4.487.96l-1.767-3.06c-.1-.173-.322-.233-.496-.133-.173.1-.233.322-.133.496L6.52 8.74c-2.996 1.629-5.045 4.662-5.344 8.245h20.964c-.3-3.583-2.35-6.616-5.345-8.245"/>
</svg>
