<svg xmlns="http://www.w3.org/2000/svg" xmlns:xlink="http://www.w3.org/1999/xlink" width="30" height="30" viewBox="0 0 30 30">
    <defs>
        <path id="prefix__a" d="M0 0.032L0 12.308 29.435 12.308 29.435 0.032z"/>
        <path id="prefix__c" d="M23.837 3.554L23.837 0.022 0.188 0.022 0.188 3.554z"/>
    </defs>
    <g fill="none" fill-rule="evenodd">
        <path fill="#3D8BE8" fill-rule="nonzero" d="M0.004 0L0.004 29.972 29.431 29.972 29.431 16.336 29.431 0z"/>
        <g transform="translate(0 9.264)">
            <mask id="prefix__b" fill="#fff">
                <use xlink:href="#prefix__a"/>
            </mask>
            <path fill="#FFF" fill-rule="nonzero" d="M25.83 5.27h2.209V.031H25.68V.87l-.524-.838H23.1v1.06l-.461-1.06H19.24c-.163 0-.322.012-.477.037-.13.02-.259.05-.382.09-.097.03-.191.067-.282.11-.106.05-.208.107-.305.172V.032H6.703L6.4.945 6.093.032h-2.58v1.07L3.046.032H.94L0 2.272V5.27H1.49l.278-.751h.525l.282.751H14.05v-.761l.575.761h3.17v-.38c.082.053.167.1.254.142.086.04.175.075.264.105.111.037.224.064.336.085.183.034.365.048.538.048h1.897l.278-.751h.525l.282.751h3.18v-.777l.481.777zm3.605 6.716V7.072H11.176l-.466.67-.46-.67H4.997v5.236h5.231l.456-.68.47.68h3.275v-1.13h-.034c.407 0 .777-.074 1.104-.198v1.328h2.284v-.761l.575.761h9.907c.285 0 .553-.049.792-.137.135-.05.261-.112.377-.185z" mask="url(#prefix__b)"/>
            <g transform="translate(5.618 7.902)">
                <mask id="prefix__d" fill="#fff">
                    <use xlink:href="#prefix__c"/>
                </mask>
                <path fill="#3D8BE8" fill-rule="nonzero" d="M22.668 2.848H20.89v.706h1.753c.749 0 1.194-.464 1.194-1.125 0-.63-.4-.999-1.075-.999h-.802c-.199 0-.337-.131-.337-.338 0-.212.138-.353.337-.353h1.505l.308-.717h-1.788c-.749 0-1.194.465-1.194 1.1 0 .651.42 1.025 1.08 1.025h.797c.198 0 .342.13.342.343 0 .216-.144.358-.342.358zm-3.299 0h-1.778v.706h1.753c.748 0 1.194-.464 1.194-1.125 0-.63-.401-.999-1.075-.999h-.802c-.199 0-.337-.131-.337-.338 0-.212.138-.353.337-.353h1.505l.308-.717h-1.789c-.748 0-1.194.465-1.194 1.1 0 .651.422 1.025 1.08 1.025h.798c.198 0 .342.13.342.343 0 .216-.144.358-.342.358zM17.085.739V.022h-2.774v3.532h2.774v-.711h-1.941v-.711h1.897v-.707h-1.897V.74h1.941zM12.44.744c.297 0 .455.197.455.44 0 .241-.158.433-.455.433h-.976V.744h.976zm-.976 1.539h.391l1.035 1.271h1.036L12.77 2.253c.59-.112.94-.545.94-1.11 0-.662-.46-1.12-1.198-1.12H10.63v3.531h.833V2.283zm-2.12-1.075c0 .237-.15.434-.441.434h-.996V.774h.996c.292 0 .44.192.44.434zM7.072.022v3.532h.833V2.39H8.95c.758 0 1.228-.505 1.228-1.186 0-.701-.46-1.18-1.198-1.18H7.074zM5.85 3.554h1.04l-1.392-1.78L6.88.021H5.87l-.852 1.12L4.17.023H3.13l1.386 1.766-1.382 1.766h1.01l.853-1.135.852 1.135zM2.962.74V.022H.188v3.532h2.774v-.711H1.02v-.711h1.897v-.707H1.02V.74h1.942z" mask="url(#prefix__d)"/>
            </g>
            <path fill="#3D8BE8" fill-rule="nonzero" d="M24.675 2.303l-.01-.293.173.293 1.328 2.114h.971V.885h-.812v2.043l.01.263-.154-.263L24.883.885h-1.02v3.532h.812V2.303zm-3.319-.101l.253-.661.252.66.308.783h-1.115l.302-.782zm1.377 2.215h.936L22.189.885h-1.096l-1.486 3.532h.887l.292-.757h1.65l.297.757zm-3.631 0h.045l.341-.752h-.252c-.57 0-.907-.363-.907-.989v-.05c0-.56.302-.98.897-.98h.901V.886h-.97c-1.07 0-1.655.731-1.655 1.736v.06c0 1.05.6 1.73 1.6 1.736zm-2.957 0h.832V.885h-.832v3.532zm-1.75-2.81c.298 0 .457.196.457.438 0 .243-.159.434-.456.434h-.976v-.873h.976zm-.975 1.538h.391l1.036 1.272h1.035l-1.154-1.302c.59-.111.941-.545.941-1.11 0-.661-.46-1.12-1.199-1.12h-1.882v3.532h.832V3.145zm-1.442-1.544V.885H9.204v3.532h2.774v-.722h-1.941v-.701h1.897v-.706h-1.897V1.6h1.941zm-6.9.404l-.02-.954.961 3.366h.753l.961-3.345-.02.928v2.417h.808V.885H7.054l-.659 2.502L5.732.885H4.27v3.532h.808V2.005zm-3.314.197l.252-.661.253.66.307.783H1.462l.302-.782zM3.14 4.417h.936L2.596.885H1.5L.015 4.417h.887l.292-.757h1.65l.297.757z"/>
        </g>
    </g>
</svg>
