<svg width="16" height="16" viewBox="0 0 16 16" fill="none" xmlns="http://www.w3.org/2000/svg">
<path d="M6.63938 11.227V6.55975H6.0855C5.68881 6.77121 5.30543 7.00673 4.9375 7.265V7.87312C5.26563 7.64825 5.78537 7.33062 6.03825 7.19325H6.04875V11.227H6.63938ZM7.67888 10.0851C7.72 10.6451 8.19863 11.3154 9.169 11.3154C10.2698 11.3154 10.919 10.3826 10.919 8.80325C10.919 7.111 10.2356 6.46875 9.21013 6.46875C8.39988 6.46875 7.63775 7.05675 7.63775 8.05162C7.63775 9.06662 8.35875 9.60038 9.10425 9.60038C9.757 9.60038 10.1805 9.27137 10.3144 8.90912H10.338C10.3345 10.0606 9.93463 10.8026 9.19613 10.8026C8.61512 10.8026 8.31413 10.4089 8.27738 10.0851H7.67888ZM10.2628 8.05775C10.2628 8.66675 9.77363 9.09025 9.22675 9.09025C8.70088 9.09025 8.22575 8.75512 8.22575 8.04025C8.22575 7.32012 8.735 6.9815 9.24775 6.9815C9.80163 6.9815 10.2628 7.32975 10.2628 8.05775Z" fill="#6F7283"/>
<path d="M4.0625 1C4.17853 1 4.28981 1.04609 4.37186 1.12814C4.45391 1.21019 4.5 1.32147 4.5 1.4375V1.875H11.5V1.4375C11.5 1.32147 11.5461 1.21019 11.6281 1.12814C11.7102 1.04609 11.8215 1 11.9375 1C12.0535 1 12.1648 1.04609 12.2469 1.12814C12.3289 1.21019 12.375 1.32147 12.375 1.4375V1.875H13.25C13.7141 1.875 14.1592 2.05937 14.4874 2.38756C14.8156 2.71575 15 3.16087 15 3.625V13.25C15 13.7141 14.8156 14.1592 14.4874 14.4874C14.1592 14.8156 13.7141 15 13.25 15H2.75C2.28587 15 1.84075 14.8156 1.51256 14.4874C1.18437 14.1592 1 13.7141 1 13.25V3.625C1 3.16087 1.18437 2.71575 1.51256 2.38756C1.84075 2.05937 2.28587 1.875 2.75 1.875H3.625V1.4375C3.625 1.32147 3.67109 1.21019 3.75314 1.12814C3.83519 1.04609 3.94647 1 4.0625 1V1ZM1.875 4.5V13.25C1.875 13.4821 1.96719 13.7046 2.13128 13.8687C2.29538 14.0328 2.51794 14.125 2.75 14.125H13.25C13.4821 14.125 13.7046 14.0328 13.8687 13.8687C14.0328 13.7046 14.125 13.4821 14.125 13.25V4.5H1.875Z" fill="#6F7283"/>
</svg>
