<svg xmlns="http://www.w3.org/2000/svg" width="100" height="100" viewBox="0 0 100 100">
    <defs>
        <linearGradient id="prefix__a" x1="19.333%" x2="87.471%" y1="76.695%" y2="27.778%">
            <stop offset="0%" stop-color="#3D8BE8"/>
            <stop offset="100%" stop-color="#89BEEC"/>
        </linearGradient>
    </defs>
    <path fill="url(#prefix__a)" fill-rule="evenodd" d="M33.945 29.867c.552 0 1 .448 1 1l-.001 16.545h30V30.867c0-.513.387-.935.884-.993l.117-.007h6c.552 0 1 .448 1 1l-.001 3h3c.514 0 .936.386.994.883l.007.117-.001 12.545 1.189.001c1.105 0 2 .895 2 2s-.895 2-2 2l-1.189-.001v13.455c0 .513-.385.936-.882.993l-.117.007h-3.001v3c0 .513-.385.936-.882.993l-.117.007h-6c-.552 0-1-.448-1-1l-.001-17.455h-30v17.455c0 .513-.385.936-.882.993l-.117.007h-6c-.552 0-1-.448-1-1l-.001-3h-3c-.512 0-.935-.386-.992-.883l-.007-.117-.001-13.455-.811.001c-1.105 0-2-.895-2-2s.895-2 2-2l.811-.001V34.867c0-.513.387-.935.884-.993l.117-.007h2.999v-3c0-.513.387-.935.884-.993l.117-.007zm-1 2h-4v36h4v-36zm38 0h-4v36h4v-36zm-44 4h-2v28h2v-28zm48 0h-2v28h2v-28z" transform="rotate(-45 50.133 49.867)"/>
</svg>
