<svg xmlns="http://www.w3.org/2000/svg" width="35" height="35" viewBox="0 0 35 35">
    <path fill="#3D8BE8" fill-rule="evenodd" d="M17.791 7.999c2.318 0 2.655.013 3.633.06 1.01.044 1.7.207 2.305.441.631.238 1.207.613 1.682 1.095.487.475.858 1.047 1.1 1.686.233.601.396 1.296.44 2.305.042.936.048 1.283.05 3.36v.845c-.002 2.318-.014 2.654-.057 3.629-.044 1.01-.207 1.7-.441 2.306-.494 1.277-1.504 2.287-2.781 2.78-.602.234-1.296.398-2.306.442-.896.04-1.252.053-3.109.055h-1.615c-1.856-.002-2.213-.015-3.11-.055-1.01-.044-1.7-.208-2.305-.442-.631-.237-1.207-.612-1.682-1.095-.482-.475-.857-1.047-1.099-1.685-.234-.602-.397-1.296-.442-2.306C8.01 20.406 8 20.083 8 17.503v-.288c0-2.318.013-2.654.06-3.632.044-1.01.207-1.7.441-2.306.238-.631.613-1.207 1.095-1.682.475-.486 1.047-.857 1.686-1.099.601-.234 1.296-.397 2.305-.442C14.6 8.01 14.923 8 17.503 8zm-.288 4.622c-2.695 0-4.882 2.187-4.882 4.882 0 2.696 2.187 4.882 4.882 4.882 2.696 0 4.882-2.186 4.882-4.882 0-2.695-2.186-4.882-4.882-4.882zm0 1.715c1.749 0 3.167 1.418 3.167 3.167 0 1.749-1.418 3.167-3.167 3.167-1.748 0-3.167-1.418-3.167-3.167 0-1.749 1.419-3.167 3.167-3.167zm5.075-3.048c-.63 0-1.14.51-1.14 1.14 0 .63.51 1.14 1.14 1.14.63 0 1.14-.51 1.14-1.14 0-.63-.51-1.14-1.14-1.14z"/>
</svg>
