<svg xmlns="http://www.w3.org/2000/svg" width="40" height="40" viewBox="0 0 40 40">
    <g fill="none" fill-rule="evenodd">
        <g>
            <g>
                <g>
                    <g transform="translate(-260 -810) translate(0 800) translate(150 10) translate(110)">
                        <circle cx="20" cy="20" r="19.5" stroke="#2465B3"/>
                        <path fill="#3D8BE8" d="M14.667 26.495c0 .831.665 1.505 1.5 1.505.828 0 1.5-.667 1.5-1.505v-12.99c0-.831-.666-1.505-1.5-1.505-.829 0-1.5.667-1.5 1.505v12.99zM22 26.495c0 .831.666 1.505 1.5 1.505.828 0 1.5-.667 1.5-1.505v-12.99c0-.831-.666-1.505-1.5-1.505-.828 0-1.5.667-1.5 1.505v12.99z"/>
                    </g>
                </g>
            </g>
        </g>
    </g>
</svg>
