<svg width="16" height="16" viewBox="0 0 16 16" fill="none" xmlns="http://www.w3.org/2000/svg">
<path d="M12.2703 13.7047L13.9328 12.0406C14.1359 11.8375 14.25 11.5656 14.25 11.2781C14.25 10.9906 14.1375 10.7188 13.9328 10.5156L12.1438 8.72344C11.9406 8.52031 11.6672 8.40625 11.3797 8.40625C11.0906 8.40625 10.8203 8.51875 10.6156 8.72344L9.21406 10.1234C8.47096 9.80451 7.79579 9.34626 7.225 8.77344C6.64844 8.2 6.19375 7.52969 5.87188 6.78594L7.27344 5.38594C7.47656 5.18281 7.59063 4.91094 7.59063 4.62344C7.59115 4.48163 7.56337 4.34114 7.5089 4.21021C7.45444 4.07928 7.37438 3.96054 7.27344 3.86094L5.48438 2.06719C5.28125 1.86406 5.00781 1.75 4.72031 1.75C4.43125 1.75 4.16094 1.8625 3.95625 2.06719L2.29375 3.72969C1.94688 4.07656 1.74844 4.55469 1.74844 5.04531C1.74844 5.14687 1.75625 5.24531 1.77344 5.34531C2.11406 7.41406 3.21563 9.46719 4.87188 11.125C6.53125 12.7813 8.58438 13.8813 10.6547 14.225C11.2422 14.3234 11.8469 14.1266 12.2703 13.7047ZM10.8406 13.1172C8.99844 12.8125 7.16094 11.8219 5.66875 10.3297C4.17656 8.8375 3.18594 7.00156 2.88125 5.15938C2.84219 4.92813 2.92031 4.69062 3.0875 4.52187L4.72031 2.88906L6.45313 4.62031L4.57813 6.49219L4.56406 6.50625L4.68906 6.84375C5.0653 7.86708 5.65956 8.79635 6.43066 9.56717C7.20175 10.338 8.13123 10.9319 9.15469 11.3078L9.49219 11.4328L11.3781 9.54531L13.1109 11.2766L11.4781 12.9094C11.3094 13.0781 11.0719 13.1563 10.8406 13.1172Z" fill="#6F7283"/>
</svg>
