<svg xmlns="http://www.w3.org/2000/svg" width="24" height="24" viewBox="0 0 24 24">
    <g fill="none" fill-rule="evenodd">
        <path fill="#FFF" d="M0 0H1440V2402H0z" transform="translate(-1356 -63)"/>
        <path fill="#31364E" fill-rule="nonzero" d="M1366.5 65c4.694 0 8.5 3.806 8.5 8.5 0 1.987-.681 3.814-1.823 5.261l4.53 4.532c.39.39.39 1.024 0 1.414-.36.36-.928.388-1.32.083l-.094-.083-4.532-4.53c-1.447 1.142-3.274 1.823-5.261 1.823-4.694 0-8.5-3.806-8.5-8.5s3.806-8.5 8.5-8.5zm0 2c-3.59 0-6.5 2.91-6.5 6.5s2.91 6.5 6.5 6.5c1.77 0 3.376-.708 4.548-1.856.013-.018.029-.035.045-.051l.051-.045c1.148-1.172 1.856-2.778 1.856-4.548 0-3.59-2.91-6.5-6.5-6.5z" transform="translate(-1356 -63)"/>
    </g>
</svg>
