<svg xmlns="http://www.w3.org/2000/svg" width="24" height="25" viewBox="0 0 24 25">
    <g fill="none" fill-rule="evenodd">
        <g fill="#C4C5CC">
            <g>
                <g>
                    <g>
                        <path d="M10.75 3.517c4.004 0 7.25 3.261 7.25 7.285 0 1.65-.545 3.17-1.465 4.392l3.672 3.69c.39.392.39 1.028 0 1.42-.36.363-.928.39-1.32.084l-.094-.084-3.672-3.69c-1.215.924-2.73 1.473-4.371 1.473-4.004 0-7.25-3.262-7.25-7.285 0-4.024 3.246-7.285 7.25-7.285zm0 2.01c-2.9 0-5.25 2.361-5.25 5.275 0 2.913 2.35 5.275 5.25 5.275 1.432 0 2.73-.576 3.677-1.51.009-.013.02-.026.033-.038l.041-.036C15.428 13.54 16 12.239 16 10.802c0-2.914-2.35-5.275-5.25-5.275z" transform="translate(-580 -3609) translate(0 3400) translate(570 200.964) translate(10 8.039)"/>
                    </g>
                </g>
            </g>
        </g>
    </g>
</svg>
