<?xml version="1.0" standalone="no"?>
<!DOCTYPE svg PUBLIC "-//W3C//DTD SVG 20010904//EN"
 "http://www.w3.org/TR/2001/REC-SVG-20010904/DTD/svg10.dtd">
<svg version="1.0" xmlns="http://www.w3.org/2000/svg"
 width="640.000000pt" height="640.000000pt" viewBox="0 0 640.000000 640.000000"
 preserveAspectRatio="xMidYMid meet">
<metadata>
Created by potrace 1.14, written by Peter Selinger 2001-2017
</metadata>
<g transform="translate(0.000000,640.000000) scale(0.100000,-0.100000)"
fill="#000000" stroke="none">
<path d="M3197 4384 c-4 -4 -7 -106 -7 -226 l0 -218 -34 0 c-40 0 -41 3 -51
105 -9 101 -14 115 -37 115 -18 0 -20 -5 -15 -37 3 -21 9 -72 13 -114 l7 -77
-37 -4 c-32 -4 -37 -1 -43 21 -4 15 -25 109 -48 211 -38 166 -44 185 -63 188
-12 2 -22 2 -22 0 0 -3 20 -95 45 -206 25 -111 45 -208 45 -216 0 -18 -57 -39
-66 -24 -4 6 -21 51 -39 101 -33 93 -40 103 -63 88 -10 -6 -5 -29 23 -106 19
-53 35 -101 35 -105 0 -7 -41 -23 -62 -24 -7 -1 -71 125 -154 302 -39 85 -45
92 -63 83 -19 -10 -15 -21 75 -207 52 -108 94 -199 94 -202 0 -4 -14 -15 -30
-24 l-31 -17 -60 94 c-54 83 -63 94 -80 85 -18 -10 -15 -16 32 -93 29 -45 56
-88 62 -95 8 -11 5 -18 -13 -33 -14 -10 -30 -19 -36 -19 -6 0 -68 73 -139 163
-71 89 -132 166 -137 172 -5 5 -14 3 -24 -7 -14 -14 -3 -31 120 -184 74 -93
136 -174 136 -180 0 -7 -12 -19 -26 -29 l-26 -17 -79 78 c-68 68 -80 76 -94
64 -14 -12 -7 -22 65 -95 l82 -82 -25 -28 -24 -29 -44 34 c-24 19 -102 81
-173 138 -71 56 -134 101 -140 99 -30 -10 3 -46 154 -167 91 -72 166 -135 168
-139 1 -4 -7 -19 -18 -34 l-21 -26 -95 60 c-52 33 -99 57 -104 54 -24 -15 -4
-37 85 -94 l96 -61 -18 -27 c-9 -16 -18 -30 -19 -32 -2 -1 -94 40 -205 94
-155 74 -204 93 -210 83 -5 -7 -8 -16 -6 -20 1 -5 88 -49 192 -99 105 -50 194
-95 199 -100 12 -11 -14 -71 -28 -66 -6 2 -55 19 -110 37 -80 26 -100 30 -107
19 -12 -20 6 -30 116 -69 94 -32 96 -34 90 -59 -4 -14 -11 -30 -16 -35 -5 -6
-87 9 -214 38 -113 26 -212 45 -220 42 -8 -3 -15 -12 -15 -19 0 -10 60 -28
204 -60 112 -26 211 -47 221 -47 15 0 17 -6 12 -36 -3 -20 -8 -39 -11 -41 -2
-3 -44 0 -93 6 -128 16 -143 15 -143 -9 0 -14 7 -20 23 -21 83 -3 212 -25 211
-36 -1 -7 -2 -24 -2 -38 l-2 -25 -225 0 c-218 0 -225 -1 -225 -20 0 -19 7 -20
224 -20 l224 0 4 -36 c2 -19 2 -37 -2 -39 -3 -2 -53 -9 -110 -15 -109 -13
-126 -19 -117 -43 4 -11 22 -12 118 -1 62 7 114 12 115 11 1 -1 5 -12 8 -24
l7 -23 -401 0 c-221 0 -400 3 -398 8 2 4 19 39 39 77 67 130 71 203 15 266
-28 32 -105 89 -119 89 -6 0 8 -14 31 -31 47 -34 92 -103 92 -140 0 -30 -49
-134 -98 -211 l-37 -58 -432 0 -431 0 -32 76 c-33 80 -60 187 -60 242 l0 34
34 -21 c32 -20 35 -20 82 -5 52 17 82 39 71 50 -4 4 -34 1 -67 -6 -57 -12 -62
-12 -83 7 -30 27 -100 73 -111 73 -16 0 2 -143 29 -224 14 -44 41 -112 60
-152 l34 -74 -165 0 c-157 0 -164 -1 -164 -20 0 -20 7 -20 3145 -20 3138 0
3145 0 3145 20 0 19 -7 20 -164 20 l-165 0 40 85 c22 47 51 129 65 182 23 93
32 183 17 183 -13 0 -77 -41 -105 -67 -26 -25 -26 -25 -92 -10 -54 12 -66 13
-66 2 0 -18 15 -27 75 -46 47 -14 52 -14 83 4 l32 19 0 -39 c0 -55 -25 -152
-61 -238 l-32 -75 -427 0 c-394 0 -428 1 -442 18 -26 29 -96 152 -114 198 -25
66 -13 104 52 170 47 46 51 53 24 39 -48 -25 -109 -93 -120 -134 -13 -49 9
-133 55 -219 19 -34 35 -65 35 -67 0 -3 -180 -5 -401 -5 l-400 0 7 23 c3 12 7
23 8 24 1 1 52 -3 114 -10 97 -12 112 -11 117 2 9 23 -4 28 -115 41 -57 6
-107 13 -110 15 -4 2 -4 20 -2 39 l4 36 224 0 c217 0 224 1 224 20 0 19 -7 20
-224 20 l-224 0 -4 36 c-2 20 0 38 6 39 6 2 58 9 116 15 58 7 107 13 109 15 2
2 1 12 -3 21 -7 17 -36 17 -187 -2 -46 -6 -47 -6 -54 26 -4 18 -3 35 1 40 5 4
105 29 222 55 182 41 212 51 212 67 0 26 -15 24 -231 -27 -206 -48 -229 -52
-229 -32 0 6 -3 22 -6 33 -5 19 5 25 105 59 61 21 111 41 111 44 0 3 -4 12 -9
20 -8 12 -27 8 -115 -22 -58 -21 -108 -37 -110 -37 -9 0 -26 64 -19 71 5 4 94
48 198 97 175 84 213 110 186 126 -6 4 -101 -37 -211 -90 -110 -53 -202 -95
-203 -93 -2 2 -11 16 -20 32 l-18 27 73 46 c40 26 83 53 96 61 23 14 29 37 13
48 -5 3 -53 -22 -107 -55 -101 -64 -99 -63 -126 -16 -8 15 -7 22 4 30 8 6 87
69 176 140 127 102 159 132 151 143 -6 7 -15 13 -19 13 -4 0 -79 -57 -166
-127 -88 -69 -165 -131 -173 -137 -10 -8 -19 -3 -38 18 l-25 29 82 82 c72 73
79 83 65 95 -14 12 -26 4 -95 -65 l-78 -77 -26 18 c-14 11 -26 23 -26 28 0 5
61 85 136 178 126 158 135 171 120 187 -11 11 -19 12 -24 5 -32 -49 -268 -334
-276 -334 -6 1 -21 9 -34 20 l-22 18 59 94 c42 67 56 97 49 106 -6 6 -14 12
-18 12 -4 0 -35 -43 -68 -95 l-61 -95 -30 18 c-17 9 -31 20 -31 23 0 3 42 93
94 200 85 174 93 195 78 207 -9 6 -19 9 -22 5 -4 -5 -47 -91 -95 -193 -48
-102 -91 -188 -94 -192 -8 -9 -71 12 -71 23 0 4 16 51 35 104 28 77 33 100 23
106 -23 15 -30 4 -65 -96 -19 -55 -36 -101 -37 -103 -8 -8 -66 23 -66 35 0 8
20 102 45 210 25 107 45 199 45 204 0 17 -39 9 -44 -8 -3 -10 -24 -99 -46
-198 -22 -99 -43 -187 -45 -195 -4 -12 -15 -15 -41 -12 l-37 4 7 67 c3 36 9
87 12 114 6 43 5 47 -14 47 -25 0 -29 -12 -37 -110 -9 -108 -11 -112 -48 -108
l-32 3 -5 220 c-4 188 -7 220 -20 223 -9 1 -19 0 -23 -4z m247 -515 c380 -90
678 -398 757 -784 19 -90 25 -280 13 -357 l-7 -38 -993 0 -992 0 -8 67 c-17
162 10 362 70 510 144 353 485 601 856 622 114 7 223 -1 304 -20z"/>
<path d="M1132 3641 c32 -10 77 -30 100 -44 54 -32 112 -92 104 -106 -10 -15
-46 5 -46 24 0 8 -7 15 -15 15 -11 0 -14 -9 -13 -32 4 -47 -17 -46 -92 4 -55
37 -70 43 -118 43 -48 0 -57 -3 -84 -34 -26 -29 -29 -40 -25 -72 5 -35 44
-106 53 -96 2 2 -3 21 -11 41 -13 30 -14 45 -5 70 22 67 92 76 179 23 31 -19
72 -42 91 -52 19 -9 56 -37 82 -62 25 -25 51 -42 57 -39 16 10 13 53 -6 82
-13 21 -14 30 -5 45 17 27 2 57 -53 108 -56 52 -134 89 -201 96 l-49 5 57 -19z"/>
<path d="M5240 3643 c-119 -41 -222 -157 -180 -199 7 -7 4 -19 -10 -36 -22
-28 -25 -54 -10 -78 8 -12 18 -7 57 32 26 26 75 62 108 79 33 18 80 43 104 55
54 29 67 29 108 5 40 -25 50 -66 28 -116 -21 -51 -12 -55 19 -8 58 84 11 173
-90 173 -37 0 -78 -18 -129 -55 -42 -31 -62 -36 -75 -19 -9 10 -10 17 -1 28 9
10 8 16 -4 26 -12 10 -16 8 -25 -14 -6 -16 -17 -26 -30 -26 -29 0 -25 11 23
57 47 46 87 68 167 94 51 17 53 18 20 18 -19 0 -55 -7 -80 -16z"/>
<path d="M836 3508 c-19 -72 10 -164 68 -222 23 -23 107 -85 187 -139 134 -90
179 -133 164 -156 -2 -5 -28 0 -57 10 -29 10 -66 18 -83 18 -27 0 -24 -3 30
-31 33 -17 75 -42 93 -56 42 -32 54 -21 60 51 4 49 1 57 -24 84 -16 17 -96 72
-178 123 -81 52 -163 109 -182 128 -43 45 -67 108 -62 166 3 48 -5 62 -16 24z"/>
<path d="M5581 3477 c-2 -111 -46 -161 -256 -292 -168 -104 -195 -130 -195
-186 0 -33 11 -70 25 -87 2 -2 25 13 52 32 27 19 69 44 94 55 l44 20 -32 0
c-18 1 -53 -6 -78 -14 -25 -9 -50 -13 -55 -10 -19 12 19 62 72 96 128 80 279
194 303 228 42 61 57 145 35 196 -6 14 -9 4 -9 -38z"/>
<path d="M356 3498 c-13 -49 -8 -57 27 -52 46 8 166 -20 240 -55 105 -50 252
-171 346 -286 l33 -40 -23 45 c-34 62 -209 242 -288 294 -81 54 -167 91 -245
105 -80 15 -83 14 -90 -11z"/>
<path d="M5950 3504 c-120 -32 -231 -100 -346 -211 -69 -67 -138 -152 -160
-197 l-15 -31 28 35 c135 168 312 295 468 335 32 8 81 15 107 15 50 0 53 4 42
48 -8 27 -41 28 -124 6z"/>
<path d="M350 3326 l0 -33 88 -6 c48 -4 121 -16 162 -27 86 -23 100 -24 100
-10 0 20 -164 91 -231 100 -112 16 -119 15 -119 -24z"/>
<path d="M5940 3349 c-56 -11 -112 -33 -168 -66 -68 -39 -39 -46 72 -18 58 15
127 25 167 25 64 0 69 1 75 24 3 14 3 30 -1 35 -7 13 -81 13 -145 0z"/>
<path d="M376 3191 c-3 -5 -1 -23 5 -41 9 -26 16 -31 33 -26 11 4 57 11 101
17 97 14 105 16 105 27 0 20 -233 42 -244 23z"/>
<path d="M5862 3188 c-44 -8 -51 -12 -41 -24 6 -8 30 -14 53 -14 36 0 100 -11
147 -26 10 -3 20 5 27 21 23 51 18 55 -60 54 -40 -1 -97 -6 -126 -11z"/>
</g>
</svg>
