<svg width="25" height="24" viewBox="0 0 25 24" fill="none" xmlns="http://www.w3.org/2000/svg">
<path d="M21.5094 17.1449C21.1767 17.9135 20.7829 18.6211 20.3266 19.2715C19.7047 20.1583 19.1954 20.7721 18.803 21.113C18.1946 21.6724 17.5428 21.959 16.8448 21.9753C16.3437 21.9753 15.7394 21.8327 15.036 21.5434C14.3302 21.2555 13.6816 21.113 13.0886 21.113C12.4667 21.113 11.7996 21.2555 11.0861 21.5434C10.3716 21.8327 9.79591 21.9834 9.35579 21.9984C8.68644 22.0269 8.01926 21.7322 7.35331 21.113C6.92826 20.7422 6.39661 20.1067 5.75972 19.2063C5.07638 18.2449 4.51459 17.13 4.07447 15.8589C3.60311 14.486 3.36682 13.1565 3.36682 11.8694C3.36682 10.3951 3.6854 9.12345 4.32352 8.05784C4.82502 7.20191 5.4922 6.52672 6.32722 6.03105C7.16224 5.53539 8.06449 5.2828 9.03612 5.26664C9.56777 5.26664 10.265 5.43109 11.1313 5.75429C11.9953 6.07858 12.55 6.24303 12.7932 6.24303C12.9751 6.24303 13.5913 6.05074 14.636 5.66738C15.624 5.31186 16.4578 5.16466 17.1408 5.22264C18.9917 5.37202 20.3823 6.10167 21.3071 7.41619C19.6517 8.4192 18.8329 9.82403 18.8492 11.6262C18.8641 13.03 19.3733 14.1981 20.3742 15.1256C20.8277 15.5561 21.3343 15.8888 21.8978 16.1251C21.7756 16.4795 21.6466 16.819 21.5094 17.1449ZM17.2644 0.440369C17.2644 1.54062 16.8624 2.56792 16.0612 3.51878C15.0943 4.64917 13.9249 5.30236 12.6566 5.19929C12.6405 5.06729 12.6311 4.92837 12.6311 4.78239C12.6311 3.72615 13.0909 2.59576 13.9075 1.67152C14.3151 1.20356 14.8336 0.814453 15.4624 0.504058C16.0897 0.198295 16.6832 0.0292007 17.2413 0.000244141C17.2576 0.147331 17.2644 0.294426 17.2644 0.440355V0.440369Z" fill="black"/>
</svg>
