<svg width="60" height="60" viewBox="0 0 60 60" fill="none" xmlns="http://www.w3.org/2000/svg">
	<defs>
		<linearGradient id="paint0_linear_456827" x1="45.6605" y1="50" x2="45.6605" y2="10" gradientUnits="userSpaceOnUse">
			<stop stop-color="#3D8BE8"/>
			<stop offset="1" stop-color="#89BEEC"/>
		</linearGradient>
	</defs>
	<circle cx="30" cy="30" r="30" fill="#89BEEC" fill-opacity="0.1"/>
	<path fill-rule="evenodd" clip-rule="evenodd" d="M30.0001 10C30.5524 10 31.0001 10.4477 31.0001 11V13C31.0001 13.5523 30.5524 14 30.0001 14C29.4478 14 29.0001 13.5523 29.0001 13V11C29.0001 10.4477 29.4478 10 30.0001 10ZM21.0001 28C21.0001 23.0294 25.0295 19 30.0001 19C34.9707 19 39.0001 23.0294 39.0001 28C39.0001 29.1906 38.4197 30.9783 37.4309 33.0926C36.535 35.0084 35.3624 37.0731 34.1773 39H34.0001V31.0004V31C34.0001 30.8059 33.9448 30.6248 33.8491 30.4714L30.8576 25.4855C30.6769 25.1843 30.3514 25 30.0001 25C29.6488 25 29.3233 25.1843 29.1426 25.4855L26.1511 30.4714C26.0558 30.6242 26.0005 30.8045 26.0001 30.9978C26.0001 30.9985 26.0001 30.9993 26.0001 31V31.0006V39H25.8229C24.6378 37.0731 23.4652 35.0084 22.5693 33.0926C21.5806 30.9783 21.0001 29.1906 21.0001 28ZM28.0001 32V39H32.0001V32H28.0001ZM28.7663 30H31.2339L30.0001 27.9437L28.7663 30ZM27.0001 41H26.0001V44H34.0001V41H33.0001H27.0001ZM24.0088 39.8677C22.8384 37.955 21.6687 35.888 20.7576 33.9398C19.7598 31.8063 19.0001 29.6687 19.0001 28C19.0001 21.9249 23.925 17 30.0001 17C36.0752 17 41.0001 21.9249 41.0001 28C41.0001 29.6687 40.2404 31.8063 39.2426 33.9398C38.3315 35.888 37.1618 37.955 35.9914 39.8677C35.9971 39.911 36.0001 39.9551 36.0001 40V45C36.0001 45.5523 35.5524 46 35.0001 46H34.0001C34.0001 48.2091 32.2092 50 30.0001 50C27.791 50 26.0001 48.2091 26.0001 46H25.0001C24.4478 46 24.0001 45.5523 24.0001 45V40C24.0001 39.9551 24.0031 39.911 24.0088 39.8677ZM30.0001 48C28.8955 48 28.0001 47.1046 28.0001 46H32.0001C32.0001 47.1046 31.1047 48 30.0001 48ZM15.5577 19.1699C15.0992 18.8619 14.4779 18.984 14.17 19.4424C13.862 19.9009 13.9841 20.5222 14.4425 20.8301L16.1028 21.9452C16.5613 22.2532 17.1826 22.1311 17.4905 21.6727C17.7985 21.2142 17.6764 20.5929 17.2179 20.285L15.5577 19.1699ZM45.4905 19.4424C45.1826 18.984 44.5613 18.8619 44.1028 19.1699L42.4425 20.285C41.9841 20.5929 41.862 21.2142 42.17 21.6727C42.4779 22.1311 43.0992 22.2532 43.5577 21.9452L45.2179 20.8301C45.6764 20.5222 45.7985 19.9009 45.4905 19.4424Z" fill="url(#paint0_linear_456827)"/>
</svg>
