<svg width="60" height="60" viewBox="0 0 60 60" fill="none" xmlns="http://www.w3.org/2000/svg">
	<defs>
		<linearGradient id="paint0_linear_456881" x1="49" y1="49" x2="49" y2="16" gradientUnits="userSpaceOnUse">
			<stop stop-color="#3D8BE8"/>
			<stop offset="1" stop-color="#89BEEC"/>
		</linearGradient>
	</defs>
	<circle cx="30" cy="30" r="30" fill="#89BEEC" fill-opacity="0.1"/>
	<path fill-rule="evenodd" clip-rule="evenodd" d="M11 17C11 16.4477 11.4477 16 12 16H48C48.5523 16 49 16.4477 49 17V43C49 43.5523 48.5523 44 48 44H42V48C42 48.3214 41.8455 48.6233 41.5847 48.8112C41.3239 48.9992 40.9887 49.0503 40.6838 48.9487L38 48.0541L35.3162 48.9487C35.0113 49.0503 34.6761 48.9992 34.4153 48.8112C34.1545 48.6233 34 48.3214 34 48V44H12C11.4477 44 11 43.5523 11 43V17ZM34 42V40.4722C32.7725 39.3736 32 37.777 32 36C32 32.6863 34.6863 30 38 30C41.3137 30 44 32.6863 44 36C44 37.777 43.2275 39.3736 42 40.4722V42H47V18H13V42H34ZM40.4174 39.1871C40.4057 39.1956 40.3941 39.2042 40.3828 39.2131C39.7172 39.7075 38.8928 40 38 40C37.1072 40 36.2828 39.7075 35.6172 39.2131C35.6059 39.2042 35.5943 39.1956 35.5826 39.1871C34.6209 38.4566 34 37.3008 34 36C34 33.7909 35.7909 32 38 32C40.2091 32 42 33.7909 42 36C42 37.3008 41.3791 38.4566 40.4174 39.1871ZM36 41.6586C36.6256 41.8797 37.2987 42 38 42C38.7013 42 39.3744 41.8797 40 41.6586V46.6126L38.3162 46.0513C38.111 45.9829 37.889 45.9829 37.6838 46.0513L36 46.6126V41.6586ZM22 22C22 21.4477 22.4477 21 23 21H36C36.5523 21 37 21.4477 37 22C37 22.5523 36.5523 23 36 23H23C22.4477 23 22 22.5523 22 22ZM20 25C19.4477 25 19 25.4477 19 26C19 26.5523 19.4477 27 20 27H40C40.5523 27 41 26.5523 41 26C41 25.4477 40.5523 25 40 25H20ZM16 38C16 37.4477 16.4477 37 17 37H21C21.5523 37 22 37.4477 22 38C22 38.5523 21.5523 39 21 39H17C16.4477 39 16 38.5523 16 38ZM39 36C39 36.5523 38.5523 37 38 37C37.4477 37 37 36.5523 37 36C37 35.4477 37.4477 35 38 35C38.5523 35 39 35.4477 39 36Z" fill="url(#paint0_linear_456881)"/>
</svg>
