<svg width="46" height="45" viewBox="0 0 46 45" fill="none" xmlns="http://www.w3.org/2000/svg">
<path fill-rule="evenodd" clip-rule="evenodd" d="M24.3798 11.2498C24.3798 10.7525 24.1822 10.2756 23.8305 9.92401C23.4788 9.57238 23.0018 9.37488 22.5044 9.37488C22.0071 9.37488 21.53 9.57238 21.1783 9.92401C20.8266 10.2756 20.6291 10.7525 20.6291 11.2498V24.3728C20.6289 24.6191 20.6773 24.863 20.7714 25.0907C20.8656 25.3183 21.0037 25.5251 21.1778 25.6994C21.3519 25.8737 21.5586 26.012 21.7862 26.1064C22.0137 26.2008 22.2577 26.2495 22.5041 26.2496H30.0055C30.2518 26.2496 30.4957 26.2012 30.7232 26.1069C30.9507 26.0127 31.1575 25.8745 31.3316 25.7004C31.5058 25.5263 31.6439 25.3196 31.7382 25.0921C31.8324 24.8647 31.8809 24.6209 31.8809 24.3746C31.8809 24.1284 31.8324 23.8846 31.7382 23.6571C31.6439 23.4296 31.5058 23.2229 31.3316 23.0488C31.1575 22.8747 30.9507 22.7366 30.7232 22.6424C30.4957 22.5482 30.2518 22.4997 30.0055 22.4997H24.3798V11.2498ZM45.0089 22.4997C45.0089 41.2495 41.2581 44.9994 22.5044 44.9994C3.75074 44.9994 0 41.2495 0 22.4997C0 3.74994 3.75112 0 22.5044 0C41.2578 0 45.0089 3.74994 45.0089 22.4997ZM41.2581 22.4997C41.2581 27.1127 41.0225 30.5423 40.4631 33.1352C39.9135 35.6829 39.1061 37.1603 38.1373 38.1289C37.1685 39.0975 35.6912 39.904 33.1418 40.4542C30.5499 41.012 27.1184 41.2495 22.5041 41.2495C17.8897 41.2495 14.459 41.012 11.867 40.4542C9.31729 39.904 7.83923 39.0975 6.87158 38.1289C5.90393 37.1603 5.09535 35.6829 4.54537 33.1352C3.98634 30.5423 3.75074 27.1127 3.75074 22.4997C3.75074 17.8867 3.98634 14.4571 4.54537 11.8642C5.09535 9.31646 5.90242 7.83909 6.87158 6.87051C7.84074 5.90193 9.31729 5.09534 11.867 4.5451C14.459 3.98355 17.8901 3.74994 22.5041 3.74994C27.118 3.74994 30.5499 3.98355 33.1418 4.5451C35.6912 5.09534 37.1693 5.90193 38.1373 6.87051C39.1053 7.83909 39.9135 9.31646 40.4631 11.8642C41.0225 14.4571 41.2581 17.8867 41.2581 22.4997Z" fill="#FFD462"/>
</svg>
