<svg width="36" height="37" viewBox="0 0 36 37" fill="none" xmlns="http://www.w3.org/2000/svg">
<path fill-rule="evenodd" clip-rule="evenodd" d="M24.9365 19.1734C25.2408 18.9228 25.4343 18.5624 25.475 18.1703C25.5158 17.7781 25.4007 17.3857 25.1544 17.0778C24.9082 16.7699 24.5507 16.5714 24.1593 16.525C23.7679 16.4787 23.3739 16.5884 23.0627 16.8303C20.4489 18.9219 18.2076 21.4406 16.4335 24.2799L16.3672 24.386C15.338 23.1852 14.1489 22.1313 12.8332 21.2539C12.5022 21.0388 12.0997 20.963 11.7132 21.0428C11.3266 21.1226 10.987 21.3515 10.7681 21.6801C10.5491 22.0086 10.4685 22.4103 10.5437 22.7979C10.6188 23.1855 10.8437 23.5279 11.1695 23.7507C12.517 24.6491 13.702 25.7702 14.6737 27.066L15.3009 27.903C15.4471 28.0979 15.6386 28.2543 15.8587 28.3586C16.0789 28.4629 16.3211 28.512 16.5645 28.5016C16.8079 28.4913 17.0451 28.4218 17.2556 28.2991C17.4661 28.1765 17.6435 28.0044 17.7726 27.7977L18.977 25.8701C20.5719 23.3177 22.5868 21.0535 24.9365 19.1734ZM10.5023 0C10.9 0 11.2815 0.158038 11.5627 0.439364C11.844 0.72069 12.002 1.10227 12.002 1.50012V1.72603C13.7494 1.56562 15.7387 1.50012 18.0012 1.50012C20.2636 1.50012 22.253 1.56562 24.0001 1.72603V1.50012C24.0001 1.10227 24.1581 0.72069 24.4393 0.439364C24.7206 0.158038 25.102 0 25.4998 0C25.8975 0 26.279 0.158038 26.5602 0.439364C26.8415 0.72069 26.9995 1.10227 26.9995 1.50012V2.14541C34.2889 3.60094 35.9981 7.89932 35.9981 18.7519C35.9981 33.1283 32.9987 36.0036 18.0012 36.0036C3.00365 36.0036 0.00390625 33.1283 0.00390625 18.7519C0.00390625 7.89932 1.71311 3.60094 9.00254 2.14541V1.50012C9.00254 1.10227 9.16055 0.72069 9.4418 0.439364C9.72305 0.158038 10.1045 0 10.5023 0ZM24.0001 4.73989V6.00076C24.0001 6.39861 24.1581 6.78017 24.4393 7.0615C24.7206 7.34282 25.102 7.50088 25.4998 7.50088C25.8975 7.50088 26.279 7.34282 26.5602 7.0615C26.8415 6.78017 26.9995 6.39861 26.9995 6.00076V5.21568C28.7745 5.63627 29.8398 6.22182 30.5483 6.90107C31.3062 7.62732 31.9367 8.73019 32.369 10.65C32.4404 10.9666 32.5051 11.3001 32.5631 11.6507C22.9143 10.133 13.0877 10.133 3.43899 11.6507C3.49719 11.2993 3.56187 10.9658 3.63301 10.65C4.06501 8.73019 4.69618 7.62732 5.45347 6.90107C6.16195 6.22182 7.22755 5.63627 9.00224 5.21568V6.00076C9.00224 6.39861 9.16024 6.78017 9.4415 7.0615C9.72275 7.34282 10.1042 7.50088 10.502 7.50088C10.8997 7.50088 11.2812 7.34282 11.5624 7.0615C11.8437 6.78017 12.0017 6.39861 12.0017 6.00076V4.73989C13.6651 4.57433 15.6414 4.50034 18.0009 4.50034C20.3603 4.50034 22.3369 4.57433 24.0001 4.73989ZM32.369 26.8538C32.8101 24.8927 32.9987 22.2837 32.9987 18.7519C32.9987 17.2578 32.965 15.929 32.8929 14.7443C23.0329 13.1032 12.9695 13.1032 3.10945 14.7443C3.0373 15.929 3.00335 17.2578 3.00335 18.7519C3.00335 22.2837 3.19191 24.8927 3.63301 26.8538C4.06501 28.7736 4.69618 29.8764 5.45347 30.6027C6.22228 31.3395 7.41036 31.9673 9.4688 32.3918C11.5539 32.823 14.3081 33.0037 18.0009 33.0037C21.6936 33.0037 24.4478 32.8218 26.5326 32.3918C28.5914 31.9673 29.7795 31.3398 30.548 30.6027C31.3059 29.8764 31.9367 28.7736 32.369 26.8538Z" fill="#FFD462"/>
</svg>
