<svg width="25" height="24" viewBox="0 0 25 24" fill="none" xmlns="http://www.w3.org/2000/svg">
<g clip-path="url(#clip0_2731_7522)">
<path fill-rule="evenodd" clip-rule="evenodd" d="M11.7528 3.85688C12.0143 3.69999 12.3447 3.71704 12.5887 3.9C12.8971 4.13131 13.3024 4.45406 13.6376 4.78921C14.986 6.13764 15.9521 7.81208 16.3634 9.5877C16.3868 9.6588 16.4084 9.72818 16.4285 9.79635C18.0623 8.77455 19.9867 8.17388 22.0373 8.14575L22.0476 8.1456L22.0676 8.14568C22.5033 8.14568 22.929 8.14568 23.4375 8.23043C23.7449 8.28165 23.9885 8.5176 24.0496 8.82315C24.1389 9.26948 24.1388 9.77963 24.1387 10.1981V10.2368C24.1387 16.0897 19.3327 20.8957 13.4798 20.8957H12.1388H10.8029C4.94227 20.9731 0.138683 16.1604 0.138683 10.3112C0.138683 10.2985 0.13868 10.2856 0.138677 10.2726C0.13859 9.8541 0.138484 9.34395 0.22775 8.89763C0.28886 8.59208 0.532529 8.35613 0.839887 8.3049C1.34837 8.22015 1.77402 8.22015 2.2097 8.22023H2.22974C4.30094 8.22023 6.22683 8.79818 7.85581 9.80025C8.23568 8.13383 9.04006 6.5544 10.2704 5.23705C10.3519 5.11295 10.4407 5.02511 10.4813 4.98493C10.4849 4.9814 10.488 4.97825 10.4908 4.97546C10.5042 4.96203 10.5137 4.95225 10.52 4.94561C10.5529 4.88849 10.5932 4.83589 10.6398 4.78921C10.6472 4.78183 10.6546 4.7744 10.6621 4.76692C10.9465 4.48238 11.3004 4.12833 11.7528 3.85688ZM9.19696 10.7776C10.4876 11.8823 11.5058 13.2902 12.1431 14.8915C12.7895 13.2833 13.8213 11.8689 15.1217 10.756C15.0719 10.5098 15.0138 10.282 14.9288 10.0269C14.921 10.0036 14.9144 9.97995 14.909 9.95595C14.5706 8.46675 13.7525 7.02548 12.5769 5.84987C12.4412 5.71421 12.2843 5.57522 12.1244 5.4427C12.0099 5.54388 11.8929 5.65808 11.7639 5.78657C11.6846 5.90432 11.6003 5.9878 11.561 6.02666C11.5574 6.03019 11.5542 6.03335 11.5514 6.03613C11.538 6.04957 11.5286 6.05934 11.5223 6.06599C11.4926 6.11754 11.4569 6.16543 11.4159 6.20862C10.1883 7.50075 9.44791 9.09938 9.19696 10.7776ZM16.3751 11.6662C14.2547 13.3452 12.8887 15.9193 12.8887 18.8046V19.3957H13.4798C18.5042 19.3957 22.6387 15.2613 22.6387 10.2368C22.6387 10.0214 22.6381 9.8277 22.6319 9.65355C22.4555 9.64605 22.2701 9.64568 22.0529 9.64568C19.937 9.67583 17.9825 10.4113 16.4269 11.6255C16.4102 11.6398 16.3931 11.6534 16.3751 11.6662ZM11.3887 18.8046C11.3887 13.7838 7.33247 9.72023 2.22974 9.72023C2.01026 9.72023 1.82321 9.72053 1.64552 9.7281C1.63931 9.90218 1.63868 10.0959 1.63868 10.3112C1.63868 15.3378 5.77284 19.4645 10.7873 19.3958L10.7976 19.3956L11.3887 19.3957V18.8046Z" fill="#ED994E"/>
</g>
<defs>
<clipPath id="clip0_2731_7522">
<rect width="24" height="24" fill="white" transform="translate(0.138672)"/>
</clipPath>
</defs>
</svg>
