<svg width="30" height="30" viewBox="0 0 30 30" fill="none" xmlns="http://www.w3.org/2000/svg">
<rect width="30" height="30" rx="12" fill="url(#paint0_linear_4026_6382)"/>
<g clip-path="url(#clip0_4026_6382)">
<path d="M16.8702 14.3416H18.5521L18.3327 12.7131H16.738L16.8702 14.3416Z" fill="white"/>
<path d="M16.6979 12.2074H18.2616L18.0169 10.4243H16.5601L16.6979 12.2074Z" fill="white"/>
<path d="M16.5183 9.92059H17.9499L17.708 8.13184H16.3777L16.5183 9.92059Z" fill="white"/>
<path d="M17.6344 7.62844L17.4151 6H16.2085L16.3379 7.62844H17.6344Z" fill="white"/>
<path d="M13.6213 8.13184H12.2909L12.0491 9.92059H13.4806L13.6213 8.13184Z" fill="white"/>
<path d="M13.7914 6H12.5849L12.3655 7.62844H13.6649L13.7914 6Z" fill="white"/>
<path d="M13.7783 12.5137L13.6377 14.3419H16.3574L16.2168 12.5137C16.215 12.4941 16.215 12.4743 16.2168 12.4547L16.0368 10.2187C16.0352 10.201 16.0352 10.1831 16.0368 10.1653L15.8596 7.91531C15.858 7.89753 15.858 7.87965 15.8596 7.86187L15.6993 6H14.293L14.1552 7.87875C14.1566 7.89747 14.1566 7.91628 14.1552 7.935L13.9808 10.185C13.9823 10.2028 13.9823 10.2207 13.9808 10.2384L13.8036 12.4884C13.7957 12.4974 13.7872 12.5058 13.7783 12.5137ZM14.8668 6.85781H15.1311C15.1664 6.85408 15.2021 6.8578 15.2359 6.86875C15.2696 6.8797 15.3007 6.89762 15.3271 6.92136C15.3535 6.9451 15.3746 6.97412 15.389 7.00653C15.4034 7.03895 15.4109 7.07404 15.4109 7.10953C15.4109 7.14502 15.4034 7.18011 15.389 7.21253C15.3746 7.24495 15.3535 7.27397 15.3271 7.2977C15.3007 7.32144 15.2696 7.33936 15.2359 7.35031C15.2021 7.36126 15.1664 7.36499 15.1311 7.36125H14.8668C14.8315 7.36499 14.7958 7.36126 14.762 7.35031C14.7283 7.33936 14.6972 7.32144 14.6708 7.2977C14.6444 7.27397 14.6233 7.24495 14.6089 7.21253C14.5945 7.18011 14.587 7.14502 14.587 7.10953C14.587 7.07404 14.5945 7.03895 14.6089 7.00653C14.6233 6.97412 14.6444 6.9451 14.6708 6.92136C14.6972 6.89762 14.7283 6.8797 14.762 6.86875C14.7958 6.8578 14.8315 6.85408 14.8668 6.85781ZM14.7008 8.89687H15.2971C15.3324 8.89314 15.368 8.89687 15.4018 8.90781C15.4356 8.91876 15.4666 8.93669 15.493 8.96042C15.5194 8.98416 15.5405 9.01318 15.5549 9.0456C15.5694 9.07801 15.5768 9.1131 15.5768 9.14859C15.5768 9.18408 15.5694 9.21917 15.5549 9.25159C15.5405 9.28401 15.5194 9.31303 15.493 9.33676C15.4666 9.3605 15.4356 9.37842 15.4018 9.38937C15.368 9.40032 15.3324 9.40405 15.2971 9.40031H14.7008C14.6655 9.40405 14.6298 9.40032 14.5961 9.38937C14.5623 9.37842 14.5313 9.3605 14.5049 9.33676C14.4785 9.31303 14.4574 9.28401 14.443 9.25159C14.4285 9.21917 14.4211 9.18408 14.4211 9.14859C14.4211 9.1131 14.4285 9.07801 14.443 9.0456C14.4574 9.01318 14.4785 8.98416 14.5049 8.96042C14.5313 8.93669 14.5623 8.91876 14.5961 8.90781C14.6298 8.89687 14.6655 8.89314 14.7008 8.89687ZM14.5743 10.9387H15.418C15.4851 10.9387 15.5495 10.9654 15.597 11.0129C15.6445 11.0604 15.6711 11.1247 15.6711 11.1919C15.6711 11.259 15.6445 11.3234 15.597 11.3709C15.5495 11.4183 15.4851 11.445 15.418 11.445H14.5743C14.5071 11.445 14.4427 11.4183 14.3953 11.3709C14.3478 11.3234 14.3211 11.259 14.3211 11.1919C14.3211 11.1247 14.3478 11.0604 14.3953 11.0129C14.4427 10.9654 14.5071 10.9387 14.5743 10.9387ZM14.4364 12.9778H15.5614C15.6286 12.9778 15.693 13.0045 15.7404 13.052C15.7879 13.0994 15.8146 13.1638 15.8146 13.2309C15.8146 13.2981 15.7879 13.3625 15.7404 13.4099C15.693 13.4574 15.6286 13.4841 15.5614 13.4841H14.4364C14.3693 13.4841 14.3049 13.4574 14.2575 13.4099C14.21 13.3625 14.1833 13.2981 14.1833 13.2309C14.1833 13.1638 14.21 13.0994 14.2575 13.052C14.3049 13.0045 14.3693 12.9778 14.4364 12.9778Z" fill="white"/>
<path d="M13.2611 12.7131H11.6664L11.447 14.3416H13.1289L13.2611 12.7131Z" fill="white"/>
<path d="M13.4386 10.4243H11.9817L11.7371 12.2074H13.3008L13.4386 10.4243Z" fill="white"/>
<path d="M18.7179 14.8452L11.262 14.8537L10.7417 15.4415H19.2579L18.7179 14.8452Z" fill="white"/>
<path d="M23.3918 17.084H19.2715V17.7618H23.3918V17.084Z" fill="white"/>
<path d="M10.7268 17.084H6.60645V17.7618H10.7268V17.084Z" fill="white"/>
<path d="M23.5339 23.2718H23.0051V18.3246H19.2729V23.2718H18.7104V15.9312H11.2911V23.2718H10.7286V18.3246H6.99637V23.2718H6.46762C6.37655 23.2798 6.29178 23.3216 6.23003 23.389C6.16828 23.4565 6.13403 23.5446 6.13403 23.636C6.13403 23.7274 6.16828 23.8155 6.23003 23.8829C6.29178 23.9504 6.37655 23.9922 6.46762 24.0002H23.5339C23.6249 23.9922 23.7097 23.9504 23.7715 23.8829C23.8332 23.8155 23.8675 23.7274 23.8675 23.636C23.8675 23.5446 23.8332 23.4565 23.7715 23.389C23.7097 23.3216 23.6249 23.2798 23.5339 23.2718ZM9.4995 22.2424H8.22825V20.2737C8.22825 20.1051 8.29521 19.9434 8.41442 19.8242C8.53362 19.705 8.69529 19.638 8.86387 19.638C9.03245 19.638 9.19412 19.705 9.31333 19.8242C9.43253 19.9434 9.4995 20.1051 9.4995 20.2737V22.2424ZM16.452 23.2718H13.5495V19.5987C13.5495 19.4081 13.587 19.2194 13.66 19.0433C13.7329 18.8672 13.8398 18.7072 13.9746 18.5725C14.1093 18.4377 14.2693 18.3308 14.4454 18.2579C14.6215 18.1849 14.8102 18.1474 15.0007 18.1474C15.1913 18.1474 15.38 18.1849 15.5561 18.2579C15.7322 18.3308 15.8922 18.4377 16.0269 18.5725C16.1617 18.7072 16.2686 18.8672 16.3415 19.0433C16.4145 19.2194 16.452 19.4081 16.452 19.5987V23.2718ZM21.7732 22.2424H20.502V20.2737C20.502 20.1051 20.569 19.9434 20.6882 19.8242C20.8074 19.705 20.969 19.638 21.1376 19.638C21.3062 19.638 21.4679 19.705 21.5871 19.8242C21.7063 19.9434 21.7732 20.1051 21.7732 20.2737V22.2424Z" fill="white"/>
</g>
<defs>
<linearGradient id="paint0_linear_4026_6382" x1="-11.1667" y1="-12.25" x2="37.1971" y2="-1.28255" gradientUnits="userSpaceOnUse">
<stop stop-color="#3D8BE8"/>
<stop offset="1" stop-color="#89BEEC"/>
</linearGradient>
<clipPath id="clip0_4026_6382">
<rect width="18" height="18" fill="white" transform="translate(6 6)"/>
</clipPath>
</defs>
</svg>
