<svg width="12" height="12" viewBox="0 0 12 12" fill="none" xmlns="http://www.w3.org/2000/svg">
<g id="fi_4005155">
<g id="Group">
<path id="Vector" d="M8.00778 2.00772C5.80643 2.00772 4.0155 3.79865 4.0155 5.99999C4.0155 8.20134 5.80643 9.99227 8.00778 9.99227C10.2091 9.99227 12.0001 8.20134 12.0001 5.99999C12.0001 3.79865 10.2091 2.00772 8.00778 2.00772ZM8.00778 9.28914C6.19414 9.28914 4.71863 7.81364 4.71863 5.99999C4.71863 4.18635 6.19414 2.71085 8.00778 2.71085C9.82142 2.71085 11.2969 4.18635 11.2969 5.99999C11.2969 7.81364 9.82142 9.28914 8.00778 9.28914Z" fill="#7D7D7D"/>
<path id="Vector_2" d="M0.833984 3.64212H3.03052V4.34525H0.833984V3.64212Z" fill="#7D7D7D"/>
<path id="Vector_3" d="M0.833984 7.65472H3.03052V8.35785H0.833984V7.65472Z" fill="#7D7D7D"/>
<path id="Vector_4" d="M0 5.64844H3.03047V6.35156H0V5.64844Z" fill="#7D7D7D"/>
<path id="Vector_5" d="M8.00772 4.85759C8.22576 4.85759 8.40313 5.03496 8.40313 5.253H9.10626C9.10626 4.77021 8.79306 4.35947 8.35928 4.2125V3.64111H7.65616V4.2125C7.22238 4.35947 6.90918 4.77021 6.90918 5.253C6.90918 5.85875 7.40198 6.35154 8.00772 6.35154C8.22576 6.35154 8.40313 6.52892 8.40313 6.74696C8.40313 6.965 8.22576 7.14237 8.00772 7.14237C7.78968 7.14237 7.6123 6.965 7.6123 6.74696H6.90918C6.90918 7.22975 7.22238 7.64049 7.65616 7.78746V8.35885H8.35928V7.78746C8.79306 7.64049 9.10626 7.22975 9.10626 6.74696C9.10626 6.14122 8.61346 5.64842 8.00772 5.64842C7.78968 5.64842 7.6123 5.47104 7.6123 5.253C7.6123 5.03496 7.78968 4.85759 8.00772 4.85759Z" fill="#7D7D7D"/>
</g>
</g>
</svg>
