<svg width="60" height="60" viewBox="0 0 60 60" fill="none" xmlns="http://www.w3.org/2000/svg">
	<defs>
		<linearGradient id="paint0_linear_456854" x1="55" y1="43" x2="55" y2="19" gradientUnits="userSpaceOnUse">
			<stop stop-color="#3D8BE8"/>
			<stop offset="1" stop-color="#89BEEC"/>
		</linearGradient>
	</defs>
	<circle cx="30" cy="30" r="30" fill="#89BEEC" fill-opacity="0.1"/>
	<path fill-rule="evenodd" clip-rule="evenodd" d="M13 25C14.1046 25 15 24.1046 15 23C15 21.8954 14.1046 21 13 21C11.8954 21 11 21.8954 11 23C11 24.1046 11.8954 25 13 25ZM17 23C17 23.9918 16.639 24.8994 16.0412 25.5984C18.6864 26.6864 20.62 29.1511 20.95 32.1006C22.3471 30.8361 24.0432 29.896 25.9197 29.399C24.7389 28.3033 24 26.7379 24 25C24 21.6863 26.6863 19 30 19C33.3137 19 36 21.6863 36 25C36 26.7379 35.2611 28.3033 34.0803 29.399C35.9568 29.896 37.6529 30.8361 39.05 32.1006C39.38 29.1511 41.3136 26.6864 43.9588 25.5983C43.361 24.8994 43 23.9918 43 23C43 20.7909 44.7909 19 47 19C49.2091 19 51 20.7909 51 23C51 23.9918 50.639 24.8994 50.0412 25.5983C52.9512 26.7953 55 29.6584 55 33V33.3077C55 33.69 54.69 34 54.3077 34H40.7479C42.1652 35.9702 43 38.3876 43 41V42C43 42.5523 42.5523 43 42 43H18C17.4477 43 17 42.5523 17 42V41C17 38.3876 17.8348 35.9702 19.2521 34H5.69231C5.30996 34 5 33.69 5 33.3077V33C5 29.6584 7.04879 26.7953 9.95875 25.5984C9.36099 24.8994 9 23.9918 9 23C9 20.7909 10.7909 19 13 19C15.2091 19 17 20.7909 17 23ZM30 29C32.2091 29 34 27.2091 34 25C34 22.7909 32.2091 21 30 21C27.7909 21 26 22.7909 26 25C26 27.2091 27.7909 29 30 29ZM30 31H29C23.4772 31 19 35.4772 19 41H41C41 35.4772 36.5228 31 31 31H30ZM7.08296 32C7.55904 29.1623 10.027 27 13 27C15.973 27 18.441 29.1623 18.917 32H7.08296ZM47 27C49.973 27 52.441 29.1623 52.917 32H41.083C41.559 29.1623 44.027 27 47 27ZM47 25C48.1046 25 49 24.1046 49 23C49 21.8954 48.1046 21 47 21C45.8954 21 45 21.8954 45 23C45 24.1046 45.8954 25 47 25Z" fill="url(#paint0_linear_456854)"/>
</svg>
