<svg width="40" height="41" viewBox="0 0 40 41" fill="none" xmlns="http://www.w3.org/2000/svg">
<path fill-rule="evenodd" clip-rule="evenodd" d="M39.1183 14.0076C36.0116 3.32671 23.1657 -2.86909 12.7526 1.32098C12.644 1.36637 12.5424 1.42319 12.4375 1.47709C9.51886 2.53859 6.95118 4.38754 5.01903 6.81896C1.23463 11.5253 -0.778988 17.094 0.281438 23.1763C2.52257 36.0245 16.7325 43.7295 28.7152 38.1863C37.9453 33.9168 41.8999 23.5735 39.1183 14.0076ZM30.2912 35.599C30.2913 35.599 30.2914 35.5992 30.2913 35.5993C29.5112 36.1052 28.6937 36.5477 27.8465 36.9234C27.0829 37.262 26.5823 36.4137 27.2121 35.8648C29.9234 33.5016 32.9024 31.4479 35.8333 29.3592C35.9033 29.3093 36.0015 29.3498 36.0199 29.4338V29.4338C36.0262 29.4626 36.0215 29.4913 36.007 29.5169C34.615 31.9714 32.6551 34.057 30.2912 35.5988C30.291 35.5989 30.2911 35.599 30.2912 35.599V35.599ZM26.0334 30.0926C26.0335 30.0926 26.0335 30.0927 26.0334 30.0928C23.856 31.3573 21.7479 33.273 20.0582 35.2356C19.9038 35.415 19.6866 35.5362 19.4499 35.5328V35.5328C18.8312 35.524 18.6523 34.7957 19.0709 34.34C21.8739 31.2887 24.964 28.5141 28.2985 26.0548C28.8156 25.6735 29.5569 25.8911 30.113 26.2129V26.2129C30.467 26.4178 30.8727 26.5159 31.2812 26.4955C31.9444 26.4382 32.6025 26.3311 33.2497 26.175V26.175C33.3723 26.1472 33.4313 26.2958 33.329 26.3689C29.7358 28.9342 26.2383 31.6307 23.0241 34.6571C22.4073 35.2379 21.4801 35.3219 20.6403 35.4345V35.4345V35.4345C20.5737 35.4437 20.5343 35.3559 20.5841 35.3107C21.2746 34.6825 21.9064 33.9574 22.562 33.3438C23.7186 32.2629 24.9617 31.2898 26.1575 30.2544C26.174 30.2364 26.1837 30.2131 26.1847 30.1887C26.1858 30.1643 26.1782 30.1403 26.1633 30.121C26.1484 30.1016 26.1272 30.0882 26.1033 30.083C26.0796 30.0779 26.0548 30.0811 26.0333 30.0924C26.0332 30.0924 26.0333 30.0926 26.0334 30.0926V30.0926ZM11.5906 36.1948C11.5907 36.1948 11.5908 36.1946 11.5907 36.1945C11.4982 36.1462 11.4087 36.0946 11.3182 36.0436C11.2768 36.0202 11.266 35.9651 11.296 35.9281C12.5045 34.4344 13.7463 32.9723 15.0294 31.5444C15.7533 30.7387 16.7701 30.2962 17.7569 29.8499C18.745 29.4031 19.5135 28.6441 19.8199 27.3523V27.3523C19.8263 27.3226 19.8268 27.2923 19.8336 27.2628C19.8392 27.2389 19.8435 27.2148 19.8465 27.1905V27.1905C19.85 26.8301 19.978 26.4759 20.2424 26.231C20.8055 25.7095 21.3758 25.196 21.9541 24.6914C23.2506 23.5603 25.1393 23.2564 26.629 22.3955C26.8313 22.2786 27.0187 22.1496 27.185 22.0132C28.0484 21.3058 28.892 20.3114 29.206 19.2767C29.2168 19.2412 29.2465 19.2155 29.2797 19.199V19.199C30.3822 18.5108 31.5104 17.87 32.6601 17.2672C33.0631 17.0559 33.5584 17.2689 33.6385 17.7169V17.7169C33.6889 17.998 33.5505 18.2755 33.307 18.4247C27.1066 22.225 21.2749 26.6483 16.4418 32.0855C15.5045 33.1399 13.9999 33.5651 12.8477 34.3792V34.3792C12.2278 34.8173 11.7825 35.4602 11.5904 36.1946C11.5904 36.1947 11.5905 36.1948 11.5906 36.1948V36.1948ZM9.90288 35.1905C9.90295 35.1905 9.90302 35.1905 9.90306 35.1904C10.4239 34.3706 10.8857 33.6245 11.0812 32.626C11.482 30.5863 13.1606 30.5664 14.9393 30.4501V30.4501C15.054 30.441 15.1206 30.5773 15.0431 30.6624C13.5969 32.2489 12.1991 33.8782 10.8499 35.5505C10.7775 35.6402 10.6502 35.6637 10.5517 35.6039C10.3319 35.4708 10.1163 35.3326 9.90276 35.1909C9.90257 35.1908 9.90266 35.1905 9.90288 35.1905V35.1905ZM20.0231 20.1039C20.0233 20.1039 20.0233 20.1041 20.0232 20.1042C19.184 20.736 18.1577 21.3639 17.3426 22.1314C17.0225 22.4328 16.5593 22.563 16.1596 22.3799V22.3799C15.5472 22.0994 15.4579 21.2989 15.9574 20.847C18.8882 18.1949 22.2071 16.0418 25.5945 14.0038C26.2551 13.6064 27.0993 13.8009 27.8335 14.036V14.036C27.8753 14.0463 27.917 14.056 27.9587 14.065C29.0164 14.2946 29.2739 15.289 28.324 15.8078V15.8078C27.9658 16.0035 27.5353 15.9799 27.1485 15.8496C26.62 15.6714 26.0481 15.6413 25.4965 15.7693C24.8725 15.9402 24.389 16.4783 24.1216 17.0917C23.8635 17.6837 23.6978 18.3394 23.2528 18.8076V18.8076C23.1177 18.9497 22.964 19.0724 22.8021 19.183C21.1046 20.3424 19.4825 21.6084 17.9455 22.9736C17.8568 23.0524 17.7388 23.0721 17.6327 23.0191V23.0191C17.4538 22.9298 17.4018 22.6845 17.5495 22.5496C17.7893 22.3307 18.0331 22.1152 18.2871 21.9054C18.95 21.4082 19.5664 20.8518 20.1285 20.243C20.1875 20.1722 20.1069 20.0419 20.0231 20.1037C20.023 20.1038 20.023 20.1039 20.0231 20.1039V20.1039ZM14.6487 19.738C14.6489 19.738 14.6492 19.7379 14.6494 19.7376C15.5045 18.6799 17.3419 18.8074 18.0695 17.5423C18.1525 17.4095 18.225 17.2715 18.287 17.1295C18.7311 16.1112 19.0442 14.9381 19.9328 14.2713C21.7143 12.9345 23.5749 11.7058 25.5045 10.5919C25.7161 10.4697 25.9808 10.6678 25.9574 10.911V10.911C25.9484 11.0038 25.8971 11.088 25.8162 11.1343C24.5859 11.837 23.3029 12.5238 22.364 13.5707C22.352 13.5835 22.3449 13.6003 22.344 13.6179C22.3432 13.6355 22.3486 13.6528 22.3593 13.6668C22.37 13.6808 22.3854 13.6904 22.4026 13.6941C22.4198 13.6978 22.4378 13.6954 22.4533 13.687C23.4281 13.0828 24.3541 12.4047 25.3356 11.8118C25.3616 11.7964 25.3892 11.7806 25.4182 11.7645C25.65 11.6354 25.9446 11.8065 25.9935 12.0672V12.0672V12.0672C26.1008 12.5283 26.0063 13.0728 25.6001 13.3162C22.0297 15.4561 18.5238 17.7097 15.4481 20.5142C14.9481 20.9701 14.0808 20.8347 14.3499 20.2139C14.4148 20.0641 14.5126 19.9059 14.648 19.7383C14.6481 19.7381 14.6484 19.738 14.6487 19.738V19.738ZM15.4301 2.13243C16.7213 1.9052 18.0282 1.79199 19.3357 1.79321C20.3277 1.79413 20.467 2.71277 19.7135 3.35791V3.35791C19.5076 3.55224 19.3573 3.79801 19.2783 4.0699C18.8199 5.56777 17.8746 6.4076 16.3492 6.52391C14.2046 6.68561 14.2315 4.82736 12.9084 3.93941V3.93941C12.581 3.7089 12.5397 3.10484 12.9104 2.9535C13.7288 2.61937 14.5708 2.34491 15.4301 2.13243ZM24.1109 2.31957C24.1109 2.31957 24.1109 2.31957 24.1109 2.31957C23.922 2.44332 23.7334 2.56757 23.5452 2.69231C23.0393 3.02748 22.9527 2.91593 23.3585 2.46481C23.4236 2.39252 23.4862 2.31694 23.5462 2.23751C23.5592 2.22024 23.5809 2.21156 23.6022 2.2156C23.7716 2.24777 23.9416 2.28236 24.111 2.31951C24.111 2.31952 24.111 2.31957 24.1109 2.31957V2.31957ZM13.1198 6.26571C13.12 6.26571 13.12 6.26592 13.1199 6.26602C12.2555 6.96663 11.4097 7.69114 10.5681 8.42029C10.2851 8.66548 9.83286 8.52855 9.63978 8.20772V8.20772C9.49156 7.96142 9.51359 7.63206 9.73593 7.44988C10.3663 6.93339 10.995 6.41568 11.627 5.90209C11.9915 5.60586 12.5185 5.62884 12.8415 5.96985C12.9341 6.06752 13.0265 6.16628 13.1197 6.26566C13.1197 6.26569 13.1198 6.26571 13.1198 6.26571V6.26571ZM13.5316 6.68279C13.5318 6.68279 13.532 6.68287 13.5321 6.68301C13.7542 6.90478 13.9918 7.11041 14.2431 7.29837V7.29837C14.3346 7.36457 14.352 7.49023 14.2659 7.56318C13.2201 8.44885 12.1932 9.35596 11.185 10.2844C10.8272 10.6139 10.2585 10.4203 10.1765 9.94084V9.94084C10.1393 9.72344 10.2151 9.50137 10.3816 9.35672C11.4218 8.45301 12.462 7.54996 13.5312 6.68296C13.5313 6.68285 13.5315 6.68279 13.5316 6.68279V6.68279ZM15.0424 7.67002C15.0425 7.67002 15.0426 7.67003 15.0427 7.67005C15.0589 7.67393 15.0751 7.67771 15.0913 7.68139C15.5037 7.77519 15.7323 8.41 15.4087 8.68235C14.0949 9.78826 12.8335 10.9552 11.6288 12.1794C11.3457 12.467 10.8697 12.4722 10.6851 12.1133V12.1133C10.5612 11.8725 10.6435 11.5862 10.8409 11.4008C12.2069 10.1183 13.6071 8.87482 15.0417 7.6703C15.0419 7.67012 15.0422 7.67002 15.0424 7.67002V7.67002ZM17.662 7.60755C17.6621 7.60755 17.6622 7.60754 17.6623 7.60752C17.719 7.59619 17.7794 7.58772 17.8341 7.57638C18.292 7.46891 18.7202 7.26086 19.0878 6.96745V6.96745C19.8089 6.39186 20.348 5.59375 21.1025 5.06273C22.228 4.27063 23.3705 3.50178 24.5225 2.74867C24.753 2.598 25.0371 2.55154 25.3016 2.62815V2.62815C26.0684 2.85029 26.1639 3.85101 25.4922 4.28242C21.2976 6.97628 17.2794 9.93636 13.4624 13.1446C13.3085 13.274 13.1177 13.358 12.9166 13.3563V13.3563C12.2465 13.3508 12.0779 12.5555 12.554 12.084C14.1638 10.4901 15.8693 8.99525 17.6612 7.60782C17.6615 7.60764 17.6617 7.60755 17.662 7.60755V7.60755ZM27.7856 3.53383C27.7858 3.53383 27.7859 3.53386 27.7861 3.53392C27.8536 3.56314 27.921 3.59285 27.9883 3.62298C28.293 3.75942 28.5185 4.03747 28.5389 4.37068C28.545 4.47075 28.5471 4.57099 28.5451 4.67116C28.5357 5.14497 28.2204 5.54151 27.809 5.77682C23.9203 8.00145 20.1547 10.4197 16.7592 13.355V13.355C16.7514 13.3632 16.7404 13.3668 16.7297 13.363C16.0082 13.1045 15.2301 13.0458 14.4777 13.1933V13.1933C14.4241 13.2032 14.3942 13.1357 14.4361 13.1008C18.6482 9.59299 23.1096 6.39567 27.785 3.534C27.7852 3.53389 27.7854 3.53383 27.7856 3.53383V3.53383ZM26.4073 9.40041C26.4074 9.40041 26.4074 9.40055 26.4073 9.4006C23.7678 10.8501 21.2474 12.506 18.8695 14.3524C18.6021 14.5601 18.2073 14.4525 18.0219 14.1692V14.1692C17.976 14.099 17.9169 14.0383 17.848 13.9905C17.8312 13.9763 17.8196 13.9622 17.8006 13.948V13.948C17.5809 13.7847 17.5481 13.4529 17.7581 13.2772C20.3831 11.0813 23.2185 9.18196 26.1501 7.4275C26.8098 7.0327 27.4322 7.63836 27.0274 8.29199C26.8034 8.65385 26.5877 9.01986 26.4072 9.40026C26.4071 9.40033 26.4072 9.40041 26.4073 9.40041V9.40041ZM33.2453 16.2118C33.245 16.2118 33.2448 16.2122 33.245 16.2125C33.2465 16.2151 33.2487 16.2194 33.2504 16.2222C33.2508 16.2229 33.2512 16.2236 33.2514 16.2244C33.2524 16.2281 33.2534 16.2318 33.2544 16.2355C33.2633 16.268 33.2483 16.302 33.2182 16.3172C32.2037 16.828 31.2072 17.3711 30.2288 17.9466C29.8346 18.1785 29.3006 17.8862 29.108 17.4714V17.4714C28.9603 17.1532 28.7444 16.8713 28.4758 16.6458V16.6458C28.3944 16.5686 28.402 16.4353 28.5004 16.3814C29.4882 15.8395 30.4846 15.3136 31.4896 14.8037C31.8112 14.6405 32.2067 14.6399 32.4622 14.8945C32.7598 15.1912 33.0237 15.6119 33.2458 16.2112C33.2459 16.2115 33.2456 16.2118 33.2453 16.2118V16.2118ZM23.4775 20.4671C23.6008 19.8537 24.0571 19.4244 24.4548 18.9854C25.0511 18.3271 25.1321 17.1319 25.9858 16.887V16.887C26.8145 16.6515 28.1702 17.6246 28.2392 18.4331C28.2996 19.1395 27.5379 19.8884 27.1223 20.3678C26.6616 20.9012 26.2474 21.3948 25.5751 21.6558C24.5257 22.0671 23.2003 21.8459 23.4775 20.4671ZM21.5494 20.7891C21.8209 20.5868 22.2737 20.8805 22.325 21.2152V21.2152C22.3793 21.5686 22.5162 21.9043 22.7248 22.1948V22.1948C22.9799 22.5061 23.0334 23.0121 22.7243 23.2699C22.1477 23.7507 21.5794 24.2413 21.0185 24.7403C20.4243 25.2688 19.4393 24.9834 18.9997 24.3207V24.3207C18.6641 23.8147 18.6664 23.1118 19.1287 22.7181C19.9145 22.0491 20.7218 21.4058 21.5494 20.7891ZM32.736 19.4743C33.128 19.2286 33.5767 19.5494 33.3343 19.9434V19.9434C33.1339 20.2691 32.8653 20.5474 32.547 20.7593C31.7935 21.3238 30.5841 21.2047 29.9104 21.8515C29.521 22.2196 29.2375 22.6854 29.0892 23.2003V23.2003C28.8231 24.1243 28.5449 25.1425 27.7728 25.7157C24.3514 28.2558 21.187 31.1257 18.3253 34.2843C17.9552 34.6928 17.3505 34.791 16.8945 34.4813V34.4813V34.4813C16.3665 34.1195 16.1236 33.3508 16.5446 32.8688C21.1833 27.5586 26.7656 23.2153 32.736 19.4743ZM33.9931 26.6112C34.3531 26.3553 34.8361 26.2608 35.1351 26.5859V26.5859C35.605 27.0967 35.1779 27.8758 34.5777 28.2242C33.9969 28.5613 33.4362 28.9518 32.9126 29.2615C31.7561 29.8905 30.7209 30.7206 29.8553 31.7126C29.7779 31.8062 29.8817 31.9791 29.9972 31.894C31.0417 31.1394 32.0766 30.3848 33.1717 29.7011C33.9305 29.2279 34.7405 28.8106 35.499 28.3263C35.6365 28.2385 35.8209 28.3147 35.848 28.4755V28.4755C35.8624 28.5609 35.8262 28.6464 35.7557 28.6966C32.0806 31.3186 28.3123 33.8738 25.0751 37.029C24.5788 37.5127 23.786 37.4259 23.386 36.86V36.86C23.0017 36.3162 22.9694 35.5127 23.4546 35.0566C26.74 31.9679 30.318 29.2245 33.9931 26.6112ZM37.1969 13.2672C38.7367 17.2223 38.8977 21.5608 37.6882 25.5901C37.5089 26.1875 36.5209 26.1861 36.0899 25.7352V25.7352C35.1884 24.8737 34.3753 24.7204 33.3725 24.8435C32.6495 24.9323 31.9092 25.1206 31.2095 24.918C30.7092 24.7732 30.4209 24.5025 30.3446 24.106C30.2383 23.5533 30.5254 22.958 31.0443 22.74C31.5346 22.5339 32.1782 22.4113 32.4273 22.3225C33.148 22.0263 33.7877 21.5624 34.2931 20.9693C35.598 19.5934 35.008 17.5282 34.5507 15.9452C34.5433 15.9168 34.5385 15.8884 34.5277 15.8572C33.4752 13.0175 32.0312 12.6402 29.1583 12.8842C25.1699 13.2218 27.9118 9.35224 28.4284 8.61182C28.8369 8.02742 29.3155 7.43443 29.5694 6.75926V6.75926C29.9103 5.95076 30.9638 5.29439 31.6562 5.83326C34.1291 7.75764 36.0495 10.3222 37.1969 13.2672ZM9.93971 4.5251C10.1564 4.38115 10.4243 4.32546 10.6729 4.40216V4.40216C11.3079 4.59809 11.3202 5.39978 10.8051 5.81971C10.2469 6.27479 9.69068 6.73195 9.13306 7.18706C8.96467 7.3245 8.74497 7.34506 8.53982 7.27323V7.27323C8.04059 7.09844 7.62641 6.36993 8.01924 6.01571C8.62142 5.47273 9.26325 4.97444 9.93971 4.5251ZM2.1847 24.6118C0.955226 19.9917 1.7231 15.4078 3.8862 11.3889C4.82264 9.64912 6.9821 7.4505 8.35633 8.87015C8.41062 8.92623 8.4628 8.98841 8.51264 9.05716C8.87037 9.55077 8.90725 10.4728 8.99349 11.0657C9.10839 11.8543 9.33761 12.8841 9.93647 13.477C11.4986 15.0252 13.2283 14.3266 14.9295 14.331C16.3854 14.3347 17.9758 15.8948 16.9609 16.9387C16.2386 17.6816 14.7792 18.0499 14.1688 18.5636C13.358 19.2445 12.8284 20.104 12.9316 21.1848C13.1978 23.9662 17.3875 23.1588 18.406 25.7916C18.7279 26.6238 18.6054 27.6479 17.9466 28.2497C16.4359 29.63 13.1586 29.0193 11.3342 29.8259C10.7306 30.14 10.2737 30.6776 10.061 31.3239V31.3239C9.58938 33.008 7.54973 33.4898 6.36635 32.202C4.39449 30.0561 2.95348 27.4565 2.1847 24.6118ZM16.1553 37.9172C14.0274 37.4101 13.4808 34.0335 15.441 35.0045C16.1557 35.3585 16.8472 35.9879 17.4514 36.3821C17.8917 36.6361 18.3899 36.7728 18.8982 36.7792C20.1819 36.782 21.463 36.3111 22.4905 37.738V37.738C22.6721 37.9893 22.513 38.344 22.2041 38.3702C20.1698 38.5424 18.128 38.3873 16.1553 37.9172Z" fill="#FF8A23"/>
</svg>
