<svg width="60" height="60" viewBox="0 0 60 60" fill="none" xmlns="http://www.w3.org/2000/svg">
	<defs>
		<linearGradient id="paint0_linear_456872" x1="47.9999" y1="49" x2="47.9999" y2="11" gradientUnits="userSpaceOnUse">
			<stop stop-color="#3D8BE8"/>
			<stop offset="1" stop-color="#89BEEC"/>
		</linearGradient>
	</defs>
	<circle cx="30" cy="30" r="30" fill="#89BEEC" fill-opacity="0.1"/>
	<path fill-rule="evenodd" clip-rule="evenodd" d="M29.5 13C22.0442 13 16 19.0442 16 26.5C16 31.7785 19.0293 36.3513 23.4489 38.5714C23.8058 38.7507 24.0087 39.1147 23.9999 39.4892L24 39.5V47H34.5538V42.1406C34.5538 41.5883 35.0016 41.1406 35.5538 41.1406H41.9385V34.3281C41.9385 33.9438 42.1587 33.5935 42.5051 33.4269L45.8019 31.8415C45.7093 31.5314 45.5913 31.1419 45.4513 30.6912C45.0792 29.4936 44.5527 27.8679 43.9342 26.1515C43.3147 24.4323 42.6083 22.6376 41.8776 21.0963C41.4455 20.1847 41.0217 19.399 40.6213 18.7791C40.5538 18.7246 40.4923 18.6604 40.4389 18.5868C37.9842 15.1998 33.999 13 29.5 13ZM14 26.5C14 32.3413 17.2314 37.4263 22 40.0677V48C22 48.5523 22.4477 49 23 49H35.5538C36.1061 49 36.5538 48.5523 36.5538 48V43.1406H42.9385C43.4907 43.1406 43.9385 42.6929 43.9385 42.1406V34.9569L47.4334 33.2762C47.8714 33.0656 48.0943 32.5697 47.962 32.102L47.9614 32.1L47.9514 32.0648L47.9208 31.958C47.8939 31.8649 47.8543 31.7286 47.8029 31.5544C47.7001 31.2062 47.5503 30.7065 47.3612 30.0978C46.9833 28.8814 46.4473 27.2259 45.8158 25.4735C45.1853 23.7239 44.4542 21.8624 43.6849 20.2396C42.9304 18.6481 42.0885 17.1742 41.2071 16.2929C41.1592 16.2449 41.1076 16.2029 41.0532 16.1667C38.2162 12.997 34.0913 11 29.5 11C20.9396 11 14 17.9396 14 26.5ZM26.2012 17.9186L26.8169 17.1374C28.0121 15.6209 30.2844 15.6209 31.4797 17.1374L32.0953 17.9186H34.1243C35.7732 17.9186 37.1099 19.2754 37.1099 20.9491V23.0086L37.8795 23.6335C39.3735 24.8467 39.3735 27.1533 37.8795 28.3665L37.1099 28.9914V31.0509C37.1099 32.7246 35.7732 34.0814 34.1243 34.0814H32.0953L31.4797 34.8626C30.2844 36.3791 28.0121 36.3791 26.8169 34.8626L26.2012 34.0814H24.1723C22.5234 34.0814 21.1867 32.7246 21.1867 31.0509V29.1016L20.3295 28.5216C18.5568 27.322 18.5568 24.678 20.3295 23.4784L21.1867 22.8984V20.9491C21.1867 19.2754 22.5234 17.9186 24.1723 17.9186H26.2012ZM27.4567 19.5598C27.2678 19.7994 26.9819 19.9389 26.6796 19.9389H24.1723C23.6226 19.9389 23.1771 20.3912 23.1771 20.9491V23.439C23.1771 23.7768 23.0108 24.0922 22.7339 24.2795L21.4336 25.1595C20.8427 25.5593 20.8427 26.4407 21.4336 26.8405L22.7339 27.7205C23.0108 27.9078 23.1771 28.2232 23.1771 28.561V31.0509C23.1771 31.6088 23.6226 32.0611 24.1723 32.0611H26.6796C26.9819 32.0611 27.2678 32.2006 27.4567 32.4402L28.3712 33.6005C28.7696 34.106 29.527 34.106 29.9254 33.6005L30.8399 32.4402C31.0287 32.2006 31.3147 32.0611 31.617 32.0611H34.1243C34.6739 32.0611 35.1195 31.6088 35.1195 31.0509V28.5059C35.1195 28.199 35.2569 27.9088 35.493 27.7171L36.6361 26.7888C37.1341 26.3844 37.1341 25.6156 36.6361 25.2112L35.493 24.2829C35.2569 24.0912 35.1195 23.801 35.1195 23.4941V20.9491C35.1195 20.3912 34.6739 19.9389 34.1243 19.9389H31.617C31.3147 19.9389 31.0287 19.7994 30.8399 19.5598L29.9254 18.3995C29.527 17.894 28.7696 17.894 28.3712 18.3995L27.4567 19.5598ZM30 26C30 25.4477 29.5523 25 29 25C28.4477 25 28 25.4477 28 26C28 26.5523 28.4477 27 29 27C29.5523 27 30 26.5523 30 26ZM29 29C27.3431 29 26 27.6569 26 26C26 24.3431 27.3431 23 29 23C30.6569 23 32 24.3431 32 26C32 27.6569 30.6569 29 29 29Z" fill="url(#paint0_linear_456872)"/>
</svg>
