<svg width="20" height="20" viewBox="0 0 20 20" fill="none" xmlns="http://www.w3.org/2000/svg">
<g clip-path="url(#clip0_22_398)">
<path fill-rule="evenodd" clip-rule="evenodd" d="M4.06006 8.72002C4.07132 8.49049 4.13694 8.26693 4.25171 8.06783C4.36647 7.86873 4.52699 7.69981 4.71997 7.57502L8.29004 5.51602C8.36911 5.48817 8.43764 5.43647 8.48608 5.36805C8.53453 5.29962 8.56055 5.21786 8.56055 5.13402C8.56055 5.05019 8.53453 4.96842 8.48608 4.89999C8.43764 4.83157 8.36911 4.77987 8.29004 4.75202L5.46997 3.12902C5.26536 3.0255 5.03936 2.97157 4.81006 2.97157C4.58076 2.97157 4.35475 3.0255 4.15015 3.12902L0.669922 5.13702C0.475516 5.26138 0.313499 5.43012 0.197021 5.62934C0.0805437 5.82857 0.0130107 6.05261 0 6.28302V13.653C0.0134839 13.8832 0.0813122 14.1069 0.197754 14.3059C0.314196 14.5049 0.475871 14.6735 0.669922 14.798L3.39014 16.369C3.45389 16.4248 3.53337 16.4594 3.61768 16.468C3.70198 16.4765 3.78693 16.4586 3.8606 16.4167C3.93426 16.3748 3.99305 16.3111 4.02881 16.2342C4.06457 16.1574 4.07544 16.0714 4.06006 15.988V8.72002ZM9.54004 4.03102C9.74649 4.13433 9.97422 4.18812 10.2051 4.18812C10.4359 4.18812 10.6637 4.13433 10.8701 4.03102L13.49 2.52102C13.5711 2.49545 13.6421 2.44467 13.6924 2.37606C13.7427 2.30746 13.7698 2.2246 13.7698 2.13952C13.7698 2.05445 13.7427 1.97159 13.6924 1.90298C13.6421 1.83437 13.5711 1.7836 13.49 1.75802L10.6699 0.134022C10.4635 0.0304818 10.236 -0.0234375 10.0051 -0.0234375C9.77423 -0.0234375 9.54647 0.0304818 9.34009 0.134022L6.71997 1.64402C6.6409 1.67187 6.57237 1.72357 6.52393 1.792C6.47548 1.86042 6.44946 1.94219 6.44946 2.02602C6.44946 2.10986 6.47548 2.19163 6.52393 2.26005C6.57237 2.32847 6.6409 2.38017 6.71997 2.40802L9.54004 4.03102ZM15.1001 9.44202C15.0868 9.2127 15.0201 8.98963 14.9055 8.79053C14.791 8.59142 14.6315 8.42177 14.4399 8.29502L10.8701 6.23702C10.6639 6.13287 10.4361 6.07861 10.2051 6.07861C9.97406 6.07861 9.74624 6.13287 9.54004 6.23702L5.96997 8.29502C5.7769 8.42018 5.61647 8.58946 5.50171 8.7889C5.38695 8.98833 5.32125 9.2122 5.31006 9.44202V16.708C5.32156 16.9375 5.38745 17.161 5.5022 17.36C5.61694 17.5591 5.77716 17.7281 5.96997 17.853L9.34009 19.797C9.54636 19.9009 9.77416 19.9551 10.0051 19.9551C10.2361 19.9551 10.4636 19.9009 10.6699 19.797L14.4399 17.625C14.6313 17.4983 14.7907 17.3288 14.9053 17.1299C15.0198 16.931 15.0866 16.7082 15.1001 16.479V9.44402V9.44202ZM16.0601 3.24202C15.8555 3.1385 15.6294 3.08457 15.4001 3.08457C15.1708 3.08457 14.9446 3.1385 14.74 3.24202L12.1201 4.75102C12.0386 4.77634 11.9671 4.82707 11.9165 4.89581C11.8659 4.96454 11.8386 5.04766 11.8386 5.13302C11.8386 5.21838 11.8659 5.3015 11.9165 5.37024C11.9671 5.43897 12.0386 5.4897 12.1201 5.51502L15.6899 7.57302C15.8815 7.69955 16.0409 7.86903 16.1555 8.06797C16.2701 8.26691 16.3368 8.48983 16.3501 8.71902V15.757C16.3342 15.8405 16.3446 15.9269 16.3801 16.0041C16.4157 16.0813 16.4745 16.1455 16.5483 16.1877C16.6221 16.2298 16.7072 16.2479 16.7917 16.2394C16.8763 16.2308 16.9562 16.1961 17.02 16.14L19.3501 14.796C19.5416 14.6697 19.7008 14.5004 19.8154 14.3016C19.93 14.1029 19.9967 13.8801 20.01 13.651V6.28202C19.9969 6.0528 19.9303 5.82981 19.8157 5.63085C19.7011 5.43188 19.5418 5.26244 19.3501 5.13602L16.0601 3.24202Z" fill="#FAA929"/>
</g>
<defs>
<clipPath id="clip0_22_398">
<rect width="20" height="19.969" fill="white"/>
</clipPath>
</defs>
</svg>
