<svg width="60" height="60" viewBox="0 0 60 60" fill="none" xmlns="http://www.w3.org/2000/svg">
	<circle cx="30" cy="30" r="30" fill="#89BEEC" fill-opacity="0.1"/>
	<path fill-rule="evenodd" clip-rule="evenodd" d="M31.0001 9C31.0001 8.44772 30.5524 8 30.0001 8C29.4478 8 29.0001 8.44772 29.0001 9V11C29.0001 11.5523 29.4478 12 30.0001 12C30.5524 12 31.0001 11.5523 31.0001 11V9ZM26.9721 25.3395L30 18.775L33.0279 25.3395C33.4649 26.2869 34.3628 26.9392 35.3988 27.0621L42.5777 27.9133L37.2702 32.8215C36.5042 33.5299 36.1612 34.5854 36.3646 35.6087L37.7734 42.6992L31.4653 39.1682C30.5549 38.6586 29.4451 38.6586 28.5347 39.1682L22.2266 42.6992L23.6354 35.6087C23.8388 34.5854 23.4958 33.5299 22.7298 32.8215L17.4223 27.9133L24.6012 27.0621C25.6372 26.9392 26.5351 26.2869 26.9721 25.3395ZM29.0919 15.9687C29.4494 15.1938 30.5506 15.1938 30.9081 15.9687L34.844 24.5018C34.9897 24.8176 35.289 25.0351 35.6343 25.076L44.9661 26.1824C45.8135 26.2829 46.1538 27.3303 45.5273 27.9097L38.6281 34.2899C38.3728 34.526 38.2584 34.8778 38.3262 35.2189L40.1576 44.4359C40.3239 45.2728 39.433 45.9202 38.6883 45.5034L30.4884 40.9134C30.185 40.7435 29.815 40.7435 29.5116 40.9134L21.3116 45.5034C20.567 45.9202 19.6761 45.2728 19.8424 44.4359L21.6738 35.2189C21.7416 34.8778 21.6272 34.526 21.3719 34.2899L14.4727 27.9097C13.8462 27.3303 14.1865 26.2829 15.0339 26.1824L24.3657 25.076C24.711 25.0351 25.0103 24.8176 25.156 24.5018L29.0919 15.9687ZM15.5577 17.1699C15.0992 16.8619 14.4779 16.984 14.17 17.4424C13.862 17.9009 13.9841 18.5222 14.4425 18.8301L16.1028 19.9452C16.5613 20.2532 17.1826 20.1311 17.4905 19.6727C17.7985 19.2142 17.6764 18.5929 17.2179 18.285L15.5577 17.1699ZM45.4905 17.4424C45.1826 16.984 44.5613 16.8619 44.1028 17.1699L42.4425 18.285C41.9841 18.5929 41.862 19.2142 42.17 19.6727C42.4779 20.1311 43.0992 20.2532 43.5577 19.9452L45.2179 18.8301C45.6764 18.5222 45.7985 17.9009 45.4905 17.4424Z" fill="url(#paint0_linear_5383508)"/>
	<defs>
		<linearGradient id="paint0_linear_5383508" x1="45.8496" y1="45.6333" x2="45.8496" y2="8" gradientUnits="userSpaceOnUse">
			<stop stop-color="#3D8BE8"/>
			<stop offset="1" stop-color="#89BEEC"/>
		</linearGradient>
	</defs>
</svg>
