<svg width="25" height="24" viewBox="0 0 25 24" fill="none" xmlns="http://www.w3.org/2000/svg">
<g clip-path="url(#clip0_2731_7537)">
<path d="M16.5168 18.6762C16.3668 18.3762 16.0668 18.0762 15.6918 18.0012L13.9668 17.7762L13.1418 16.2012C12.9168 15.8262 12.5418 15.6762 12.1668 15.6762C11.7918 15.6762 11.4168 15.9012 11.1918 16.2762L10.3668 17.8512L8.71679 18.0012C8.26679 18.0012 7.96679 18.3012 7.81679 18.6762C7.66679 19.0512 7.81679 19.5012 8.11679 19.8012L9.39179 21.0012L9.09179 22.7262C9.01679 23.1762 9.24179 23.5512 9.54179 23.7762C9.84179 24.0012 10.2918 24.0762 10.6668 23.8512L12.2418 23.1012L13.7418 23.8512C14.1918 24.0762 14.6418 24.0012 14.8668 23.7762C15.1668 23.5512 15.3918 23.1762 15.3168 22.7262L15.0168 21.0012L16.2918 19.8012C16.5918 19.5012 16.6668 19.0512 16.5168 18.6762ZM13.8168 20.1012C13.5168 20.4012 13.5168 20.7762 13.5168 20.9262C13.5168 21.0012 13.5168 21.0012 13.5168 21.0762L13.7418 22.2012L12.7668 21.6762C12.4668 21.5262 12.0918 21.5262 11.7918 21.6762L10.6668 22.1262L10.8918 21.0012C10.8918 20.9262 10.8918 20.9262 10.8918 20.8512C10.8918 20.7012 10.8918 20.3262 10.5918 20.0262L9.84179 19.2762L10.8918 19.1262C11.1168 19.1262 11.3418 18.9762 11.4168 18.9012C11.5668 18.8262 11.6418 18.6762 11.7168 18.5262L12.2418 17.5512L12.7668 18.5262C12.9168 18.8262 13.2168 18.9762 13.2918 19.0512C13.3668 19.0512 13.4418 19.1262 13.5168 19.1262L14.5668 19.2762L13.8168 20.1012ZM23.4168 15.3012C23.3418 15.0012 23.1168 14.8512 22.8168 14.7762L21.2418 14.5512L20.5668 13.1262C20.4168 12.9012 20.1918 12.6762 19.8918 12.6762C19.5918 12.6762 19.3668 12.8262 19.2168 13.1262L18.5418 14.5512L17.0418 14.7762C16.7418 14.8512 16.5168 15.0012 16.4418 15.3012C16.3668 15.6012 16.4418 15.9012 16.6668 16.0512L17.7918 17.1012L17.5668 18.6012C17.4918 18.9012 17.6418 19.2012 17.8668 19.3512C18.0918 19.5012 18.3918 19.5762 18.6918 19.4262L20.0418 18.6762L21.3918 19.4262C21.6168 19.5762 21.9918 19.5012 22.2168 19.3512C22.4418 19.2012 22.5918 18.9012 22.5168 18.6012L22.2918 17.1012L23.4168 16.0512C23.4168 15.9012 23.4918 15.6012 23.4168 15.3012ZM20.7918 16.2762C20.5668 16.4262 20.4918 16.7262 20.5668 16.9512L20.6418 17.3262L20.2668 17.1762C20.0418 17.0262 19.8168 17.0262 19.5918 17.1762L19.2168 17.3262L19.2918 16.9512C19.3668 16.7262 19.2918 16.4262 19.0668 16.2762L18.7668 15.9762L19.1418 15.9012C19.3668 15.9012 19.5918 15.6762 19.7418 15.5262L19.8918 15.1512L20.0418 15.5262C20.1168 15.7512 20.3418 15.9012 20.6418 15.9012L21.0168 15.9762L20.7918 16.2762ZM7.89179 15.3012C7.81679 15.0012 7.5918 14.8512 7.2918 14.7762L5.7168 14.5512L5.0418 13.1262C4.9668 12.9012 4.6668 12.7512 4.4418 12.7512C4.1418 12.7512 3.9168 12.9012 3.7668 13.2012L3.0918 14.6262L1.5918 14.8512C1.2918 14.8512 1.0668 15.0012 0.916798 15.3012C0.841796 15.6012 0.916797 15.9012 1.1418 16.0512L2.2668 17.1012L1.9668 18.6012C1.8918 18.9012 2.0418 19.2012 2.2668 19.3512C2.4918 19.5012 2.7918 19.5762 3.0918 19.4262L4.4418 18.6762L5.7918 19.4262C6.0168 19.5762 6.3168 19.5012 6.6168 19.3512C6.8418 19.2012 6.9918 18.9012 6.9168 18.6012L6.6918 17.1012L7.81679 16.0512C7.96679 15.9012 8.04179 15.6012 7.89179 15.3012ZM5.2668 16.2762C5.0418 16.4262 4.9668 16.7262 5.0418 16.9512L5.1168 17.3262L4.7418 17.1762C4.5168 17.0262 4.2918 17.0262 4.0668 17.1762L3.6918 17.3262L3.7668 16.9512C3.8418 16.7262 3.7668 16.4262 3.5418 16.2762L3.2418 15.9762L3.6168 15.9012C3.8418 15.9012 4.0668 15.6762 4.2168 15.5262L4.3668 15.1512L4.5168 15.5262C4.5918 15.7512 4.8168 15.9012 5.1168 15.9012L5.4918 15.9762L5.2668 16.2762ZM12.0918 0.00122641C8.04179 0.00122641 4.7418 3.30123 4.7418 7.35123C4.7418 9.3762 5.5668 11.1762 6.9168 12.5262C8.26679 13.8762 10.1418 14.7012 12.1668 14.7012C14.1918 14.7012 16.1418 13.8762 17.4168 12.5262C18.7668 11.1762 19.5168 9.3762 19.5168 7.35123C19.5918 3.30123 16.2918 -0.0737736 12.0918 0.00122641ZM12.1668 13.2762C10.8168 13.2762 9.61679 12.8262 8.56679 12.0762C9.54179 11.3262 10.8168 10.9512 12.1668 10.9512C13.5168 10.9512 14.7918 11.4012 15.7668 12.0762C14.7168 12.8262 13.5168 13.2762 12.1668 13.2762ZM9.99179 6.22623C9.99179 5.02623 10.9668 4.05123 12.1668 4.05123C13.3668 4.05123 14.3418 5.02623 14.3418 6.22623C14.3418 7.42623 13.3668 8.4012 12.1668 8.4012C10.9668 8.4012 9.99179 7.42623 9.99179 6.22623ZM16.8168 10.9512C15.9168 10.2762 14.8668 9.7512 13.6668 9.5262C14.9418 8.9262 15.8418 7.6512 15.8418 6.15123C15.8418 4.12623 14.1918 2.47623 12.1668 2.47623C10.1418 2.47623 8.49179 4.12623 8.49179 6.15123C8.49179 7.6512 9.39179 8.9262 10.5918 9.4512C9.39179 9.6762 8.34179 10.2012 7.3668 10.8762C6.6168 9.9012 6.0918 8.6262 6.0918 7.27623C6.0918 4.05123 8.71679 1.42623 11.9418 1.42623C15.3168 1.42623 17.8668 4.05123 17.8668 7.27623C18.0918 8.7762 17.5668 9.9762 16.8168 10.9512Z" fill="#ED994E"/>
</g>
<defs>
<clipPath id="clip0_2731_7537">
<rect width="24" height="24" fill="white" transform="translate(0.138672)"/>
</clipPath>
</defs>
</svg>
