<svg width="50" height="50" viewBox="0 0 50 50" fill="none" xmlns="http://www.w3.org/2000/svg">
<path fill-rule="evenodd" clip-rule="evenodd" d="M47.7608 7.80132C47.4666 6.31043 46.7395 4.93925 45.6705 3.85918C44.6015 2.7791 43.238 2.03803 41.7502 1.72844C30.5053 -0.576146 18.9098 -0.576146 7.66483 1.72844C6.18565 2.04275 4.83214 2.78646 3.77399 3.86678C2.71583 4.94709 2.00012 6.31594 1.71653 7.80132C-0.572175 19.1686 -0.572175 30.878 1.71653 42.2453C2.01422 43.7281 2.74356 45.0898 3.81288 46.1592C4.8822 47.2286 6.24378 47.958 7.72649 48.2559C18.9484 50.5707 30.5237 50.5815 41.7499 48.2872C43.2423 47.9765 44.6094 47.2311 45.679 46.1449C46.7486 45.0587 47.4728 43.68 47.7605 42.183C50.0402 30.8358 50.0404 19.1486 47.7608 7.80132ZM44.7275 41.5914C44.556 42.4778 44.1263 43.2935 43.4923 43.9363C42.8584 44.5791 42.0486 45.0201 41.1647 45.2039C30.3294 47.4462 19.1498 47.4462 8.31447 45.2039C7.43035 45.0201 6.62026 44.579 5.98599 43.9363C5.35171 43.2935 4.92154 42.4779 4.74953 41.5914C2.54584 30.635 2.54584 19.3493 4.74953 8.39285C4.92654 7.50857 5.35837 6.69538 5.9918 6.05348C6.62524 5.41158 7.43262 4.96913 8.31447 4.78039C19.1529 2.56924 30.3263 2.56924 41.1647 4.78039C42.0463 4.96921 42.8534 5.41186 43.4864 6.05378C44.1195 6.69571 44.5509 7.50873 44.7275 8.39285C46.9324 19.3492 46.9324 30.6351 44.7275 41.5914ZM24.739 33.5876C25.0518 33.5824 25.3591 33.6707 25.6216 33.841C25.8841 34.0113 26.0898 34.256 26.2125 34.5438C26.3352 34.8317 26.3692 35.1495 26.3102 35.4568C26.2512 35.7641 26.102 36.0468 25.8815 36.2689C25.661 36.4909 25.3792 36.6421 25.0724 36.7032C24.7655 36.7642 24.4473 36.7323 24.1586 36.6116C23.8699 36.4909 23.6238 36.2869 23.4517 36.0256C23.2796 35.7642 23.1893 35.4577 23.1924 35.1448C23.1943 34.7342 23.3575 34.3406 23.6468 34.0493C23.9361 33.758 24.3284 33.5923 24.739 33.5876ZM26.1311 13.4381C25.2883 13.2533 24.4172 13.2377 23.5683 13.3918C22.7194 13.546 21.9095 13.8667 21.1854 14.3359C20.4613 14.8051 19.8375 15.4132 19.35 16.1251C18.8625 16.8369 18.521 17.6386 18.3453 18.4833C18.0905 19.6843 18.1616 20.9315 18.5512 22.0958C18.6871 22.4796 18.9687 22.7944 19.3351 22.972C19.7015 23.1495 20.1231 23.1757 20.5085 23.0446C20.894 22.9136 21.2123 22.6357 21.3944 22.2715C21.5766 21.9074 21.608 21.4862 21.4817 21.0991C21.17 20.2266 21.2149 19.2666 21.6067 18.427C21.9985 17.5874 22.7056 16.9362 23.5745 16.6147C24.0036 16.4622 24.4585 16.3958 24.9133 16.4198C25.368 16.4437 25.8135 16.5575 26.2241 16.7543C26.6347 16.9511 27.0024 17.2272 27.3059 17.5666C27.6093 17.9061 27.8427 18.3024 27.9925 18.7324C28.259 19.4811 28.2643 20.2981 28.0075 21.0502C27.7506 21.8022 27.2468 22.4451 26.578 22.8743C25.5213 23.5894 24.6588 24.5554 24.0676 25.686C23.4764 26.8166 23.1752 28.0763 23.1908 29.352V30.4733C23.1908 30.8835 23.3538 31.277 23.6438 31.567C23.9339 31.857 24.3272 32.0198 24.7374 32.0198C25.1476 32.0198 25.541 31.857 25.831 31.567C26.121 31.277 26.284 30.8835 26.284 30.4733V29.352C26.2596 28.5879 26.4247 27.8297 26.7648 27.1449C27.1048 26.4602 27.6091 25.8705 28.2326 25.4281C29.6947 24.4715 30.7208 22.9772 31.0886 21.2691C31.4563 19.561 31.136 17.7768 30.1971 16.3033C29.7411 15.582 29.1473 14.9577 28.4498 14.466C27.7523 13.9744 26.9646 13.625 26.132 13.4381H26.1311Z" fill="#FF7E00"/>
</svg>
