<svg width="60" height="60" viewBox="0 0 60 60" fill="none" xmlns="http://www.w3.org/2000/svg">
	<circle cx="30" cy="30" r="30" fill="#89BEEC" fill-opacity="0.1"/>
	<path fill-rule="evenodd" clip-rule="evenodd" d="M33 13C33 14.1046 32.1045 15 31 15C29.8954 15 29 14.1046 29 13C29 11.8954 29.8954 11 31 11C32.1045 11 33 11.8954 33 13ZM35 13C35 15.2091 33.2091 17 31 17C28.7908 17 27 15.2091 27 13C27 10.7909 28.7908 9 31 9C33.2091 9 35 10.7909 35 13ZM9.2072 23.2929C8.81668 23.6834 8.81668 24.3166 9.2072 24.7071L14.8641 30.364C15.2546 30.7545 15.8877 30.7545 16.2783 30.364L21.9351 24.7071C22.3256 24.3166 22.3256 23.6834 21.9351 23.2929L16.2783 17.636C15.8877 17.2455 15.2546 17.2455 14.8641 17.636L9.2072 23.2929ZM15.5712 28.2426L11.3285 24L15.5712 19.7574L19.8138 24L15.5712 28.2426ZM30.0001 34C32.2092 34 34.0001 32.2091 34.0001 30C34.0001 27.7909 32.2092 26 30.0001 26C27.791 26 26.0001 27.7909 26.0001 30C26.0001 32.2091 27.791 34 30.0001 34ZM36.0001 30C36.0001 31.7379 35.2612 33.3033 34.0804 34.399C39.2153 35.7589 43.0001 40.4374 43.0001 46V47C43.0001 47.5523 42.5524 48 42.0001 48H18.0001C17.4478 48 17.0001 47.5523 17.0001 47V46C17.0001 40.4374 20.7849 35.7589 25.9198 34.399C24.739 33.3033 24.0001 31.7379 24.0001 30C24.0001 26.6863 26.6864 24 30.0001 24C33.3138 24 36.0001 26.6863 36.0001 30ZM29.0001 36H30.0001H31.0001C36.5229 36 41.0001 40.4772 41.0001 46H19.0001C19.0001 40.4772 23.4773 36 29.0001 36ZM48.7174 20.0961C48.9643 20.343 49.0646 20.7007 48.9819 21.04L46.8606 29.7471C46.7751 30.0981 46.5068 30.3758 46.1588 30.4733C45.8109 30.5708 45.4374 30.473 45.1819 30.2175L38.5961 23.6317C38.3406 23.3762 38.2428 23.0027 38.3403 22.6547C38.4378 22.3068 38.7154 22.0385 39.0665 21.953L47.7736 19.8317C48.1128 19.749 48.4706 19.8493 48.7174 20.0961ZM41.268 23.4751L45.3384 27.5456L46.6496 22.164L41.268 23.4751Z" fill="url(#paint0_linear_456896)"/>
	<defs>
		<linearGradient id="paint0_linear_456896" x1="49.0104" y1="48" x2="49.0104" y2="9" gradientUnits="userSpaceOnUse">
			<stop stop-color="#3D8BE8"/>
			<stop offset="1" stop-color="#89BEEC"/>
		</linearGradient>
	</defs>
</svg>
