<svg width="14" height="16" viewBox="0 0 14 16" fill="none" xmlns="http://www.w3.org/2000/svg">
<path d="M6.18455 9.29102C4.98435 9.29102 1.452 9.29102 1.452 9.29102C1.07702 9.29102 0.770187 9.5978 0.770187 9.97278V15.0901C0.770187 15.4651 1.07702 15.7719 1.452 15.7719C1.452 15.7719 5.05826 15.7719 6.26413 15.7719C6.42452 15.7719 6.42452 15.5995 6.42452 15.5995V9.52269C6.42452 9.52269 6.42447 9.29102 6.18455 9.29102Z" fill="#FF7E00"/>
<path d="M12.5487 9.29102C12.5487 9.29102 9.00282 9.29102 7.82095 9.29102C7.533 9.29102 7.57611 9.59089 7.57611 9.59089V15.6051C7.57611 15.6051 7.57378 15.7717 7.74699 15.7717C8.94739 15.7717 12.5486 15.7717 12.5486 15.7717C12.9236 15.7717 13.2304 15.4649 13.2304 15.0899V9.97278C13.2305 9.5978 12.9237 9.29102 12.5487 9.29102Z" fill="#FF7E00"/>
<path d="M6.42422 5.26496C6.42422 5.26496 6.42421 5.03394 6.19592 5.03394C4.82887 5.03394 0.681812 5.03394 0.681812 5.03394C0.30683 5.03394 0 5.34077 0 5.7157V7.84394C0 8.21892 0.30683 8.5257 0.681812 8.5257C0.681812 8.5257 4.84744 8.5257 6.21459 8.5257C6.42422 8.5257 6.42422 8.3439 6.42422 8.3439V5.26496Z" fill="#FF7E00"/>
<path d="M13.3183 5.03394C13.3183 5.03394 9.16954 5.03394 7.78659 5.03394C7.57593 5.03394 7.57593 5.23466 7.57593 5.23466V8.34812C7.57593 8.34812 7.57593 8.5257 7.83204 8.5257C9.20356 8.5257 13.3183 8.5257 13.3183 8.5257C13.6933 8.5257 14.0001 8.21892 14.0001 7.84394V5.7157C14.0001 5.34077 13.6933 5.03394 13.3183 5.03394Z" fill="#FF7E00"/>
<path d="M6.81086 2.52019L6.81086 2.5202C6.72877 2.9402 6.3379 3.22669 5.6601 3.41114C5.20007 3.53631 4.63367 3.60786 4.10522 3.60786C3.79075 3.60786 3.50253 3.58294 3.2489 3.53337L6.81086 2.52019ZM6.81086 2.52019C6.83889 2.37668 6.83771 2.18914 6.69416 1.94868C6.55219 1.71087 6.27213 1.42316 5.74856 1.07251L5.72074 1.11405L6.81086 2.52019ZM2.83254 1.74296L2.83254 1.74296C2.80791 1.86904 2.81185 1.95043 2.82256 2.00174C2.83282 2.05095 2.84974 2.07495 2.85843 2.08727L2.85886 2.08789L2.83254 1.74296ZM2.83254 1.74296C2.86329 1.5855 2.90461 1.49728 2.96811 1.44566C3.0318 1.39389 3.12808 1.37054 3.29133 1.37054C3.39817 1.37054 3.52331 1.38421 3.66341 1.41149C4.24836 1.52579 4.95282 1.93799 5.35576 2.25845C5.05382 2.34099 4.60876 2.41501 4.10517 2.41501C3.86908 2.41501 3.65202 2.39673 3.47761 2.36264L3.47759 2.36263M2.83254 1.74296L3.47759 2.36263M3.47759 2.36263C3.31486 2.33087 3.17849 2.28952 3.07294 2.24161M3.47759 2.36263L3.07294 2.24161M3.07294 2.24161C2.9665 2.19329 2.89584 2.14031 2.85888 2.08791L3.07294 2.24161ZM1.88416 2.77547L1.88416 2.77548L3.89207 0.240902C3.67828 0.199117 3.47614 0.177783 3.29128 0.177783C2.85432 0.177783 2.48811 0.295424 2.20971 0.523731C1.93129 0.752057 1.74524 1.08733 1.66181 1.51426L1.66181 1.51427C1.5665 2.00259 1.63946 2.42851 1.88416 2.77547Z" fill="#FF7E00" stroke="#FF7E00" stroke-width="0.1"/>
<path d="M9.91037 3.55781V3.60781C10.2248 3.60781 10.513 3.58284 10.7665 3.53337L10.7665 3.53337C11.4086 3.40796 11.8587 3.16212 12.1314 2.77548C12.3761 2.42851 12.449 2.00258 12.3536 1.51432C12.3536 1.51432 12.3536 1.51432 12.3536 1.51431L9.91037 3.55781ZM9.91037 3.55781C9.91037 3.57308 9.91037 3.59045 9.91037 3.60781H9.91037H9.91037H9.91037H9.91036H9.91036H9.91036H9.91036H9.91036H9.91035H9.91035H9.91035H9.91035H9.91035H9.91034H9.91034H9.91034H9.91034H9.91034H9.91033H9.91033H9.91033H9.91033H9.91033H9.91033H9.91032H9.91032H9.91032H9.91032H9.91032H9.91031H9.91031H9.91031H9.91031H9.91031H9.9103H9.9103H9.9103H9.9103H9.9103H9.91029H9.91029H9.91029H9.91029H9.91028H9.91028H9.91028H9.91028H9.91028H9.91027C9.38183 3.60781 8.81547 3.53626 8.35545 3.41109M9.91037 3.55781L8.35544 3.41109C8.35544 3.41109 8.35545 3.41109 8.35545 3.41109M8.35545 3.41109C7.67759 3.22669 7.28677 2.94015 7.20469 2.5202M8.35545 3.41109L7.20469 2.5202M7.20469 2.5202L7.20468 2.52018C7.17668 2.37668 7.17784 2.18914 7.32139 1.94868C7.46335 1.71087 7.74341 1.42316 8.26703 1.0725M7.20469 2.5202L10.1235 0.240902C9.57779 0.347497 8.88445 0.658982 8.26703 1.0725M8.26703 1.0725L8.29486 1.11405L8.26703 1.0725ZM11.232 1.73337C11.2833 1.9952 11.2188 2.08665 11.1975 2.1167L11.232 1.73337ZM11.232 1.73337C11.1695 1.41313 11.0556 1.32054 10.7241 1.32054C10.6133 1.32054 10.4849 1.33465 10.3425 1.36246L11.232 1.73337ZM9.91027 2.41501C9.40688 2.41501 8.96183 2.341 8.65994 2.2585C9.06102 1.93734 9.76286 1.52661 10.3521 1.41154C10.4923 1.38416 10.6173 1.37054 10.7241 1.37054C10.8874 1.37054 10.9837 1.39389 11.0474 1.44567C11.1109 1.49728 11.1522 1.5855 11.1829 1.74295L11.183 1.74299C11.2077 1.86906 11.2037 1.95044 11.193 2.00174C11.1827 2.05101 11.1658 2.07499 11.1571 2.08725L11.1567 2.08782L11.1566 2.0879C11.1197 2.14029 11.049 2.19327 10.9426 2.24158C10.837 2.28949 10.7006 2.33085 10.5379 2.36264L10.5379 2.36264C10.3634 2.39673 10.1465 2.41501 9.91027 2.41501Z" fill="#FF7E00" stroke="#FF7E00" stroke-width="0.1"/>
</svg>
