<svg xmlns="http://www.w3.org/2000/svg" width="50" height="50" viewBox="0 0 50 50">
    <g fill="none">
        <path fill="#4285F4" d="M25.197 13.141c0-1.057-.086-1.828-.272-2.628h-12.07v4.77h7.085c-.143 1.186-.914 2.972-2.628 4.171l-.024.16 3.816 2.957.265.026c2.428-2.243 3.828-5.542 3.828-9.456" transform="translate(12.857 12.857)"/>
        <path fill="#34A853" d="M12.855 25.71c3.471 0 6.385-1.142 8.514-3.113l-4.057-3.143c-1.086.758-2.543 1.286-4.457 1.286-3.4 0-6.284-2.242-7.313-5.342l-.15.013-3.969 3.07-.052.145c2.114 4.2 6.456 7.085 11.484 7.085" transform="translate(12.857 12.857)"/>
        <path fill="#FBBC05" d="M5.542 15.398c-.271-.8-.428-1.657-.428-2.543 0-.885.157-1.742.414-2.542l-.007-.17-4.018-3.12-.132.062C.5 8.827 0 10.785 0 12.855c0 2.072.5 4.028 1.371 5.771l4.171-3.228" transform="translate(12.857 12.857)"/>
        <path fill="#EB4335" d="M12.855 4.97c2.414 0 4.043 1.043 4.971 1.915l3.628-3.543C19.226 1.272 16.326 0 12.855 0 7.827 0 3.485 2.885 1.371 7.085l4.157 3.228c1.043-3.1 3.928-5.342 7.327-5.342" transform="translate(12.857 12.857)"/>
    </g>
</svg>
