<svg width="25" height="24" viewBox="0 0 25 24" fill="none" xmlns="http://www.w3.org/2000/svg">
<g clip-path="url(#clip0_9094_4324)">
<path d="M24.0996 12.2765C24.0996 11.4608 24.0335 10.6406 23.8924 9.83813H12.5736V14.4591H19.0553C18.7864 15.9495 17.9221 17.2679 16.6567 18.1056V21.104H20.5237C22.7945 19.014 24.0996 15.9274 24.0996 12.2765Z" fill="#4285F4"/>
<path d="M12.5734 24.0008C15.8098 24.0008 18.5392 22.9382 20.5278 21.1039L16.6608 18.1055C15.5849 18.8375 14.196 19.252 12.5778 19.252C9.44714 19.252 6.79272 17.1399 5.8403 14.3003H1.84985V17.3912C3.88697 21.4434 8.03615 24.0008 12.5734 24.0008Z" fill="#34A853"/>
<path d="M5.83615 14.3002C5.33348 12.8099 5.33348 11.196 5.83615 9.70569V6.61475H1.85011C0.148108 10.0055 0.148108 14.0004 1.85011 17.3912L5.83615 14.3002Z" fill="#FBBC04"/>
<path d="M12.5734 4.74966C14.2842 4.7232 15.9377 5.36697 17.1767 6.54867L20.6027 3.12262C18.4334 1.0855 15.5541 -0.034466 12.5734 0.000808666C8.03615 0.000808666 3.88697 2.55822 1.84985 6.61481L5.83589 9.70575C6.7839 6.86173 9.44273 4.74966 12.5734 4.74966Z" fill="#EA4335"/>
</g>
<defs>
<clipPath id="clip0_9094_4324">
<rect width="24" height="24" fill="white" transform="translate(0.333374)"/>
</clipPath>
</defs>
</svg>
