<svg width="16" height="16" viewBox="0 0 16 16" fill="none" xmlns="http://www.w3.org/2000/svg">
<g id="fi_2755355" clip-path="url(#clip0_23_2134)">
<g id="XMLID_1495_">
<g id="XMLID_339_">
<path id="XMLID_396_" d="M14.2135 12.0483C14.0409 12.0483 13.901 12.1882 13.901 12.3608V15.6874C13.901 15.86 14.0409 15.9999 14.2135 15.9999C14.3861 15.9999 14.526 15.86 14.526 15.6874V12.3608C14.526 12.1882 14.3861 12.0483 14.2135 12.0483Z" fill="#7C7976"/>
<path id="XMLID_397_" d="M14.2135 10.6421C14.1313 10.6421 14.0507 10.6756 13.9926 10.7337C13.9344 10.7918 13.901 10.8724 13.901 10.9546C13.901 11.0368 13.9344 11.1174 13.9926 11.1756C14.0507 11.2337 14.1313 11.2671 14.2135 11.2671C14.2957 11.2671 14.3763 11.2337 14.4344 11.1756C14.4925 11.1174 14.526 11.0368 14.526 10.9546C14.526 10.8724 14.4926 10.7918 14.4344 10.7337C14.3763 10.6756 14.2957 10.6421 14.2135 10.6421Z" fill="#7C7976"/>
</g>
<path id="XMLID_334_" d="M15 4.04641C14.8679 4.04641 14.7418 4.07241 14.6263 4.11916V3.49858C14.6263 2.94718 14.1777 2.49859 13.6263 2.49859C13.4937 2.49859 13.3672 2.52475 13.2513 2.57181V2.44909C13.2513 1.89769 12.8027 1.4491 12.2513 1.4491C11.6999 1.4491 11.2513 1.89769 11.2513 2.44909V2.57181C11.1354 2.52475 11.0089 2.49859 10.8763 2.49859C10.3249 2.49859 9.87633 2.94718 9.87633 3.49858V6.06682C9.7604 6.01973 9.63384 5.99354 9.50118 5.99354C9.36859 5.99354 9.24206 6.0197 9.12619 6.06676V5.94404C9.12619 5.39264 8.6776 4.94406 8.1262 4.94406C8.04808 4.94406 7.97214 4.95334 7.89911 4.97037V3.59742C7.89911 3.04602 7.45052 2.59743 6.89909 2.59743C6.767 2.59743 6.64091 2.62343 6.52538 2.67015V2.04953C6.52538 1.49813 6.07679 1.04955 5.52539 1.04955C5.3928 1.04955 5.26627 1.0757 5.1504 1.12276V1.00005C5.1504 0.448649 4.70181 6.10352e-05 4.15041 6.10352e-05C3.59901 6.10352e-05 3.15043 0.448649 3.15043 1.00005V1.12276C3.03455 1.0757 2.90802 1.04955 2.77543 1.04955C2.22403 1.04955 1.77544 1.49813 1.77544 2.04953L1.77538 4.3895C1.54742 4.13525 1.19714 4.00194 0.840614 4.06482C0.569274 4.11266 0.33409 4.26419 0.178373 4.49144C0.0226876 4.71868 -0.0337178 4.99268 0.0195627 5.26293L0.380401 7.09287C0.522868 7.81514 0.873707 8.47173 1.39501 8.99156L2.04822 9.64293V15.6873C2.04822 15.8599 2.18816 15.9998 2.36072 15.9998C2.53328 15.9998 2.67321 15.8599 2.67321 15.6873V9.51324C2.67321 9.43021 2.64015 9.35059 2.5814 9.29197L1.83635 8.54904C1.40336 8.11726 1.11192 7.57189 0.993612 6.97197L0.632742 5.14202C0.612211 5.03787 0.633929 4.93231 0.69396 4.84471C0.753959 4.75715 0.844583 4.69875 0.949144 4.68031C1.15167 4.64462 1.34879 4.77312 1.39776 4.9729L1.64345 5.97526C1.69041 6.16682 1.86697 6.28872 2.06241 6.26504C2.25825 6.24138 2.40034 6.08107 2.40034 5.88386L2.40041 2.04953C2.40041 1.84275 2.56862 1.67454 2.7754 1.67454C2.98218 1.67454 3.15039 1.84275 3.15039 2.04953V5.45571C3.15039 5.6283 3.29033 5.7682 3.46289 5.7682C3.63545 5.7682 3.77539 5.6283 3.77539 5.45571V1.00005C3.77539 0.793269 3.9436 0.625053 4.15038 0.625053C4.35716 0.625053 4.52538 0.793269 4.52538 1.00005V5.45571C4.52538 5.6283 4.66531 5.7682 4.83787 5.7682C5.01043 5.7682 5.15037 5.6283 5.15037 5.45571V2.04953C5.15037 1.84275 5.31858 1.67454 5.52536 1.67454C5.73214 1.67454 5.90036 1.84275 5.90036 2.04953V5.05599C5.90036 5.22858 6.04029 5.36849 6.21285 5.36849C6.38541 5.36849 6.52535 5.22858 6.52535 5.05599V3.57267C6.53816 3.37742 6.70066 3.22236 6.89909 3.22236C7.10587 3.22236 7.27409 3.39058 7.27409 3.59736V5.42149C7.18043 5.57367 7.12618 5.75258 7.12618 5.94398V6.0667C7.01031 6.01963 6.88378 5.99348 6.75119 5.99348C6.19979 5.99348 5.7512 6.44207 5.7512 6.99347L5.75114 9.3334C5.52321 9.07919 5.17305 8.94588 4.81637 9.00875C4.54506 9.05659 4.30991 9.20806 4.15419 9.43531C3.99848 9.66255 3.94204 9.93655 3.99532 10.2068L4.35619 12.0368C4.49863 12.7591 4.84946 13.4157 5.3708 13.9355L6.02401 14.5869V15.6873C6.02401 15.8599 6.16395 15.9998 6.33651 15.9998C6.50907 15.9998 6.649 15.8599 6.649 15.6873V14.4572C6.649 14.3741 6.61594 14.2945 6.55716 14.2359L5.81211 13.4929C5.37911 13.0612 5.08768 12.5158 4.9694 11.9159L4.60853 10.086C4.588 9.9818 4.60972 9.87621 4.66975 9.78865C4.72975 9.70109 4.82037 9.64271 4.9249 9.62427C5.12749 9.58862 5.32452 9.71705 5.37352 9.91686L5.61924 10.9192C5.6662 11.1108 5.84198 11.2327 6.0382 11.209C6.23401 11.1853 6.3761 11.025 6.3761 10.8278L6.37616 6.9935C6.37616 6.78672 6.54438 6.6185 6.75116 6.6185C6.95794 6.6185 7.12615 6.78672 7.12615 6.9935V10.3997C7.12615 10.5723 7.26609 10.7122 7.43865 10.7122C7.61121 10.7122 7.75114 10.5723 7.75114 10.3997V5.94398C7.75114 5.7372 7.91936 5.56898 8.12614 5.56898C8.33292 5.56898 8.50113 5.7372 8.50113 5.94398V10.3996C8.50113 10.5722 8.64107 10.7121 8.81363 10.7121C8.98619 10.7121 9.12613 10.5722 9.12613 10.3996V6.99347C9.12613 6.78669 9.29434 6.61847 9.50112 6.61847C9.69955 6.61847 9.86205 6.77353 9.87486 6.96878V10.3996C9.87486 10.5722 10.0148 10.7121 10.1874 10.7121C10.1876 10.7121 10.1878 10.7121 10.188 10.7121C10.1882 10.7121 10.1884 10.7121 10.1886 10.7121C10.3612 10.7121 10.5011 10.5722 10.5011 10.3996V8.51663C10.5139 8.32138 10.6764 8.16632 10.8749 8.16632C11.0816 8.16632 11.2498 8.33454 11.2498 8.54132V11.5781C11.2498 12.3864 10.9216 13.1773 10.3492 13.748L9.86768 14.2282C9.80887 14.2868 9.77583 14.3665 9.77583 14.4495V15.6873C9.77583 15.8599 9.91577 15.9998 10.0883 15.9998C10.2609 15.9998 10.4008 15.8599 10.4008 15.6873V14.5792L10.7905 14.1906C11.4898 13.4933 11.8749 12.5655 11.8749 11.5781V8.54132C11.8749 7.98992 11.4263 7.54133 10.8749 7.54133C10.7428 7.54133 10.6167 7.56733 10.5011 7.61408L10.5013 3.49854C10.5013 3.29177 10.6695 3.12355 10.8763 3.12355C11.0831 3.12355 11.2513 3.29177 11.2513 3.49854V6.56282C11.2513 6.73541 11.3912 6.87531 11.5638 6.87531C11.7363 6.87531 11.8763 6.73541 11.8763 6.56282V2.44909C11.8763 2.24231 12.0445 2.0741 12.2513 2.0741C12.458 2.0741 12.6263 2.24231 12.6263 2.44909V6.90475C12.6263 7.07734 12.7662 7.21724 12.9388 7.21724C13.1113 7.21724 13.2513 7.07734 13.2513 6.90475V3.49854C13.2513 3.29177 13.4195 3.12355 13.6263 3.12355C13.833 3.12355 14.0012 3.29177 14.0012 3.49854L14 6.90472C14 7.07731 14.1399 7.21721 14.3125 7.21721C14.3127 7.21721 14.3129 7.21718 14.3131 7.21718C14.3133 7.21718 14.3135 7.21721 14.3137 7.21721C14.4863 7.21721 14.6262 7.07731 14.6262 6.90472V5.02168C14.639 4.82643 14.8015 4.67137 15 4.67137C15.2068 4.67137 15.375 4.83959 15.375 5.04637V8.08314C15.375 8.67135 15.207 9.2439 14.8892 9.73884C14.796 9.88405 14.838 10.0774 14.9833 10.1706C15.0356 10.2042 15.094 10.2202 15.1519 10.2202C15.2547 10.2202 15.3554 10.1695 15.4151 10.0765C15.7978 9.48062 16 8.79132 16 8.08311V5.04634C16 4.495 15.5514 4.04641 15 4.04641Z" fill="#7C7976"/>
</g>
</g>
<defs>
<clipPath id="clip0_23_2134">
<rect width="16" height="16" fill="white"/>
</clipPath>
</defs>
</svg>
