<svg width="12" height="12" viewBox="0 0 12 12" fill="none" xmlns="http://www.w3.org/2000/svg">
<g id="fi_1946473" clip-path="url(#clip0_23_2126)">
<path id="Vector" d="M7.18957 4.56299H5.00183C4.81964 4.56299 4.66757 4.70233 4.65164 4.88388L4.4602 7.07171C4.4516 7.16995 4.48465 7.26718 4.55121 7.33987C4.61786 7.41257 4.71188 7.45386 4.81049 7.45386H6.99823C7.18051 7.45386 7.33258 7.3146 7.34851 7.13296L7.53985 4.94522C7.54846 4.84698 7.51541 4.74976 7.44885 4.67706C7.3822 4.60437 7.28818 4.56299 7.18957 4.56299ZM6.67605 6.75082H5.19409L5.324 5.26611H6.80597L6.67605 6.75082Z" fill="#7D7D7D"/>
<path id="Vector_2" d="M10.6535 5.26611C10.9854 5.26611 11.3071 5.1383 11.5594 4.90631C11.8114 4.67468 11.9661 4.36468 11.995 4.03363C12.0251 3.69012 11.9176 3.36557 11.6924 3.11975C11.4679 2.87475 11.1556 2.7399 10.8123 2.7399H9.5559L9.66595 1.48132C9.69607 1.13773 9.58859 0.813171 9.36328 0.567352C9.13888 0.322449 8.82659 0.1875 8.484 0.1875C8.15213 0.1875 7.83041 0.315308 7.57809 0.547302C7.32614 0.77893 7.17141 1.08884 7.14248 1.41998L7.02694 2.7399H5.54498L5.65512 1.48123C5.68515 1.13773 5.57766 0.813171 5.35244 0.567261C5.12796 0.322357 4.81567 0.1875 4.47308 0.1875C4.1412 0.1875 3.81949 0.315216 3.56717 0.54721C3.31521 0.77893 3.16058 1.08884 3.13156 1.41998L3.01611 2.73981H1.69739C1.36551 2.73981 1.04379 2.86761 0.791473 3.09961C0.53952 3.33133 0.384796 3.64123 0.355866 3.97238C0.325836 4.31588 0.433411 4.64053 0.65863 4.88635C0.883117 5.13125 1.19531 5.26611 1.5379 5.26611H2.79501L2.6651 6.75082H1.34647C1.01459 6.75082 0.692871 6.87854 0.440552 7.11053C0.188599 7.34225 0.0339664 7.65216 0.00494417 7.98321C-0.0250851 8.32681 0.0823977 8.65136 0.307709 8.89718C0.532104 9.14208 0.844391 9.27694 1.18698 9.27694H2.44418L2.33404 10.5356C2.30401 10.8791 2.4115 11.2037 2.63681 11.4496C2.8612 11.6945 3.17349 11.8293 3.51608 11.8293C3.84796 11.8293 4.16968 11.7016 4.4219 11.4696C4.67395 11.2379 4.82867 10.928 4.8576 10.5969C4.85779 10.5952 4.85797 10.5935 4.85806 10.5917L4.97305 9.27694L6.45501 9.27703L6.34497 10.5355C6.31485 10.8791 6.42242 11.2037 6.64764 11.4495C6.87204 11.6945 7.18432 11.8293 7.52691 11.8293C7.85879 11.8293 8.18051 11.7016 8.43283 11.4696C8.68478 11.2379 8.8395 10.928 8.86852 10.5969C8.86862 10.5958 8.86871 10.5948 8.8688 10.5937L8.98397 9.27703H10.3027C10.3054 9.27703 10.3082 9.27703 10.3109 9.27694C10.6399 9.27484 10.9584 9.1473 11.2086 8.91723C11.4606 8.68551 11.6153 8.37561 11.6442 8.04455C11.6742 7.70105 11.5668 7.37649 11.3415 7.13058C11.1171 6.88568 10.8048 6.75082 10.4614 6.75082H9.20498L9.33489 5.26611H10.6535ZM8.56201 7.33987C8.62866 7.41256 8.72268 7.45394 8.82128 7.45394H10.4621C10.6052 7.45394 10.7334 7.50778 10.8231 7.60565C10.9135 7.70443 10.9564 7.83847 10.9437 7.98321C10.9157 8.30337 10.6221 8.57382 10.3026 8.57382C10.3003 8.57382 10.298 8.57391 10.2956 8.57391H8.6618C8.47952 8.57391 8.32745 8.71325 8.31161 8.8948L8.16806 10.5349C8.16806 10.5359 8.16796 10.5368 8.16787 10.5377C8.13867 10.857 7.8457 11.1262 7.52691 11.1262C7.38381 11.1262 7.25564 11.0724 7.16601 10.9745C7.07556 10.8757 7.03262 10.7416 7.04534 10.5969L7.1889 8.95614C7.1975 8.8579 7.16445 8.76068 7.0979 8.68798C7.03125 8.61529 6.93722 8.57391 6.83862 8.57391L4.65088 8.57382C4.4686 8.57382 4.31653 8.71316 4.30069 8.8948L4.15722 10.5349C4.15704 10.5363 4.15695 10.5377 4.15686 10.5391C4.12701 10.8577 3.83432 11.1263 3.51608 11.1263C3.37298 11.1263 3.24481 11.0724 3.15509 10.9745C3.06463 10.8758 3.02179 10.7417 3.03451 10.5969L3.17807 8.95605C3.18667 8.8579 3.15362 8.76058 3.08706 8.68789C3.02041 8.61529 2.92639 8.57391 2.82779 8.57391H1.18698C1.04388 8.57391 0.91571 8.51998 0.82608 8.42221C0.735626 8.32342 0.692688 8.1893 0.705414 8.04455C0.733429 7.72439 1.02695 7.45394 1.34647 7.45394H2.98727C3.16955 7.45394 3.32162 7.3146 3.33746 7.13305L3.5289 4.94522C3.5375 4.84707 3.50445 4.74975 3.43789 4.67706C3.37134 4.60446 3.27722 4.56308 3.17871 4.56308H1.5379C1.39481 4.56308 1.26663 4.50915 1.177 4.41137C1.08655 4.31259 1.04361 4.17846 1.05634 4.03372C1.08435 3.71347 1.37796 3.44302 1.69739 3.44302H3.33819C3.52048 3.44302 3.67254 3.30368 3.68838 3.12213L3.83203 1.48132C3.86004 1.16116 4.15356 0.890716 4.47308 0.890716C4.61618 0.890716 4.74435 0.944549 4.83398 1.04242C4.92444 1.14111 4.96737 1.27524 4.95465 1.41998L4.81109 3.06079C4.80249 3.15903 4.83554 3.25635 4.9021 3.32895C4.96866 3.40164 5.06277 3.44302 5.16128 3.44302H7.34902C7.53131 3.44302 7.68338 3.30368 7.69931 3.12213L7.84286 1.48132C7.87088 1.16116 8.16448 0.890716 8.484 0.890716C8.62701 0.890716 8.75527 0.944549 8.8449 1.04242C8.93536 1.14111 8.9782 1.27524 8.96557 1.41998L8.82202 3.06079C8.81341 3.15903 8.84646 3.25625 8.91302 3.32895C8.97958 3.40164 9.0736 3.44302 9.1722 3.44302H10.8131C10.9561 3.44302 11.0843 3.49695 11.1739 3.59472C11.2645 3.69351 11.3073 3.82763 11.2946 3.97238C11.2667 4.29263 10.973 4.56308 10.6535 4.56308H9.01263C8.83044 4.56308 8.67837 4.70242 8.66244 4.88397L8.471 7.0718C8.4624 7.16995 8.49545 7.26718 8.56201 7.33987Z" fill="#7D7D7D"/>
</g>
<defs>
<clipPath id="clip0_23_2126">
<rect width="12" height="12" fill="white"/>
</clipPath>
</defs>
</svg>
