<?xml version="1.0" encoding="utf-8"?>
<!-- Generator: Adobe Illustrator 24.1.3, SVG Export Plug-In . SVG Version: 6.00 Build 0)  -->
<svg version="1.1" id="Layer_1" xmlns="http://www.w3.org/2000/svg" xmlns:xlink="http://www.w3.org/1999/xlink" x="0px" y="0px"
	 viewBox="0 0 100 100" style="enable-background:new 0 0 100 100;" xml:space="preserve">
<style type="text/css">
	.st0{opacity:5.000000e-02;fill-rule:evenodd;clip-rule:evenodd;fill:#4191E9;enable-background:new    ;}
	.st1{fill:url(#SVGID_1_);}
	.st2{fill:#F5F9FE;enable-background:new    ;}
	.st3{fill:url(#SVGID_2_);}
	.st4{fill:url(#SVGID_3_);}
	.st5{fill:#FFFFFF;}
</style>
<g>
	<circle class="st0" cx="50" cy="50" r="50"/>
</g>
<g id="Layer_1_1_">
	<linearGradient id="SVGID_1_" gradientUnits="userSpaceOnUse" x1="19.4911" y1="54.8364" x2="79.3475" y2="54.8364">
		<stop  offset="0" style="stop-color:#3D8BE8"/>
		<stop  offset="1" style="stop-color:#89BEEC"/>
	</linearGradient>
	<path class="st1" d="M79.2,38.3c-0.6-3.5-3.1-4.4-4.4-4.4c-0.5,0-1,0.3-1.3,0.7c-0.8,1.1-1.1,2.4-0.9,3.7c-0.2,1.1-4.7,5.6-6.4,6.6
		c-1.3,0.7-2.3,1.3-3.9-1.3c-1.5-2.6-7.2-4.2-17.8-5c-1.3-0.1-2.7-0.4-4-0.7c0,0,0,0-0.1,0c-2.3-0.5-4.9-1.2-7.3-1.9
		c-4-1.1-7.4-2.1-9.2-2.1c-3.2,0-4.7,4.7-4.7,14.7c0,2.2,0.4,4.4,1.1,6.5c0,0.1,0,0.1,0.1,0.2c1.6,4.2,4.3,6.9,6,8
		c1.2,0.7,3.5,1.1,5.9,1.6c2.6,0.5,6.1,1.1,6.8,2.1c2,2.9,4.6,3.2,5.7,3.2c0.4,0.6,0.7,1.3,1,2c0.7,1.7,1.5,3.8,3.1,3.8
		c0.2,0,0.4,0,0.6-0.1c1.3-0.4,2.5-1.8,3.7-3.4c0.7-0.9,2.3-2.7,2.8-2.6c2.5,0.5,4.6-2.1,5.5-3.2c0,0,0.1-0.1,0.1-0.1
		c0.3,0.1,0.7,0.2,1,0.4c0.9,0.5,1.8,0.8,2.7,1.1c1.2,0.3,2.5,2.9,3.4,4.6c1,2,1.6,3.2,2.6,3.2c0.6,0,1.2-0.4,1.5-0.9
		c1-1.5,1.5-4.9,0-8.7c-0.9-2.4-0.2-3,1-4c1-0.8,1.8-1.8,2.3-3c0.7-2.2-0.3-4.1-1.1-5.6c-0.6-1-1.1-2-0.9-2.7c0.5-1.4,1.1-2.8,1.8-4
		c0.5-0.9,0.9-1.8,1.3-2.8c0.1-0.3,0.3-0.6,0.5-0.9C78.6,42.2,79.7,40.8,79.2,38.3L79.2,38.3z M24.2,35.6c1.5,0,5,1,8.7,2
		c2.3,0.6,2.5,0.8,4.6,1.3l3.9,0.9l-20.1,4.3c-0.6-1.8,0,6.3,0,4.4C21.3,36.5,23.5,35.6,24.2,35.6z M76.4,42.1
		c-0.4,0.5-0.7,1-0.9,1.6c-0.3,0.8-0.7,1.6-1.1,2.3c-0.8,1.4-1.5,2.9-2,4.4c-0.3,1.4,0.4,2.7,1.1,3.9c0.8,1.4,1.5,2.7,1,4.2
		c-0.4,0.9-1,1.7-1.7,2.2c-1.3,1.1-2.8,2.4-1.5,6c1.4,3.7,0.7,6.4,0.2,7.1c-0.4-0.7-0.8-1.4-1.1-2.1c-1.2-2.4-2.5-5.1-4.5-5.6
		c-0.8-0.2-1.6-0.5-2.3-0.9c-1-0.5-2.2-1.2-3.3,0.2c-0.6,0.8-2.3,2.9-3.8,2.6c-1.5-0.3-2.9,1.3-4.5,3.2c-1,1.1-2.1,2.6-2.9,2.8
		c-0.4,0.1-1.2-1.9-1.6-2.7c-0.7-1.7-1.2-3.2-2.5-3.2h-0.1c-0.8,0-2.7-0.1-4.3-2.4c-1.1-1.6-4.4-2.2-7.9-2.8
		c-2.2-0.4-4.4-0.8-5.3-1.3c-1.3-0.8-4.1-4.6-5.5-7.7l-0.6-4.4c0.5,0-0.2-4.9-0.2-5.4l9.9-2.1l10.2-2.2c1,0.2,2.1,0.4,3.2,0.5
		c12.7,1,15.7,3,16.4,4.1c2.1,3.6,4.3,3,6.2,1.9c1.3-0.7,7.8-6.2,7.3-8.4c-0.1-0.8,0.1-1.6,0.5-2.3c0.5,0.1,2.1,0.5,2.5,2.9
		C77.8,40.3,77.1,41.2,76.4,42.1L76.4,42.1z"/>
	<rect x="22" y="40.9" transform="matrix(0.9946 -0.1036 0.1036 0.9946 -4.2105 3.4869)" class="st2" width="18.9" height="2.8"/>
</g>
<linearGradient id="SVGID_2_" gradientUnits="userSpaceOnUse" x1="40.244" y1="53.4907" x2="55.9108" y2="53.4907">
	<stop  offset="0" style="stop-color:#3D8BE8"/>
	<stop  offset="1" style="stop-color:#89BEEC"/>
</linearGradient>
<path class="st3" d="M48.1,45.7c-4.3,0-7.8,3.5-7.8,7.8s3.5,7.8,7.8,7.8s7.8-3.5,7.8-7.8C55.9,49.2,52.4,45.7,48.1,45.7z M48.1,59.9
	c-3.5,0-6.4-2.9-6.4-6.4s2.9-6.4,6.4-6.4c3.5,0,6.4,2.9,6.4,6.4C54.5,57,51.6,59.9,48.1,59.9z"/>
<linearGradient id="SVGID_3_" gradientUnits="userSpaceOnUse" x1="44.5168" y1="53.4907" x2="51.638" y2="53.4907">
	<stop  offset="0" style="stop-color:#3D8BE8"/>
	<stop  offset="1" style="stop-color:#89BEEC"/>
</linearGradient>
<path class="st4" d="M49.3,49.9h-2.4v2.4h-2.4v2.4h2.4v2.4h2.4v-2.4h2.4v-2.4h-2.4V49.9z"/>
<path class="st5" d="M123.5,35.6"/>
</svg>
