<svg xmlns="http://www.w3.org/2000/svg" width="100" height="100" viewBox="0 0 100 100">
    <defs>
        <linearGradient id="prefix__a" x1="50%" x2="50%" y1="100%" y2="0%">
            <stop offset="0%" stop-color="#3D8BE8"/>
            <stop offset="100%" stop-color="#89BEEC"/>
        </linearGradient>
    </defs>
    <g fill="none" fill-rule="evenodd">
        <circle cx="50" cy="50" r="50" fill="#4191E9" opacity=".05"/>
        <path fill="url(#prefix__a)" fill-rule="nonzero" d="M50 20c16.569 0 30 13.431 30 30 0 16.569-13.431 30-30 30-16.569 0-30-13.431-30-30 0-16.569 13.431-30 30-30zm10.993 31.001H39.007C39.232 66.108 44.503 78 50 78s10.768-11.892 10.993-26.999zm-23.986 0h-14.99c.466 13.244 10.13 24.15 22.8 26.52-4.475-4.495-7.641-14.633-7.81-26.52zm40.975 0h-14.99c-.168 11.887-3.334 22.025-7.809 26.52 12.67-2.372 22.334-13.276 22.8-26.52zM44.817 22.479l-.24.046C32.023 24.989 22.478 35.839 22.016 49h14.99c.169-11.887 3.334-22.026 7.81-26.52zM50 22c-5.497 0-10.769 11.892-10.993 27h21.986c-.222-14.953-5.389-26.757-10.825-26.996L50 22zm5.184.479l.062.064c4.442 4.526 7.579 14.625 7.747 26.457h14.99c-.465-13.245-10.13-24.15-22.8-26.521z"/>
    </g>
</svg>
