<svg xmlns="http://www.w3.org/2000/svg" width="100" height="100" viewBox="0 0 100 100">
    <defs>
        <linearGradient id="prefix__a" x1="50%" x2="50%" y1="100%" y2="0%">
            <stop offset="0%" stop-color="#3D8BE8"/>
            <stop offset="100%" stop-color="#89BEEC"/>
        </linearGradient>
    </defs>
    <g fill="none" fill-rule="evenodd">
        <circle cx="50" cy="50" r="50" fill="#4191E9" opacity=".05" transform="matrix(-1 0 0 1 100 0)"/>
        <path fill="url(#prefix__a)" fill-rule="nonzero" d="M62.017 26C70.844 26 78 33.156 78 41.983c0 1.807-.301 3.566-.872 5.22 3.93.858 6.872 4.359 6.872 8.547 0 2.244-.85 4.357-2.345 5.961l-.218.226-12.725 12.907c-.365.371-.948.396-1.343.074l-.081-.074-7.614-7.722-10.962 11.122c-.365.37-.948.395-1.343.074l-.081-.074L22.676 53.28l-.001-.001-.278-.285C19.596 50.048 18 46.14 18 41.984 18 33.155 25.156 26 33.983 26c5.941 0 11.26 3.271 14.017 8.294C50.758 29.268 56.078 26 62.017 26zm0 2c-5.806 0-10.937 3.571-13.019 8.868l-.11.197c-.271.481-.881.652-1.362.381-.165-.092-.3-.23-.39-.395l-.201-.373.001-.006h-.006C44.832 31.419 39.767 28 33.983 28 26.261 28 20 34.26 20 41.983c0 3.63 1.389 7.039 3.83 9.615l.266.273.005.005L48 76.116l10.27-10.418-3.712-3.766-.003-.002-.21-.219C52.85 60.107 52 57.994 52 55.75c0-4.832 3.918-8.75 8.75-8.75 2.97 0 5.657 1.494 7.25 3.848l.044-.064C69.643 48.465 72.308 47 75.25 47h.034l-.153-.153c.568-1.532.869-3.174.869-4.864C76 34.261 69.74 28 62.017 28zM75.25 49c-2.769 0-5.22 1.683-6.248 4.19l-.092.237-.15.442c-.142.418-.596.642-1.014.5-.237-.08-.422-.265-.502-.502l-.127-.376-.003.003C66.167 50.822 63.63 49 60.75 49 57.022 49 54 52.022 54 55.75c0 1.715.641 3.325 1.772 4.56l.205.213h-.001l.006.005L68 72.717l12.018-12.189.005-.005C81.281 59.265 82 57.565 82 55.75c0-3.728-3.022-6.75-6.75-6.75z"/>
    </g>
</svg>
