<svg xmlns="http://www.w3.org/2000/svg" width="100" height="100" viewBox="0 0 100 100">
    <defs>
        <linearGradient id="prefix__a" x1="50%" x2="50%" y1="100%" y2="0%">
            <stop offset="0%" stop-color="#3D8BE8"/>
            <stop offset="100%" stop-color="#89BEEC"/>
        </linearGradient>
    </defs>
    <g fill="none" fill-rule="evenodd">
        <circle cx="50" cy="50" r="50" fill="#4191E9" opacity=".05"/>
        <path fill="url(#prefix__a)" fill-rule="nonzero" d="M73 18c5.523 0 10 4.477 10 10 0 2.772-1.782 6.218-5.32 10.41C79.203 42.047 80 45.968 80 50c0 16.569-13.431 30-30 30-16.569 0-30-13.431-30-30 0-16.569 13.431-30 30-30 4.975 0 9.776 1.213 14.07 3.497C65.716 20.237 69.097 18 73 18zM39.79 60.281l-.018-.102C41.462 70.886 45.66 78 50 78c5.708 0 10.777-11.952 10.993-27H44.927c-.363 2.558-2.082 5.635-5.138 9.281zm38.192-9.28H62.993c-.162 11.84-3.196 21.985-7.693 26.498C67.913 75.083 77.519 64.204 77.982 51zm-52.909 0h-3.055c.463 13.2 10.064 24.076 22.672 26.496-2.958-2.968-5.298-8.393-6.596-15.285-.19.208-.385.419-.583.631l-.352.373-.745.774-.147.133c-.75.616-1.84.601-2.576-.036l-.126-.118-.358-.37C28.267 58.463 25.542 54.3 25.073 51zM35 42c-4.418 0-8 3.582-8 8 0 2.711 2.42 6.71 7.309 11.857l.337.353.353.364.346-.355c4.893-5.086 7.425-9.074 7.64-11.84l.011-.192L43 50c0-4.418-3.582-8-8-8zm0 4c2.21 0 4 1.79 4 4s-1.79 4-4 4-4-1.79-4-4 1.79-4 4-4zm0 2c-1.105 0-2 .895-2 2s.895 2 2 2 2-.895 2-2-.895-2-2-2zm15-26c-4.497 0-8.796 7.609-10.371 18.78l-.044.33c2.936 1.518 5.024 4.447 5.366 7.89h16.042c-.214-14.894-5.182-26.755-10.818-26.996L50 22zm-5.308.502l-.116.023C32.024 24.989 22.48 35.839 22.018 49.001L25.049 49c.502-5.053 4.766-9 9.951-9 .924 0 1.819.125 2.669.36l-.026.18c1.145-8.171 3.7-14.677 7.05-18.038zm10.609-.001l.048.05c4.47 4.537 7.483 14.653 7.644 26.45h14.99c-.109-3.08-.715-6.077-1.784-8.903-.224.246-.454.495-.688.745l-.352.373-.745.774-.147.133c-.75.616-1.84.601-2.576-.036l-.126-.118-.358-.37C65.754 35.93 63 31.446 63 28c0-.906.12-1.784.346-2.619l.28.153c-2.595-1.45-5.4-2.473-8.325-3.033zM73 20c-4.418 0-8 3.582-8 8 0 2.711 2.42 6.71 7.309 11.857l.337.353.353.364.346-.355c4.893-5.086 7.425-9.074 7.64-11.84l.011-.192L81 28c0-4.418-3.582-8-8-8zm0 4c2.21 0 4 1.79 4 4s-1.79 4-4 4-4-1.79-4-4 1.79-4 4-4zm0 2c-1.105 0-2 .895-2 2s.895 2 2 2 2-.895 2-2-.895-2-2-2z"/>
    </g>
</svg>
