<?xml version="1.0" encoding="utf-8"?>
<!-- Generator: Adobe Illustrator 24.1.3, SVG Export Plug-In . SVG Version: 6.00 Build 0)  -->
<svg version="1.1" id="Layer_1" xmlns="http://www.w3.org/2000/svg" xmlns:xlink="http://www.w3.org/1999/xlink" x="0px" y="0px"
	 viewBox="0 0 100 100" style="enable-background:new 0 0 100 100;" xml:space="preserve">
<style type="text/css">
	.st0{opacity:5.000000e-02;fill-rule:evenodd;clip-rule:evenodd;fill:#4191E9;enable-background:new    ;}
	.st1{fill:url(#SVGID_1_);}
	.st2{fill:#F5F9FE;enable-background:new    ;}
	.st3{fill:#FFFFFF;}
	.st4{fill:url(#SVGID_2_);}
	.st5{fill:url(#SVGID_3_);}
	.st6{fill:url(#SVGID_4_);}
	.st7{fill:url(#SVGID_5_);}
	.st8{fill:url(#SVGID_6_);}
	.st9{fill:url(#SVGID_7_);}
	.st10{fill:url(#SVGID_8_);}
	.st11{fill:url(#SVGID_9_);}
	.st12{fill:url(#SVGID_10_);}
	.st13{fill:url(#SVGID_11_);}
</style>
<g>
	<circle class="st0" cx="50" cy="50" r="50"/>
</g>
<g id="Layer_1_1_">
	<linearGradient id="SVGID_1_" gradientUnits="userSpaceOnUse" x1="19.4911" y1="54.8364" x2="79.3475" y2="54.8364">
		<stop  offset="0" style="stop-color:#3D8BE8"/>
		<stop  offset="1" style="stop-color:#89BEEC"/>
	</linearGradient>
	<path class="st1" d="M79.2,38.3c-0.6-3.5-3.1-4.4-4.4-4.4c-0.5,0-1,0.3-1.3,0.7c-0.8,1.1-1.1,2.4-0.9,3.7c-0.2,1.1-4.7,5.6-6.4,6.6
		c-1.3,0.7-2.3,1.3-3.9-1.3c-1.5-2.6-7.2-4.2-17.8-5c-1.3-0.1-2.7-0.4-4-0.7c0,0,0,0-0.1,0c-2.3-0.5-4.9-1.2-7.3-1.9
		c-4-1.1-7.4-2.1-9.2-2.1c-3.2,0-4.7,4.7-4.7,14.7c0,2.2,0.4,4.4,1.1,6.5c0,0.1,0,0.1,0.1,0.2c1.6,4.2,4.3,6.9,6,8
		c1.2,0.7,3.5,1.1,5.9,1.6c2.6,0.5,6.1,1.1,6.8,2.1c2,2.9,4.6,3.2,5.7,3.2c0.4,0.6,0.7,1.3,1,2c0.7,1.7,1.5,3.8,3.1,3.8
		c0.2,0,0.4,0,0.6-0.1c1.3-0.4,2.5-1.8,3.7-3.4c0.7-0.9,2.3-2.7,2.8-2.6c2.5,0.5,4.6-2.1,5.5-3.2c0,0,0.1-0.1,0.1-0.1
		c0.3,0.1,0.7,0.2,1,0.4c0.9,0.5,1.8,0.8,2.7,1.1c1.2,0.3,2.5,2.9,3.4,4.6c1,2,1.6,3.2,2.6,3.2c0.6,0,1.2-0.4,1.5-0.9
		c1-1.5,1.5-4.9,0-8.7c-0.9-2.4-0.2-3,1-4c1-0.8,1.8-1.8,2.3-3c0.7-2.2-0.3-4.1-1.1-5.6c-0.6-1-1.1-2-0.9-2.7c0.5-1.4,1.1-2.8,1.8-4
		c0.5-0.9,0.9-1.8,1.3-2.8c0.1-0.3,0.3-0.6,0.5-0.9C78.6,42.2,79.7,40.8,79.2,38.3L79.2,38.3z M24.2,35.6c1.5,0,5,1,8.7,2
		c2.3,0.6,2.5,0.8,4.6,1.3l3.9,0.9l-20.1,4.3c-0.6-1.8,0,6.3,0,4.4C21.3,36.5,23.5,35.6,24.2,35.6z M76.4,42.1
		c-0.4,0.5-0.7,1-0.9,1.6c-0.3,0.8-0.7,1.6-1.1,2.3c-0.8,1.4-1.5,2.9-2,4.4c-0.3,1.4,0.4,2.7,1.1,3.9c0.8,1.4,1.5,2.7,1,4.2
		c-0.4,0.9-1,1.7-1.7,2.2c-1.3,1.1-2.8,2.4-1.5,6c1.4,3.7,0.7,6.4,0.2,7.1c-0.4-0.7-0.8-1.4-1.1-2.1c-1.2-2.4-2.5-5.1-4.5-5.6
		c-0.8-0.2-1.6-0.5-2.3-0.9c-1-0.5-2.2-1.2-3.3,0.2c-0.6,0.8-2.3,2.9-3.8,2.6c-1.5-0.3-2.9,1.3-4.5,3.2c-1,1.1-2.1,2.6-2.9,2.8
		c-0.4,0.1-1.2-1.9-1.6-2.7c-0.7-1.7-1.2-3.2-2.5-3.2h-0.1c-0.8,0-2.7-0.1-4.3-2.4c-1.1-1.6-4.4-2.2-7.9-2.8
		c-2.2-0.4-4.4-0.8-5.3-1.3c-1.3-0.8-4.1-4.6-5.5-7.7l-0.6-4.4c0.5,0-0.2-4.9-0.2-5.4l9.9-2.1l10.2-2.2c1,0.2,2.1,0.4,3.2,0.5
		c12.7,1,15.7,3,16.4,4.1c2.1,3.6,4.3,3,6.2,1.9c1.3-0.7,7.8-6.2,7.3-8.4c-0.1-0.8,0.1-1.6,0.5-2.3c0.5,0.1,2.1,0.5,2.5,2.9
		C77.8,40.3,77.1,41.2,76.4,42.1L76.4,42.1z"/>
	<rect x="22" y="40.9" transform="matrix(0.9946 -0.1036 0.1036 0.9946 -4.2105 3.4869)" class="st2" width="18.9" height="2.8"/>
</g>
<path class="st3" d="M123.5,35.6"/>
<g id="_16-location">
	<g id="linear_color">
		<linearGradient id="SVGID_2_" gradientUnits="userSpaceOnUse" x1="40.5405" y1="55.3598" x2="56.199" y2="55.3598">
			<stop  offset="0" style="stop-color:#3D8BE8"/>
			<stop  offset="1" style="stop-color:#89BEEC"/>
		</linearGradient>
		<path class="st4" d="M48.4,45.7c-4.3,0-7.8,3.5-7.8,7.8c0,1.3,0.4,2.8,1.2,4.3c0.6,1.2,1.5,2.4,2.6,3.6c1.9,2.1,3.7,3.5,3.8,3.5
			c0.2,0.1,0.4,0.1,0.6,0c0.1-0.1,1.9-1.4,3.8-3.5c1.1-1.2,2-2.5,2.6-3.6c0.8-1.5,1.2-2.9,1.2-4.3C56.2,49.2,52.7,45.7,48.4,45.7z
			 M51.7,60.8c-1,1.2-2.1,2.2-3.4,3.2c-1.2-1-2.3-2-3.4-3.2c-1.6-1.8-3.6-4.6-3.6-7.3c0-3.8,3.1-6.9,6.9-6.9c3.8,0,6.9,3.1,6.9,6.9
			C55.3,56.2,53.3,59,51.7,60.8z"/>
		<linearGradient id="SVGID_3_" gradientUnits="userSpaceOnUse" x1="42.3827" y1="53.5176" x2="54.3568" y2="53.5176">
			<stop  offset="0" style="stop-color:#3D8BE8"/>
			<stop  offset="1" style="stop-color:#89BEEC"/>
		</linearGradient>
		<path class="st5" d="M52.9,57.5c1-1.1,1.5-2.5,1.5-4c0-3.3-2.7-6-6-6c-3.3,0-6,2.7-6,6c0,0.2,0,0.4,0,0.7c0.3,3,2.9,5.3,6,5.3
			C50.1,59.5,51.7,58.8,52.9,57.5z M48.5,56.7h-0.3v-0.9h0.3V56.7z M49,54.9h-1.2c-0.3,0-0.5,0.2-0.5,0.5v1.4h-0.9v-6.4h4v6.4h-0.9
			v-1.4C49.4,55.1,49.2,54.9,49,54.9z M44.5,56.7c-0.5-0.6-0.9-1.4-1-2.1h2v2.1H44.5z M51.3,56.7v-2.1h2c-0.2,0.8-0.5,1.5-1,2.1
			H51.3z M48.4,48.5c2.8,0,5.1,2.3,5.1,5.1c0,0.1,0,0.1,0,0.2h-2.1v-3.8c0-0.3-0.2-0.5-0.5-0.5h-4.9c-0.3,0-0.5,0.2-0.5,0.5v3.8
			h-2.1c0-0.1,0-0.1,0-0.2C43.3,50.7,45.6,48.5,48.4,48.5z M45.5,57.7h5.8C49.5,58.9,47.2,58.9,45.5,57.7z"/>
		<linearGradient id="SVGID_4_" gradientUnits="userSpaceOnUse" x1="51.5936" y1="55.6668" x2="52.5147" y2="55.6668">
			<stop  offset="0" style="stop-color:#3D8BE8"/>
			<stop  offset="1" style="stop-color:#89BEEC"/>
		</linearGradient>
		<path class="st6" d="M52.1,54.9c-0.3,0-0.5,0.2-0.5,0.5V56c0,0.3,0.2,0.5,0.5,0.5c0.3,0,0.5-0.2,0.5-0.5v-0.6
			C52.5,55.1,52.3,54.9,52.1,54.9z"/>
		<linearGradient id="SVGID_5_" gradientUnits="userSpaceOnUse" x1="44.2249" y1="55.6668" x2="45.146" y2="55.6668">
			<stop  offset="0" style="stop-color:#3D8BE8"/>
			<stop  offset="1" style="stop-color:#89BEEC"/>
		</linearGradient>
		<path class="st7" d="M44.7,54.9c-0.3,0-0.5,0.2-0.5,0.5V56c0,0.3,0.2,0.5,0.5,0.5c0.3,0,0.5-0.2,0.5-0.5v-0.6
			C45.1,55.1,44.9,54.9,44.7,54.9z"/>
		<linearGradient id="SVGID_6_" gradientUnits="userSpaceOnUse" x1="47.9092" y1="51.3684" x2="48.8303" y2="51.3684">
			<stop  offset="0" style="stop-color:#3D8BE8"/>
			<stop  offset="1" style="stop-color:#89BEEC"/>
		</linearGradient>
		<path class="st8" d="M48.4,50.6c-0.3,0-0.5,0.2-0.5,0.5v0.6c0,0.3,0.2,0.5,0.5,0.5c0.3,0,0.5-0.2,0.5-0.5v-0.6
			C48.8,50.8,48.6,50.6,48.4,50.6z"/>
		<linearGradient id="SVGID_7_" gradientUnits="userSpaceOnUse" x1="47.9092" y1="53.8246" x2="48.8303" y2="53.8246">
			<stop  offset="0" style="stop-color:#3D8BE8"/>
			<stop  offset="1" style="stop-color:#89BEEC"/>
		</linearGradient>
		<path class="st9" d="M48.4,53.1c-0.3,0-0.5,0.2-0.5,0.5v0.6c0,0.3,0.2,0.5,0.5,0.5c0.3,0,0.5-0.2,0.5-0.5v-0.6
			C48.8,53.3,48.6,53.1,48.4,53.1z"/>
		<linearGradient id="SVGID_8_" gradientUnits="userSpaceOnUse" x1="49.1373" y1="51.3684" x2="50.0584" y2="51.3684">
			<stop  offset="0" style="stop-color:#3D8BE8"/>
			<stop  offset="1" style="stop-color:#89BEEC"/>
		</linearGradient>
		<path class="st10" d="M49.6,52.1c0.3,0,0.5-0.2,0.5-0.5v-0.6c0-0.3-0.2-0.5-0.5-0.5c-0.3,0-0.5,0.2-0.5,0.5v0.6
			C49.1,51.9,49.3,52.1,49.6,52.1z"/>
		<linearGradient id="SVGID_9_" gradientUnits="userSpaceOnUse" x1="49.1373" y1="53.8246" x2="50.0584" y2="53.8246">
			<stop  offset="0" style="stop-color:#3D8BE8"/>
			<stop  offset="1" style="stop-color:#89BEEC"/>
		</linearGradient>
		<path class="st11" d="M50.1,54.1v-0.6c0-0.3-0.2-0.5-0.5-0.5c-0.3,0-0.5,0.2-0.5,0.5v0.6c0,0.3,0.2,0.5,0.5,0.5
			C49.9,54.6,50.1,54.4,50.1,54.1z"/>
		<linearGradient id="SVGID_10_" gradientUnits="userSpaceOnUse" x1="46.6811" y1="51.3684" x2="47.6022" y2="51.3684">
			<stop  offset="0" style="stop-color:#3D8BE8"/>
			<stop  offset="1" style="stop-color:#89BEEC"/>
		</linearGradient>
		<path class="st12" d="M47.1,50.6c-0.3,0-0.5,0.2-0.5,0.5v0.6c0,0.3,0.2,0.5,0.5,0.5s0.5-0.2,0.5-0.5v-0.6
			C47.6,50.8,47.4,50.6,47.1,50.6z"/>
		<linearGradient id="SVGID_11_" gradientUnits="userSpaceOnUse" x1="46.6811" y1="53.8246" x2="47.6022" y2="53.8246">
			<stop  offset="0" style="stop-color:#3D8BE8"/>
			<stop  offset="1" style="stop-color:#89BEEC"/>
		</linearGradient>
		<path class="st13" d="M47.1,53.1c-0.3,0-0.5,0.2-0.5,0.5v0.6c0,0.3,0.2,0.5,0.5,0.5s0.5-0.2,0.5-0.5v-0.6
			C47.6,53.3,47.4,53.1,47.1,53.1z"/>
	</g>
</g>
</svg>
