<svg xmlns="http://www.w3.org/2000/svg" width="100" height="100" viewBox="0 0 100 100">
    <defs>
        <linearGradient id="prefix__a" x1="50%" x2="50%" y1="100%" y2="0%">
            <stop offset="0%" stop-color="#3D8BE8"/>
            <stop offset="100%" stop-color="#89BEEC"/>
        </linearGradient>
    </defs>
    <g fill="none" fill-rule="evenodd">
        <circle cx="50" cy="50" r="50" fill="#4191E9" opacity=".05"/>
        <path fill="url(#prefix__a)" fill-rule="nonzero" d="M50 20c8.284 0 15 6.716 15 15 0 4.374-1.872 8.31-4.859 11.052 2.447 1.037 4.686 2.427 6.661 4.1.976-.76 2.043-1.397 3.177-1.894-1.472-1.513-2.379-3.58-2.379-5.858 0-4.64 3.76-8.4 8.4-8.4 4.64 0 8.4 3.76 8.4 8.4 0 2.278-.907 4.344-2.379 5.857C87.391 50.61 91 55.955 91 62c0 .513-.386.936-.883.993L90 63H75.043c.625 2.238.957 4.587.957 7 0 .513-.386.936-.883.993L75 71H25c-.552 0-1-.448-1-1 0-2.413.332-4.763.957-7H10c-.552 0-1-.448-1-1 0-6.042 3.604-11.389 8.978-13.743-1.471-1.513-2.378-3.58-2.378-5.857 0-4.64 3.76-8.4 8.4-8.4 4.64 0 8.4 3.76 8.4 8.4 0 2.278-.907 4.344-2.379 5.857 1.134.498 2.2 1.134 3.178 1.894 1.974-1.672 4.213-3.063 6.66-4.1C36.872 43.312 35 39.375 35 35c0-8.284 6.716-15 15-15zM37.203 49.69l-.1.062c-6.444 4.109-10.676 11.146-11.072 19.031l-.01.217H49V54.508c-4.438-.226-8.583-1.945-11.797-4.817zm25.598.002l-.116.103c-3.198 2.81-7.297 4.491-11.685 4.713V69h22.978l-.008-.215C73.57 60.86 69.3 53.792 62.8 49.692zM83.942 51.5c-2.065 2.081-4.906 3.279-7.94 3.279-2.469 0-4.81-.793-6.71-2.21 2.212 2.447 3.951 5.306 5.104 8.43L88.961 61l-.022-.26c-.356-3.682-2.258-6.97-5.114-9.125l.117-.115zm-67.765.114c-2.861 2.158-4.764 5.45-5.117 9.138l-.022.248h14.566c1.15-3.12 2.886-5.975 5.092-8.42-1.896 1.41-4.232 2.199-6.694 2.199-2.897 0-5.62-1.092-7.657-3.003l-.168-.162zm55.644-1.927l-.226.078c-.575.207-1.134.455-1.673.74 1.645 1.45 3.793 2.274 6.08 2.274s4.435-.824 6.079-2.272c-.604-.321-1.238-.596-1.898-.82C78.95 50.395 77.522 50.8 76 50.8c-1.405 0-2.729-.345-3.892-.954l-.287-.159zm-52.002 0l-.268.094c-.564.205-1.109.448-1.63.724 1.644 1.45 3.793 2.274 6.08 2.274 2.288 0 4.435-.824 6.079-2.27-.507-.272-1.033-.507-1.575-.707l-.324-.115C26.949 50.395 25.522 50.8 24 50.8c-1.405 0-2.73-.345-3.893-.955l-.288-.158zm21.893-2.218l.127-.046c-.963.348-1.895.755-2.792 1.215 3.02 2.49 6.871 3.895 10.956 3.895 4.085 0 7.935-1.406 10.954-3.893-.771-.396-1.568-.752-2.39-1.066l-.246-.092C55.94 49.072 53.078 50 50 50c-3.078 0-5.94-.927-8.32-2.518l.032-.013zM76 36c-3.535 0-6.4 2.865-6.4 6.4s2.865 6.4 6.4 6.4 6.4-2.865 6.4-6.4S79.535 36 76 36zm-52 0c-3.535 0-6.4 2.865-6.4 6.4s2.865 6.4 6.4 6.4 6.4-2.865 6.4-6.4S27.535 36 24 36zm26-14c-7.18 0-13 5.82-13 13s5.82 13 13 13 13-5.82 13-13-5.82-13-13-13z"/>
    </g>
</svg>
