<svg xmlns="http://www.w3.org/2000/svg" width="60" height="60" viewBox="0 0 60 60">
    <defs>
        <linearGradient id="prefix__a" x1="50%" x2="50%" y1="100%" y2="0%">
            <stop offset="0%" stop-color="#3D8BE8"/>
            <stop offset="100%" stop-color="#89BEEC"/>
        </linearGradient>
    </defs>
    <g fill="none" fill-rule="evenodd">
        <circle cx="30" cy="30" r="30" fill="#4191E9" opacity=".05"/>
        <path fill="url(#prefix__a)" fill-rule="nonzero" d="M33 11c1.105 0 2 .895 2 2h7c1.054 0 1.918.816 1.995 1.85L44 15v30c0 1.054-.816 1.918-1.85 1.995L42 47H18c-1.054 0-1.918-.816-1.995-1.85L16 45V15c0-1.054.816-1.918 1.85-1.995L18 13h7c0-1.105.895-2 2-2zm-8 4h-7v30h24V15h-7l-.005.15C34.918 16.183 34.055 17 33 17h-6c-1.105 0-2-.895-2-2zm10.277 11.215l.087.078c.363.363.388.934.078 1.327l-.078.087-5.657 5.657c-.363.363-.934.388-1.327.078l-.087-.078-2.657-2.657c-.39-.39-.39-1.024 0-1.414.363-.363.935-.389 1.327-.078l.087.078 1.95 1.95 4.95-4.95c.362-.363.934-.389 1.327-.078zM33 13h-6v2h6v-2z"/>
    </g>
</svg>
