<svg width="131" height="24" viewBox="0 0 131 24" fill="none" xmlns="http://www.w3.org/2000/svg">
<path d="M87.7238 21.5245L87.5858 21.0439L87.7238 21.5245ZM130.687 6.47115C130.882 6.27588 130.882 5.9593 130.687 5.76404L127.505 2.58206C127.31 2.3868 126.993 2.3868 126.798 2.58206C126.603 2.77732 126.603 3.0939 126.798 3.28916L129.626 6.11759L126.798 8.94602C126.603 9.14128 126.603 9.45786 126.798 9.65313C126.993 9.84839 127.31 9.84839 127.505 9.65313L130.687 6.47115ZM1.46377 5.95607C1.69482 5.80485 1.75954 5.49495 1.60831 5.26389C1.45709 5.03284 1.14719 4.96813 0.916135 5.11935L1.46377 5.95607ZM2.65202 4.05995C2.41176 4.19607 2.32732 4.50118 2.46343 4.74145C2.59954 4.98172 2.90466 5.06615 3.14492 4.93004L2.65202 4.05995ZM4.9209 4.00464C5.17023 3.88594 5.27612 3.58759 5.15742 3.33826C5.03872 3.08893 4.74037 2.98304 4.49104 3.10174L4.9209 4.00464ZM6.37987 2.2877C6.12229 2.38724 5.99417 2.67674 6.0937 2.93432C6.19323 3.1919 6.48273 3.32002 6.74031 3.22049L6.37987 2.2877ZM8.60675 2.58253C8.87141 2.50372 9.02207 2.22528 8.94326 1.96062C8.86445 1.69597 8.58601 1.54531 8.32135 1.62412L8.60675 2.58253ZM10.3214 1.11659C10.0512 1.17345 9.87821 1.4386 9.93507 1.70883C9.99193 1.97905 10.2571 2.15202 10.5273 2.09517L10.3214 1.11659ZM12.4818 1.76739C12.7558 1.73294 12.95 1.48291 12.9155 1.20892C12.8811 0.934936 12.6311 0.740754 12.3571 0.775204L12.4818 1.76739ZM14.4088 0.600918C14.1329 0.613313 13.9193 0.846992 13.9317 1.12286C13.9441 1.39872 14.1778 1.6123 14.4537 1.59991L14.4088 0.600918ZM16.4352 1.58731C16.7112 1.59597 16.942 1.37925 16.9506 1.10324C16.9593 0.827234 16.7426 0.596466 16.4666 0.587805L16.4352 1.58731ZM18.5202 0.726258C18.2455 0.698066 18 0.8979 17.9718 1.1726C17.9436 1.4473 18.1434 1.69284 18.4181 1.72103L18.5202 0.726258ZM20.3872 1.98851C20.6596 2.03431 20.9174 1.85068 20.9632 1.57836C21.009 1.30604 20.8254 1.04816 20.5531 1.00236L20.3872 1.98851ZM22.5622 1.40111C22.2929 1.33974 22.0249 1.50826 21.9636 1.77749C21.9022 2.04673 22.0707 2.31474 22.3399 2.37611L22.5622 1.40111ZM24.2747 2.87018C24.5405 2.94511 24.8167 2.7904 24.8916 2.52461C24.9666 2.25883 24.8118 1.98263 24.5461 1.9077L24.2747 2.87018ZM26.5044 2.50792C26.2422 2.42133 25.9594 2.5637 25.8729 2.82592C25.7863 3.08813 25.9286 3.3709 26.1908 3.45749L26.5044 2.50792ZM28.0771 4.12126C28.3359 4.21771 28.6238 4.08613 28.7203 3.82738C28.8167 3.56863 28.6851 3.28068 28.4264 3.18424L28.0771 4.12126ZM30.322 3.92675C30.0665 3.82203 29.7745 3.94427 29.6698 4.19978C29.565 4.4553 29.6873 4.74733 29.9428 4.85205L30.322 3.92675ZM31.7925 5.64046C32.0451 5.75206 32.3403 5.63777 32.4519 5.38519C32.5635 5.1326 32.4492 4.83737 32.1966 4.72577L31.7925 5.64046ZM34.0496 5.57022C33.7996 5.453 33.5019 5.56066 33.3847 5.81069C33.2675 6.06072 33.3751 6.35843 33.6251 6.47565L34.0496 5.57022ZM35.4361 7.34543C35.684 7.46713 35.9836 7.36484 36.1053 7.11696C36.227 6.86909 36.1247 6.56948 35.8768 6.44778L35.4361 7.34543ZM37.6923 7.3558C37.4462 7.23061 37.1452 7.32866 37.02 7.5748C36.8948 7.82094 36.9929 8.12195 37.239 8.24714L37.6923 7.3558ZM39.0353 9.17326C39.2801 9.30101 39.5821 9.20612 39.7099 8.9613C39.8376 8.71649 39.7427 8.41447 39.4979 8.28671L39.0353 9.17326ZM41.2872 9.22911C41.0433 9.09963 40.7406 9.1924 40.6111 9.43631C40.4817 9.68022 40.5744 9.9829 40.8184 10.1124L41.2872 9.22911ZM42.601 11.0636C42.8444 11.194 43.1474 11.1024 43.2778 10.859C43.4082 10.6156 43.3166 10.3126 43.0732 10.1822L42.601 11.0636ZM44.8575 11.1395C44.6142 11.0089 44.311 11.1003 44.1805 11.3436C44.0499 11.5869 44.1412 11.89 44.3845 12.0206L44.8575 11.1395ZM46.1668 12.9752C46.4104 13.1053 46.7133 13.0132 46.8434 12.7696C46.9734 12.526 46.8814 12.2231 46.6378 12.0931L46.1668 12.9752ZM48.4219 13.0402C48.1777 12.9115 47.8752 13.0051 47.7464 13.2493C47.6177 13.4936 47.7113 13.796 47.9555 13.9248L48.4219 13.0402ZM49.752 14.8634C49.9973 14.9902 50.299 14.8942 50.4258 14.6489C50.5526 14.4036 50.4566 14.1019 50.2113 13.9751L49.752 14.8634ZM52.0074 14.8918C51.7607 14.7677 51.4601 14.867 51.336 15.1137C51.2119 15.3604 51.3112 15.661 51.5579 15.7851L52.0074 14.8918ZM53.377 16.6852C53.6254 16.8059 53.9245 16.7023 54.0452 16.4539C54.1659 16.2056 54.0624 15.9064 53.814 15.7857L53.377 16.6852ZM55.6317 16.6505C55.3813 16.534 55.0839 16.6426 54.9675 16.893C54.8511 17.1434 54.9596 17.4408 55.21 17.5572L55.6317 16.6505ZM57.0618 18.3965C57.3145 18.5079 57.6096 18.3933 57.721 18.1407C57.8324 17.888 57.7179 17.5928 57.4652 17.4814L57.0618 18.3965ZM59.3142 18.2716C59.059 18.1661 58.7666 18.2875 58.6612 18.5427C58.5557 18.7979 58.6771 19.0903 58.9323 19.1958L59.3142 18.2716ZM60.8219 19.9481C61.0798 20.0467 61.3689 19.9176 61.4675 19.6597C61.5662 19.4018 61.4371 19.1127 61.1791 19.0141L60.8219 19.9481ZM63.0653 19.7038C62.8045 19.6129 62.5195 19.7507 62.4286 20.0114C62.3378 20.2722 62.4755 20.5572 62.7363 20.6481L63.0653 19.7038ZM64.6724 21.287C64.9361 21.369 65.2164 21.2217 65.2984 20.9581C65.3804 20.6944 65.2332 20.4141 64.9695 20.3321L64.6724 21.287ZM66.8919 20.8919C66.6253 20.8197 66.3507 20.9772 66.2785 21.2438C66.2064 21.5103 66.3639 21.7849 66.6305 21.8571L66.8919 20.8919ZM68.6126 22.3514C68.8819 22.4127 69.1498 22.2441 69.2111 21.9748C69.2723 21.7056 69.1037 21.4376 68.8345 21.3763L68.6126 22.3514ZM70.7929 21.7773C70.5212 21.728 70.261 21.9082 70.2117 22.18C70.1624 22.4517 70.3427 22.7119 70.6144 22.7612L70.7929 21.7773ZM72.6351 23.0791C72.9088 23.1155 73.1602 22.9231 73.1966 22.6493C73.2329 22.3756 73.0405 22.1242 72.7668 22.0878L72.6351 23.0791ZM74.7513 22.3011C74.476 22.2786 74.2347 22.4835 74.2122 22.7587C74.1897 23.0339 74.3946 23.2753 74.6698 23.2978L74.7513 22.3011ZM76.7126 23.4108C76.9886 23.4187 77.2188 23.2014 77.2267 22.9253C77.2346 22.6493 77.0172 22.4191 76.7412 22.4112L76.7126 23.4108ZM78.7375 22.4137C78.4615 22.421 78.2436 22.6507 78.2509 22.9267C78.2582 23.2028 78.4879 23.4207 78.764 23.4134L78.7375 22.4137ZM80.8087 23.3019C81.0839 23.2791 81.2885 23.0375 81.2657 22.7623C81.2429 22.4871 81.0013 22.2825 80.7261 22.3053L80.8087 23.3019ZM82.7027 22.085C82.4292 22.1234 82.2386 22.3761 82.277 22.6496C82.3154 22.9231 82.5682 23.1137 82.8416 23.0753L82.7027 22.085ZM84.8706 22.7314C85.1415 22.6775 85.3174 22.4143 85.2635 22.1435C85.2096 21.8726 84.9464 21.6967 84.6756 21.7506L84.8706 22.7314ZM86.6109 21.3093C86.3435 21.3781 86.1825 21.6507 86.2513 21.9181C86.3201 22.1855 86.5927 22.3465 86.8601 22.2777L86.6109 21.3093ZM88.8742 21.705C89.1382 21.6242 89.2868 21.3447 89.2061 21.0806C89.1253 20.8165 88.8458 20.6679 88.5817 20.7487L88.8742 21.705ZM90.5419 20.1124C90.2807 20.2022 90.1418 20.4866 90.2315 20.7478C90.3212 21.0089 90.6057 21.1479 90.8668 21.0581L90.5419 20.1124ZM92.8396 20.3423C93.0976 20.2437 93.2268 19.9547 93.1282 19.6968C93.0296 19.4388 92.7406 19.3096 92.4826 19.4082L92.8396 20.3423ZM94.4007 18.6384C94.1462 18.7454 94.0266 19.0386 94.1336 19.2931C94.2406 19.5477 94.5337 19.6673 94.7883 19.5603L94.4007 18.6384ZM96.7052 18.7191C96.9564 18.6043 97.0669 18.3076 96.9522 18.0565C96.8374 17.8053 96.5408 17.6947 96.2896 17.8095L96.7052 18.7191ZM98.16 16.923C97.9121 17.0446 97.8096 17.3442 97.9312 17.5921C98.0528 17.84 98.3523 17.9425 98.6003 17.8209L98.16 16.923ZM100.467 16.8784C100.712 16.7513 100.808 16.4495 100.681 16.2043C100.554 15.9592 100.252 15.8635 100.007 15.9906L100.467 16.8784ZM101.839 15.0198C101.596 15.1509 101.506 15.4542 101.637 15.6972C101.768 15.9403 102.071 16.031 102.314 15.8999L101.839 15.0198ZM104.144 14.9005C104.385 14.7672 104.473 14.4631 104.34 14.2212C104.207 13.9794 103.903 13.8915 103.661 14.0248L104.144 14.9005ZM105.483 13.0176C105.241 13.1511 105.153 13.4552 105.287 13.697C105.42 13.9387 105.725 14.0265 105.966 13.893L105.483 13.0176ZM107.787 12.8956C108.03 12.7642 108.121 12.4608 107.989 12.2179C107.858 11.9751 107.554 11.8847 107.311 12.0161L107.787 12.8956ZM109.158 11.0365C108.913 11.1635 108.817 11.4652 108.944 11.7104C109.071 11.9556 109.373 12.0515 109.618 11.9245L109.158 11.0365ZM111.466 10.998C111.715 10.8778 111.819 10.5789 111.699 10.3302C111.578 10.0816 111.279 9.97745 111.031 10.0976L111.466 10.998ZM112.937 9.21712C112.684 9.32815 112.569 9.62313 112.681 9.87596C112.792 10.1288 113.087 10.2438 113.339 10.1327L112.937 9.21712ZM115.241 9.34561C115.498 9.24573 115.626 8.95606 115.526 8.69861C115.426 8.44116 115.137 8.31344 114.879 8.41332L115.241 9.34561ZM116.861 7.69911C116.599 7.78621 116.457 8.06925 116.544 8.3313C116.631 8.59334 116.914 8.73517 117.176 8.64807L116.861 7.69911ZM119.141 8.05146C119.407 7.9782 119.564 7.70298 119.49 7.43674C119.417 7.17049 119.142 7.01403 118.876 7.08728L119.141 8.05146ZM120.924 6.58232C120.654 6.6412 120.483 6.90764 120.542 7.17743C120.601 7.44722 120.868 7.6182 121.137 7.55932L120.924 6.58232ZM123.152 7.17516C123.425 7.13057 123.609 6.8735 123.565 6.60098C123.52 6.32846 123.263 6.14369 122.991 6.18829L123.152 7.17516ZM125.081 5.90086C124.806 5.93161 124.609 6.179 124.64 6.45343C124.67 6.72785 124.918 6.92539 125.192 6.89464L125.081 5.90086ZM127.24 6.71473C127.516 6.69701 127.725 6.45924 127.707 6.18367C127.689 5.9081 127.452 5.69907 127.176 5.7168L127.24 6.71473ZM129.274 5.62842C128.997 5.63411 128.778 5.86253 128.784 6.13862C128.79 6.4147 129.018 6.6339 129.294 6.62821L129.274 5.62842ZM0.619936 6.5273C0.901588 6.33029 1.18286 6.13992 1.46377 5.95607L0.916135 5.11935C0.626506 5.30891 0.336716 5.50505 0.046751 5.70788L0.619936 6.5273ZM3.14492 4.93004C3.73837 4.59385 4.33032 4.28581 4.9209 4.00464L4.49104 3.10174C3.87865 3.3933 3.26568 3.71232 2.65202 4.05995L3.14492 4.93004ZM6.74031 3.22049C7.36362 2.97963 7.98571 2.76746 8.60675 2.58253L8.32135 1.62412C7.67484 1.81664 7.02771 2.03737 6.37987 2.2877L6.74031 3.22049ZM10.5273 2.09517C11.1795 1.95795 11.8309 1.84924 12.4818 1.76739L12.3571 0.775204C11.6793 0.860427 11.0008 0.973655 10.3214 1.11659L10.5273 2.09517ZM14.4537 1.59991C15.1142 1.57023 15.7746 1.56659 16.4352 1.58731L16.4666 0.587805C15.7814 0.566307 15.0955 0.570064 14.4088 0.600918L14.4537 1.59991ZM18.4181 1.72103C19.074 1.78835 19.7303 1.87804 20.3872 1.98851L20.5531 1.00236C19.8761 0.888505 19.1985 0.795866 18.5202 0.726258L18.4181 1.72103ZM22.3399 2.37611C22.9841 2.52293 23.629 2.68813 24.2747 2.87018L24.5461 1.9077C23.885 1.72134 23.2238 1.55192 22.5622 1.40111L22.3399 2.37611ZM26.1908 3.45749C26.8187 3.66481 27.4474 3.88653 28.0771 4.12126L28.4264 3.18424C27.7857 2.94542 27.145 2.71947 26.5044 2.50792L26.1908 3.45749ZM29.9428 4.85205C30.5583 5.1043 31.1748 5.36754 31.7925 5.64046L32.1966 4.72577C31.5714 4.44951 30.9466 4.18271 30.322 3.92675L29.9428 4.85205ZM33.6251 6.47565C34.2276 6.7581 34.8312 7.04843 35.4361 7.34543L35.8768 6.44778C35.2671 6.14843 34.6581 5.85549 34.0496 5.57022L33.6251 6.47565ZM37.239 8.24714C37.8364 8.55098 38.4351 8.86006 39.0353 9.17326L39.4979 8.28671C38.8952 7.97218 38.2933 7.66147 37.6923 7.3558L37.239 8.24714ZM40.8184 10.1124C41.4111 10.427 42.0052 10.7444 42.601 11.0636L43.0732 10.1822C42.4768 9.86264 41.8815 9.54456 41.2872 9.22911L40.8184 10.1124ZM44.3845 12.0206C44.9769 12.3386 45.5711 12.6572 46.1668 12.9752L46.6378 12.0931C46.043 11.7756 45.4497 11.4574 44.8575 11.1395L44.3845 12.0206ZM47.9555 13.9248C48.5525 14.2396 49.1513 14.5528 49.752 14.8634L50.2113 13.9751C49.6134 13.6659 49.017 13.354 48.4219 13.0402L47.9555 13.9248ZM51.5579 15.7851C52.1622 16.0892 52.7685 16.3896 53.377 16.6852L53.814 15.7857C53.2101 15.4923 52.608 15.194 52.0074 14.8918L51.5579 15.7851ZM55.21 17.5572C55.825 17.8432 56.4422 18.1233 57.0618 18.3965L57.4652 17.4814C56.8522 17.2112 56.2411 16.9339 55.6317 16.6505L55.21 17.5572ZM58.9323 19.1958C59.5596 19.455 60.1894 19.7062 60.8219 19.9481L61.1791 19.0141C60.5555 18.7755 59.9339 18.5277 59.3142 18.2716L58.9323 19.1958ZM62.7363 20.6481C63.3789 20.8719 64.0242 21.0853 64.6724 21.287L64.9695 20.3321C64.3325 20.1339 63.6978 19.9241 63.0653 19.7038L62.7363 20.6481ZM66.6305 21.8571C67.2881 22.0352 67.9488 22.2004 68.6126 22.3514L68.8345 21.3763C68.1845 21.2284 67.537 21.0666 66.8919 20.8919L66.6305 21.8571ZM70.6144 22.7612C71.2847 22.8829 71.9582 22.9892 72.6351 23.0791L72.7668 22.0878C72.1061 22.0001 71.4482 21.8962 70.7929 21.7773L70.6144 22.7612ZM74.6698 23.2978C75.3474 23.3532 76.0283 23.3912 76.7126 23.4108L76.7412 22.4112C76.075 22.3922 75.4117 22.3551 74.7513 22.3011L74.6698 23.2978ZM78.764 23.4134C79.4422 23.3954 80.1237 23.3586 80.8087 23.3019L80.7261 22.3053C80.0601 22.3605 79.3973 22.3963 78.7375 22.4137L78.764 23.4134ZM82.8416 23.0753C83.5147 22.9808 84.1911 22.8665 84.8706 22.7314L84.6756 21.7506C84.0147 21.882 83.3571 21.9932 82.7027 22.085L82.8416 23.0753ZM86.8601 22.2777C87.1932 22.192 87.5271 22.1011 87.8618 22.005L87.5858 21.0439C87.26 21.1374 86.9351 21.2259 86.6109 21.3093L86.8601 22.2777ZM87.8618 22.005C88.2035 21.9069 88.5409 21.8069 88.8742 21.705L88.5817 20.7487C88.2539 20.8489 87.922 20.9473 87.5858 21.0439L87.8618 22.005ZM90.8668 21.0581C91.5412 20.8264 92.1982 20.5875 92.8396 20.3423L92.4826 19.4082C91.8515 19.6494 91.2051 19.8845 90.5419 20.1124L90.8668 21.0581ZM94.7883 19.5603C95.4426 19.2852 96.0809 19.0043 96.7052 18.7191L96.2896 17.8095C95.674 18.0908 95.0451 18.3675 94.4007 18.6384L94.7883 19.5603ZM98.6003 17.8209C99.2351 17.5096 99.8566 17.1949 100.467 16.8784L100.007 15.9906C99.402 16.3042 98.7873 16.6155 98.16 16.923L98.6003 17.8209ZM102.314 15.8999C102.932 15.5663 103.541 15.2325 104.144 14.9005L103.661 14.0248C103.06 14.3561 102.454 14.6883 101.839 15.0198L102.314 15.8999ZM105.966 13.893C106.576 13.5561 107.182 13.2231 107.787 12.8956L107.311 12.0161C106.703 12.3456 106.094 12.6802 105.483 13.0176L105.966 13.893ZM109.618 11.9245C110.231 11.6073 110.846 11.2978 111.466 10.998L111.031 10.0976C110.401 10.4021 109.778 10.7158 109.158 11.0365L109.618 11.9245ZM113.339 10.1327C113.964 9.85857 114.596 9.5956 115.241 9.34561L114.879 8.41332C114.22 8.66899 113.574 8.9376 112.937 9.21712L113.339 10.1327ZM117.176 8.64807C117.817 8.4352 118.471 8.2358 119.141 8.05146L118.876 7.08728C118.188 7.27642 117.518 7.48094 116.861 7.69911L117.176 8.64807ZM121.137 7.55932C121.792 7.41647 122.463 7.28798 123.152 7.17516L122.991 6.18829C122.284 6.30395 121.596 6.43575 120.924 6.58232L121.137 7.55932ZM125.192 6.89464C125.857 6.82015 126.539 6.75984 127.24 6.71473L127.176 5.7168C126.459 5.7629 125.762 5.82459 125.081 5.90086L125.192 6.89464ZM129.294 6.62821C129.636 6.62117 129.982 6.61759 130.333 6.61759V5.61759C129.976 5.61759 129.622 5.62124 129.274 5.62842L129.294 6.62821Z" fill="#3D8BE8"/>
</svg>
