<svg width="52" height="52" viewBox="0 0 52 52" fill="none" xmlns="http://www.w3.org/2000/svg">
    <path d="M26.2922 16.3341C21.7433 16.3341 18.0642 20.013 18.0642 24.562C18.0642 25.9745 18.4131 27.3335 19.1022 28.5674C20.5514 31.1664 21.5404 33.826 22.0793 36.7552C22.1531 37.1581 22.4868 37.4319 22.8948 37.4319H29.6887C30.0971 37.4319 30.4305 37.1581 30.5042 36.7552C31.0432 33.8298 32.0316 31.1656 33.4813 28.5705C34.169 27.3351 34.5193 25.9767 34.5193 24.5624C34.5193 20.0135 30.8404 16.3344 26.2913 16.3344L26.2922 16.3341ZM26.2922 14.9783C31.5774 14.9783 35.8751 19.2763 35.8751 24.5612C35.8751 26.1944 35.4562 27.7998 34.6609 29.2256C33.2841 31.6912 32.3455 34.2191 31.8332 36.9977C31.6409 38.0357 30.7453 38.7866 29.6885 38.7866H22.8947C21.838 38.7866 20.9424 38.0357 20.7501 36.9977C20.2377 34.2199 19.2995 31.692 17.9232 29.2271C17.1271 27.8068 16.7081 26.1887 16.7081 24.5609C16.7081 19.2757 21.0061 14.978 26.291 14.978L26.2922 14.9783Z"
          fill="url(#paint0_linear_104_4950)"/>
    <path d="M26.2923 17.6514C26.6036 17.6514 26.8572 17.905 26.8572 18.2163C26.8572 18.5276 26.6036 18.7813 26.2923 18.7813C23.7983 18.7813 21.5844 20.3742 20.8015 22.7447C20.7045 23.04 20.3853 23.2011 20.09 23.1041C19.7946 23.007 19.6335 22.6878 19.7306 22.3925C20.6628 19.5684 23.3188 17.6517 26.2923 17.6517L26.2923 17.6514Z"
          fill="url(#paint1_linear_104_4950)"/>
    <path d="M25.6144 5.0107C25.6144 4.63709 25.9185 4.33301 26.2921 4.33301C26.6657 4.33301 26.9698 4.63709 26.9698 5.0107V11.1063C26.9698 11.4799 26.6657 11.784 26.2921 11.784C25.9185 11.784 25.6144 11.4799 25.6144 11.1063V5.0107Z"
          fill="url(#paint2_linear_104_4950)"/>
    <path d="M15.9324 7.96918C15.7456 7.64725 15.856 7.23254 16.1779 7.04602C16.4998 6.85921 16.9145 6.96954 17.101 7.29146L20.1492 12.5697C20.336 12.8916 20.2256 13.3064 19.9037 13.4929C19.5818 13.6797 19.1671 13.5694 18.9806 13.2474L15.9324 7.96918Z"
          fill="url(#paint3_linear_104_4950)"/>
    <path d="M9.02462 15.3706C8.7027 15.1856 8.59146 14.7721 8.77646 14.4499C8.96144 14.128 9.37496 14.0168 9.69714 14.2017L14.9763 17.2493C15.2983 17.4342 15.4095 17.8478 15.2245 18.1699C15.0395 18.4919 14.626 18.6031 14.3038 18.4181L9.02462 15.3706Z"
          fill="url(#paint4_linear_104_4950)"/>
    <path d="M6.74169 25.2366C6.36899 25.2366 6.06671 24.934 6.06671 24.5616C6.06671 24.1889 6.36929 23.8866 6.74169 23.8866L12.8372 23.8857C13.2099 23.8857 13.5122 24.1883 13.5122 24.5607C13.5122 24.9334 13.2096 25.2357 12.8372 25.2357L6.74169 25.2366Z"
          fill="url(#paint5_linear_104_4950)"/>
    <path d="M9.70019 34.9214C9.37827 35.1082 8.96356 34.9979 8.77703 34.676C8.59023 34.3541 8.70056 33.9394 9.02248 33.7528L14.3007 30.7047C14.6227 30.5179 15.0374 30.6282 15.2239 30.9502C15.4107 31.2721 15.3004 31.6868 14.9785 31.8733L9.70019 34.9214Z"
          fill="url(#paint6_linear_104_4950)"/>
    <path d="M43.5599 33.7527C43.8818 33.9377 43.993 34.3512 43.808 34.6734C43.6231 34.9953 43.2095 35.1065 42.8874 34.9215L37.6082 31.874C37.2863 31.689 37.175 31.2755 37.36 30.9533C37.545 30.6314 37.9585 30.5202 38.2807 30.7052L43.5599 33.7527Z"
          fill="url(#paint7_linear_104_4950)"/>
    <path d="M45.8426 23.8867C46.2153 23.8867 46.5176 24.1893 46.5176 24.5617C46.5176 24.9344 46.215 25.2367 45.8426 25.2367L39.7471 25.2376C39.3744 25.2376 39.0721 24.935 39.0721 24.5626C39.0721 24.1899 39.3747 23.8876 39.7471 23.8876L45.8426 23.8867Z"
          fill="url(#paint8_linear_104_4950)"/>
    <path d="M42.8844 14.2018C43.2063 14.015 43.621 14.1253 43.8075 14.4472C43.9943 14.7691 43.884 15.1839 43.5621 15.3704L38.2838 18.4185C37.9619 18.6053 37.5472 18.495 37.3607 18.1731C37.1738 17.8511 37.2842 17.4364 37.6061 17.2499L42.8844 14.2018Z"
          fill="url(#paint9_linear_104_4950)"/>
    <path d="M35.4828 7.29366C35.6678 6.97174 36.0813 6.8605 36.4035 7.0455C36.7254 7.23049 36.8366 7.644 36.6516 7.96618L33.6041 13.2454C33.4191 13.5673 33.0056 13.6785 32.6834 13.4935C32.3615 13.3085 32.2503 12.895 32.4353 12.5728L35.4828 7.29366Z"
          fill="url(#paint10_linear_104_4950)"/>
    <path fill-rule="evenodd" clip-rule="evenodd"
          d="M29.6413 45.0195C29.2828 46.5369 27.9202 47.6665 26.2925 47.6665C24.6648 47.6665 23.3021 46.5369 22.9437 45.0195H29.6413Z"
          fill="url(#paint11_linear_104_4950)"/>
    <path d="M22.2227 41.4172C21.8074 41.4172 21.4695 41.0792 21.4695 40.6639C21.4695 40.2486 21.8074 39.9106 22.2227 39.9106H30.3602C30.7755 39.9106 31.1134 40.2486 31.1134 40.6639C31.1134 41.0792 30.7755 41.4172 30.3602 41.4172H22.2227Z"
          fill="url(#paint12_linear_104_4950)"/>
    <path d="M22.9293 43.9714C22.514 43.9714 22.176 43.6334 22.176 43.2181C22.176 42.8028 22.514 42.4648 22.9293 42.4648H29.6545C30.0698 42.4648 30.4078 42.8028 30.4078 43.2181C30.4078 43.6334 30.0698 43.9714 29.6545 43.9714H22.9293Z"
          fill="url(#paint13_linear_104_4950)"/>
    <defs>
        <linearGradient id="paint0_linear_104_4950" x1="26.2916" y1="14.978" x2="26.2916" y2="38.7866"
                        gradientUnits="userSpaceOnUse">
            <stop stop-color="#96BBEF"/>
            <stop offset="1" stop-color="#5B86EC"/>
        </linearGradient>
        <linearGradient id="paint1_linear_104_4950" x1="23.2798" y1="17.6514" x2="23.2798" y2="23.1323"
                        gradientUnits="userSpaceOnUse">
            <stop stop-color="#96BBEF"/>
            <stop offset="1" stop-color="#5B86EC"/>
        </linearGradient>
        <linearGradient id="paint2_linear_104_4950" x1="26.2921" y1="4.33301" x2="26.2921" y2="11.784"
                        gradientUnits="userSpaceOnUse">
            <stop stop-color="#96BBEF"/>
            <stop offset="1" stop-color="#5B86EC"/>
        </linearGradient>
        <linearGradient id="paint3_linear_104_4950" x1="18.0408" y1="6.95508" x2="18.0408" y2="13.5838"
                        gradientUnits="userSpaceOnUse">
            <stop stop-color="#96BBEF"/>
            <stop offset="1" stop-color="#5B86EC"/>
        </linearGradient>
        <linearGradient id="paint4_linear_104_4950" x1="12.0005" y1="14.1123" x2="12.0005" y2="18.5075"
                        gradientUnits="userSpaceOnUse">
            <stop stop-color="#96BBEF"/>
            <stop offset="1" stop-color="#5B86EC"/>
        </linearGradient>
        <linearGradient id="paint5_linear_104_4950" x1="9.78947" y1="23.8857" x2="9.78947" y2="25.2366"
                        gradientUnits="userSpaceOnUse">
            <stop stop-color="#96BBEF"/>
            <stop offset="1" stop-color="#5B86EC"/>
        </linearGradient>
        <linearGradient id="paint6_linear_104_4950" x1="12.0005" y1="30.6138" x2="12.0005" y2="35.0124"
                        gradientUnits="userSpaceOnUse">
            <stop stop-color="#96BBEF"/>
            <stop offset="1" stop-color="#5B86EC"/>
        </linearGradient>
        <linearGradient id="paint7_linear_104_4950" x1="40.584" y1="30.6157" x2="40.584" y2="35.011"
                        gradientUnits="userSpaceOnUse">
            <stop stop-color="#96BBEF"/>
            <stop offset="1" stop-color="#5B86EC"/>
        </linearGradient>
        <linearGradient id="paint8_linear_104_4950" x1="42.7948" y1="23.8867" x2="42.7948" y2="25.2376"
                        gradientUnits="userSpaceOnUse">
            <stop stop-color="#96BBEF"/>
            <stop offset="1" stop-color="#5B86EC"/>
        </linearGradient>
        <linearGradient id="paint9_linear_104_4950" x1="40.5841" y1="14.1108" x2="40.5841" y2="18.5094"
                        gradientUnits="userSpaceOnUse">
            <stop stop-color="#96BBEF"/>
            <stop offset="1" stop-color="#5B86EC"/>
        </linearGradient>
        <linearGradient id="paint10_linear_104_4950" x1="34.5434" y1="6.95605" x2="34.5434" y2="13.583"
                        gradientUnits="userSpaceOnUse">
            <stop stop-color="#96BBEF"/>
            <stop offset="1" stop-color="#5B86EC"/>
        </linearGradient>
        <linearGradient id="paint11_linear_104_4950" x1="26.2925" y1="45.0195" x2="26.2925" y2="47.6665"
                        gradientUnits="userSpaceOnUse">
            <stop stop-color="#96BBEF"/>
            <stop offset="1" stop-color="#5B86EC"/>
        </linearGradient>
        <linearGradient id="paint12_linear_104_4950" x1="26.2915" y1="39.9106" x2="26.2915" y2="41.4172"
                        gradientUnits="userSpaceOnUse">
            <stop stop-color="#96BBEF"/>
            <stop offset="1" stop-color="#5B86EC"/>
        </linearGradient>
        <linearGradient id="paint13_linear_104_4950" x1="26.2919" y1="42.4648" x2="26.2919" y2="43.9714"
                        gradientUnits="userSpaceOnUse">
            <stop stop-color="#96BBEF"/>
            <stop offset="1" stop-color="#5B86EC"/>
        </linearGradient>
    </defs>
</svg>
