<svg width="20" height="20" viewBox="0 0 20 20" fill="none" xmlns="http://www.w3.org/2000/svg">
    <path fill-rule="evenodd" clip-rule="evenodd"
          d="M17.5 10C17.5 14.1421 14.1421 17.5 10 17.5C5.85786 17.5 2.5 14.1421 2.5 10C2.5 5.85786 5.85786 2.5 10 2.5C14.1421 2.5 17.5 5.85786 17.5 10ZM13.7072 8.40756C13.8633 8.2586 13.869 8.01134 13.7201 7.85528C13.5711 7.69923 13.3238 7.69348 13.1678 7.84244L8.85414 11.96L6.83222 10.0299C6.67617 9.88098 6.4289 9.88673 6.27994 10.0428C6.13098 10.1988 6.13673 10.4461 6.29278 10.5951L8.58442 12.7826C8.73537 12.9266 8.97291 12.9266 9.12386 12.7826L13.7072 8.40756Z"
          fill="url(#paint0_linear_202_4703)"/>
    <defs>
        <linearGradient id="paint0_linear_202_4703" x1="10" y1="2.5" x2="10" y2="17.5" gradientUnits="userSpaceOnUse">
            <stop stop-color="#96BBEF"/>
            <stop offset="1" stop-color="#5B86EC"/>
        </linearGradient>
    </defs>
</svg>
