<svg width="40" height="40" viewBox="0 0 40 40" fill="none" xmlns="http://www.w3.org/2000/svg">
<path fill-rule="evenodd" clip-rule="evenodd" d="M19.3569 6.42814C19.7927 6.16666 20.3434 6.19507 20.75 6.5C21.264 6.88551 21.9396 7.42344 22.4981 7.98201C24.7455 10.2294 26.3558 13.0201 27.0413 15.9795C27.0802 16.098 27.1162 16.2137 27.1498 16.3272C29.8726 14.6243 33.08 13.6231 36.4978 13.5763L36.5149 13.576L36.5483 13.5762C37.2745 13.5761 37.9839 13.5761 38.8313 13.7173C39.3436 13.8027 39.7497 14.1959 39.8516 14.7052C40.0004 15.4491 40.0002 16.2994 40 16.9968L40 17.0613C40 26.8162 31.99 34.8262 22.2351 34.8262H20.0001H17.7737C8.006 34.9551 1.81085e-05 26.9341 1.81085e-05 17.1854C1.81085e-05 17.1641 1.36382e-05 17.1426 9.16781e-06 17.121C-0.000136119 16.4235 -0.000313297 15.5732 0.148464 14.8294C0.250314 14.3201 0.656427 13.9269 1.16869 13.8415C2.01617 13.7003 2.72558 13.7003 3.45172 13.7003L3.48512 13.7003C6.93711 13.7003 10.1469 14.6636 12.8619 16.3338C13.495 13.5563 14.8356 10.924 16.8862 8.72842C17.022 8.52159 17.17 8.37518 17.2377 8.30821C17.2436 8.30234 17.2489 8.29708 17.2536 8.29244C17.2759 8.27005 17.2917 8.25375 17.3022 8.24267C17.357 8.14748 17.4241 8.05982 17.5019 7.98201C17.5142 7.96971 17.5266 7.95733 17.539 7.94487C18.0131 7.47063 18.6029 6.88055 19.3569 6.42814ZM15.0972 17.9626C17.2483 19.8037 18.9452 22.1503 20.0073 24.8191C21.0846 22.1389 22.8044 19.7815 24.9717 17.9267C24.8886 17.5164 24.7919 17.1366 24.6503 16.7115C24.6373 16.6727 24.6263 16.6332 24.6172 16.5933C24.0531 14.1112 22.6897 11.7091 20.7304 9.74978C20.5043 9.52369 20.2427 9.29202 19.9762 9.07116C19.7854 9.23979 19.5903 9.43014 19.3753 9.64428C19.2433 9.84053 19.1027 9.97966 19.0372 10.0444C19.0313 10.0503 19.026 10.0556 19.0213 10.0602C18.9989 10.0826 18.9832 10.0989 18.9726 10.11C18.9232 10.1959 18.8637 10.2757 18.7953 10.3477C16.7494 12.5013 15.5154 15.1657 15.0972 17.9626ZM27.0608 19.4436C23.5268 22.242 21.25 26.5321 21.25 31.3411V32.3262H22.2351C30.6093 32.3262 37.5 25.4355 37.5 17.0613C37.5 16.7023 37.499 16.3795 37.4886 16.0893C37.1948 16.0768 36.8857 16.0762 36.5236 16.0762C32.9973 16.1263 29.7398 17.3521 27.147 19.3759C27.1193 19.3997 27.0906 19.4223 27.0608 19.4436ZM18.75 31.3411C18.75 22.973 11.9897 16.2003 3.48512 16.2003C3.1193 16.2003 2.80756 16.2009 2.51141 16.2135C2.50106 16.5037 2.50002 16.8265 2.50002 17.1854C2.50002 25.5631 9.39028 32.4408 17.7478 32.3263L17.7649 32.326L18.75 32.3262V31.3411Z" fill="url(#paint0_linear_91_4222)"/>
<defs>
<linearGradient id="paint0_linear_91_4222" x1="-0.728758" y1="-1.34092" x2="20.5464" y2="72.6411" gradientUnits="userSpaceOnUse">
<stop stop-color="#FEC949"/>
<stop offset="0.5" stop-color="#F96848"/>
<stop offset="1" stop-color="#9270F2"/>
</linearGradient>
</defs>
</svg>
