<svg width="60" height="60" viewBox="0 0 60 60" fill="none" xmlns="http://www.w3.org/2000/svg">
<path d="M16.4127 0.000928904C16.21 0.0223959 16.0358 0.153265 15.9586 0.341112L13.662 5.79347H8.05238C7.74771 5.79471 7.50125 6.04159 7.5 6.34626V16.0005C7.49877 16.3068 7.74605 16.5562 8.05238 16.5574H10.013L11.1206 21.5502C11.1751 21.8054 11.4005 21.9883 11.6614 21.9891H47.7268C47.9878 21.9883 48.2132 21.8054 48.2677 21.5502L49.3753 16.5574H51.3358C51.6422 16.5562 51.8895 16.3068 51.8886 16.0005V6.34626C51.8874 6.04159 51.6405 5.79471 51.3358 5.79347H45.7266L43.4301 0.341112C43.3434 0.135108 43.1419 0.000928904 42.9186 0.000928904H16.4695C16.4501 -0.000309635 16.4311 -0.000309635 16.4117 0.000928904H16.4127ZM16.8387 1.1119H42.5512L44.4878 5.71137H14.9009L16.8387 1.1119ZM8.6101 6.9032H50.7789V15.4473H8.6101V6.9032ZM11.1535 16.5574H48.2368L47.2819 20.8795H12.1095L11.1535 16.5574ZM11.9284 22.0837L11.928 22.0833C11.76 22.0837 11.6011 22.16 11.4958 22.2913C11.3905 22.4226 11.3509 22.5944 11.3872 22.7587L17.1302 48.7036H17.1298C17.1851 48.9583 17.4101 49.1408 17.6706 49.1416H41.7185C41.9794 49.1408 42.2044 48.9583 42.2593 48.7036L48.0023 22.7587C48.0386 22.5944 47.9986 22.4226 47.8937 22.2913C47.7885 22.16 47.6295 22.0837 47.4615 22.0833L11.9284 22.0837ZM12.6166 23.1934H46.7723L41.2713 48.0318H18.1164L12.6166 23.1934ZM27.3926 27.9608C26.0658 27.9525 24.8273 28.3592 23.9021 29.2505C22.6681 30.439 22.2694 32.2196 22.5625 34.0546C22.856 35.8901 23.8253 37.8193 25.3913 39.457C26.9567 41.0952 28.836 42.1471 30.6504 42.5174C32.4653 42.8877 34.2541 42.5616 35.4884 41.373C36.7224 40.1845 37.1224 38.403 36.829 36.5676C36.5354 34.7321 35.5661 32.8042 34.0002 31.166C32.4347 29.5279 30.5546 28.4747 28.7398 28.1044C28.2861 28.0115 27.8349 27.9628 27.3927 27.9603L27.3926 27.9608ZM27.3893 29.0705C27.751 29.0734 28.1283 29.1159 28.5176 29.1947C30.0741 29.5122 31.7783 30.4477 33.2005 31.9356C34.6227 33.4236 35.4806 35.1681 35.732 36.7419C35.9165 37.8962 35.7803 38.9373 35.332 39.7614C34.9381 38.7871 34.2978 38.0085 33.5427 37.3694C32.5205 36.5041 31.2919 35.865 30.0901 35.2061C27.7733 33.9366 25.6141 32.6659 24.9053 29.8557C25.5699 29.326 26.4204 29.0598 27.3893 29.0701L27.3893 29.0705ZM24.0557 30.8663C25.056 33.6105 27.4042 34.9976 29.5579 36.1779C30.7705 36.8421 31.9359 37.4639 32.8268 38.2173C33.6417 38.9067 34.2254 39.685 34.4905 40.7629C33.5773 41.4924 32.3038 41.7174 30.8708 41.4251C29.3143 41.1076 27.6131 40.1746 26.1913 38.6863C24.7691 37.1985 23.9079 35.4505 23.6565 33.8767C23.4724 32.7245 23.6098 31.6883 24.0565 30.8659L24.0557 30.8663ZM17.9412 49.2356L17.9408 49.2352C17.7715 49.234 17.6113 49.3104 17.5052 49.4421C17.3991 49.5738 17.3587 49.7463 17.3958 49.9115L19.5339 59.5657C19.59 59.8192 19.815 59.9996 20.0747 60H39.3149C39.5745 59.9996 39.7991 59.8192 39.8557 59.5657L41.9937 49.9115C42.0309 49.7463 41.9904 49.5738 41.8843 49.4421C41.7782 49.3104 41.6176 49.234 41.4488 49.2352L17.9412 49.2356ZM18.6335 50.3454H40.7558L38.8679 58.8906L20.5208 58.8902L18.6335 50.3454Z" fill="url(#paint0_linear_91_4248)"/>
<defs>
<linearGradient id="paint0_linear_91_4248" x1="29.6943" y1="0" x2="29.6943" y2="60" gradientUnits="userSpaceOnUse">
<stop stop-color="#96BBEF"/>
<stop offset="1" stop-color="#5B86EC"/>
</linearGradient>
</defs>
</svg>
