<?xml version="1.0" encoding="utf-8"?>
<!-- Generator: Adobe Illustrator 24.1.3, SVG Export Plug-In . SVG Version: 6.00 Build 0)  -->
<svg version="1.1" id="Layer_1" xmlns="http://www.w3.org/2000/svg" xmlns:xlink="http://www.w3.org/1999/xlink" x="0px" y="0px" width="60" height="60"
	 viewBox="0 0 100 100" style="enable-background:new 0 0 100 100;" xml:space="preserve">
<style type="text/css">
	.st0{opacity:5.000000e-02;fill-rule:evenodd;clip-rule:evenodd;fill:#4191E9;enable-background:new    ;}
	.st1{fill:#FFFFFF;}
	.st2{fill:url(#SVGID_1_);}
</style>
<g>
	<circle class="st0" cx="50" cy="50" r="50"/>
</g>
<path class="st1" d="M123.5,35.6"/>
<linearGradient id="SVGID_1_" gradientUnits="userSpaceOnUse" x1="21.9805" y1="50.5" x2="77.0195" y2="50.5">
	<stop  offset="0" style="stop-color:#3D8BE8"/>
	<stop  offset="1" style="stop-color:#89BEEC"/>
</linearGradient>
<path class="st2" d="M63.7,62.6c0.7,0.9,0.6,2.3-0.3,3C57,70.8,50.7,73.9,50.5,74c-0.3,0.1-0.6,0.2-0.9,0.2c-0.3,0-0.6-0.1-0.9-0.2
	c-0.3-0.1-6.5-3.2-13-8.4c-0.9-0.8-1.1-2.1-0.3-3c0.8-0.9,2.1-1.1,3-0.3c4.6,3.8,9.2,6.4,11.2,7.4c1.9-1,6.5-3.7,11.1-7.4
	C61.6,61.5,62.9,61.6,63.7,62.6L63.7,62.6z M26.4,53.7c0.3,0,0.7-0.1,1-0.2c1.1-0.5,1.5-1.8,0.9-2.9c-1.3-2.6-2-5.2-2-7.8
	c0-3.3,1.9-11.8,10.5-11.8c3,0,5.7,0.9,8.1,2.8c1.8,1.4,2.8,2.9,2.8,2.9c0.4,0.6,1.1,1,1.8,1c0.7,0,1.4-0.4,1.8-1c0,0,1-1.5,2.8-2.9
	c2.4-1.8,5.1-2.8,8.1-2.8c8.6,0,10.5,8.5,10.5,11.8c0,1.2,1,2.1,2.1,2.1s2.1-1,2.1-2.1c0-3.5-1.2-7.3-3.1-10.1
	c-1.9-2.7-5.4-6-11.7-6c-6.3,0-10.5,3.2-12.7,5.4c-2.2-2.3-6.4-5.4-12.7-5.4c-6.3,0-9.8,3.3-11.7,6c-1.9,2.8-3.1,6.6-3.1,10.1
	c0,3.2,0.8,6.5,2.5,9.7C24.9,53.3,25.7,53.7,26.4,53.7L26.4,53.7z M76,61.1l-5.6-3.8V46.5c0-1.2-1-2.1-2.1-2.1h-8.6
	c-1.2,0-2.1,1-2.1,2.1v1.7l-6.8-4.9c-0.7-0.5-1.7-0.5-2.5,0L22.9,61.1c-1,0.7-1.2,2-0.5,3c0.7,1,2,1.2,3,0.5l24.1-16.8l9,6.4
	c0.7,0.5,1.5,0.5,2.2,0.2c0.7-0.4,1.2-1.1,1.2-1.9v-3.8h4.3v9.8c0,0.7,0.4,1.4,0.9,1.8l6.5,4.4c0.4,0.2,0.8,0.4,1.2,0.4
	c0.7,0,1.4-0.3,1.8-0.9C77.2,63.1,77,61.7,76,61.1L76,61.1z M50.5,61.1c0.6,0,1.1-0.5,1.1-1.1v-2.1c0-0.6-0.5-1.1-1.1-1.1h-2.1
	c-0.6,0-1.1,0.5-1.1,1.1v2.1c0,0.6,0.5,1.1,1.1,1.1H50.5z"/>
</svg>
