<svg width="18" height="17" viewBox="0 0 18 17" fill="none" xmlns="http://www.w3.org/2000/svg">
    <path fill-rule="evenodd" clip-rule="evenodd"
          d="M4.27722 1.50008C4.27722 1.03984 4.65032 0.666748 5.11055 0.666748C5.57079 0.666748 5.94389 1.03984 5.94389 1.50008V2.30844C6.3696 2.30453 6.83141 2.30453 7.33329 2.30453H10.6666C11.169 2.30453 11.6311 2.30453 12.0572 2.30845V1.50008C12.0572 1.03984 12.4303 0.666748 12.8905 0.666748C13.3507 0.666748 13.7238 1.03984 13.7238 1.50008V2.36429C14.9615 2.45528 15.7677 2.68485 16.357 3.26402C17.3333 4.22351 17.3333 5.76779 17.3333 8.85634V9.94831C17.3333 13.0369 17.3333 14.5811 16.357 15.5406C15.3807 16.5001 13.8093 16.5001 10.6666 16.5001H7.33329C4.1906 16.5001 2.61925 16.5001 1.64294 15.5406C0.666626 14.5811 0.666626 13.0369 0.666626 9.94831V8.85634C0.666626 5.76779 0.666626 4.22351 1.64294 3.26402C2.23244 2.68467 3.0389 2.45514 4.27722 2.3642V1.50008ZM4.83329 8.31036C5.29353 8.31036 5.66663 7.94369 5.66663 7.49138C5.66663 7.03907 5.29353 6.67241 4.83329 6.67241C4.37305 6.67241 3.99996 7.03907 3.99996 7.49138C3.99996 7.94369 4.37305 8.31036 4.83329 8.31036ZM8.99996 8.31036C9.4602 8.31036 9.83329 7.94369 9.83329 7.49138C9.83329 7.03907 9.4602 6.67241 8.99996 6.67241C8.53972 6.67241 8.16662 7.03907 8.16662 7.49138C8.16662 7.94369 8.53972 8.31036 8.99996 8.31036ZM14 7.49138C14 7.94369 13.6269 8.31036 13.1666 8.31036C12.7064 8.31036 12.3333 7.94369 12.3333 7.49138C12.3333 7.03907 12.7064 6.67241 13.1666 6.67241C13.6269 6.67241 14 7.03907 14 7.49138ZM4.83329 12.1322C5.29353 12.1322 5.66663 11.7656 5.66663 11.3133C5.66663 10.861 5.29353 10.4943 4.83329 10.4943C4.37305 10.4943 3.99996 10.861 3.99996 11.3133C3.99996 11.7656 4.37305 12.1322 4.83329 12.1322ZM9.83329 11.3133C9.83329 11.7656 9.4602 12.1322 8.99996 12.1322C8.53972 12.1322 8.16662 11.7656 8.16662 11.3133C8.16662 10.861 8.53972 10.4943 8.99996 10.4943C9.4602 10.4943 9.83329 10.861 9.83329 11.3133Z"
          fill="url(#paint0_linear_11_622)"/>
    <path fill-rule="evenodd" clip-rule="evenodd"
          d="M4.27722 1.50008C4.27722 1.03984 4.65032 0.666748 5.11055 0.666748C5.57079 0.666748 5.94389 1.03984 5.94389 1.50008V2.30844C6.3696 2.30453 6.83141 2.30453 7.33329 2.30453H10.6666C11.169 2.30453 11.6311 2.30453 12.0572 2.30845V1.50008C12.0572 1.03984 12.4303 0.666748 12.8905 0.666748C13.3507 0.666748 13.7238 1.03984 13.7238 1.50008V2.36429C14.9615 2.45528 15.7677 2.68485 16.357 3.26402C17.3333 4.22351 17.3333 5.76779 17.3333 8.85634V9.94831C17.3333 13.0369 17.3333 14.5811 16.357 15.5406C15.3807 16.5001 13.8093 16.5001 10.6666 16.5001H7.33329C4.1906 16.5001 2.61925 16.5001 1.64294 15.5406C0.666626 14.5811 0.666626 13.0369 0.666626 9.94831V8.85634C0.666626 5.76779 0.666626 4.22351 1.64294 3.26402C2.23244 2.68467 3.0389 2.45514 4.27722 2.3642V1.50008ZM4.83329 8.31036C5.29353 8.31036 5.66663 7.94369 5.66663 7.49138C5.66663 7.03907 5.29353 6.67241 4.83329 6.67241C4.37305 6.67241 3.99996 7.03907 3.99996 7.49138C3.99996 7.94369 4.37305 8.31036 4.83329 8.31036ZM8.99996 8.31036C9.4602 8.31036 9.83329 7.94369 9.83329 7.49138C9.83329 7.03907 9.4602 6.67241 8.99996 6.67241C8.53972 6.67241 8.16662 7.03907 8.16662 7.49138C8.16662 7.94369 8.53972 8.31036 8.99996 8.31036ZM14 7.49138C14 7.94369 13.6269 8.31036 13.1666 8.31036C12.7064 8.31036 12.3333 7.94369 12.3333 7.49138C12.3333 7.03907 12.7064 6.67241 13.1666 6.67241C13.6269 6.67241 14 7.03907 14 7.49138ZM4.83329 12.1322C5.29353 12.1322 5.66663 11.7656 5.66663 11.3133C5.66663 10.861 5.29353 10.4943 4.83329 10.4943C4.37305 10.4943 3.99996 10.861 3.99996 11.3133C3.99996 11.7656 4.37305 12.1322 4.83329 12.1322ZM9.83329 11.3133C9.83329 11.7656 9.4602 12.1322 8.99996 12.1322C8.53972 12.1322 8.16662 11.7656 8.16662 11.3133C8.16662 10.861 8.53972 10.4943 8.99996 10.4943C9.4602 10.4943 9.83329 10.861 9.83329 11.3133Z"
          fill="url(#paint1_linear_11_622)"/>
    <defs>
        <linearGradient id="paint0_linear_11_622" x1="8.99996" y1="0.666748" x2="8.99996" y2="16.5001"
                        gradientUnits="userSpaceOnUse">
            <stop stop-color="#96BBEF"/>
            <stop offset="1" stop-color="#5B86EC"/>
        </linearGradient>
        <linearGradient id="paint1_linear_11_622" x1="0.362977" y1="-3.53897" x2="15.1682" y2="35.1789"
                        gradientUnits="userSpaceOnUse">
            <stop stop-color="#FEC949"/>
            <stop offset="0.5" stop-color="#F96848"/>
            <stop offset="1" stop-color="#9270F2"/>
        </linearGradient>
    </defs>
</svg>
