<svg width="34" height="34" viewBox="0 0 34 34" fill="none" xmlns="http://www.w3.org/2000/svg">
<path fill-rule="evenodd" clip-rule="evenodd" d="M17.1667 33.6668C26.3715 33.6668 33.8334 26.2049 33.8334 17.0002C33.8334 7.79542 26.3715 0.333496 17.1667 0.333496C7.96198 0.333496 0.500061 7.79542 0.500061 17.0002C0.500061 26.2049 7.96198 33.6668 17.1667 33.6668ZM18.8334 6.77289C18.8334 5.85241 18.0872 5.10622 17.1667 5.10622C16.2463 5.10622 15.5001 5.85241 15.5001 6.77289V17.0002V18.0302L16.4214 18.4909L23.9971 22.2787C24.8204 22.6904 25.8215 22.3567 26.2332 21.5334C26.6448 20.7101 26.3111 19.709 25.4878 19.2973L18.8334 15.9701V6.77289Z" fill="url(#paint0_linear_11_663)"/>
<path fill-rule="evenodd" clip-rule="evenodd" d="M17.1667 33.6668C26.3715 33.6668 33.8334 26.2049 33.8334 17.0002C33.8334 7.79542 26.3715 0.333496 17.1667 0.333496C7.96198 0.333496 0.500061 7.79542 0.500061 17.0002C0.500061 26.2049 7.96198 33.6668 17.1667 33.6668ZM18.8334 6.77289C18.8334 5.85241 18.0872 5.10622 17.1667 5.10622C16.2463 5.10622 15.5001 5.85241 15.5001 6.77289V17.0002V18.0302L16.4214 18.4909L23.9971 22.2787C24.8204 22.6904 25.8215 22.3567 26.2332 21.5334C26.6448 20.7101 26.3111 19.709 25.4878 19.2973L18.8334 15.9701V6.77289Z" fill="url(#paint1_linear_11_663)"/>
<defs>
<linearGradient id="paint0_linear_11_663" x1="17.1667" y1="0.333496" x2="17.1667" y2="33.6668" gradientUnits="userSpaceOnUse">
<stop stop-color="#96BBEF"/>
<stop offset="1" stop-color="#5B86EC"/>
</linearGradient>
<linearGradient id="paint1_linear_11_663" x1="-0.107237" y1="-8.52063" x2="32.256" y2="71.8825" gradientUnits="userSpaceOnUse">
<stop stop-color="#FEC949"/>
<stop offset="0.5" stop-color="#F96848"/>
<stop offset="1" stop-color="#9270F2"/>
</linearGradient>
</defs>
</svg>
