<svg width="16" height="16" viewBox="0 0 16 16" fill="none" xmlns="http://www.w3.org/2000/svg">
<path d="M15.2803 1.78033C15.5732 1.48744 15.5732 1.01256 15.2803 0.71967C14.9874 0.426777 14.5126 0.426777 14.2197 0.71967L8 6.93934L1.78033 0.71967C1.48744 0.426777 1.01256 0.426777 0.71967 0.71967C0.426777 1.01256 0.426777 1.48744 0.71967 1.78033L6.93934 8L0.71967 14.2197C0.426777 14.5126 0.426777 14.9874 0.71967 15.2803C1.01256 15.5732 1.48744 15.5732 1.78033 15.2803L8 9.06066L14.2197 15.2803C14.5126 15.5732 14.9874 15.5732 15.2803 15.2803C15.5732 14.9874 15.5732 14.5126 15.2803 14.2197L9.06066 8L15.2803 1.78033Z" fill="#31364E"/>
</svg>
