<svg xmlns="http://www.w3.org/2000/svg" width="24" height="24" viewBox="0 0 24 24">
    <g fill="none" fill-rule="evenodd">
        <g>
            <g>
                <g transform="translate(-1396 -818) translate(0 800) translate(1396 18)">
                    <rect width="23" height="23" x=".5" y=".5" stroke="#2465B3" rx="4"/>
                    <path fill="#6F7283" fill-rule="nonzero" d="M7.613 6.21l.094.083L12 10.585l4.293-4.292c.39-.39 1.024-.39 1.414 0 .36.36.388.928.083 1.32l-.083.094L13.415 12l4.292 4.293c.39.39.39 1.024 0 1.414-.36.36-.928.388-1.32.083l-.094-.083L12 13.415l-4.293 4.292c-.39.39-1.024.39-1.414 0-.36-.36-.388-.928-.083-1.32l.083-.094L10.585 12 6.293 7.707c-.39-.39-.39-1.024 0-1.414.36-.36.928-.388 1.32-.083z"/>
                </g>
            </g>
        </g>
    </g>
</svg>
