<svg width="14" height="14" viewBox="0 0 14 14" fill="none" xmlns="http://www.w3.org/2000/svg">
<path fill-rule="evenodd" clip-rule="evenodd" d="M7 0.5C3.41015 0.5 0.5 3.41015 0.5 7C0.5 10.5899 3.41015 13.5 7 13.5C10.5899 13.5 13.5 10.5899 13.5 7C13.5 3.41015 10.5899 0.5 7 0.5ZM2.09034 4.51841C1.71276 5.26396 1.5 6.10714 1.5 7C1.5 9.94663 3.81721 12.3521 6.7288 12.4934L6.88884 11.6661L5.71385 10.3951C5.58105 10.2515 5.49329 10.0721 5.46145 9.87903C5.42962 9.68602 5.45509 9.4879 5.53472 9.30922L6.01568 8.23H5.94636C5.75847 8.23 5.57438 8.17707 5.41518 8.07726C5.25599 7.97746 5.12813 7.83482 5.04627 7.6657L4.80842 7.17432L3.81623 6.96107C3.81112 6.96006 3.80601 6.95896 3.80091 6.95778L3.46905 6.88645C3.30515 6.85123 3.15274 6.77536 3.02582 6.66583C2.89891 6.55631 2.80157 6.41663 2.74275 6.25964L2.09034 4.51841ZM12.1556 8.91999C12.3783 8.32225 12.5 7.67534 12.5 7C12.5 4.91203 11.3365 3.0958 9.62249 2.16429C9.67492 2.31891 9.689 2.48496 9.66217 2.64788C9.62541 2.87113 9.51402 3.07532 9.34621 3.22709L7.66428 4.74818C7.60719 4.79981 7.54433 4.84468 7.47695 4.88189L6.71184 5.30441C6.56382 5.38615 6.3975 5.42903 6.22842 5.42903L4.89433 5.42903L4.60813 6.10844L5.01855 6.19665C5.16719 6.2286 5.30658 6.29401 5.42614 6.38793C5.5457 6.48184 5.64227 6.60178 5.70851 6.73863L5.94636 7.23L6.4793 7.23C6.56615 7.10322 6.68155 6.99745 6.81718 6.9218C7.00593 6.81652 7.2237 6.77523 7.43789 6.8041L8.86405 6.99635C9.00245 7.015 9.1354 7.06244 9.25435 7.1356L12.1556 8.91999Z" fill="#31364E"/>
</svg>
