<svg xmlns="http://www.w3.org/2000/svg" width="101" height="100" viewBox="0 0 101 100">
    <defs>
        <linearGradient id="prefix__a" x1="50%" x2="50%" y1="100%" y2="0%">
            <stop offset="0%" stop-color="#3D8BE8"/>
            <stop offset="100%" stop-color="#89BEEC"/>
        </linearGradient>
    </defs>
    <path fill="url(#prefix__a)" d="M50 19c17.12 0 31 13.88 31 31 0 17.12-13.88 31-31 31-17.12 0-31-13.88-31-31 0-17.12 13.88-31 31-31zm0 2c-16.016 0-29 12.984-29 29s12.984 29 29 29 29-12.984 29-29-12.984-29-29-29zm0 2c14.912 0 27 12.088 27 27S64.912 77 50 77 23 64.912 23 50s12.088-27 27-27zm0 2c-13.807 0-25 11.193-25 25s11.193 25 25 25 25-11.193 25-25-11.193-25-25-25zm-1.5 10c.513 0 .936.386.993.883L49.5 36v6.5c0 2.696-1.94 4.939-4.5 5.41V64c0 .552-.448 1-1 1s-1-.448-1-1V47.91c-2.49-.458-4.393-2.592-4.496-5.189L38.5 42.5V36c0-.552.448-1 1-1 .513 0 .936.386.993.883L40.5 36v6.5c0 1.586 1.054 2.925 2.5 3.355V36c0-.552.448-1 1-1s1 .448 1 1v9.855c1.387-.413 2.414-1.662 2.495-3.163l.005-.192V36c0-.552.448-1 1-1zM60 35h.028l.076.005L60 35c.05 0 .1.004.148.01l.068.013.048.012.051.016c.017.005.033.011.05.018.02.007.038.015.056.024l.045.022.042.024c.02.01.038.023.056.035l.035.025.042.033.042.038.042.041.029.032c.013.014.025.03.037.045.01.012.018.024.027.037l.035.053.031.055.017.033c.029.06.052.122.068.188l.003.012-.003-.012c.007.026.013.053.017.081.01.054.014.109.014.165v28c0 .552-.448 1-1 1s-1-.448-1-1v-9.001L56 55c-.513 0-.936-.386-.993-.883L55 54V40c0-2.669 2.096-4.863 4.776-4.995l.2-.005H60zm-1 2.17l-.152.059C57.76 37.68 57 38.755 57 40v13h2V37.17zM60 36v18h-4V40c0-2.21 1.79-4 4-4z"/>
</svg>
