<svg xmlns="http://www.w3.org/2000/svg" width="24" height="24" viewBox="0 0 24 24">
    <g fill="none" fill-rule="evenodd">
        <g>
            <g>
                <g transform="translate(-1246 -457) translate(790 160) translate(456 297)">
                    <rect width="23" height="23" x=".5" y=".5" stroke="#2465B3" rx="4"/>
                    <g>
                        <path d="M0 0L20 0 20 20 0 20z" transform="translate(2 2)"/>
                        <path stroke="#6F7283" stroke-linecap="round" stroke-linejoin="round" stroke-width="2" d="M13.333 3.333L16.667 3.333 16.667 6.667M11.667 8.333L16.667 3.333M6.667 16.667L3.333 16.667 3.333 13.333M3.333 16.667L8.333 11.667M13.333 16.667L16.667 16.667 16.667 13.333M11.667 11.667L16.667 16.667M6.667 3.333L3.333 3.333 3.333 6.667M3.333 3.333L8.333 8.333" transform="translate(2 2)"/>
                    </g>
                </g>
            </g>
        </g>
    </g>
</svg>
