<svg width="40" height="40" viewBox="0 0 40 40" fill="none" xmlns="http://www.w3.org/2000/svg">
<path fill-rule="evenodd" clip-rule="evenodd" d="M20 0C20.6904 0 21.25 0.559644 21.25 1.25V3.75C21.25 4.44036 20.6904 5 20 5C19.3096 5 18.75 4.44036 18.75 3.75V1.25C18.75 0.559644 19.3096 0 20 0ZM5.36612 5.36612C5.85427 4.87796 6.64573 4.87796 7.13388 5.36612L9.00888 7.24112C9.49704 7.72927 9.49704 8.52073 9.00888 9.00888C8.52073 9.49704 7.72927 9.49704 7.24112 9.00888L5.36612 7.13388C4.87796 6.64573 4.87796 5.85427 5.36612 5.36612ZM34.6339 5.36612C35.122 5.85427 35.122 6.64573 34.6339 7.13388L32.7589 9.00888C32.2707 9.49704 31.4793 9.49704 30.9911 9.00888C30.503 8.52073 30.503 7.72927 30.9911 7.24112L32.8661 5.36612C33.3543 4.87796 34.1457 4.87796 34.6339 5.36612ZM20.0001 9.31824C14.1007 9.31824 9.31824 14.1006 9.31824 20.0001C9.31824 25.8995 14.1007 30.6819 20.0001 30.6819C25.8995 30.6819 30.6819 25.8995 30.6819 20.0001C30.6819 14.1006 25.8995 9.31824 20.0001 9.31824ZM6.81824 20.0001C6.81824 12.7199 12.7199 6.81824 20.0001 6.81824C27.2802 6.81824 33.1819 12.7199 33.1819 20.0001C33.1819 27.2802 27.2802 33.1819 20.0001 33.1819C12.7199 33.1819 6.81824 27.2802 6.81824 20.0001ZM0 20C0 19.3096 0.559644 18.75 1.25 18.75H3.75C4.44036 18.75 5 19.3096 5 20C5 20.6904 4.44036 21.25 3.75 21.25H1.25C0.559644 21.25 0 20.6904 0 20ZM35 20C35 19.3096 35.5596 18.75 36.25 18.75H38.7499C39.4403 18.75 39.9999 19.3096 39.9999 20C39.9999 20.6904 39.4403 21.25 38.7499 21.25H36.25C35.5596 21.25 35 20.6904 35 20ZM9.00888 30.9911C9.49704 31.4793 9.49704 32.2707 9.00888 32.7589L7.13388 34.6339C6.64573 35.122 5.85427 35.122 5.36612 34.6339C4.87796 34.1457 4.87796 33.3543 5.36612 32.8661L7.24112 30.9911C7.72927 30.503 8.52073 30.503 9.00888 30.9911ZM30.9911 30.9911C31.4793 30.503 32.2707 30.503 32.7589 30.9911L34.6339 32.8661C35.122 33.3543 35.122 34.1457 34.6339 34.6339C34.1457 35.122 33.3543 35.122 32.8661 34.6339L30.9911 32.7589C30.503 32.2707 30.503 31.4793 30.9911 30.9911ZM20 35C20.6904 35 21.25 35.5596 21.25 36.25V38.7499C21.25 39.4403 20.6904 39.9999 20 39.9999C19.3096 39.9999 18.75 39.4403 18.75 38.7499V36.25C18.75 35.5596 19.3096 35 20 35Z" fill="url(#paint0_linear_91_4228)"/>
<defs>
<linearGradient id="paint0_linear_91_4228" x1="-0.728757" y1="-10.6249" x2="38.1071" y2="85.8587" gradientUnits="userSpaceOnUse">
<stop stop-color="#FEC949"/>
<stop offset="0.5" stop-color="#F96848"/>
<stop offset="1" stop-color="#9270F2"/>
</linearGradient>
</defs>
</svg>
