<svg width="80" height="80" viewBox="0 0 80 80" fill="none" xmlns="http://www.w3.org/2000/svg">
<path d="M52.079 28.8231C52.079 22.2246 46.7108 16.7441 40 16.7441C33.4015 16.7441 27.9211 22.1124 27.9211 28.8231C27.9211 35.4216 33.2893 40.902 40 40.902C46.711 40.7905 52.079 35.4222 52.079 28.8231ZM30.2698 28.8231C30.2698 23.4549 34.6316 18.9808 40.1121 18.9808C45.4803 18.9808 49.9544 23.3426 49.9544 28.8231C49.9544 34.1913 45.5925 38.6654 40.1121 38.6654C34.7431 38.5538 30.2698 34.1921 30.2698 28.8231Z" fill="url(#paint0_linear_91_4315)"/>
<path d="M52.9737 51.9737C58.3419 45.4869 63.5985 36.987 63.5985 28.4868C63.5985 15.513 53.0851 5 40.1116 5C27.1378 5 16.6248 15.5134 16.6248 28.4868C16.6248 36.9866 21.7699 45.3748 27.1382 51.9737C16.6248 53.4279 6 57.1188 6 63.2695C6 71.2107 23.5596 75.4601 40 75.4601C56.4408 75.4601 74 71.2099 74 63.2695C73.8892 57.2305 63.2644 53.5395 52.9757 51.9737H52.9737ZM18.75 28.4868C18.75 16.7432 28.257 7.23684 40 7.23684C51.7436 7.23684 61.25 16.7438 61.25 28.4868C61.25 43.2504 43.6904 58.6842 40 61.704C36.3092 58.684 18.75 43.2504 18.75 28.4868ZM39.8882 73.2237C21.0991 73.2237 8.125 67.9671 8.125 63.2697C8.125 59.3549 16.5132 55.5524 28.5921 53.9868V53.6514C33.8487 59.6905 38.8816 63.7168 39.3293 64.0523C39.5533 64.1639 39.7764 64.2762 40.0003 64.2762C40.2242 64.2762 40.4473 64.1646 40.6712 64.0523C41.1182 63.7168 46.1517 59.6905 51.4085 53.6514V53.9868C63.376 55.5526 71.6519 59.3551 71.6519 63.2697C71.6511 67.9671 58.6772 73.2237 39.8887 73.2237H39.8882Z" fill="url(#paint1_linear_91_4315)"/>
<defs>
<linearGradient id="paint0_linear_91_4315" x1="40" y1="16.7441" x2="40" y2="40.902" gradientUnits="userSpaceOnUse">
<stop stop-color="#96BBEF"/>
<stop offset="1" stop-color="#5B86EC"/>
</linearGradient>
<linearGradient id="paint1_linear_91_4315" x1="40" y1="5" x2="40" y2="75.4601" gradientUnits="userSpaceOnUse">
<stop stop-color="#96BBEF"/>
<stop offset="1" stop-color="#5B86EC"/>
</linearGradient>
</defs>
</svg>
