<svg width="60" height="60" viewBox="0 0 60 60" fill="none" xmlns="http://www.w3.org/2000/svg">
<path d="M56.8834 25.7927V20.5402C56.8834 18.8187 55.4825 17.4179 53.7605 17.4179H51.1832V15.7385C51.1832 14.504 50.1786 13.4995 48.9447 13.4995H43.8368C43.4985 13.4995 43.2246 13.774 43.2246 14.1117V25.7695L16.9188 25.7689V14.1117C16.9188 13.7734 16.6444 13.4995 16.3067 13.4995H11.0553C9.82129 13.4995 8.81685 14.504 8.81685 15.7385V17.4179H6.23948C4.51754 17.4179 3.11661 18.8188 3.11661 20.5402V25.7928C1.35239 26.0872 0 27.6132 0 29.4594V29.9212C0 31.7674 1.35243 33.2935 3.11661 33.5878V38.5347C3.11661 40.2562 4.51745 41.657 6.23948 41.657H8.81685V43.3364C8.81685 44.5709 9.82135 45.5754 11.0553 45.5754H16.3067C16.6449 45.5754 16.9188 45.3009 16.9188 44.9632V33.306H43.2246V44.9638C43.2246 45.3021 43.4991 45.576 43.8368 45.576H48.9447C50.1787 45.576 51.1832 44.5715 51.1832 43.337V41.6576H53.7605C55.4825 41.6576 56.8834 40.2567 56.8834 38.5353V33.5878C58.6476 33.2934 60 31.7674 60 29.9212V29.4594C60 27.6127 58.6476 26.0865 56.8834 25.7928V25.7927ZM48.9447 44.3504H44.4489L44.4495 14.7238H48.9453C49.5039 14.7238 49.9595 15.1788 49.9595 15.7385V17.9001C49.9498 17.9434 49.9333 17.9844 49.9333 18.0305V41.0461C49.9333 41.0922 49.9498 41.1332 49.9595 41.1765V43.3381C49.9589 43.8962 49.5039 44.3511 48.9447 44.3511V44.3504ZM51.1571 18.6408H53.7605C54.8072 18.6408 55.6586 19.4922 55.6586 20.5389V38.5353C55.6586 39.5819 54.8072 40.4333 53.7605 40.4333H51.1571V18.6408ZM11.0562 44.3504C10.4976 44.3504 10.042 43.8954 10.042 43.3356V41.174C10.0517 41.1308 10.0682 41.0898 10.0682 41.0436V18.0295C10.0682 17.9834 10.0517 17.9424 10.042 17.8991V15.7375C10.042 15.1783 10.497 14.7228 11.0562 14.7228H15.6955V44.3494L11.0562 44.3504ZM4.34179 33.0372V20.539C4.34179 19.4924 5.19311 18.641 6.23983 18.641H8.84329V40.432H6.23983C5.19318 40.432 4.34179 39.5807 4.34179 38.534V33.0372ZM1.22518 29.9206V29.4588C1.22518 28.2892 2.03095 27.304 3.11695 27.0307V32.3493C2.03159 32.0754 1.22518 31.0903 1.22518 29.9206V29.9206ZM16.9197 32.0805V26.9925H43.2255V32.0805H16.9197ZM58.7758 29.9206C58.7758 31.0903 57.97 32.0754 56.884 32.3487V27.0301C57.9699 27.304 58.7758 28.2892 58.7758 29.4582V29.9206Z" fill="url(#paint0_linear_91_4252)"/>
<defs>
<linearGradient id="paint0_linear_91_4252" x1="30" y1="13.4995" x2="30" y2="45.576" gradientUnits="userSpaceOnUse">
<stop stop-color="#96BBEF"/>
<stop offset="1" stop-color="#5B86EC"/>
</linearGradient>
</defs>
</svg>
