<svg width="52" height="52" viewBox="0 0 52 52" fill="none" xmlns="http://www.w3.org/2000/svg">
<path d="M41.1293 44.0817V24.7594H46.2964C46.6852 24.7594 47 24.4393 47 24.0505C47 23.199 47 22.3157 46.0042 21.3306L41.5074 17.8331V11.4222C41.5074 10.2364 40.5416 9.27245 39.3559 9.27245H35.7388C34.5531 9.27245 33.5874 10.2364 33.5874 11.4222V11.6737L26.4746 6.14078C26.3533 6.04565 26.2089 6.00884 26.0646 6.0053C26.0431 6.00177 26.0222 6.00177 25.9992 6C25.9763 6.00177 25.9554 6.00177 25.9341 6.0053C25.7898 6.0106 25.6455 6.04565 25.5259 6.14078L5.93071 21.3885C5 22.3157 5 23.199 5 24.0575C5 24.4463 5.31661 24.7611 5.70362 24.7611H10.7862V44.0819C10.7862 45.2677 11.752 46.2316 12.9377 46.2316H38.9757C40.1632 46.2316 41.1293 45.2675 41.1293 44.0817ZM34.9964 11.4222C34.9964 11.0122 35.3289 10.6797 35.7389 10.6797H39.356C39.7642 10.6797 40.0985 11.0122 40.0985 11.4222V16.7369L34.9982 12.7697V11.4222H34.9964ZM6.85781 22.4424L25.9991 7.55355L45.0733 22.3844C45.4023 22.7116 45.5201 22.9967 45.5643 23.3519H6.42893C6.46751 23.0034 6.57272 22.7325 6.85781 22.4424ZM30.6806 44.8236H20.6579V34.0922C20.6579 33.5205 21.0237 33.0366 21.4584 33.0366H30.5416C30.9743 33.0366 31.3404 33.5205 31.3404 34.0922V44.8236H30.6806ZM39.7201 44.0814C39.7201 44.4914 39.3876 44.8239 38.9776 44.8239H32.7496V34.0925C32.7496 32.7344 31.759 31.6294 30.5415 31.6294L21.4591 31.6291C20.2415 31.6291 19.2492 32.7338 19.2492 34.0922V44.8236H12.937C12.5287 44.8236 12.1945 44.4911 12.1945 44.0811V24.7588H39.7185V44.0811L39.7201 44.0814Z" fill="url(#paint0_linear_104_4939)"/>
<defs>
<linearGradient id="paint0_linear_104_4939" x1="26" y1="6" x2="26" y2="46.2316" gradientUnits="userSpaceOnUse">
<stop stop-color="#96BBEF"/>
<stop offset="1" stop-color="#5B86EC"/>
</linearGradient>
</defs>
</svg>
