<svg width="80" height="80" viewBox="0 0 80 80" fill="none" xmlns="http://www.w3.org/2000/svg">
<path d="M69.6112 31.0748C69.9624 29.6692 70.1507 28.2261 70.1507 26.7453C70.1507 16.9569 61.8682 9 51.6783 9C44.5 9 38.0747 12.9905 35.0502 19.0394C32.0009 13.0533 25.6008 9.10025 18.4724 9.10025C8.28232 9.10025 0 17.0689 0 26.8455C0 31.3885 1.68188 35.6047 4.75636 38.7046C11.8344 45.8576 33.9838 66.6011 34.196 66.8148C34.447 67.0405 34.7607 67.166 35.0745 67.166C35.3882 67.166 35.7019 67.0528 35.9529 66.8148C35.9529 66.8148 39.0152 63.9284 43.2438 59.925C48.8159 65.1834 54.6383 70.5795 54.7386 70.6669C54.9895 70.8926 55.3033 71.0058 55.617 71.0058C55.9307 71.0058 56.2445 70.8926 56.4954 70.6669C56.6462 70.529 71.7309 56.4487 76.5741 51.6179C78.7825 49.4219 80 46.4352 80 43.2352C79.9882 37.2621 75.5204 32.2424 69.61 31.0754L69.6112 31.0748ZM35.0758 64.1301C30.8719 60.1894 12.8128 43.2239 6.57696 36.9105C3.99212 34.3005 2.56122 30.7239 2.56122 26.8589C2.56122 18.4885 9.70193 11.6736 18.4736 11.6736C25.6519 11.6736 31.9639 16.3045 33.8209 22.9303C33.9716 23.4827 34.4859 23.8715 35.0506 23.8715C35.6276 23.8715 36.1296 23.4827 36.2803 22.9303C38.1 16.2417 44.4249 11.5732 51.6534 11.5732C60.4255 11.5732 67.5658 18.3874 67.5658 26.7585C67.5658 28.1512 67.3652 29.5193 67.0011 30.8247H66.9383C62.1444 30.8247 57.8279 33.3345 55.569 37.1872C53.2979 33.372 48.993 30.8874 44.2495 30.8874C37.0589 30.8874 31.2107 36.4595 31.2107 43.3111C31.2107 46.4988 32.4029 49.4602 34.5738 51.6311C36.0797 53.1493 38.6018 55.5589 41.3503 58.1567C38.5525 60.8419 36.2561 63.0127 35.0763 64.1298L35.0758 64.1301ZM74.7571 49.7988C70.6158 53.9277 58.9078 64.8951 55.6077 67.9829C52.2944 64.9083 40.5487 53.9654 36.4197 49.8246C34.7256 48.1305 33.7967 45.8212 33.7967 43.3113C33.7967 37.8776 38.4903 33.448 44.263 33.448C48.9941 33.448 53.1477 36.4598 54.3651 40.7641C54.5282 41.3165 55.0049 41.7305 55.6077 41.6929C56.1848 41.6929 56.6867 41.3041 56.8374 40.7518C58.0296 36.41 62.196 33.373 66.9518 33.373C72.7244 33.373 77.4181 37.8028 77.4181 43.2364C77.4181 45.7585 76.4769 48.093 74.7575 49.7995L74.7571 49.7988Z" fill="url(#paint0_linear_91_4301)"/>
<defs>
<linearGradient id="paint0_linear_91_4301" x1="40" y1="9" x2="40" y2="71.0058" gradientUnits="userSpaceOnUse">
<stop stop-color="#96BBEF"/>
<stop offset="1" stop-color="#5B86EC"/>
</linearGradient>
</defs>
</svg>
