<svg xmlns="http://www.w3.org/2000/svg" xmlns:xlink="http://www.w3.org/1999/xlink" width="140" height="56" viewBox="0 0 140 56">
    <defs>
        <path id="prefix__a" d="M0.02 0.232L16.077 0.232 16.077 10.508 0.02 10.508z"/>
        <path id="prefix__d" d="M0.028 0.363L139.903 0.363 139.903 20.255 0.028 20.255z"/>
        <linearGradient id="prefix__c" x1="50.03%" x2="50.03%" y1="97.018%" y2=".139%">
            <stop offset="0%" stop-color="#F7EB32"/>
            <stop offset="100%" stop-color="#E26A2D"/>
        </linearGradient>
    </defs>
    <g fill="none" fill-rule="evenodd">
        <path fill="#000" d="M37.567 50.459c-.043.125-.074.24-.074.319 0 .115.074.148.385.148h1.492c.263 0 .337-.033.354-.125 0-.023.013 0-.091-.281l-1.097-2.746-.969 2.685zm-.967 3.137c-.088.291-.147.562-.147.696 0 .28.205.4.75.417.437.012.6.091.6.264 0 .145-.133.224-.396.224h-.161l-.438-.027H36.6c-.32-.017-.63-.034-.864-.034-.366 0-.719.017-1.072.034-.114.013-.145.013-.292.013-.158 0-.248-.072-.248-.24 0-.162.118-.222.456-.252.644-.058.746-.148 1.082-.874.28-.61.543-1.248 1.128-2.79.44-1.146.5-1.278 1.071-2.853l.293-.801.308-.802c.163-.458.293-.784.308-.865.22-.634.248-.678.426-.678.16 0 .217.088.454.787.145.414.292.815.451 1.204l2.449 6.028c.63 1.525.674 1.586 1.509 1.705.132.015.22.122.22.221 0 .145-.116.224-.337.224-.057 0-.19-.014-.308-.014-.352-.03-1.01-.065-1.536-.065-.53 0-.574 0-1.629.08-.041.016-.16.016-.232.016-.222 0-.325-.06-.325-.205 0-.18.147-.257.571-.3.397-.03.572-.137.56-.344-.015-.114-.044-.28-.118-.486l-.675-1.904c-.177-.46-.191-.472-.645-.472h-1.891c-.453 0-.453 0-.586.4l-.528 1.693zM48.136 49.38c0 .576.017.576.794.576 1.421 0 2.11-.653 2.11-2.002 0-1.396-.835-2.271-2.156-2.271-.612 0-.748.173-.748 1.024v2.674zm-2.606-4.16c.116 0 .015 0 .586.029.426.032.687.032 1.1.032.454 0 .908-.017 1.42-.032.484-.014.998-.029 1.143-.029 1.89 0 3.036.951 3.036 2.493 0 1.296-.705 2.067-2.156 2.394.307.19.484.4.762.887l1.51 2.72c.527.965.543.965 1.392 1.067.117.02.218.12.218.228 0 .127-.085.205-.218.205-.09 0-.146 0-.236-.017-.044 0-.365-.014-.836-.027-.143-.017-.231-.017-.278-.017l-.996.03c-.233 0-.321-.072-.526-.462l-1.877-3.607c-.369-.683-.454-.741-1.114-.741-.279 0-.324.045-.324.36v2.863c0 .892.136 1.083.794 1.125.44.031.557.09.557.27 0 .162-.091.223-.324.223h-.085c-.103 0-.018 0-.587-.03-.484-.014-.894-.03-1.217-.03-.368 0-.602.016-1.57.043-.058.017-.1.017-.174.017h-.086c-.236 0-.325-.06-.325-.222 0-.182.117-.24.558-.271.644-.042.776-.233.776-1.125v-6.757c0-.892-.132-1.084-.776-1.133-.44-.023-.558-.083-.558-.262 0-.163.089-.224.325-.224h.086zM68.308 49.866c0 2.794 1.608 5.05 3.6 5.05 1.893 0 3.342-2.047 3.342-4.738 0-2.657-1.557-4.662-3.62-4.662-1.976 0-3.322 1.766-3.322 4.35m8.82.21c0 2.853-2.435 5.24-5.334 5.24-2.963 0-5.364-2.289-5.364-5.094 0-2.895 2.345-5.106 5.39-5.106 2.949 0 5.309 2.198 5.309 4.96M16.762 49.586c.542 0 .57-.032.57-.494v-2.253c0-.892-.133-1.082-.776-1.133-.441-.023-.557-.083-.557-.262 0-.163.09-.224.321-.224.074 0 .309.015.678.029.51.032.716.032 1.273.032.322 0 .644-.017 1.097-.032.355-.014.588-.029.676-.029.233 0 .32.061.32.224 0 .18-.115.239-.554.262-.66.05-.793.24-.793 1.133v6.757c0 .892.133 1.083.793 1.125.439.031.554.09.554.27 0 .162-.087.223-.32.223h-.088c-.116 0-.014 0-.588-.03-.496-.014-.818-.03-1.2-.03-.483 0-.572 0-1.598.043-.044.017-.102.017-.161.017h-.089c-.23 0-.321-.06-.321-.222 0-.182.116-.24.557-.271.643-.042.776-.233.776-1.125V50.52c0-.37-.044-.401-.513-.401h-3.312c-.586 0-.602.018-.602.372v3.105c0 .892.134 1.083.777 1.125.442.031.558.09.558.27 0 .162-.09.223-.322.223-.074 0-.307-.017-.658-.03-.516-.03-.734-.03-1.261-.03-.353 0-.66.016-1.115.03-.352.013-.588.03-.674.03-.234 0-.324-.06-.324-.222 0-.182.12-.24.558-.271.645-.042.779-.233.779-1.125v-6.757c0-.892-.134-1.082-.78-1.133-.437-.023-.557-.083-.557-.262 0-.163.09-.224.324-.224h.086c.119 0 .015 0 .588.029.38.015.877.032 1.143.032.543 0 .602 0 1.642-.046.044-.015.103-.015.161-.015h.088c.233 0 .322.061.322.224 0 .18-.116.239-.558.262-.643.05-.777.24-.777 1.133v2.253c0 .494 0 .494.516.494h3.341M22.726 46.839c0-.892-.134-1.101-.776-1.133-.442-.023-.557-.083-.557-.263 0-.162.087-.223.32-.223.03 0 .165 0 .25.015.161 0 .309 0 .425.014.162.015.278.015.338.015h4.44c.35 0 .675-.015.965-.03.134-.014.279-.014.338-.014.178 0 .206.061.206.463v1.465c0 .197-.06.285-.176.285-.101 0-.192-.088-.277-.285-.396-.83-.544-.992-1.071-1.201-.425-.159-1.13-.25-1.877-.25-.79 0-.863.091-.863.979v2.386c0 .57.073.631.807.631 1.596 0 1.903-.166 2.254-1.21.044-.164.12-.234.22-.234.134 0 .177.058.177.221 0 .012-.016.193-.028.418l-.015.332-.03.334-.015.327c-.015.238-.03.415-.03.434l.059 1.2c.016.165-.071.282-.19.282-.148 0-.236-.117-.308-.388-.28-1.081-.572-1.271-1.935-1.271-.937 0-.966.013-.966.47v2.795c0 1.085.28 1.306 1.568 1.306 1.435 0 1.831-.268 2.62-1.814.076-.12.15-.187.252-.187.103 0 .174.098.174.22 0 .119-.029.354-.086.59-.045.226-.073.524-.105.878-.057.801-.012.774-.761.774h-5.347c-.06 0-.176 0-.338.013-.116.014-.264.014-.424.014-.086.017-.222.017-.25.017-.234 0-.321-.06-.321-.222 0-.182.115-.24.557-.271.642-.042.776-.233.776-1.125v-6.757M59.252 53.596c0 .892.133 1.083.793 1.125.44.031.557.09.557.27 0 .162-.087.223-.338.223-.087 0-.233 0-.658-.03-.482-.03-.909-.048-1.277-.048-.204 0-.688.017-1.099.047-.423.03-.57.03-.658.03-.248 0-.337-.06-.337-.221 0-.182.118-.24.556-.271.645-.042.776-.233.776-1.125v-7.44c0-.341-.086-.43-.38-.43-.982 0-1.42.074-1.759.295-.338.221-.866.818-1.083 1.234-.133.251-.207.31-.337.328-.117.013-.22-.09-.22-.192 0-.078.015-.15.043-.257l.644-2.254c.06-.223.12-.283.236-.283.102 0 .146.042.191.222.074.34.22.445.69.445h5.07c.6 0 1.229-.056 1.463-.12.163-.056.278-.175.354-.385.057-.162.118-.221.22-.221.159 0 .235.18.216.456l-.01.196-.106 1.944c-.014.36-.087.49-.25.49-.146 0-.205-.089-.247-.342-.221-1.216-.63-1.544-1.935-1.544-1.159 0-1.115-.032-1.115.566v7.292M90.494 55.17c-.058 0-.18 0-.34.013-.118.014-.262.014-.423.014-.088.017-.218.017-.248.017-.234 0-.328-.06-.328-.222 0-.182.119-.24.56-.271.647-.042.78-.233.78-1.125v-6.757c0-.892-.133-1.084-.78-1.133-.441-.023-.56-.083-.56-.263 0-.162.094-.223.328-.223.099 0 .279.015.67.029.543.032.924.05 1.279.05.19 0 .645-.018 1.098-.05.395-.014.57-.029.673-.029.24 0 .322.061.322.223 0 .18-.115.24-.555.263-.659.05-.793.24-.793 1.133v6.337c0 1.161.325 1.545 1.275 1.545 1.219 0 2.067-.55 2.696-1.756.075-.14.136-.19.24-.19.116 0 .191.094.191.252 0 .08-.017.227-.048.376-.106.518-.133.755-.177 1.426-.028.282-.1.368-.378.368-.044 0-.15 0-.252-.014-.099-.013-.219-.013-.353-.013h-4.877M100.256 53.596c0 .892.13 1.083.79 1.125.44.031.552.09.552.27 0 .162-.084.223-.323.223h-.085c-.119 0-.014 0-.585-.03-.41-.014-.88-.03-1.218-.03-.41 0-.669.016-1.566.043-.061.017-.103.017-.175.017h-.086c-.236 0-.325-.06-.325-.222 0-.182.117-.24.556-.271.642-.042.782-.233.782-1.125v-6.757c0-.892-.14-1.084-.782-1.133-.439-.023-.556-.083-.556-.263 0-.162.09-.223.325-.223h.086c.114 0 .014 0 .585.029.51.015.807.032 1.248.032.407 0 .554 0 1.537-.046.055-.015.105-.015.174-.015h.085c.24 0 .323.061.323.223 0 .18-.111.24-.553.263-.659.05-.79.24-.79 1.133v6.757M109.913 47.062c.131-.328.216-.67.216-.847 0-.327-.23-.51-.642-.517-.546-.015-.675-.064-.675-.239 0-.16.11-.239.364-.239.061 0 .279.015.47.029.334.015.647.032.938.032.308 0 .585-.017.852-.046.219-.015.396-.027.55-.027.167 0 .255.073.255.207 0 .19-.028.19-.675.29-.397.066-.582.346-1.026 1.443l-3.153 7.947c-.068.176-.172.297-.274.297-.108 0-.194-.104-.281-.33l-3.44-8.328c-.341-.846-.499-1.008-1.032-1.051-.408-.049-.491-.091-.491-.254 0-.13.083-.209.233-.209h.14c.651.029-.157 0 2.464.089.036 0 .283-.01.621-.045.23-.03.53-.044.629-.044.237 0 .333.079.333.21 0 .193 0 .193-.64.253-.352.043-.592.173-.574.368 0 .105.071.315.205.608l2.503 5.924 2.13-5.521" transform="translate(0 .376)"/>
        <g transform="translate(0 .376) translate(112.503 44.988)">
            <mask id="prefix__b" fill="#fff">
                <use xlink:href="#prefix__a"/>
            </mask>
            <path fill="#000" d="M3.034 8.608c0 .892.134 1.083.793 1.125.438.031.554.09.554.27 0 .162-.085.223-.32.223h-.085c-.118 0-.021 0-.59-.03-.408-.013-.882-.03-1.215-.03-.41 0-.68.017-1.571.043-.056.017-.101.017-.17.017H.339c-.23 0-.318-.06-.318-.222 0-.182.117-.24.554-.271.644-.042.773-.233.773-1.125V1.85C1.347.96 1.217.767.574.718.137.695.02.636.02.455.02.294.109.232.338.232h.093c.113 0 .01 0 .582.029.515.015.803.033 1.242.033.416 0 .56 0 1.541-.047.062-.015.1-.015.18-.015h.086c.234 0 .319.062.319.223 0 .18-.116.24-.554.263-.66.05-.793.24-.793 1.133v6.757M14.012 2.709C13.98 1.006 13.896.784 13.195.75c-.578-.032-.725-.086-.725-.264 0-.151.137-.225.367-.225.047 0 .204.015.358.015.302.035.667.045 1.108.045.394 0 .763-.01 1.04-.027.178-.018.366-.033.441-.033.191 0 .293.074.293.225 0 .192-.132.252-.617.298-.685.057-.802.193-.802.977l.04 8.314c0 .33-.073.462-.279.462-.133 0-.274-.12-.496-.39l-6.665-8.46.058 5.506c.03 2.408.057 2.469 1.344 2.571.18 0 .28.09.28.222 0 .144-.118.223-.351.223-.06 0-.279-.013-.47-.026-.32-.018-.63-.035-.923-.035-.38 0-.745.017-1.111.061-.236.032-.497.046-.588.046-.175 0-.28-.072-.28-.21 0-.175.044-.204.717-.293.735-.09.762-.197.762-2.378V2.09c0-1.19-.1-1.372-.806-1.38-.452 0-.585-.062-.585-.239 0-.16.123-.224.441-.224l1.392.047L8.15.26c.264 0 .264 0 .586.449l5.332 6.92-.056-4.921" mask="url(#prefix__b)"/>
        </g>
        <path fill="#000" d="M136.712 51.723c0-.716-.22-.934-.982-.944-.496-.018-.616-.08-.616-.273 0-.133.089-.19.308-.19.028 0 .247.012.393.012.78.034 1.382.045 2.042.045.392 0 .79-.011 1.08-.045.264-.013.53-.03.616-.03.16 0 .25.064.25.175.017.178-.118.244-.574.27-.61.046-.787.209-.787.745 0 .086.014.53.042 1.022 0 .25.016.611.016.862 0 .846 0 .846-.233 1.01-.793.549-2.243.933-3.547.933-1.644 0-2.972-.486-3.943-1.452-.893-.898-1.464-2.289-1.464-3.58 0-1.542.821-3.071 2.148-4.023 1.072-.757 2.409-1.144 4.004-1.144.956 0 2.213.249 2.447.489.105.1.105.12.207.731.09.534.114.754.114.904 0 .151-.072.254-.191.265-.114.016-.23-.1-.364-.37-.601-1.114-1.394-1.62-2.592-1.62-2.055 0-3.799 2.21-3.799 4.813 0 2.627 1.629 4.588 3.813 4.588.63 0 1.158-.164 1.364-.416.147-.208.248-.748.248-1.409v-1.368M78.757 46.839c0-.892-.137-1.084-.779-1.133-.442-.023-.556-.083-.556-.263 0-.162.084-.223.322-.223.032 0 .161 0 .25.015.16 0 .308 0 .421.014.164.015.277.015.342.015h4.381c.205 0 .435 0 .671-.015.239-.014.499-.029.562-.029.233 0 .275.044.275.283v1.692c0 .196-.055.311-.174.311-.18 0-.195-.025-.516-.772-.292-.713-1.11-1.008-2.727-1.008-.645 0-.787.148-.787.832v2.15c0 .995-.074.932 1.317.932.954 0 1.317-.261 1.584-1.17.058-.176.133-.25.25-.25.129 0 .187.074.187.25l-.058 1.708c0 .253 0 .36.032.639.026.344.055.686.055.77 0 .184-.072.269-.19.269-.101 0-.176-.073-.235-.193-.01-.047.017.044-.072-.268l-.04-.191-.062-.21c-.161-.588-.647-.843-1.655-.843-1.113 0-1.113 0-1.113.722v2.723c0 .892.142 1.095.787 1.125.48.031.588.08.588.27 0 .162-.088.223-.323.223h-.086c-.117 0-.015 0-.588-.03-.405-.014-.88-.03-1.215-.03-.438 0-.688.016-1.595.043-.063.017-.105.017-.177.017h-.089c-.238 0-.322-.06-.322-.222 0-.182.114-.24.556-.271.642-.042.779-.233.779-1.125v-6.757M5.595 53.613c0 .89.13 1.085.792 1.128.44.031.555.094.555.268 0 .161-.088.223-.336.223-.088 0-.235 0-.66-.026-.483-.036-.91-.047-1.276-.047-.205 0-.69.011-1.097.047-.427.026-.573.026-.66.026-.25 0-.337-.062-.337-.223 0-.174.117-.237.555-.268.647-.043.778-.238.778-1.128v-7.438c0-.338-.09-.43-.382-.43-.982 0-1.42.073-1.76.298-.337.222-.863.814-1.082 1.231-.132.25-.205.312-.339.327-.115.016-.218-.09-.218-.192 0-.073.013-.15.044-.253l.642-2.258c.062-.223.12-.282.235-.282.104 0 .149.045.193.222.073.34.221.447.69.447H7c.602 0 1.232-.059 1.467-.12.16-.058.277-.178.35-.386.06-.163.118-.222.22-.222.164 0 .235.177.221.463l-.016.19-.103 1.946c-.013.355-.085.492-.247.492-.148 0-.206-.09-.249-.345-.221-1.218-.633-1.542-1.934-1.542-1.16 0-1.114-.032-1.114.563v7.289" transform="translate(0 .376)"/>
        <path fill="#6F8F9D" d="M48.365 27.774c-.275.816-.506 1.65-.693 2.509M48.14 30.387l-.935-.208c.187-.861.425-1.723.708-2.562l.905.313c-.271.804-.5 1.631-.678 2.457" transform="translate(0 .376)"/>
        <path fill="#1A1919" d="M47.097 35.282c0 1.395.197 3.23.448 4.526h45.024c.236-1.263.339-3.05.339-4.526 0-12.964-10.279-23.517-22.906-23.517-12.626 0-22.905 10.553-22.905 23.517" transform="translate(0 .376)"/>
        <path fill="url(#prefix__c)" d="M47.097 35.282c0 1.395.197 3.23.448 4.526h45.024c.236-1.263.339-3.05.339-4.526 0-12.964-10.279-23.517-22.906-23.517-12.626 0-22.905 10.553-22.905 23.517" transform="translate(0 .376)"/>
        <path fill="#000" d="M92.96 39.96l-.939-.183c.28-1.474.42-2.979.42-4.472 0-12.705-10.06-23.04-22.426-23.04-12.365 0-22.425 10.335-22.425 23.04 0 1.494.141 2.996.42 4.463l-.939.183c-.29-1.527-.439-3.09-.439-4.646 0-13.24 10.49-24.01 23.383-24.01 12.894 0 23.384 10.77 23.384 24.01 0 1.554-.147 3.12-.438 4.655" transform="translate(0 .376)"/>
        <path fill="#000" d="M69.538 11.779L70.495 11.779 70.495 1.331 69.538 1.331zM64.388 12.496L62.088 2.29 63.021 2.074 65.321 12.281 64.388 12.496M59.537 14.371L55.038 4.903 55.901 4.483 60.399 13.95 59.537 14.371M55.246 17.311L48.736 9.044 49.485 8.439 55.994 16.706 55.246 17.311M51.722 21.139L43.504 14.495 44.101 13.738 52.318 20.382 51.722 21.139M49.117 25.645L39.598 20.998 40.014 20.125 49.532 24.772 49.117 25.645M47.566 30.603L37.219 28.216 37.432 27.271 47.779 29.658 47.566 30.603M36.487 35.79L47.111 35.79 47.111 34.821 36.487 34.821zM92.921 35.79L103.542 35.79 103.542 34.821 92.921 34.821zM92.464 30.603L92.251 29.658 102.594 27.271 102.807 28.216 92.464 30.603M90.913 25.645L90.498 24.772 100.014 20.128 100.43 21.002 90.913 25.645M88.307 21.139L87.711 20.381 95.93 13.742 96.527 14.5 88.307 21.139M84.784 17.311L84.036 16.706 90.544 8.439 91.292 9.044 84.784 17.311M80.487 14.371L79.626 13.95 84.131 4.486 84.993 4.907 80.487 14.371M75.643 12.496L74.71 12.281 77.005 2.074 77.938 2.29 75.643 12.496M41.617 39.03L41.509 38.067 47.199 37.416 47.307 38.38 41.617 39.03M92.835 33.183L92.729 32.219 98.412 31.572 98.519 32.536 92.835 33.183M91.826 28.082L91.509 27.166 96.878 25.26 97.194 26.175 91.826 28.082M89.737 23.318L89.227 22.497 94 19.458 94.51 20.279 89.737 23.318M86.66 19.119L85.983 18.434 89.917 14.444 90.594 15.13 86.66 19.119M82.719 15.717L81.909 15.201 84.84 10.477 85.651 10.992 82.719 15.717M78.12 13.288L77.217 12.967 79.015 7.762 79.918 8.082 78.12 13.288M73.083 11.988L72.132 11.878 72.743 6.418 73.694 6.527 73.083 11.988M66.94 11.987L66.333 6.526 67.284 6.418 67.89 11.879 66.94 11.987M61.905 13.292L60.107 8.082 61.01 7.762 62.809 12.972 61.905 13.292M57.307 15.728L54.374 10.992 55.185 10.477 58.118 15.213 57.307 15.728M53.374 19.127L49.429 15.13 50.105 14.444 54.051 18.441 53.374 19.127M50.294 23.321L45.515 20.279 46.024 19.458 50.804 22.5 50.294 23.321M48.208 28.083L42.828 26.181 43.143 25.265 48.523 27.167 48.208 28.083M98.407 39.03L92.729 38.382 92.836 37.419 98.514 38.067 98.407 39.03M47.199 33.183L41.505 32.536 41.611 31.572 47.306 32.219 47.199 33.183M29.084 25.467c.126.03.608-.398.686-.684.083-.307-.016-.592-.143-.82-.134-.228-.517-.718-.597-.877-.084-.16-.193-.407-.169-.445.023-.036 1.505-.417-.605-2.467-.604-.588-1.824-1.582-3.152-2.045-1.269-.436-2.202-.417-2.541-.402-.15.002-.111.19-.054.187.016 0 2.325.224 4.106 1.626 1.714 1.344 1.793 1.895 1.699 2.07-.07.127-.346.11-.562.02-.284-.127-.53-.257-.491-.327.028-.042.179-.273.082-.505-.095-.217-.312-.304-.502-.262-.27.058-.36.287-.355.428.011.377.361.377.357.458-.004.048-.108.774-.497.778-.703.014-1.835-.977-2.067-1.174-1.206-1.014-3.057-1.129-4.03-.223-1.045.982-.885 2.346-.32 3.138.453.645.795.95.96 1.057.054.032.149.07.09-.046-.044-.09-.784-.953-.754-2.084.015-.548.24-1.041.578-1.333.245-.217.853-.73 1.935-.505.546.113 1.156.427 1.797.95.826.673 2.097.928 2.956 1.755.357.34.764.695.86.803.092.109.657.616.72.737l.013.192M6.404 30.398c.36.265 1.246 1.143 1.276 1.174.032.033.914-.264 1.222-.332.398-.098 1.835-.351 1.859-.333.02.014-.172.288-.274.443-.098.165-.193.371-.235.461-.04.084-.04.056-.21.092-.173.036-.265.06-.666.145-.401.075-1.527.473-1.582.484-.053.01-.138-.12-.62-.43-.481-.303-.728-.355-.824-.373-.095-.014.11 1.885.258 2.65.15.758.319 1.39.814 2.748.5 1.357 1.218 2.683 1.218 2.683H27.35s2.797-3.747 3.213-5.982c.357-1.925-2.482-3.903-2.89-4.175-.127-.086-.058-.14.021-.102.016.009 3.819 1.698 3.701 4.45-.283 3.106-2.817 6.257-2.817 6.257H7.849c-.028-.017-.133-.241-.268-.528-.136-.278-.661-1.25-.966-1.938-.309-.685-.761-1.836-.982-2.434-.222-.584-.588-1.92-.765-2.722-.175-.81-.275-1.916-.316-2.512-.04-.592-.004-.745.012-.766.046-.038.358.112.665.281 0 0 .74.44 1.175.759" transform="translate(0 .376)"/>
        <path fill="#000" d="M6.465 21.702c.122-.549.288-.818.288-.818s4.275-.052 8.632 3.676c4.355 3.73 5.623 6.626 5.489 6.695-.132.063-1.25-2.5-5.983-6.015-4.735-3.513-8.548-2.603-8.548-2.603s.007-.419.122-.935" transform="translate(0 .376)"/>
        <path fill="#000" d="M6.259 25.317c-.034-.48.018-.723.018-.723s1.614-.113 3.203.165c2.252.395 4.827 2.098 4.827 2.098l-.453.419s-2.826-.944-4.551-1.126c-1.727-.182-2.922-.05-2.922-.05s-.087-.288-.122-.783M7 29.063c-.186-.566-.217-.857-.217-.857s1.456-.12 2.666-.03c1.212.083 2.997.448 2.997.448l-.396.491s-1.61.115-2.564.272c-.955.159-2.167.566-2.167.566s-.127-.3-.32-.89M27.9 22.548s-.201.018-.408.078c-.208.057-.42.143-.42.143s.673.551.88.756c.206.204.788.787.814.822.006.005.227-.151.103-.341-.125-.185-.388-.54-.6-.826-.14-.184-.369-.632-.369-.632M25.072 30.768c-1.67-1.073-2.691-1.777-5.4-3.741-3.606-2.61-2.52-5.928-2.26-6.502h.002c.07-.104.235.011.198.115-.213.589-.97 3.62 2.718 6.004 3.69 2.39 4.41 2.827 5.57 3.55 1.707 1.069 1.728 2.107 1.614 2.951-.108.779-.525 1.474-.584 1.573-.054.084-.709-.596-1.696-1.23-1.06-.678-2.45-1.237-2.497-1.26-.176-.08-.111-.121-.035-.132.087-.001 1.205.042 2.135.299.968.27 1.542.633 1.564.595 0 0 .655-.948-1.329-2.222M110.948 25.427c-.128.027-.605-.401-.682-.686-.086-.309.01-.591.143-.822.13-.226.513-.723.596-.873.082-.162.19-.41.164-.447-.022-.033-1.502-.417.61-2.471.597-.586 1.822-1.577 3.147-2.04 1.274-.44 2.206-.418 2.541-.404.152.009.114.191.055.191-.016 0-2.326.219-4.104 1.623-1.714 1.345-1.797 1.893-1.7 2.066.072.13.348.113.56.019.286-.117.533-.248.49-.319-.026-.047-.173-.273-.073-.509.089-.219.307-.3.496-.263.268.06.363.288.354.425-.01.38-.36.38-.354.462 0 .049.108.776.49.78.706.015 1.84-.978 2.075-1.177 1.2-1.013 3.053-1.125 4.026-.22 1.046.977.885 2.347.322 3.14-.457.636-.796.95-.96 1.05-.055.038-.147.074-.094-.042.048-.088.788-.96.754-2.084-.01-.544-.24-1.041-.568-1.333-.252-.216-.862-.727-1.941-.502-.547.112-1.154.424-1.797.946-.824.673-2.097.929-2.955 1.756-.359.336-.764.697-.863.803-.092.109-.655.616-.718.736l-.014.195M133.63 30.356c-.363.264-1.247 1.144-1.277 1.17-.032.03-.91-.253-1.221-.328-.399-.097-1.835-.348-1.858-.331-.022.017.166.283.27.444.098.161.193.368.235.454.038.09.038.06.214.1.172.032.262.059.662.141.402.076 1.53.473 1.583.483.055.006.14-.119.621-.425.483-.311.727-.357.824-.375.092-.016-.111 1.886-.264 2.644-.143.762-.312 1.393-.81 2.752-.495 1.358-1.213 2.682-1.213 2.682H112.68s-2.795-3.75-3.21-5.976c-.36-1.927 2.478-3.906 2.888-4.178.127-.088.053-.143-.023-.1-.013.003-3.818 1.696-3.7 4.45.282 3.095 2.819 6.25 2.819 6.25h20.73c.029-.013.128-.24.267-.523.135-.28.663-1.25.967-1.942.305-.69.76-1.83.986-2.428.218-.59.587-1.922.762-2.729.172-.803.274-1.91.313-2.505.042-.592.008-.747-.013-.766-.045-.04-.356.105-.664.275 0 0-.737.44-1.173.76" transform="translate(0 .376)"/>
        <path fill="#000" d="M133.566 21.655c-.12-.542-.288-.815-.288-.815s-4.275-.054-8.63 3.677c-4.353 3.73-5.62 6.625-5.492 6.692.133.067 1.25-2.497 5.986-6.009 4.74-3.516 8.547-2.605 8.547-2.605s-.006-.42-.123-.94" transform="translate(0 .376)"/>
        <path fill="#000" d="M133.775 25.275c.033-.476-.017-.723-.017-.723s-1.617-.12-3.205.162c-2.255.398-4.823 2.102-4.823 2.102l.45.42s2.822-.947 4.55-1.129c1.727-.183 2.925-.05 2.925-.05s.087-.285.12-.782M133.031 29.021c.187-.566.22-.852.22-.852s-1.456-.125-2.67-.037c-1.207.083-2.993.45-2.993.45l.4.49s1.604.112 2.56.272c.953.16 2.165.568 2.165.568s.13-.3.318-.89M112.132 22.507s.2.017.41.076c.205.06.418.148.418.148s-.67.542-.88.75c-.205.212-.79.789-.817.82 0 .009-.226-.151-.1-.334.126-.189.385-.543.6-.827.14-.188.369-.633.369-.633" transform="translate(0 .376)"/>
        <g transform="translate(0 .376) translate(0 20.083)">
            <mask id="prefix__e" fill="#fff">
                <use xlink:href="#prefix__d"/>
            </mask>
            <path fill="#000" d="M114.935 10.64c1.667-1.073 2.695-1.773 5.403-3.735 3.604-2.609 2.517-5.928 2.26-6.502-.075-.102-.238.007-.203.113.208.587.97 3.62-2.711 6.005-3.699 2.382-4.414 2.826-5.572 3.55-1.706 1.069-1.73 2.106-1.611 2.949.105.778.521 1.473.58 1.57.052.086.705-.596 1.693-1.23 1.065-.676 2.447-1.241 2.498-1.257.181-.076.11-.12.033-.127-.089-.006-1.206.038-2.131.295-.966.268-1.54.628-1.565.598 0 0-.649-.955 1.326-2.229M.028 20.255L139.903 20.255 139.903 19.484.028 19.484z" mask="url(#prefix__e)"/>
        </g>
    </g>
</svg>
