<svg xmlns="http://www.w3.org/2000/svg" xmlns:xlink="http://www.w3.org/1999/xlink" width="115" height="45" viewBox="0 0 115 45">
    <defs>
        <path id="prefix__a" d="M0.016 0.189L13.226 0.189 13.226 8.551 0.016 8.551z"/>
        <path id="prefix__d" d="M0.023 0.295L115.12 0.295 115.12 16.483 0.023 16.483z"/>
        <linearGradient id="prefix__c" x1="50.03%" x2="50.03%" y1="97.018%" y2=".139%">
            <stop offset="0%" stop-color="#F7EB32"/>
            <stop offset="100%" stop-color="#E26A2D"/>
        </linearGradient>
    </defs>
    <g fill="none" fill-rule="evenodd">
        <path fill="#FFF" d="M0 0H1440V2402H0z" transform="translate(-662 -50)"/>
        <g>
            <path fill="#000" d="M30.906 41.062c-.035.102-.06.195-.06.26 0 .093.06.12.316.12h1.228c.216 0 .277-.027.29-.102 0-.019.011 0-.074-.228l-.903-2.235-.797 2.185zm-.796 2.553c-.071.237-.12.458-.12.566 0 .228.168.325.616.34.36.01.495.074.495.214 0 .119-.11.183-.327.183h-.132l-.36-.022h-.172c-.263-.014-.518-.028-.71-.028-.301 0-.591.014-.882.028-.094.01-.119.01-.24.01-.13 0-.204-.058-.204-.195 0-.132.097-.18.374-.205.53-.047.614-.12.89-.711.23-.496.447-1.016.929-2.27.362-.933.411-1.04.881-2.323l.24-.651.254-.653c.135-.372.241-.638.253-.704.182-.516.205-.551.352-.551.13 0 .178.071.373.64.12.337.24.663.371.98l2.014 4.905c.52 1.24.555 1.29 1.242 1.388.109.012.181.1.181.18 0 .118-.095.182-.277.182-.047 0-.156-.011-.254-.011-.289-.025-.83-.053-1.263-.053-.436 0-.472 0-1.34.064-.034.013-.133.013-.191.013-.183 0-.268-.049-.268-.166 0-.147.121-.21.47-.244.327-.025.47-.112.46-.28-.012-.093-.035-.229-.097-.396l-.555-1.55c-.145-.374-.157-.384-.53-.384h-1.556c-.372 0-.372 0-.482.325l-.435 1.379zM39.6 40.184c0 .469.015.469.655.469 1.169 0 1.735-.532 1.735-1.63 0-1.135-.687-1.848-1.773-1.848-.504 0-.616.141-.616.834v2.175zM37.458 36.8c.096 0 .013 0 .483.023.35.027.565.027.904.027.373 0 .747-.015 1.17-.027.397-.012.82-.023.939-.023 1.555 0 2.498.774 2.498 2.029 0 1.054-.58 1.682-1.774 1.947.252.155.398.325.627.723l1.242 2.212c.434.786.447.786 1.145.87.097.015.18.096.18.185 0 .103-.07.166-.18.166-.073 0-.12 0-.194-.013-.036 0-.3-.011-.688-.022-.118-.014-.19-.014-.228-.014l-.82.025c-.192 0-.264-.06-.433-.377l-1.544-2.935c-.303-.555-.373-.603-.916-.603-.23 0-.267.036-.267.292v2.33c0 .726.112.882.654.916.362.026.457.073.457.22 0 .132-.074.181-.266.181h-.07c-.084 0-.014 0-.483-.024-.398-.011-.735-.025-1-.025-.304 0-.496.014-1.293.036-.047.013-.082.013-.143.013h-.07c-.195 0-.268-.049-.268-.18 0-.148.096-.195.46-.22.529-.035.638-.19.638-.916v-5.499c0-.726-.109-.882-.639-.922-.363-.019-.459-.067-.459-.213 0-.132.073-.182.268-.182h.07zM56.196 40.58c0 2.273 1.324 4.109 2.962 4.109 1.558 0 2.75-1.666 2.75-3.856 0-2.162-1.281-3.794-2.978-3.794-1.626 0-2.734 1.438-2.734 3.54m7.257.172c0 2.32-2.003 4.263-4.388 4.263-2.438 0-4.413-1.862-4.413-4.145 0-2.356 1.929-4.155 4.435-4.155 2.425 0 4.366 1.789 4.366 4.037M13.79 40.352c.446 0 .469-.026.469-.403v-1.833c0-.726-.11-.88-.638-.922-.363-.019-.459-.067-.459-.213 0-.132.075-.182.265-.182.06 0 .253.011.557.023.42.027.589.027 1.047.027.266 0 .53-.015.903-.027.292-.012.483-.023.556-.023.192 0 .264.05.264.182 0 .146-.096.194-.456.213-.544.041-.653.196-.653.922v5.499c0 .725.11.88.653.915.36.026.456.073.456.22 0 .132-.072.181-.264.181h-.073c-.095 0-.01 0-.483-.024-.408-.011-.673-.025-.987-.025-.398 0-.471 0-1.315.036-.036.013-.083.013-.133.013h-.072c-.19 0-.265-.049-.265-.18 0-.148.096-.195.459-.22.528-.035.638-.19.638-.916v-2.503c0-.3-.037-.327-.422-.327h-2.724c-.483 0-.496.015-.496.303v2.527c0 .725.11.88.639.915.364.026.46.073.46.22 0 .132-.074.181-.266.181-.06 0-.252-.013-.54-.024-.425-.025-.605-.025-1.038-.025-.29 0-.544.014-.917.025-.29.01-.484.024-.555.024-.193 0-.267-.049-.267-.18 0-.148.099-.195.46-.22.53-.035.64-.19.64-.916v-5.499c0-.726-.11-.88-.64-.922-.361-.019-.46-.067-.46-.213 0-.132.074-.182.267-.182h.07c.098 0 .013 0 .485.023.311.012.72.027.94.027.446 0 .495 0 1.35-.039.036-.011.085-.011.133-.011h.072c.192 0 .265.05.265.182 0 .146-.095.194-.459.213-.53.041-.64.196-.64.922v1.833c0 .403 0 .403.426.403h2.748M18.697 38.116c0-.726-.11-.896-.639-.922-.363-.019-.458-.067-.458-.214 0-.131.072-.181.264-.181.023 0 .135 0 .205.011.133 0 .254 0 .35.012.133.012.229.012.278.012h3.652c.288 0 .555-.012.795-.024.11-.011.229-.011.278-.011.145 0 .169.05.169.376v1.193c0 .16-.049.232-.145.232-.083 0-.158-.072-.228-.232-.325-.676-.447-.808-.881-.978-.35-.129-.93-.203-1.544-.203-.65 0-.71.074-.71.796v1.942c0 .463.06.514.663.514 1.314 0 1.567-.135 1.855-.986.036-.132.099-.19.181-.19.11 0 .145.048.145.18 0 .01-.012.157-.023.34l-.011.27-.025.273-.013.266c-.012.193-.024.338-.024.353l.048.976c.014.135-.059.23-.156.23-.122 0-.194-.095-.253-.316-.231-.88-.471-1.034-1.592-1.034-.772 0-.795.01-.795.382v2.275c0 .882.23 1.063 1.29 1.063 1.18 0 1.506-.219 2.156-1.477.062-.097.122-.152.206-.152.086 0 .144.08.144.18 0 .096-.024.287-.07.48-.038.183-.061.426-.087.714-.047.652-.01.63-.627.63h-4.398c-.05 0-.145 0-.279.01-.095.012-.216.012-.349.012-.07.013-.182.013-.205.013-.192 0-.264-.049-.264-.18 0-.148.095-.195.458-.22.529-.035.639-.19.639-.916v-5.499M48.746 43.615c0 .725.11.88.653.915.362.026.458.073.458.22 0 .132-.072.181-.278.181-.072 0-.192 0-.541-.024-.397-.025-.748-.04-1.05-.04-.169 0-.567.015-.905.04-.348.024-.469.024-.542.024-.204 0-.277-.049-.277-.18 0-.148.097-.195.457-.22.532-.035.64-.19.64-.916V37.56c0-.278-.072-.35-.313-.35-.809 0-1.168.06-1.447.24-.278.18-.713.666-.892 1.004-.109.205-.17.253-.277.268-.096.01-.181-.073-.181-.157 0-.063.013-.122.036-.208l.53-1.835c.048-.182.098-.23.194-.23.083 0 .12.034.157.18.06.277.18.362.566.362h4.172c.493 0 1.011-.045 1.204-.098.134-.044.229-.142.291-.313.047-.131.097-.18.18-.18.132 0 .194.147.179.372l-.008.16-.087 1.582c-.012.292-.072.398-.206.398-.12 0-.17-.072-.204-.278-.181-.99-.518-1.257-1.591-1.257-.954 0-.918-.026-.918.461v5.934M74.45 44.896c-.049 0-.15 0-.282.01-.096.012-.215.012-.346.012-.073.013-.18.013-.205.013-.192 0-.27-.049-.27-.18 0-.148.098-.195.461-.22.532-.035.641-.19.641-.916v-5.499c0-.726-.109-.882-.64-.922-.364-.019-.461-.067-.461-.214 0-.131.077-.181.27-.181.08 0 .229.011.55.023.447.027.76.04 1.052.04.158 0 .532-.013.904-.04.325-.012.47-.023.554-.023.196 0 .265.05.265.181 0 .147-.095.195-.457.214-.542.04-.652.196-.652.922v5.157c0 .945.267 1.257 1.049 1.257 1.002 0 1.7-.447 2.218-1.429.06-.113.111-.154.196-.154.096 0 .158.076.158.205 0 .065-.014.184-.04.306-.087.422-.109.615-.145 1.16-.023.23-.083.3-.31.3-.037 0-.124 0-.208-.011-.082-.011-.18-.011-.29-.011h-4.013M82.48 43.615c0 .725.107.88.65.915.363.026.454.073.454.22 0 .132-.069.181-.265.181h-.07c-.098 0-.012 0-.482-.024-.338-.011-.723-.025-1.002-.025-.337 0-.55.014-1.288.036-.05.013-.085.013-.144.013h-.071c-.194 0-.268-.049-.268-.18 0-.148.097-.195.458-.22.528-.035.643-.19.643-.916v-5.499c0-.726-.115-.882-.643-.922-.36-.019-.458-.067-.458-.214 0-.131.074-.181.268-.181h.071c.094 0 .011 0 .481.023.42.012.664.027 1.027.027.335 0 .455 0 1.264-.039.046-.011.087-.011.143-.011h.07c.197 0 .266.05.266.181 0 .147-.091.195-.455.214-.542.04-.65.196-.65.922v5.499M90.425 38.297c.108-.266.178-.545.178-.688 0-.267-.19-.415-.529-.422-.45-.012-.555-.051-.555-.194 0-.13.09-.194.3-.194.05 0 .229.011.386.023.275.012.533.027.772.027.253 0 .481-.015.7-.039.18-.011.327-.021.453-.021.138 0 .21.06.21.168 0 .155-.023.155-.556.237-.326.053-.478.281-.844 1.174l-2.593 6.467c-.056.143-.142.241-.226.241-.088 0-.159-.084-.23-.268l-2.832-6.777c-.28-.689-.41-.82-.848-.856-.336-.04-.404-.074-.404-.206 0-.106.068-.17.191-.17h.117c.535.023-.13 0 2.026.072.03 0 .233-.008.511-.037.19-.024.436-.035.517-.035.195 0 .274.064.274.17 0 .158 0 .158-.527.206-.289.035-.486.141-.471.3 0 .085.058.256.168.495l2.06 4.82 1.752-4.493" transform="translate(-662 -50) translate(662 49.246)"/>
            <g transform="translate(-662 -50) translate(662 49.246) translate(92.556 36.61)">
                <mask id="prefix__b" fill="#fff">
                    <use xlink:href="#prefix__a"/>
                </mask>
                <path fill="#000" d="M2.496 7.005c0 .725.11.881.652.915.36.026.456.073.456.22 0 .132-.07.181-.262.181h-.07c-.098 0-.019 0-.487-.024-.335-.01-.725-.025-1-.025-.336 0-.558.014-1.291.036-.047.013-.084.013-.14.013H.278c-.189 0-.262-.049-.262-.18 0-.148.096-.195.456-.22.53-.035.636-.19.636-.916V1.506c0-.726-.106-.882-.636-.922C.112.566.016.517.016.37.016.24.09.19.278.19h.076c.093 0 .01 0 .479.023.424.012.661.027 1.022.027.342 0 .46 0 1.268-.038.05-.012.083-.012.148-.012h.07c.193 0 .263.05.263.181 0 .147-.095.196-.456.214-.542.04-.652.196-.652.922v5.499M11.528 2.204C11.5.82 11.432.638 10.855.61 10.38.584 10.26.54 10.26.395c0-.123.113-.183.302-.183.039 0 .168.012.294.012.249.029.55.037.912.037.324 0 .628-.008.856-.022.146-.015.3-.027.362-.027.158 0 .242.06.242.183 0 .156-.11.206-.508.243-.564.047-.66.157-.66.795l.032 6.766c0 .268-.059.375-.228.375-.11 0-.226-.097-.408-.316L5.97 1.373l.048 4.48c.024 1.96.047 2.01 1.106 2.093.148 0 .23.073.23.18 0 .118-.098.182-.289.182-.048 0-.23-.011-.387-.022-.264-.014-.517-.028-.759-.028-.312 0-.613.014-.914.05-.194.025-.409.038-.484.038-.144 0-.23-.06-.23-.172 0-.142.036-.166.59-.238.604-.073.627-.16.627-1.936V1.7c0-.968-.083-1.116-.663-1.122-.372 0-.482-.05-.482-.194 0-.131.101-.183.363-.183l1.145.038.833-.027c.217 0 .217 0 .482.366l4.386 5.63-.045-4.004" mask="url(#prefix__b)"/>
            </g>
            <path fill="#000" d="M112.472 42.09c0-.582-.18-.76-.808-.768-.408-.014-.506-.065-.506-.222 0-.108.073-.155.253-.155.023 0 .203.01.323.01.642.028 1.137.037 1.68.037.323 0 .65-.01.889-.037.217-.01.436-.025.507-.025.132 0 .205.053.205.143.014.145-.097.2-.472.22-.503.037-.647.17-.647.607 0 .07.01.43.034.83 0 .205.013.498.013.703 0 .688 0 .688-.191.82-.653.448-1.846.76-2.918.76-1.353 0-2.446-.395-3.245-1.18-.734-.732-1.204-1.864-1.204-2.914 0-1.255.676-2.5 1.768-3.274.88-.616 1.981-.93 3.294-.93.786 0 1.82.202 2.012.397.087.082.087.098.17.595.075.434.095.613.095.736 0 .122-.06.206-.158.215-.093.013-.189-.082-.299-.301-.495-.907-1.147-1.319-2.132-1.319-1.69 0-3.126 1.8-3.126 3.917 0 2.138 1.34 3.734 3.137 3.734.518 0 .953-.133 1.122-.338.121-.17.204-.609.204-1.147V42.09M64.793 38.116c0-.726-.113-.882-.64-.922-.364-.019-.458-.067-.458-.214 0-.131.069-.181.265-.181.026 0 .132 0 .205.011.132 0 .253 0 .347.012.134.012.228.012.28.012h3.605c.169 0 .358 0 .553-.012.196-.012.41-.023.462-.023.19 0 .226.035.226.23v1.377c0 .16-.046.253-.143.253-.15 0-.16-.02-.425-.628-.24-.58-.913-.82-2.243-.82-.531 0-.647.12-.647.677v1.75c0 .81-.062.758 1.083.758.785 0 1.083-.213 1.303-.952.048-.143.11-.204.206-.204.106 0 .153.06.153.204l-.047 1.39c0 .206 0 .292.026.52.022.28.046.557.046.626 0 .15-.06.219-.156.219-.084 0-.146-.06-.194-.157-.009-.038.014.036-.06-.219l-.033-.155-.05-.17c-.133-.48-.533-.687-1.362-.687-.915 0-.915 0-.915.588v2.216c0 .725.116.89.647.915.395.026.484.065.484.22 0 .132-.073.181-.267.181h-.07c-.096 0-.012 0-.484-.024-.333-.011-.723-.025-1-.025-.36 0-.565.014-1.311.036-.052.013-.087.013-.146.013h-.073c-.196 0-.265-.049-.265-.18 0-.148.094-.195.457-.22.528-.035.64-.19.64-.916v-5.499M4.603 43.629c0 .724.107.882.651.917.362.026.457.077.457.219 0 .131-.073.18-.277.18-.072 0-.193 0-.542-.02-.398-.029-.749-.038-1.05-.038-.169 0-.568.009-.902.038-.352.02-.472.02-.543.02-.206 0-.278-.049-.278-.18 0-.142.096-.193.457-.219.532-.035.64-.193.64-.917v-6.053c0-.276-.073-.35-.315-.35-.807 0-1.168.06-1.447.242-.277.18-.71.663-.89 1.002-.11.204-.169.254-.279.267-.095.012-.18-.074-.18-.157 0-.06.011-.122.037-.206l.528-1.837c.05-.182.098-.23.193-.23.086 0 .122.037.159.18.06.278.182.364.567.364h4.17c.495 0 1.013-.047 1.207-.098.132-.046.227-.144.288-.313.049-.133.096-.181.181-.181.134 0 .193.144.182.377l-.013.154-.085 1.584c-.01.29-.07.4-.204.4-.122 0-.17-.073-.204-.28-.183-.991-.521-1.255-1.592-1.255-.954 0-.916-.026-.916.458v5.932" transform="translate(-662 -50) translate(662 49.246)"/>
            <path fill="#6F8F9D" d="M39.79 22.601c-.227.664-.417 1.344-.57 2.042M39.604 24.728l-.768-.17c.153-.7.349-1.401.581-2.084l.745.255c-.223.654-.41 1.327-.558 1.999" transform="translate(-662 -50) translate(662 49.246)"/>
            <path fill="#1A1919" d="M38.747 28.711c0 1.135.162 2.63.368 3.684h37.041c.194-1.028.279-2.482.279-3.684 0-10.55-8.456-19.137-18.845-19.137-10.387 0-18.843 8.588-18.843 19.137" transform="translate(-662 -50) translate(662 49.246)"/>
            <path fill="url(#prefix__c)" d="M38.747 28.711c0 1.135.162 2.63.368 3.684h37.041c.194-1.028.279-2.482.279-3.684 0-10.55-8.456-19.137-18.845-19.137-10.387 0-18.843 8.588-18.843 19.137" transform="translate(-662 -50) translate(662 49.246)"/>
            <path fill="#000" d="M76.478 32.518l-.773-.149c.23-1.2.347-2.424.347-3.639 0-10.339-8.277-18.75-18.45-18.75-10.174 0-18.45 8.411-18.45 18.75 0 1.216.116 2.438.346 3.632l-.773.149c-.239-1.243-.36-2.515-.36-3.781 0-10.774 8.63-19.538 19.236-19.538 10.608 0 19.238 8.764 19.238 19.538 0 1.265-.121 2.54-.36 3.788" transform="translate(-662 -50) translate(662 49.246)"/>
            <path fill="#000" d="M57.209 9.586L57.996 9.586 57.996 1.083 57.209 1.083zM52.972 10.169L51.08 1.863 51.847 1.688 53.739 9.994 52.972 10.169M48.981 11.694L45.28 3.99 45.989 3.648 49.69 11.352 48.981 11.694M45.451 14.087L40.095 7.36 40.711 6.868 46.066 13.595 45.451 14.087M42.551 17.203L35.79 11.796 36.281 11.179 43.042 16.586 42.551 17.203M40.408 20.869L32.577 17.087 32.919 16.377 40.75 20.158 40.408 20.869M39.133 24.904L30.62 22.961 30.795 22.192 39.307 24.135 39.133 24.904M30.018 29.125L38.758 29.125 38.758 28.336 30.018 28.336zM76.445 29.125L85.183 29.125 85.183 28.336 76.445 28.336zM76.069 24.904L75.894 24.135 84.404 22.192 84.579 22.961 76.069 24.904M74.793 20.869L74.452 20.158 82.281 16.38 82.623 17.091 74.793 20.869M72.65 17.203L72.159 16.586 78.921 11.183 79.412 11.8 72.65 17.203M69.751 14.087L69.136 13.595 74.49 6.868 75.106 7.36 69.751 14.087M66.216 11.695L65.508 11.352 69.214 3.65 69.923 3.993 66.216 11.695M62.231 10.169L61.464 9.994 63.352 1.688 64.12 1.863 62.231 10.169M34.238 31.762L34.15 30.978 38.831 30.448 38.919 31.232 34.238 31.762M76.375 27.003L76.288 26.219 80.963 25.692 81.051 26.477 76.375 27.003M75.545 22.852L75.284 22.107 79.701 20.556 79.961 21.3 75.545 22.852M73.826 18.976L73.407 18.308 77.334 15.835 77.752 16.503 73.826 18.976M71.295 15.559L70.738 15.001 73.974 11.754 74.531 12.312 71.295 15.559M68.053 12.79L67.386 12.37 69.797 8.525 70.464 8.945 68.053 12.79M64.269 10.813L63.526 10.553 65.005 6.317 65.748 6.577 64.269 10.813M60.125 9.755L59.343 9.666 59.845 5.222 60.628 5.311 60.125 9.755M55.071 9.755L54.572 5.311 55.354 5.222 55.853 9.667 55.071 9.755M50.929 10.817L49.45 6.577 50.193 6.317 51.672 10.556 50.929 10.817M47.147 12.799L44.733 8.945 45.4 8.526 47.813 12.38 47.147 12.799M43.911 15.565L40.665 12.312 41.221 11.754 44.467 15.006 43.911 15.565M41.377 18.978L37.445 16.503 37.864 15.835 41.796 18.31 41.377 18.978M39.66 22.853L35.234 21.305 35.493 20.56 39.92 22.108 39.66 22.853M80.959 31.762L76.288 31.234 76.375 30.45 81.047 30.978 80.959 31.762M38.831 27.003L34.146 26.477 34.233 25.692 38.918 26.219 38.831 27.003M23.927 20.724c.104.024.5-.324.564-.556.069-.25-.012-.482-.117-.668-.11-.185-.425-.584-.49-.713-.07-.13-.16-.331-.14-.362.019-.03 1.238-.34-.498-2.008-.497-.478-1.5-1.288-2.593-1.664-1.044-.355-1.811-.34-2.09-.327-.124 0-.092.154-.045.152.013 0 1.913.182 3.378 1.323 1.41 1.094 1.475 1.543 1.398 1.684-.058.104-.285.09-.463.017-.233-.103-.436-.21-.404-.266.023-.035.148-.222.068-.412-.078-.176-.257-.247-.413-.212-.223.047-.296.233-.292.348.01.307.297.307.293.372-.003.04-.088.63-.408.634-.579.01-1.51-.796-1.7-.955-.993-.826-2.515-.92-3.316-.182-.86.799-.729 1.909-.264 2.553.373.526.655.773.79.86.045.027.123.058.075-.037-.037-.073-.646-.776-.621-1.696.012-.446.198-.847.475-1.085.202-.176.702-.593 1.592-.41.45.091.952.347 1.479.772.68.548 1.725.756 2.432 1.43.293.276.628.565.708.653.075.088.54.5.59.599l.012.156M5.268 24.737c.297.215 1.025.93 1.05.955.027.027.752-.214 1.006-.27.327-.08 1.51-.286 1.529-.271.017.011-.142.235-.225.36-.08.135-.16.303-.194.376-.032.068-.032.045-.173.075-.142.03-.218.05-.548.117-.33.062-1.256.386-1.301.395-.044.007-.113-.098-.51-.35-.396-.247-.6-.289-.678-.304-.078-.011.09 1.534.213 2.156.123.617.262 1.132.669 2.237.411 1.104 1.002 2.183 1.002 2.183h15.394s2.3-3.049 2.643-4.868c.293-1.566-2.042-3.176-2.378-3.397-.104-.07-.047-.115.018-.083.013.007 3.141 1.382 3.045 3.622-.233 2.526-2.318 5.091-2.318 5.091H6.457c-.023-.014-.11-.197-.22-.43-.112-.226-.544-1.018-.795-1.577-.254-.558-.626-1.494-.808-1.98-.183-.476-.483-1.562-.63-2.216-.143-.659-.226-1.56-.26-2.044-.032-.482-.002-.606.011-.623.037-.031.295.09.547.228 0 0 .61.358.966.618" transform="translate(-662 -50) translate(662 49.246)"/>
            <path fill="#000" d="M5.318 17.66c.1-.446.238-.665.238-.665s3.517-.043 7.101 2.992c3.583 3.034 4.626 5.39 4.516 5.448-.109.05-1.029-2.035-4.923-4.896-3.895-2.859-7.032-2.118-7.032-2.118s.006-.34.1-.76" transform="translate(-662 -50) translate(662 49.246)"/>
            <path fill="#000" d="M5.15 20.602c-.03-.39.014-.589.014-.589s1.328-.092 2.635.135c1.853.322 3.971 1.707 3.971 1.707l-.372.341s-2.325-.768-3.745-.916c-1.42-.148-2.404-.04-2.404-.04s-.071-.235-.1-.638M5.758 23.65c-.152-.46-.177-.697-.177-.697s1.197-.097 2.193-.025c.997.068 2.465.365 2.465.365l-.325.4s-1.326.093-2.11.221c-.786.13-1.782.46-1.782.46s-.105-.243-.264-.723M22.953 18.349s-.165.014-.336.063c-.17.047-.345.117-.345.117s.553.448.723.615c.17.166.65.64.67.669.006.004.187-.123.086-.278-.104-.15-.32-.44-.494-.672-.116-.15-.304-.514-.304-.514M20.627 25.038c-1.375-.873-2.215-1.446-4.443-3.045-2.966-2.123-2.073-4.823-1.86-5.29h.003c.057-.085.193.009.163.093-.176.48-.8 2.946 2.236 4.886 3.035 1.944 3.628 2.3 4.582 2.89 1.404.869 1.421 1.713 1.328 2.4-.089.634-.432 1.2-.481 1.28-.044.069-.583-.485-1.395-1-.872-.553-2.016-1.007-2.054-1.026-.145-.064-.092-.098-.029-.107.072-.001.991.034 1.756.243.797.22 1.269.515 1.287.484 0 0 .538-.771-1.093-1.808M91.276 20.692c-.105.022-.497-.327-.561-.558-.07-.252.008-.482.118-.67.108-.183.422-.587.49-.71.067-.132.157-.334.136-.364-.02-.027-1.236-.34.501-2.01.491-.477 1.5-1.283 2.589-1.66 1.048-.358 1.815-.341 2.09-.329.126.007.094.155.046.155-.013 0-1.914.178-3.376 1.32-1.41 1.095-1.48 1.542-1.399 1.682.06.105.286.092.46.016.236-.096.439-.202.403-.26-.021-.039-.142-.223-.06-.414.074-.178.253-.245.409-.214.22.048.298.234.291.346-.008.309-.295.309-.291.376 0 .04.088.63.403.635.58.012 1.513-.797 1.706-.958.988-.824 2.513-.916 3.313-.18.86.795.728 1.91.265 2.556-.376.518-.655.773-.79.854-.045.03-.12.06-.077-.034.04-.072.648-.78.62-1.696-.009-.443-.197-.847-.467-1.084-.208-.176-.71-.592-1.597-.41-.45.092-.95.346-1.478.77-.678.548-1.726.756-2.432 1.43-.295.273-.628.567-.71.653-.075.088-.538.502-.59.6l-.011.158M109.937 24.702c-.3.216-1.026.932-1.051.953-.026.025-.749-.206-1.004-.267-.329-.079-1.51-.283-1.53-.27-.017.015.138.23.224.362.08.13.158.3.193.37.031.073.031.049.175.08.142.027.216.048.545.115.33.062 1.26.386 1.302.393.046.005.115-.096.512-.345.397-.254.597-.29.677-.306.076-.013-.091 1.536-.217 2.152-.118.62-.257 1.134-.666 2.24-.408 1.105-.998 2.182-.998 2.182H92.702s-2.3-3.051-2.64-4.863c-.296-1.568 2.038-3.178 2.375-3.4.105-.072.044-.117-.018-.082-.012.004-3.142 1.381-3.045 3.622.232 2.519 2.32 5.086 2.32 5.086h17.055c.022-.01.104-.196.219-.426.11-.227.545-1.016.795-1.58.251-.561.626-1.49.81-1.976.181-.48.484-1.564.628-2.22.141-.654.225-1.555.258-2.039.034-.481.007-.608-.011-.623-.037-.033-.293.085-.546.223 0 0-.607.359-.965.62" transform="translate(-662 -50) translate(662 49.246)"/>
            <path fill="#000" d="M109.884 17.622c-.098-.441-.237-.663-.237-.663s-3.517-.044-7.1 2.993c-3.581 3.035-4.624 5.39-4.518 5.445.11.054 1.028-2.032 4.925-4.89 3.9-2.861 7.031-2.12 7.031-2.12s-.005-.34-.1-.765" transform="translate(-662 -50) translate(662 49.246)"/>
            <path fill="#000" d="M110.056 20.568c.028-.387-.014-.588-.014-.588s-1.33-.098-2.637.132c-1.855.324-3.967 1.71-3.967 1.71l.37.342s2.32-.77 3.743-.919c1.421-.149 2.407-.04 2.407-.04s.07-.232.098-.637M109.444 23.617c.153-.461.181-.694.181-.694s-1.198-.101-2.197-.03c-.993.067-2.462.366-2.462.366l.328.398s1.321.092 2.107.222c.784.13 1.781.462 1.781.462s.107-.243.262-.724M92.25 18.315s.164.014.338.062c.169.05.344.12.344.12s-.552.442-.725.611c-.168.173-.65.642-.672.668 0 .007-.185-.124-.081-.273.103-.153.316-.44.493-.672.114-.154.303-.516.303-.516" transform="translate(-662 -50) translate(662 49.246)"/>
            <g transform="translate(-662 -50) translate(662 49.246) translate(0 16.343)">
                <mask id="prefix__e" fill="#fff">
                    <use xlink:href="#prefix__d"/>
                </mask>
                <path fill="#000" d="M94.575 8.658c1.372-.873 2.218-1.442 4.446-3.04 2.966-2.122 2.071-4.823 1.86-5.29-.062-.083-.197.006-.167.092.17.478.798 2.946-2.231 4.886-3.044 1.94-3.633 2.3-4.585 2.89-1.404.87-1.424 1.713-1.326 2.4.087.632.43 1.198.477 1.277.043.07.58-.485 1.393-1 .877-.551 2.015-1.011 2.056-1.024.15-.061.091-.098.027-.104-.073-.004-.992.032-1.754.24-.794.219-1.266.512-1.287.487 0 0-.534-.776 1.091-1.814M.023 16.483L115.12 16.483 115.12 15.856.023 15.856z" mask="url(#prefix__e)"/>
            </g>
        </g>
    </g>
</svg>
