<svg width="48" height="48" viewBox="0 0 48 48" fill="none" xmlns="http://www.w3.org/2000/svg">
<path fill-rule="evenodd" clip-rule="evenodd" d="M1.5 3C1.5 1.34315 2.84314 0 4.5 0H31.7795C33.4364 0 34.7795 1.34315 34.7795 3V45C34.7795 46.6569 33.4364 48 31.7795 48H4.5C2.84315 48 1.5 46.6569 1.5 45V3ZM26.5855 3H23.25V8.91894L24.279 8.43469C24.6835 8.24433 25.1519 8.24433 25.5564 8.43469L26.5855 8.91897V3ZM20.25 3L4.5 3V45H31.7795L31.7795 3H29.5855V11.2826C29.5855 11.7961 29.3229 12.274 28.8893 12.5491C28.4557 12.8243 27.9115 12.8585 27.4469 12.6398L24.9177 11.4497L22.3887 12.6398C21.9241 12.8585 21.3799 12.8243 20.9463 12.5491C20.5127 12.274 20.25 11.7961 20.25 11.2826V3ZM42 5.25C42.6456 5.25 43.2189 5.66315 43.423 6.27566L45.673 13.0257C45.724 13.1786 45.75 13.3388 45.75 13.5V45.75C45.75 46.9926 44.7426 48 43.5 48H40.5C39.2574 48 38.25 46.9926 38.25 45.75V13.5C38.25 13.3388 38.276 13.1786 38.327 13.0257L40.577 6.27566C40.7811 5.66315 41.3544 5.25 42 5.25ZM41.25 13.7434V45H42.75V13.7434L42 11.4934L41.25 13.7434ZM7.5 22C7.5 21.1716 8.17157 20.5 9 20.5H27C27.8284 20.5 28.5 21.1716 28.5 22C28.5 22.8284 27.8284 23.5 27 23.5H9C8.17157 23.5 7.5 22.8284 7.5 22ZM7.5 29.5C7.5 28.6716 8.17157 28 9 28H27C27.8284 28 28.5 28.6716 28.5 29.5C28.5 30.3284 27.8284 31 27 31H9C8.17157 31 7.5 30.3284 7.5 29.5ZM7.5 37C7.5 36.1716 8.17157 35.5 9 35.5H18.75C19.5784 35.5 20.25 36.1716 20.25 37C20.25 37.8284 19.5784 38.5 18.75 38.5H9C8.17157 38.5 7.5 37.8284 7.5 37Z" fill="url(#paint0_linear_11_596)"/>
<defs>
<linearGradient id="paint0_linear_11_596" x1="0.693812" y1="-12.7499" x2="50.0309" y2="100.247" gradientUnits="userSpaceOnUse">
<stop stop-color="#FEC949"/>
<stop offset="0.5" stop-color="#F96848"/>
<stop offset="1" stop-color="#9270F2"/>
</linearGradient>
</defs>
</svg>
