<svg xmlns="http://www.w3.org/2000/svg" width="38" height="22" viewBox="0 0 38 22">
    <path fill="#3D8BE8" d="M8.946 11.748h-.272c-.655 0-.982.216-.982.647 0 .297.14.445.418.445.237 0 .432-.101.585-.303.154-.202.237-.465.251-.789zm8.256-.728h1.296v-.06c.014-.054.018-.098.01-.132-.006-.034-.013-.08-.02-.141-.007-.061-.021-.115-.042-.162-.02-.047-.052-.091-.094-.132-.042-.04-.094-.074-.157-.1-.062-.028-.143-.041-.24-.041-.39 0-.641.256-.753.768zm11.288.728h-.251c-.67 0-1.004.216-1.004.647 0 .297.14.445.418.445.237 0 .432-.101.586-.303.153-.202.237-.465.25-.789zm6.667-.526c0-.552-.209-.829-.627-.829-.265 0-.48.135-.648.405-.167.27-.25.613-.25 1.031 0 .566.195.85.585.85.278 0 .505-.135.679-.405.174-.27.261-.62.261-1.052zM4.954 8.372h1.818l-.92 5.297h-1.17l.669-4.064-1.484 4.064h-.815l-.084-4.044-.71 4.044H1.15l.92-5.298h1.692l.042 3.296 1.15-3.296zm5.288 2.163c0 .08-.028.364-.084.85-.223 1.36-.341 2.122-.355 2.284h-.982l.02-.445c-.278.35-.682.526-1.212.526-.32 0-.582-.108-.784-.324-.202-.215-.303-.498-.303-.849 0-.526.182-.933.544-1.223.362-.29.87-.435 1.526-.435.195 0 .355.007.48.02 0-.04.004-.077.01-.11l.022-.092c.007-.027.01-.047.01-.06 0-.27-.25-.405-.752-.405-.404 0-.815.067-1.233.202 0-.054.048-.377.146-.97.53-.149.996-.223 1.4-.223 1.031 0 1.547.418 1.547 1.254zm3.26-1.173l-.166.99c-.307-.04-.593-.06-.857-.06-.377 0-.565.115-.565.344 0 .108.032.189.094.243.063.054.213.128.45.222.557.256.836.66.836 1.213 0 .97-.606 1.45-1.819 1.436-.474 0-.878-.04-1.212-.121 0-.027.049-.358.146-.991.404.108.76.162 1.066.162.446 0 .67-.128.67-.385 0-.094-.032-.171-.095-.232-.063-.06-.212-.145-.45-.253-.599-.27-.898-.667-.898-1.193 0-.97.585-1.456 1.756-1.456.418 0 .766.027 1.045.081zm1.84 0h.585l-.146 1.052h-.606c-.028.229-.073.502-.136.819-.063.316-.111.576-.146.778-.035.202-.053.324-.053.364 0 .216.133.324.398.324.111 0 .223-.014.334-.04l-.167.95c-.293.094-.571.141-.836.141-.6 0-.913-.317-.94-.95 0-.162.055-.54.166-1.133.042-.27.216-1.253.523-2.952h1.15l-.126.647zm4.243 1.476c0 .31-.049.66-.146 1.052h-2.32c-.042.296.028.519.209.667.181.148.446.222.794.222.418 0 .822-.094 1.212-.283l-.188 1.092c-.418.108-.815.162-1.191.162-1.324 0-1.986-.64-1.986-1.921 0-.741.192-1.351.575-1.83.383-.478.867-.718 1.453-.718.487 0 .874.142 1.16.425.285.283.428.66.428 1.132zm2.906-1.496c-.182.31-.335.728-.46 1.254-.307-.027-.523.134-.648.485-.126.35-.3 1.213-.523 2.588h-1.17l.062-.283c.307-1.752.51-3.094.607-4.024h1.066l-.063.667c.195-.283.373-.482.533-.596.16-.115.359-.145.596-.091zm3.908-.83l-.188 1.153c-.39-.188-.738-.283-1.045-.283-.432 0-.787.186-1.066.556-.279.371-.418.846-.418 1.426 0 .404.094.721.282.95.188.23.457.344.805.344.293 0 .627-.088 1.003-.263l-.209 1.193c-.39.108-.738.162-1.045.162-.627 0-1.125-.206-1.494-.617-.37-.41-.554-.967-.554-1.668 0-.944.247-1.715.742-2.315.494-.6 1.132-.9 1.912-.9.363 0 .788.088 1.275.263zm3.386 2.023c0 .243-.027.526-.083.85-.181 1.064-.3 1.826-.355 2.284h-.962l.02-.445c-.278.35-.689.526-1.232.526-.32 0-.579-.108-.774-.324-.195-.215-.292-.498-.292-.849 0-.526.177-.933.533-1.223.355-.29.86-.435 1.515-.435.21 0 .37.007.48.02.029-.094.043-.182.043-.263 0-.27-.251-.404-.753-.404-.404 0-.815.067-1.233.202 0-.054.056-.377.167-.97.53-.149.997-.223 1.4-.223 1.018 0 1.526.418 1.526 1.254zm2.948-1.193c-.195.323-.342.741-.44 1.254-.32-.027-.54.128-.658.465s-.296 1.206-.533 2.608h-1.17l.062-.283c.265-1.402.467-2.743.607-4.024h1.087c0 .148-.028.37-.084.667.209-.283.394-.482.554-.596.16-.115.352-.145.575-.091zm2.947-.97h1.17l-.898 5.297h-1.108l.062-.384c-.32.31-.682.465-1.086.465-.432 0-.777-.162-1.035-.485-.258-.324-.387-.755-.387-1.294 0-.715.192-1.335.575-1.86.383-.526.833-.79 1.348-.79.432 0 .801.196 1.108.587l.25-1.537zM38 11c0-1.995-.505-3.835-1.515-5.52-1.01-1.685-2.39-3.02-4.139-4.004C30.597.492 28.692 0 26.629 0c-2.522 0-4.807.741-6.856 2.224 1.77 1.564 2.962 3.478 3.575 5.743h-1.045C21.689 5.945 20.589 4.24 19 2.85c-1.589 1.389-2.69 3.094-3.303 5.116h-1.045c.613-2.265 1.805-4.179 3.575-5.743C16.178.741 13.893 0 11.37 0 9.308 0 7.403.492 5.654 1.476 3.905 2.46 2.526 3.795 1.515 5.48.505 7.165 0 9.005 0 11c0 1.995.505 3.835 1.515 5.52 1.01 1.685 2.39 3.02 4.139 4.004C7.403 21.508 9.308 22 11.371 22c2.522 0 4.807-.741 6.856-2.224-1.673-1.497-2.822-3.276-3.45-5.338h1.046c.64 1.86 1.7 3.43 3.177 4.71 1.477-1.28 2.536-2.85 3.177-4.71h1.045c-.627 2.062-1.776 3.841-3.449 5.338C21.822 21.259 24.107 22 26.63 22c2.063 0 3.968-.492 5.717-1.476 1.749-.984 3.128-2.319 4.139-4.004C37.495 14.835 38 12.995 38 11z"/>
</svg>
