<svg width="52" height="52" viewBox="0 0 52 52" fill="none" xmlns="http://www.w3.org/2000/svg">
<path d="M4.56015 42.4443C4.65194 42.5056 4.76416 42.5279 4.87229 42.5067L8.25311 41.8308C7.1888 42.4811 5.62325 43.6378 5.62325 44.8032C5.62325 46.0964 6.64922 46.5928 8.06989 47.2822C8.63621 47.5564 9.27795 47.8678 9.9918 48.284C10.8825 48.8042 12.816 48.9217 15.2842 48.8113L15.2838 48.8117C14.8791 49.0302 14.6056 49.4315 14.5495 49.8882C14.493 50.3445 14.6617 50.8001 15.0014 51.1104C15.341 51.4207 15.81 51.547 16.2597 51.45L22.9318 50.0075C23.7515 50.0394 33.7871 50.4222 39.5434 50.4222C45.7982 50.4222 47.451 46.8831 47.451 45.0117C47.451 44.2688 46.9289 43.4826 45.8993 42.6751V42.6747C45.4898 42.3544 45.0532 42.0705 44.5946 41.8264L47.9939 42.5064L47.9936 42.506C48.0207 42.5116 48.0478 42.5142 48.0753 42.5142C48.2734 42.5138 48.444 42.3741 48.483 42.1797C48.613 41.5101 48.4889 40.8163 48.1352 40.2337C47.781 39.651 47.2225 39.221 46.5685 39.0282L44.0212 38.2924L38.1974 32.8377C37.8619 32.5229 37.6712 32.0833 37.6705 31.6232V22.4978C37.6768 21.9727 37.5393 21.4555 37.2732 21.0025C37.0072 20.5495 36.6222 20.1779 36.1603 19.9278C35.6951 19.6747 35.1615 19.5759 34.6367 19.6457L34.6393 19.6335L29.3466 18.4581V16.4912C31.0552 14.8625 32.1993 12.002 32.1993 9.48805C32.2287 7.5163 31.4405 5.62083 30.0213 4.25144C30.0722 4.06266 30.1005 3.86832 30.1057 3.67286C30.1057 2.36073 29.406 1.14821 28.2692 0.491905C27.1329 -0.163968 25.733 -0.163968 24.5963 0.491905C23.46 1.14815 22.7598 2.36073 22.7598 3.67286C22.7636 3.86684 22.7951 4.05895 22.8531 4.24401C21.4287 5.6134 20.6369 7.5122 20.6667 9.48804C20.6667 12.0019 21.8112 14.8625 23.5194 16.4912V18.4581L18.2267 19.6342L18.2293 19.6465C17.7042 19.5766 17.1706 19.6755 16.7057 19.9289C16.2438 20.179 15.8592 20.5502 15.5931 21.0032C15.3271 21.4558 15.1896 21.9727 15.1959 22.4978V31.624C15.1951 32.084 15.0049 32.5233 14.6697 32.8384L8.74491 38.3938L6.31387 39.0568C5.65799 39.2377 5.0943 39.6599 4.73642 40.2388C4.37857 40.8178 4.2526 41.5104 4.38415 42.1782C4.40496 42.2868 4.4685 42.3826 4.56029 42.4443L4.56015 42.4443ZM19.8019 33.4381C19.8554 33.3248 19.9022 33.2092 19.9475 33.0937L20.1954 34.6711C20.2151 34.7952 20.2894 34.9037 20.3979 34.9665V38.1857L10.8668 40.8334C10.9731 40.7561 11.0775 40.6758 11.1775 40.59L11.684 40.156L16.7166 37.5584V37.5588C17.6883 37.0549 18.4687 36.2474 18.9395 35.2589L19.8019 33.4381ZM31.6351 38.1441H21.2298V35.0227H31.6351V38.1441ZM14.1416 48.0157C13.851 47.6635 13.1145 46.6672 13.1145 45.636C13.145 44.8214 13.3743 44.027 13.7827 43.3217L17.2612 42.9352L28.007 44.9251V44.9247C28.4114 44.9998 28.8268 44.8709 29.1174 44.5803L30.1847 43.513V43.5126C30.2761 43.4231 30.4035 43.3792 30.5306 43.3941L33.4563 43.7598C33.4674 43.7612 33.4785 43.7624 33.4897 43.7627L37.5829 43.9407C37.7348 43.9474 37.8589 44.0637 37.8757 44.2146C37.8924 44.3655 37.7969 44.5063 37.6505 44.5461C36.2793 44.9113 31.5797 46.1291 28.673 46.4713C28.0806 46.5412 27.23 46.6586 26.245 46.7942C23.1751 47.2175 17.8453 47.9518 14.1416 48.0157L14.1416 48.0157ZM22.9115 49.1737C22.8765 49.1726 22.8416 49.1755 22.8074 49.183L16.0836 50.6366H16.084C15.7771 50.7028 15.472 50.5162 15.3913 50.2126C15.3107 49.9094 15.4831 49.5961 15.7826 49.5014L18.8001 48.5482C21.2002 48.313 23.8226 47.9681 26.3588 47.6181C27.3395 47.4832 28.1864 47.3661 28.7705 47.2974C31.2714 47.0031 34.9462 46.1083 37.0331 45.5683C37.359 45.8303 38.1382 46.5438 38.1382 47.3787C38.1382 48.2706 37.6098 49.2006 37.3712 49.5753C31.333 49.5021 23.0056 49.1777 22.9114 49.1736L22.9115 49.1737ZM46.6178 45.0117C46.6178 46.5952 45.1392 49.5899 39.5426 49.5899C39.1565 49.5899 38.7503 49.5884 38.3293 49.585C38.715 48.9109 38.9346 48.1548 38.9703 47.3792C38.9703 46.4966 38.4381 45.7694 37.9845 45.3079C38.2817 45.1916 38.5166 44.956 38.6314 44.6583C39.0197 44.5034 39.7429 44.2618 40.2545 44.2838L40.2891 43.4514C39.7135 43.461 39.1442 43.5721 38.6072 43.7791C38.4314 43.3867 38.0494 43.1273 37.6198 43.1088L33.5433 42.9315L30.6348 42.5681C30.2521 42.519 29.8689 42.6506 29.597 42.9241L28.5297 43.9913C28.4327 44.0883 28.2941 44.1314 28.1592 44.1062L17.3524 42.1047V42.1051C17.3123 42.0977 17.2714 42.0962 17.2306 42.1006L11.612 42.7249L11.7042 43.5525L12.7937 43.4313C12.7729 43.4774 12.7521 43.5242 12.7313 43.5755V43.5751C12.4488 44.2262 12.2961 44.9263 12.2816 45.636C12.2816 46.5688 12.7253 47.4376 13.1077 48.0147C11.8691 47.9864 10.9041 47.8534 10.4106 47.5658C9.66922 47.1332 9.01225 46.8151 8.43215 46.5338C7.02565 45.8519 6.45487 45.5453 6.45487 44.8036C6.45487 43.9853 8.23447 42.7226 9.51872 42.0723L20.6622 38.9769H32.2015L42.1454 41.7735C43.323 42.0574 44.427 42.588 45.3847 43.3297C46.1807 43.9533 46.6177 44.5508 46.6177 45.0116L46.6178 45.0117ZM42.3593 40.9691L32.4677 38.1862V34.967C32.5765 34.9042 32.6512 34.7957 32.6709 34.6715L32.9188 33.0941C32.9634 33.21 33.0102 33.3256 33.0644 33.4386L33.8994 35.2014C34.3877 36.2289 35.2112 37.0598 36.2342 37.5574L41.5726 40.1456C41.8665 40.4838 42.2043 40.7807 42.5771 41.0289C42.5039 41.0092 42.4329 40.9873 42.3597 40.9691L42.3593 40.9691ZM35.7704 20.6646C36.0981 20.844 36.3709 21.1097 36.5589 21.433C36.7469 21.7563 36.8432 22.1246 36.8372 22.4984V31.6238C36.8384 32.3146 37.1245 32.9738 37.628 33.4465L43.5245 38.9689C43.5725 39.0139 43.6305 39.0466 43.6936 39.0648L46.3364 39.8284C46.7218 39.9421 47.061 40.1747 47.3063 40.4928C47.5515 40.8109 47.6901 41.1981 47.702 41.5999L44.5479 40.9689H44.5475C43.61 40.7801 42.7646 40.2773 42.1514 39.5431C42.1135 39.4977 42.0667 39.461 42.0132 39.4349L36.596 36.8085H36.5964C35.7435 36.3942 35.0575 35.7015 34.6507 34.8453L33.8157 33.0825C33.6061 32.641 33.4764 32.1657 33.4322 31.6789L33.0959 27.9938L34.877 20.4584V20.4588C35.188 20.4432 35.4976 20.5145 35.7703 20.6647L35.7704 20.6646ZM26.4324 0.832834C27.1838 0.833577 27.904 1.13197 28.436 1.66225C28.9681 2.19254 29.2688 2.91159 29.2722 3.66293C28.4342 3.09475 27.445 2.79115 26.4323 2.79115C25.4197 2.79115 24.4305 3.09475 23.5925 3.66293C23.5959 2.91156 23.8965 2.19251 24.4286 1.66225C24.9608 1.132 25.6809 0.833586 26.4322 0.832834H26.4324ZM26.4324 3.62433C28.8575 3.62433 30.8778 5.715 31.2885 8.45921C30.2491 6.69674 28.4584 5.58305 26.4324 5.58305C24.393 5.58305 22.5826 6.77512 21.5496 8.65289C21.8918 5.81384 23.9505 3.62442 26.4324 3.62442V3.62433ZM21.6225 10.8661C22.1531 8.28274 24.1642 6.41544 26.4324 6.41544C28.7705 6.41544 30.7489 8.17981 31.2677 10.7138C30.801 13.7412 28.7282 16.9812 26.4324 16.9812C24.175 16.9812 22.1337 13.8482 21.6225 10.865V10.8661ZM26.4324 17.8135C27.1756 17.8005 27.8988 17.5709 28.5134 17.1532V20.6644C28.5134 21.408 28.1169 22.0947 27.4729 22.4667C26.8289 22.8383 26.0359 22.8383 25.3919 22.4667C24.7479 22.0947 24.3514 21.408 24.3514 20.6644V17.1532C24.966 17.5709 25.6891 17.8005 26.4323 17.8135H26.4324ZM26.4324 23.5778C27.205 23.5771 27.9452 23.2698 28.4915 22.7235C29.0378 22.1773 29.3451 21.4371 29.3458 20.6644V19.3103L34.0462 20.3549L32.2707 27.8672H32.2703C32.2599 27.9107 32.2569 27.956 32.2607 28.0006L32.4866 30.4769L31.9032 34.1907H20.9613L20.3787 30.4777L20.6046 28.0013C20.6087 27.9564 20.6053 27.9114 20.5949 27.8676L18.8194 20.3553L23.5187 19.3104V20.6644C23.5194 21.437 23.8267 22.1772 24.373 22.7235C24.9192 23.2698 25.6594 23.5771 26.4321 23.5778L26.4324 23.5778ZM6.53124 39.8603L9.06189 39.1698L9.06226 39.1702C9.12766 39.1524 9.18786 39.1185 9.23728 39.0721L15.2386 33.4456C15.7414 32.973 16.0268 32.3141 16.0279 31.6241V22.4979C16.022 22.1241 16.1182 21.7558 16.3063 21.4325C16.4943 21.1093 16.7671 20.8436 17.0948 20.6641C17.3412 20.5284 17.6176 20.4571 17.8986 20.456C17.9283 20.456 17.958 20.456 17.9881 20.4582L19.7692 27.9935L19.4329 31.6787C19.3887 32.1655 19.259 32.6404 19.0498 33.0822L18.1873 34.9027C17.7953 35.7266 17.145 36.3995 16.3353 36.8194L11.2596 39.4392C11.2306 39.4541 11.2039 39.4723 11.1793 39.4931L10.6361 39.9587C10.0913 40.4254 9.4358 40.7446 8.73194 40.8855L5.1638 41.5986C5.17644 41.2009 5.31579 40.8175 5.56216 40.505C5.80816 40.1921 6.1478 39.9661 6.53134 39.8602L6.53124 39.8603Z" fill="url(#paint0_linear_104_4944)"/>
<defs>
<linearGradient id="paint0_linear_104_4944" x1="26.4333" y1="0" x2="26.4333" y2="51.482" gradientUnits="userSpaceOnUse">
<stop stop-color="#96BBEF"/>
<stop offset="1" stop-color="#5B86EC"/>
</linearGradient>
</defs>
</svg>
