<svg width="40" height="40" viewBox="0 0 40 40" fill="none" xmlns="http://www.w3.org/2000/svg">
<path d="M7.97338 37.5C6.97338 37.5 5.84838 37.125 5.09838 36.375C3.97338 35.5 3.34838 34.125 3.34838 32.75C3.34838 32.25 3.47338 31.75 3.59838 31.375C2.72338 31.125 2.09838 30.5 1.59838 29.625C0.848377 28.125 1.34838 26.375 2.72338 25.5C4.18413 24.6426 7.07961 22.925 8.29298 22.2048C8.6583 21.9879 8.9647 21.686 9.18734 21.3242L11.8484 17C13.0984 15 14.9734 13.625 17.2234 13.125C15.7234 12 14.7234 10.375 14.7234 8.375C14.7234 5.125 17.3484 2.5 20.5984 2.5C23.8484 2.5 26.4734 5.125 26.4734 8.375C26.4734 10.25 25.5984 12 24.0984 13C26.2234 13.5 28.0984 14.875 29.2234 16.75L32.0984 21.625C32.2234 21.75 32.2234 21.875 32.4734 22L38.2234 25.375C39.5984 26.125 40.2234 28 39.4734 29.5C39.0984 30.25 38.3484 30.875 37.5984 31.125C37.8484 31.625 37.8484 32.25 37.8484 32.75C37.8484 34.125 37.2234 35.375 36.2234 36.25C35.2234 37.125 33.8484 37.625 32.4734 37.375L20.4734 35.75L8.72338 37.375C8.47338 37.5 8.22338 37.5 7.97338 37.5ZM20.7234 30.5H7.97338C6.84838 30.5 5.84838 31.625 5.84838 32.75C5.84838 33.375 6.09838 34 6.59838 34.5C7.09838 34.875 7.72338 35 8.22338 35L20.4734 33.375C20.5984 33.375 20.7234 33.375 20.8484 33.375L32.9734 35C33.5984 35.125 34.2234 34.875 34.7234 34.5C35.2234 34.125 35.4734 33.5 35.4734 32.875C35.4734 31.75 34.4734 30.625 33.3484 30.625L20.7234 30.5ZM22.0984 15.25L19.0984 15.375C16.8484 15.375 15.0984 16.375 13.9734 18.125L11.0984 22.875C10.8484 23.375 10.3484 23.875 9.72338 24.25L4.09838 27.5C3.84838 27.625 3.59838 28 3.84838 28.375C3.97338 28.625 4.22338 28.875 4.47338 28.875H4.59838L4.84838 28.75L11.0984 26C12.0984 25.5 12.7234 24.375 13.3484 23C13.5984 22.5 13.8484 22 14.0984 21.5C14.3484 21 14.9734 20.75 15.4734 20.875C15.9734 21 16.4734 21.5 16.4734 22.125V27.875H20.7234H24.8484V22.125C24.8484 21.5 25.2234 21.125 25.7234 20.875C26.2234 20.75 26.8484 21 27.0984 21.5C27.3484 22 27.5984 22.5 27.9734 23.125C28.5984 24.375 29.0984 25.625 30.2234 26.125L36.4734 28.625C36.5984 28.625 36.5984 28.75 36.7234 28.75C36.7234 28.75 36.7234 28.75 36.8484 28.75C37.0984 28.75 37.3484 28.625 37.4734 28.25C37.5984 27.875 37.4734 27.5 37.2234 27.375L31.5984 24C30.9734 23.75 30.4734 23.25 30.2234 22.625L27.3484 17.875C26.0984 16.375 24.0984 15.25 22.0984 15.25ZM13.8484 27.125C13.5984 27.5 13.2234 27.75 12.8484 28H13.8484V27.125ZM27.3484 28H28.3484C27.9734 27.75 27.5984 27.375 27.3484 27V28ZM20.5984 5C18.7234 5 17.2234 6.5 17.2234 8.375C17.2234 10.25 18.7234 11.75 20.5984 11.75C22.4734 11.75 23.9734 10.25 23.9734 8.375C23.9734 6.5 22.4734 5 20.5984 5Z" fill="url(#paint0_linear_91_4216)"/>
<defs>
<linearGradient id="paint0_linear_91_4216" x1="0.547765" y1="-6.79684" x2="32.1782" y2="79.7434" gradientUnits="userSpaceOnUse">
<stop stop-color="#FEC949"/>
<stop offset="0.5" stop-color="#F96848"/>
<stop offset="1" stop-color="#9270F2"/>
</linearGradient>
</defs>
</svg>
