<svg width="60" height="60" viewBox="0 0 60 60" fill="none" xmlns="http://www.w3.org/2000/svg">
<path fill-rule="evenodd" clip-rule="evenodd" d="M29.9963 60C46.5581 60 60 46.5594 60 29.9963C60 13.4344 46.5594 0 29.9963 0C13.4407 0 0 13.4344 0 29.9963C0 46.5581 13.4407 60 29.9963 60ZM29.9963 58.6007C14.1966 58.6007 1.39942 45.8023 1.39942 29.9964C1.39942 14.1905 14.1978 1.39954 29.9963 1.39954C45.8022 1.39954 58.6006 14.1905 58.6006 29.9964C58.6006 45.8023 45.8022 58.6007 29.9963 58.6007Z" fill="url(#paint0_linear_91_4240)"/>
<path fill-rule="evenodd" clip-rule="evenodd" d="M29.9962 54.4864C43.5156 54.4864 54.486 43.5149 54.486 29.9966C54.486 16.4773 43.515 5.50684 29.9962 5.50684C16.4844 5.50684 5.50644 16.4779 5.50644 29.9966C5.50644 43.516 16.4842 54.4864 29.9962 54.4864ZM29.9962 53.0871C17.2403 53.0871 6.90586 42.7589 6.90586 29.9968C6.90586 17.2346 17.2409 6.90638 29.9962 6.90638C42.7584 6.90638 53.0866 17.2341 53.0866 29.9968C53.0866 42.7589 42.7589 53.0871 29.9962 53.0871Z" fill="url(#paint1_linear_91_4240)"/>
<path fill-rule="evenodd" clip-rule="evenodd" d="M41.1155 45.4275C41.4596 45.3953 41.751 45.0731 41.7495 44.7276V37.2932C41.7495 34.6229 39.5439 32.4387 36.8737 32.4387H36.8517V13.9401C36.8566 13.5702 36.5218 13.2305 36.1518 13.2305C35.7823 13.2305 35.447 13.5707 35.4519 13.9401V32.4387H35.408C32.7377 32.4387 30.5535 34.6238 30.5535 37.2932V44.7276C30.5486 45.0975 30.8834 45.4372 31.2534 45.4372C31.6229 45.4372 31.9582 45.097 31.9533 44.7276V37.2932C31.9533 35.3857 33.5024 33.8386 35.4079 33.8386H35.4518V44.6622C35.4518 45.0288 35.7852 45.3621 36.1517 45.3621C36.5183 45.3621 36.8516 45.0288 36.8516 44.6622V33.8386H36.8736C38.7795 33.8386 40.3501 35.3877 40.3501 37.2932V44.7276C40.3501 45.0941 40.6835 45.4275 41.05 45.4275C41.072 45.428 41.094 45.428 41.1154 45.4275H41.1155Z" fill="url(#paint2_linear_91_4240)"/>
<path fill-rule="evenodd" clip-rule="evenodd" d="M20.9113 45.3812C22.5323 45.3812 23.9516 44.4539 24.9345 43.0633C25.9175 41.6728 26.5091 39.819 26.5091 37.7715C26.5091 35.7275 25.9176 33.8479 24.9345 32.4583C24.097 31.2748 22.9392 30.4328 21.6107 30.2064V13.9382C21.6155 13.5682 21.2807 13.2383 20.9108 13.2383C20.5413 13.2383 20.206 13.5682 20.2109 13.9382V30.2064C18.875 30.4285 17.7065 31.2694 16.8656 32.4583C15.8826 33.8479 15.313 35.728 15.313 37.7715C15.313 39.8185 15.8826 41.6728 16.8656 43.0633C17.8486 44.4539 19.2899 45.3812 20.9108 45.3812H20.9113ZM20.9113 43.9819C19.8244 43.9819 18.7921 43.3709 18.0034 42.2546C17.2142 41.1384 16.7135 39.5526 16.7135 37.7721C16.7135 35.9955 17.2147 34.3834 18.0034 33.2676C19.8645 31.1402 22.1252 30.9668 23.7979 33.2676C24.5871 34.3829 25.1098 35.9955 25.1098 37.7721C25.1098 39.5526 24.5871 41.1384 23.7979 42.2546C23.0087 43.3709 21.9984 43.9819 20.9113 43.9819Z" fill="url(#paint3_linear_91_4240)"/>
<defs>
<linearGradient id="paint0_linear_91_4240" x1="30" y1="0" x2="30" y2="60" gradientUnits="userSpaceOnUse">
<stop stop-color="#96BBEF"/>
<stop offset="1" stop-color="#5B86EC"/>
</linearGradient>
<linearGradient id="paint1_linear_91_4240" x1="29.9962" y1="5.50684" x2="29.9962" y2="54.4864" gradientUnits="userSpaceOnUse">
<stop stop-color="#96BBEF"/>
<stop offset="1" stop-color="#5B86EC"/>
</linearGradient>
<linearGradient id="paint2_linear_91_4240" x1="36.1515" y1="13.2305" x2="36.1515" y2="45.4372" gradientUnits="userSpaceOnUse">
<stop stop-color="#96BBEF"/>
<stop offset="1" stop-color="#5B86EC"/>
</linearGradient>
<linearGradient id="paint3_linear_91_4240" x1="20.9111" y1="13.2383" x2="20.9111" y2="45.3812" gradientUnits="userSpaceOnUse">
<stop stop-color="#96BBEF"/>
<stop offset="1" stop-color="#5B86EC"/>
</linearGradient>
</defs>
</svg>
