<svg xmlns="http://www.w3.org/2000/svg" xmlns:xlink="http://www.w3.org/1999/xlink" width="40" height="40" viewBox="0 0 40 40">
    <defs>
        <filter id="vxrp16reva" width="180%" height="180%" x="-40%" y="-35%" filterUnits="objectBoundingBox">
            <feOffset dy="2" in="SourceAlpha" result="shadowOffsetOuter1"/>
            <feGaussianBlur in="shadowOffsetOuter1" result="shadowBlurOuter1" stdDeviation="5"/>
            <feColorMatrix in="shadowBlurOuter1" values="0 0 0 0 0.239215686 0 0 0 0 0.545098039 0 0 0 0 0.909803922 0 0 0 0.1 0"/>
        </filter>
        <circle id="e6tmqwwx6b" cx="20" cy="20" r="20"/>
    </defs>
    <g fill="none" fill-rule="evenodd">
        <g>
            <g>
                <g transform="translate(-213 -2469) translate(213 2469)">
                    <use fill="#000" filter="url(#vxrp16reva)" xlink:href="#e6tmqwwx6b"/>
                    <use fill="#FFF" xlink:href="#e6tmqwwx6b"/>
                </g>
                <path fill="#3D8BE8" d="M14.667 26.495c0 .831.665 1.505 1.5 1.505.828 0 1.5-.667 1.5-1.505v-12.99c0-.831-.666-1.505-1.5-1.505-.829 0-1.5.667-1.5 1.505v12.99zM22 26.495c0 .831.666 1.505 1.5 1.505.828 0 1.5-.667 1.5-1.505v-12.99c0-.831-.666-1.505-1.5-1.505-.828 0-1.5.667-1.5 1.505v12.99z" transform="translate(-213 -2469) translate(213 2469)"/>
            </g>
        </g>
    </g>
</svg>
