<svg xmlns="http://www.w3.org/2000/svg" xmlns:xlink="http://www.w3.org/1999/xlink" width="60" height="60" viewBox="0 0 60 60">
    <defs>
        <linearGradient id="7qpkfwx2pc" x1="50%" x2="50%" y1="100%" y2="0%">
            <stop offset="0%" stop-color="#3D8BE8"/>
            <stop offset="100%" stop-color="#89BEEC"/>
        </linearGradient>
        <filter id="i6lcvkm05a" width="153.3%" height="153.3%" x="-26.7%" y="-23.3%" filterUnits="objectBoundingBox">
            <feOffset dy="2" in="SourceAlpha" result="shadowOffsetOuter1"/>
            <feGaussianBlur in="shadowOffsetOuter1" result="shadowBlurOuter1" stdDeviation="5"/>
            <feColorMatrix in="shadowBlurOuter1" values="0 0 0 0 0.239215686 0 0 0 0 0.545098039 0 0 0 0 0.909803922 0 0 0 0.2 0"/>
        </filter>
        <circle id="i9b6c3kr1b" cx="30" cy="30" r="30"/>
    </defs>
    <g fill="none" fill-rule="evenodd">
        <g>
            <g>
                <g transform="translate(-150 -421) translate(0 110) translate(150 311)">
                    <g>
                        <use fill="#000" filter="url(#i6lcvkm05a)" xlink:href="#i9b6c3kr1b"/>
                        <use fill="#FFF" xlink:href="#i9b6c3kr1b"/>
                    </g>
                    <rect width="60" height="60" fill="url(#7qpkfwx2pc)" rx="30"/>
                    <path fill="#FFF" fill-rule="nonzero" d="M40.029 28.89l-13.385-7.967c-.163-.096-.331-.154-.524-.154-.524 0-.952.433-.952.962h-.005v16.538h.005c0 .53.428.962.952.962.197 0 .36-.068.539-.164l13.37-7.956c.317-.265.52-.664.52-1.111 0-.447-.203-.841-.52-1.11z"/>
                </g>
            </g>
        </g>
    </g>
</svg>
