<svg width="28" height="28" viewBox="0 0 28 28" fill="none" xmlns="http://www.w3.org/2000/svg">
    <path fill-rule="evenodd" clip-rule="evenodd"
          d="M13.8206 1.75C7.15293 1.75 1.75 7.15293 1.75 13.8206C1.75 20.4882 7.15293 25.8911 13.8206 25.8911C20.4882 25.8911 25.8911 20.4882 25.8911 13.8206C25.8911 12.2853 25.5497 10.7879 25.0221 9.38109C24.8525 8.92861 25.0817 8.42425 25.5342 8.25457C25.9867 8.08489 26.491 8.31414 26.6607 8.76662C27.2428 10.3188 27.6411 12.027 27.6411 13.8206C27.6411 21.4547 21.4547 27.6411 13.8206 27.6411C6.18643 27.6411 0 21.4547 0 13.8206C0 6.18643 6.18643 0 13.8206 0C17.1039 0 20.133 1.11715 22.5067 3.02928C22.883 3.33243 22.9423 3.88327 22.6392 4.2596C22.336 4.63593 21.7852 4.69525 21.4088 4.3921C19.344 2.72879 16.7018 1.75 13.8206 1.75ZM20.2968 9.08668C20.6859 9.37336 20.7688 9.92113 20.4822 10.3102L14.6171 18.2692C14.4742 18.4631 14.2576 18.5896 14.0184 18.6187C13.7791 18.6478 13.5385 18.5769 13.3533 18.4228L8.62803 14.4933C8.25647 14.1843 8.20575 13.6326 8.51474 13.2611C8.82372 12.8895 9.37542 12.8388 9.74697 13.1478L13.7588 16.484L19.0734 9.27201C19.36 8.88298 19.9078 8.8 20.2968 9.08668Z"
          fill="url(#paint0_linear_11_443)"/>
    <defs>
        <linearGradient id="paint0_linear_11_443" x1="-0.503592" y1="-7.34214" x2="26.3331" y2="59.3308"
                        gradientUnits="userSpaceOnUse">
            <stop stop-color="#FEC949"/>
            <stop offset="0.5" stop-color="#F96848"/>
            <stop offset="1" stop-color="#9270F2"/>
        </linearGradient>
    </defs>
</svg>
