<svg xmlns="http://www.w3.org/2000/svg" xmlns:xlink="http://www.w3.org/1999/xlink" width="24" height="24" viewBox="0 0 24 24">
    <defs>
        <filter id="llbncy7r3a" width="200%" height="200%" x="-50%" y="-43.8%" filterUnits="objectBoundingBox">
            <feOffset dy="2" in="SourceAlpha" result="shadowOffsetOuter1"/>
            <feGaussianBlur in="shadowOffsetOuter1" result="shadowBlurOuter1" stdDeviation="5"/>
            <feColorMatrix in="shadowBlurOuter1" values="0 0 0 0 0.239215686 0 0 0 0 0.545098039 0 0 0 0 0.909803922 0 0 0 0.1 0"/>
        </filter>
        <rect id="urr2oxsosb" width="32" height="32" x="0" y="0" rx="16"/>
    </defs>
    <g fill="none" fill-rule="evenodd">
        <g>
            <g>
                <g transform="translate(-1334 -30) translate(1326 30)">
                    <use fill="#000" filter="url(#llbncy7r3a)" xlink:href="#urr2oxsosb"/>
                    <use fill="#FFF" xlink:href="#urr2oxsosb"/>
                </g>
                <g stroke="#6F7283" stroke-linecap="round" stroke-linejoin="round">
                    <g>
                        <path stroke-width="1.667" d="M2.167 5.5L5.5 5.5 5.5 2.167M.5.5L5.5 5.5" transform="translate(-1334 -30) translate(1326 30) translate(8) translate(0 8)"/>
                        <path stroke-width="2" d="M2.167 10.5L5.5 10.5 5.5 13.833M.5 15.5L5.5 10.5M13.833 5.5L10.5 5.5 10.5 2.167M10.5 5.5L15.5.5M13.833 10.5L10.5 10.5 10.5 13.833M10.5 10.5L15.5 15.5" transform="translate(-1334 -30) translate(1326 30) translate(8) translate(0 8)"/>
                    </g>
                </g>
            </g>
        </g>
    </g>
</svg>
