<svg width="39" height="24" viewBox="0 0 39 24" fill="none" xmlns="http://www.w3.org/2000/svg">
<path d="M27.0001 6.375V21.375C27.0001 22.038 26.7367 22.6739 26.2678 23.1428C25.799 23.6116 25.1631 23.875 24.5001 23.875H7.00006C6.1793 23.875 5.36657 23.7133 4.60829 23.3992C3.85 23.0852 3.16101 22.6248 2.58064 22.0444C1.40854 20.8723 0.750061 19.2826 0.750061 17.625V2.625C0.750061 1.96196 1.01345 1.32607 1.48229 0.857233C1.95114 0.388392 2.58702 0.125 3.25006 0.125H20.7501C22.4077 0.125 23.9974 0.78348 25.1695 1.95558C26.3416 3.12769 27.0001 4.7174 27.0001 6.375ZM37.6251 3.42187C37.4367 3.30736 37.2205 3.2468 37.0001 3.2468C36.7796 3.2468 36.5634 3.30736 36.3751 3.42187L30.1251 6.98438C29.9334 7.09503 29.7745 7.2546 29.6647 7.44676C29.5549 7.63893 29.4981 7.85681 29.5001 8.07812V15.9219C29.4981 16.1432 29.5549 16.3611 29.6647 16.5532C29.7745 16.7454 29.9334 16.905 30.1251 17.0156L36.3751 20.5781C36.5655 20.6874 36.7805 20.7465 37.0001 20.75C37.2199 20.7487 37.4355 20.6894 37.6251 20.5781C37.8166 20.4713 37.9758 20.3147 38.0858 20.125C38.1958 19.9352 38.2525 19.7193 38.2501 19.5V4.5C38.2525 4.28068 38.1958 4.06477 38.0858 3.87501C37.9758 3.68526 37.8166 3.52871 37.6251 3.42187Z" fill="url(#paint0_linear_11_674)"/>
<path d="M27.0001 6.375V21.375C27.0001 22.038 26.7367 22.6739 26.2678 23.1428C25.799 23.6116 25.1631 23.875 24.5001 23.875H7.00006C6.1793 23.875 5.36657 23.7133 4.60829 23.3992C3.85 23.0852 3.16101 22.6248 2.58064 22.0444C1.40854 20.8723 0.750061 19.2826 0.750061 17.625V2.625C0.750061 1.96196 1.01345 1.32607 1.48229 0.857233C1.95114 0.388392 2.58702 0.125 3.25006 0.125H20.7501C22.4077 0.125 23.9974 0.78348 25.1695 1.95558C26.3416 3.12769 27.0001 4.7174 27.0001 6.375ZM37.6251 3.42187C37.4367 3.30736 37.2205 3.2468 37.0001 3.2468C36.7796 3.2468 36.5634 3.30736 36.3751 3.42187L30.1251 6.98438C29.9334 7.09503 29.7745 7.2546 29.6647 7.44676C29.5549 7.63893 29.4981 7.85681 29.5001 8.07812V15.9219C29.4981 16.1432 29.5549 16.3611 29.6647 16.5532C29.7745 16.7454 29.9334 16.905 30.1251 17.0156L36.3751 20.5781C36.5655 20.6874 36.7805 20.7465 37.0001 20.75C37.2199 20.7487 37.4355 20.6894 37.6251 20.5781C37.8166 20.4713 37.9758 20.3147 38.0858 20.125C38.1958 19.9352 38.2525 19.7193 38.2501 19.5V4.5C38.2525 4.28068 38.1958 4.06477 38.0858 3.87501C37.9758 3.68526 37.8166 3.52871 37.6251 3.42187Z" fill="url(#paint1_linear_11_674)"/>
<defs>
<linearGradient id="paint0_linear_11_674" x1="19.5001" y1="0.125" x2="19.5001" y2="23.875" gradientUnits="userSpaceOnUse">
<stop stop-color="#96BBEF"/>
<stop offset="1" stop-color="#5B86EC"/>
</linearGradient>
<linearGradient id="paint1_linear_11_674" x1="0.0668492" y1="-6.18357" x2="16.0013" y2="56.323" gradientUnits="userSpaceOnUse">
<stop stop-color="#FEC949"/>
<stop offset="0.5" stop-color="#F96848"/>
<stop offset="1" stop-color="#9270F2"/>
</linearGradient>
</defs>
</svg>
