<svg xmlns="http://www.w3.org/2000/svg" width="55" height="18" viewBox="0 0 55 18">
    <g fill="#3D8BE8">
        <path d="M22.667 0L19 17 23.444 17 27 0zM16.346.112l-4.654 11.52-1.93-9.843C9.535.671 8.627.112 7.72.112H.114L0 .559c1.59.336 3.292.895 4.427 1.454.681.336.795.671 1.022 1.454L8.968 17h4.767L21 0h-4.654v.112zM51.571 0h-3.885c-.915 0-1.6.447-1.943 1.23L39 17h4.686l.914-2.572h5.714L50.886 17H55L51.571 0zm-5.485 10.96l2.4-6.374 1.371 6.375h-3.771zM33.175 5.192c0-.577.542-1.269 1.842-1.5.65-.115 2.275-.115 4.225.808L40 .808C39.025.462 37.617 0 35.992 0c-4.225 0-7.15 2.423-7.15 5.77 0 2.538 2.166 3.922 3.683 4.73 1.625.808 2.167 1.385 2.167 2.192 0 1.154-1.3 1.731-2.6 1.731-2.167 0-3.359-.577-4.334-1.154L27 17.077c.975.461 2.817.923 4.767.923 4.441 0 7.366-2.308 7.366-6 0-4.385-6.066-4.73-5.958-6.808z"/>
    </g>
</svg>
