<svg width="25" height="24" viewBox="0 0 25 24" fill="none" xmlns="http://www.w3.org/2000/svg">
<path d="M19.5108 8.59371C19.961 8.59371 20.4428 8.13816 20.285 7.66469C19.898 5.34208 18.3495 4.80015 17.3431 4.80015C16.7237 4.02595 16.027 3.87111 15.5625 3.79369C14.6334 3.71628 13.9367 4.18079 13.4721 4.56789C12.9302 4.33563 12.3883 4.25821 11.8463 4.25821C9.29147 4.25821 7.20117 6.34853 7.20117 8.90339C7.20117 11.226 8.9044 13.084 11.0721 13.4711V16.4131C11.0721 16.8775 11.3818 17.1872 11.8463 17.1872C12.3108 17.1872 12.6205 16.8775 12.6205 16.4131V13.4711C14.7883 13.084 16.4915 11.1485 16.4915 8.90339C16.4915 8.74851 16.4915 8.59371 16.4915 8.59371H19.5108ZM12.6205 12.0001V10.6066L13.2399 10.0647C13.5495 9.75501 13.627 9.29046 13.3173 8.98079C13.1625 8.74851 12.8528 8.67111 12.6205 8.74851V8.20656C12.6205 7.74209 12.3108 7.43241 11.8463 7.43241C11.3818 7.43241 11.0721 7.74209 11.0721 8.20656V10.2195V11.9227C9.75602 11.6131 8.74952 10.3744 8.74952 8.90339C8.74952 7.20015 10.1431 5.80659 11.8463 5.80659C13.5495 5.80659 14.9431 7.12514 15.0205 8.90339C14.9431 10.4518 13.9367 11.6131 12.6205 12.0001ZM14.9431 5.49692C15.098 5.4195 15.2528 5.34208 15.485 5.34208C15.7947 5.34208 16.027 5.57434 16.3367 5.96144C16.4915 6.19369 16.8011 6.34853 17.1108 6.27111C17.1883 6.27111 18.0399 6.19369 18.5044 6.96789H16.027C15.7173 6.42595 15.4076 5.96144 14.9431 5.49692Z" fill="#ED994E"/>
<path d="M13.3946 0C9.05911 0 5.18817 2.94193 4.02689 7.12258L1.47204 11.8451C1.23979 12.3097 1.23979 12.8516 1.47204 13.2387C1.7043 13.7032 2.24624 13.9355 2.71076 13.9355H3.63979V17.1097C3.63979 18.8903 5.11076 20.3613 6.8914 20.3613H7.35592V23.2258C7.35592 23.6903 7.66561 24 8.13008 24C8.59463 24 8.90431 23.6903 8.90431 23.2258V19.5871C8.90431 19.1226 8.59463 18.8129 8.13008 18.8129H6.8914C5.96237 18.8129 5.18817 18.0387 5.18817 17.1097V13.1613C5.18817 12.6968 4.8785 12.3871 4.41398 12.3871H2.86559L5.34301 7.74195C5.34301 7.66455 5.42043 7.66455 5.42043 7.58708C6.5043 4.0258 9.75593 1.54839 13.3946 1.54839C17.885 1.54839 21.6011 5.1871 21.6011 9.75488C21.6011 11.6129 20.9817 13.3161 19.8204 14.7871C18.5817 16.3355 17.9624 17.8064 17.9624 19.2V23.2258C17.9624 23.6903 18.272 24 18.7366 24C19.2011 24 19.5107 23.6903 19.5107 23.2258V19.2C19.5107 18.1161 19.9753 17.0323 20.9817 15.7161C22.3753 14.0129 23.072 11.9226 23.072 9.75488C23.1494 4.33549 18.814 0 13.3946 0Z" fill="#ED994E"/>
</svg>
