<svg width="60" height="60" viewBox="0 0 60 60" fill="none" xmlns="http://www.w3.org/2000/svg">
	<defs>
		<linearGradient id="paint0_linear_5383109" x1="50.6098" y1="44.915" x2="50.6098" y2="15" gradientUnits="userSpaceOnUse">
			<stop stop-color="#3D8BE8"/>
			<stop offset="1" stop-color="#89BEEC"/>
		</linearGradient>
	</defs>
	<circle cx="30" cy="30" r="30" fill="#89BEEC" fill-opacity="0.1"/>
	<path fill-rule="evenodd" clip-rule="evenodd" d="M28.7667 15.32C28.9559 15.116 29.2216 15 29.4999 15C29.7782 15 30.0439 15.116 30.2331 15.32L30.2342 15.3211L30.2357 15.3228L30.2404 15.3279L30.2555 15.3444C30.2682 15.3584 30.2859 15.378 30.3083 15.4032C30.3533 15.4536 30.4171 15.5264 30.4973 15.6204C30.6575 15.8084 30.8829 16.0816 31.1519 16.4311C31.6891 17.1295 32.4031 18.1369 33.1173 19.3819C33.696 20.3907 34.2815 21.567 34.7722 22.8705C36.236 21.6218 37.7033 20.6796 38.8584 20.0264C39.5397 19.6412 40.1166 19.3541 40.5265 19.162C40.7315 19.0659 40.895 18.9935 41.0092 18.9442C41.0663 18.9196 41.1112 18.9008 41.1427 18.8877L41.1799 18.8724L41.1909 18.868L41.1944 18.8666L41.1966 18.8657C41.4473 18.7659 41.7277 18.7715 41.9741 18.8815C42.2206 18.9914 42.4121 19.1963 42.5052 19.4496L42.5057 19.4508L42.5063 19.4525L42.5082 19.4576L42.5141 19.474C42.519 19.4877 42.5258 19.5069 42.5344 19.5314C42.5514 19.5804 42.5754 19.6506 42.605 19.7408C42.6642 19.9211 42.7458 20.1813 42.8389 20.5104C43.0251 21.1681 43.2584 22.1042 43.4512 23.2306C43.7579 25.0221 43.9676 27.3253 43.7054 29.7687C44.3389 29.7098 44.9448 29.6828 45.51 29.6772C46.7562 29.665 47.8245 29.7572 48.5841 29.8528C48.9643 29.9006 49.2686 29.9495 49.4806 29.9871C49.5866 30.0059 49.6697 30.0219 49.7278 30.0335C49.7569 30.0393 49.7797 30.044 49.796 30.0474L49.8156 30.0516L49.8217 30.0529L49.8239 30.0534C49.8239 30.0534 49.8253 30.0537 49.6098 31.0302L49.8253 30.0537C50.0968 30.1136 50.3311 30.2839 50.4719 30.5235C50.6128 30.7632 50.6475 31.0507 50.5678 31.317L50.5667 31.3205L50.5649 31.3265L50.559 31.3457C50.5541 31.3616 50.5471 31.3838 50.538 31.4121C50.5199 31.4685 50.4934 31.5488 50.4582 31.6506C50.3879 31.8541 50.2826 32.1437 50.1394 32.4992C49.8534 33.2093 49.4141 34.1874 48.797 35.2703C47.5705 37.4228 45.6017 40.0591 42.6722 41.7807C39.8663 43.4298 37.0085 44.4751 34.63 44.8034C33.4431 44.9672 32.3245 44.9597 31.373 44.7211C30.6663 44.5439 30.0093 44.2262 29.509 43.7225C29.0086 44.2262 28.3517 44.5439 27.6449 44.7211C26.6935 44.9597 25.5748 44.9672 24.388 44.8034C22.0095 44.4751 19.1517 43.4298 16.3458 41.7807C13.4163 40.0591 11.4475 37.4228 10.2209 35.2703C9.60392 34.1874 9.16461 33.2093 8.87859 32.4992C8.73539 32.1437 8.63009 31.8541 8.55975 31.6506C8.52457 31.5488 8.4981 31.4685 8.47997 31.4121C8.47091 31.3838 8.46393 31.3616 8.45898 31.3457L8.45308 31.3265L8.45127 31.3205L8.45021 31.317C8.37049 31.0507 8.40522 30.7632 8.54607 30.5235C8.68692 30.2839 8.92118 30.1136 9.19263 30.0537L9.40821 31.0302C9.19263 30.0537 9.19412 30.0534 9.19412 30.0534L9.19623 30.0529L9.20234 30.0516L9.22196 30.0474C9.23829 30.044 9.26112 30.0393 9.29017 30.0335C9.34828 30.0219 9.43137 30.0059 9.53741 29.9871C9.74941 29.9495 10.0536 29.9006 10.4339 29.8528C11.1934 29.7572 12.2618 29.665 13.508 29.6772C14.1685 29.6837 14.8847 29.7195 15.6354 29.8012C15.3678 27.3458 15.578 25.0301 15.8861 23.2306C16.0789 22.1042 16.3122 21.1681 16.4984 20.5104C16.5915 20.1813 16.6731 19.9211 16.7323 19.7408C16.7619 19.6506 16.7859 19.5804 16.8029 19.5314C16.8115 19.5069 16.8183 19.4877 16.8232 19.474L16.8291 19.4576L16.831 19.4525L16.8316 19.4508L16.8321 19.4496C16.9252 19.1963 17.1168 18.9914 17.3632 18.8815C17.6096 18.7715 17.8901 18.7659 18.1407 18.8657L18.1429 18.8666L18.1464 18.868L18.1574 18.8724L18.1946 18.8877C18.2262 18.9008 18.271 18.9196 18.3281 18.9442C18.4423 18.9935 18.6058 19.0659 18.8109 19.162C19.2207 19.3541 19.7976 19.6412 20.4789 20.0264C21.5668 20.6416 22.9317 21.5132 24.3098 22.6557C24.783 21.4376 25.3357 20.3349 25.8825 19.3819C26.5967 18.1369 27.3107 17.1295 27.8479 16.4311C28.1168 16.0816 28.3423 15.8084 28.5025 15.6204C28.5826 15.5264 28.6465 15.4536 28.6914 15.4032C28.7139 15.378 28.7316 15.3584 28.7443 15.3444L28.7594 15.3279L28.7641 15.3228L28.7656 15.3211L28.7667 15.32ZM41.6543 30.0673C41.9812 27.6826 41.7893 25.3756 41.4799 23.5681C41.3129 22.5928 41.1135 21.7732 40.9492 21.179C40.6363 21.3347 40.2616 21.5306 39.8429 21.7674C38.5963 22.4722 36.9757 23.5302 35.435 24.9564C35.783 26.302 35.9999 27.7431 35.9999 29.2453C35.9999 30.3567 35.9447 31.4389 35.8402 32.4771C36.1663 32.2671 36.5005 32.0613 36.8421 31.8605C38.4082 30.9401 40.0691 30.3867 41.6543 30.0673ZM22.1759 31.8605C20.7178 31.0036 19.1775 30.4648 17.6927 30.1368C17.3524 27.7274 17.545 25.3931 17.8574 23.5681C18.0244 22.5928 18.2238 21.7732 18.3881 21.179C18.701 21.3347 19.0757 21.5306 19.4944 21.7674C20.6679 22.4309 22.1728 23.4073 23.6305 24.7092C23.2443 26.125 22.9999 27.6507 22.9999 29.2453C22.9999 30.3522 23.0546 31.4302 23.1583 32.4646C22.8384 32.2589 22.5107 32.0573 22.1759 31.8605ZM29.509 38.5877C29.7343 38.1958 29.9963 37.8039 30.2884 37.4159C31.1418 36.2823 32.2954 35.1242 33.6755 34.0262C33.8892 32.6225 33.9999 30.8208 33.9999 29.2453C33.9999 25.8294 32.7116 22.6939 31.3825 20.377C30.7217 19.2251 30.0607 18.2928 29.5667 17.6506L29.4999 17.5643L29.4331 17.6506C28.9391 18.2928 28.2781 19.2251 27.6173 20.377C26.2882 22.6939 24.9999 25.8294 24.9999 29.2453C24.9999 30.8235 25.1358 32.6287 25.3516 34.0335C26.7277 35.1294 27.8781 36.2848 28.7296 37.4159C29.0217 37.8039 29.2837 38.1958 29.509 38.5877ZM10.7642 31.8271C11.0243 32.465 11.4164 33.3285 11.9586 34.2801C13.0938 36.2722 14.8471 38.5802 17.3591 40.0565C19.9946 41.6054 22.6023 42.5379 24.6614 42.8222C25.6934 42.9646 26.5365 42.9371 27.1585 42.7811C27.7758 42.6264 28.0956 42.3693 28.2513 42.1044C28.407 41.8394 28.476 41.4349 28.3109 40.8203C28.1445 40.2011 27.7583 39.451 27.1318 38.6188C25.8816 36.9581 23.7981 35.1337 21.1625 33.5848C18.6506 32.1085 15.7811 31.6996 13.4884 31.6771C12.3932 31.6664 11.448 31.744 10.7642 31.8271ZM47.0594 34.2801C47.6016 33.3285 47.9937 32.465 48.2537 31.8271C47.57 31.744 46.6248 31.6664 45.5296 31.6771C43.2368 31.6996 40.3674 32.1085 37.8554 33.5848C35.2199 35.1337 33.1364 36.9581 31.8862 38.6188C31.2597 39.451 30.8735 40.2011 30.7071 40.8203C30.542 41.4349 30.611 41.8394 30.7667 42.1044C30.9224 42.3693 31.2422 42.6264 31.8595 42.7811C32.4814 42.9371 33.3246 42.9646 34.3565 42.8222C36.4157 42.5379 39.0233 41.6054 41.6589 40.0565C44.1709 38.5802 45.9242 36.2722 47.0594 34.2801Z" fill="url(#paint0_linear_5383109)"/>
</svg>
