<svg width="61" height="60" viewBox="0 0 61 60" fill="none" xmlns="http://www.w3.org/2000/svg">
<path d="M30.7698 13.125C28.6691 13.125 26.5719 13.4288 24.9054 14.0914L5.9943 21.6251C5.16178 21.9561 4.51043 22.331 4.03949 22.7892C3.56856 23.2474 3.27075 23.8181 3.27075 24.4145C3.27075 24.4891 3.28366 24.5612 3.29272 24.6342V33.2221C2.56031 33.4682 2.0188 34.1494 2.0188 34.9573C2.0188 35.9707 2.87078 36.8023 3.88575 36.8023C4.90072 36.8023 5.73073 35.9707 5.73073 34.9573C5.73073 34.1494 5.20618 33.4682 4.47878 33.2221V26.3913C4.89291 26.7 5.38877 26.9632 5.9943 27.204L13.7476 30.3009V39.0645C13.7476 40.139 14.3303 41.1008 15.2412 41.9199C16.1521 42.739 17.4208 43.4462 18.9531 44.0284C22.0177 45.1929 26.173 45.8954 30.7698 45.8954C35.3666 45.8954 39.5407 45.1928 42.6084 44.0284C44.1423 43.4462 45.3863 42.7608 46.2984 41.9419C47.2105 41.1228 47.7919 40.1394 47.7919 39.0645V30.3009L55.5453 27.204C56.3778 26.873 57.0291 26.4761 57.5001 26.0179C57.971 25.5597 58.2688 25.011 58.2688 24.4145C58.2688 23.8181 57.971 23.2474 57.5001 22.7892C57.0291 22.331 56.3778 21.9561 55.5453 21.6251L36.6342 14.0914C34.9677 13.4288 32.8704 13.125 30.7698 13.125ZM30.7698 14.3111C32.7504 14.3111 34.7341 14.6088 36.1949 15.1896L55.106 22.7233C55.8371 23.014 56.3545 23.3433 56.6654 23.6458C56.9763 23.9483 57.0608 24.204 57.0608 24.4145C57.0608 24.6251 56.9763 24.8588 56.6654 25.1613C56.3545 25.4638 55.8371 25.7931 55.106 26.0838L36.1949 33.6174C33.2721 34.7795 28.2675 34.7795 25.3446 33.6174L14.5823 29.3345C14.5607 29.326 14.5387 29.3187 14.5164 29.3127L6.43358 26.084C5.70246 25.7933 5.18501 25.464 4.87413 25.1615C4.56324 24.859 4.47878 24.6253 4.47878 24.4147C4.47931 24.4001 4.47931 24.3854 4.47878 24.3708C4.49042 24.1691 4.58501 23.9273 4.87413 23.646C5.18501 23.3435 5.70247 23.0142 6.43358 22.7235L25.3446 15.1898C26.8055 14.609 28.7891 14.3112 30.7698 14.3112V14.3111ZM46.6059 30.7621V39.0645C46.6059 39.7147 46.2587 40.367 45.5077 41.0413C44.7567 41.7156 43.6087 42.3619 42.1691 42.9083C39.2901 44.001 35.2441 44.6873 30.7698 44.6873C26.2954 44.6873 22.2462 44.0009 19.3704 42.9083C17.9325 42.362 16.8037 41.7155 16.0538 41.0413C15.304 40.3671 14.9556 39.7151 14.9556 39.0645V30.7841L24.9054 34.7376C28.2371 36.0623 33.3025 36.0623 36.6342 34.7376L46.6059 30.7621ZM3.88575 34.2984C4.25001 34.2984 4.5227 34.5846 4.5227 34.9573C4.5227 35.3299 4.25001 35.6162 3.88575 35.6162C3.52149 35.6162 3.22682 35.3299 3.22682 34.9573C3.22682 34.5846 3.52149 34.2984 3.88575 34.2984Z" fill="url(#paint0_linear)" stroke="url(#paint1_linear)" stroke-width="0.5"/>
<defs>
<linearGradient id="paint0_linear" x1="30.1438" y1="13.125" x2="30.1438" y2="45.8954" gradientUnits="userSpaceOnUse">
<stop stop-color="#96BBEF"/>
<stop offset="1" stop-color="#5B86EC"/>
</linearGradient>
<linearGradient id="paint1_linear" x1="30.1438" y1="13.125" x2="30.1438" y2="45.8954" gradientUnits="userSpaceOnUse">
<stop stop-color="#96BBEF"/>
<stop offset="1" stop-color="#5B86EC"/>
</linearGradient>
</defs>
</svg>
