<svg width="14" height="19" viewBox="0 0 14 19" fill="none" xmlns="http://www.w3.org/2000/svg">
<path d="M4.54522 0.371615C2.76675 0.939739 0.864771 2.91582 0.296647 4.7931C-0.271476 6.79388 -0.0491669 8.30064 1.18588 10.7213C2.14922 12.5986 4.34761 15.8592 6.07669 17.9093L6.86712 18.8727L7.68225 17.9093C10.844 14.1054 13.4623 9.6098 13.7093 7.48551C14.1539 3.55805 10.7946 -0.0730029 6.76831 0.00110015C6.20019 0.00110015 5.21215 0.174007 4.54522 0.371615ZM9.70774 1.16205C11.9061 2.2983 13.1412 4.24968 13.1659 6.67038C13.1659 8.15244 13.0424 8.54765 12.0049 10.6225C10.8193 12.9691 7.33644 17.8846 6.86712 17.8846C6.3731 17.8846 2.89025 12.9444 1.72931 10.6225C0.691864 8.54765 0.568358 8.12774 0.568358 6.67038C0.593059 3.85446 2.29743 1.60667 5.13805 0.692729C6.15079 0.346914 8.64559 0.618626 9.70774 1.16205Z" fill="black"/>
<path d="M4.76753 2.15006C2.12452 3.40981 0.96357 6.44803 2.14922 8.99224C3.63128 12.1787 7.63284 13.0679 10.2265 10.7954C11.2639 9.88148 11.7085 9.06634 11.9061 7.75719C12.0296 6.91735 11.9802 6.96676 11.6344 8.103C10.35 12.3269 4.91573 13.1173 2.64324 9.43686C1.754 8.0289 1.8034 5.6329 2.71734 4.24964C3.95239 2.37237 6.20019 1.63134 8.71969 2.27356C9.31251 2.42177 9.38662 2.39707 9.0161 2.17476C8.12686 1.65604 5.85437 1.63134 4.76753 2.15006Z" fill="black"/>
<path d="M10.3253 3.311C10.6464 3.65682 10.9675 3.92853 11.0169 3.92853C11.091 3.92853 10.8934 3.65682 10.5723 3.311C10.2512 2.96519 9.93004 2.69348 9.88064 2.69348C9.80653 2.69348 10.0041 2.96519 10.3253 3.311Z" fill="black"/>
<path d="M5.26156 3.28635C2.76675 4.37319 2.17393 7.68313 4.12531 9.63451C5.73088 11.2401 8.00337 11.2401 9.60894 9.63451C12.6719 6.57158 9.23842 1.55728 5.26156 3.28635ZM8.59619 3.68156C9.70774 4.24969 10.5723 5.65764 10.5723 6.8927C10.5723 8.76997 8.7444 10.5978 6.86712 10.5978C4.98985 10.5978 3.16197 8.76997 3.16197 6.8927C3.16197 5.70705 4.02651 4.24969 5.08865 3.70626C6.2743 3.06404 7.38584 3.06404 8.59619 3.68156Z" fill="black"/>
<path d="M11.3133 4.71902C11.3133 4.94133 11.4368 5.21304 11.5603 5.28714C11.8814 5.48475 11.8814 5.16364 11.5603 4.66962C11.3627 4.3485 11.3133 4.3485 11.3133 4.71902Z" fill="black"/>
</svg>
