<svg width="81" height="56" viewBox="0 0 81 56" fill="none" xmlns="http://www.w3.org/2000/svg">
<path d="M57.4705 16.9393H53.4548C53.4225 16.4447 53.358 15.9609 53.2666 15.477L54.9546 15.1437C55.3901 15.0577 55.675 14.633 55.589 14.1976C55.503 13.7622 55.0783 13.4772 54.6428 13.5632L52.8742 13.9127C52.7076 13.3912 52.5087 12.8751 52.2775 12.3806L55.6266 10.37C56.0728 10.1012 56.2179 9.52599 55.9492 9.07979C55.6804 8.6336 55.1052 8.48845 54.659 8.75724L51.369 10.7356C51.0357 10.2248 50.6594 9.73027 50.2508 9.26257L51.5249 8.0315C51.8474 7.71971 51.8528 7.209 51.5464 6.89183C51.2346 6.56928 50.7239 6.5639 50.4067 6.87032L49.1165 8.11752C48.7026 7.74659 48.2672 7.40253 47.8156 7.09073L49.7831 3.87598C50.0519 3.43516 49.9175 2.85457 49.4713 2.5804C49.0305 2.31161 48.4499 2.44601 48.1758 2.8922L46.1921 6.13383C45.6707 5.87579 45.1331 5.65001 44.5848 5.46723L44.9396 3.83297C45.0363 3.39753 44.7568 2.96746 44.3267 2.8707C43.8913 2.77393 43.4612 3.05348 43.3645 3.48354L43.0258 5.04254C42.4667 4.92965 41.8969 4.84901 41.3217 4.81138V0.940772C41.3217 0.419316 40.9024 0 40.3809 0C39.8595 0 39.4402 0.419316 39.4402 0.940772V4.81138C38.8649 4.85438 38.2951 4.92965 37.7414 5.04254L37.4027 3.48354C37.306 3.0481 36.8759 2.77393 36.4405 2.8707C36.005 2.96746 35.7309 3.39753 35.8276 3.83297L36.1824 5.46723C35.6287 5.65538 35.0912 5.87579 34.5697 6.13383L32.586 2.8922C32.3173 2.45138 31.7367 2.31161 31.2905 2.5804C30.8497 2.8492 30.7099 3.42979 30.9787 3.87598L32.9462 7.09073C32.4947 7.40253 32.0592 7.74659 31.6453 8.11752L30.3605 6.8757C30.0379 6.5639 29.5272 6.57465 29.2208 6.8972C28.909 7.21975 28.9198 7.73046 29.2423 8.03688L30.5164 9.26795C30.1078 9.73565 29.7315 10.2248 29.3982 10.7409L26.1136 8.76799C25.6674 8.4992 25.0922 8.64435 24.8234 9.09054C24.5546 9.53674 24.6998 10.112 25.146 10.3807L28.4897 12.3913C28.2585 12.8913 28.0596 13.402 27.893 13.9234L26.1297 13.5632C25.6943 13.4772 25.2696 13.7622 25.1836 14.1976C25.0976 14.633 25.3825 15.0577 25.8179 15.1437L27.5006 15.477C27.4145 15.9555 27.35 16.4447 27.3124 16.9393H23.3075C22.786 16.9393 22.3667 17.3586 22.3667 17.88C22.3667 18.4015 22.786 18.8208 23.3075 18.8208H25.404H27.3178H29.2047C29.1778 18.509 29.1671 18.1972 29.1671 17.88C29.1671 11.6925 34.2041 6.65529 40.3917 6.65529C46.5792 6.65529 51.6109 11.6925 51.6109 17.88C51.6109 18.1972 51.5948 18.509 51.5733 18.8208H53.4602H53.487H57.4705C57.9919 18.8208 58.4113 18.4015 58.4113 17.88C58.4113 17.3586 57.9919 16.9393 57.4705 16.9393Z" fill="url(#paint0_linear)"/>
<path d="M20.9795 31.0167H18.5578L18.1334 31.9993C18.0289 32.2411 17.9766 32.4217 17.9766 32.5411C17.9766 32.6359 18.0212 32.7201 18.1104 32.7936C18.2026 32.864 18.3995 32.9099 18.7008 32.9313V33.1012H16.7312V32.9313C16.9925 32.8854 17.1617 32.8257 17.2386 32.7523C17.3954 32.6053 17.5691 32.3069 17.7598 31.8569L19.9601 26.733H20.1216L22.2988 31.912C22.4741 32.3283 22.6325 32.5992 22.7739 32.7247C22.9185 32.8472 23.1183 32.916 23.3736 32.9313V33.1012H20.9057V32.9313C21.1548 32.9191 21.3224 32.8778 21.4085 32.8074C21.4977 32.737 21.5423 32.6513 21.5423 32.5502C21.5423 32.4156 21.4808 32.2028 21.3578 31.912L20.9795 31.0167ZM20.8504 30.677L19.7894 28.1609L18.7008 30.677H20.8504Z" fill="#1E2232"/>
<path d="M24.8268 28.7715V29.7174C25.1804 29.0868 25.5433 28.7715 25.9154 28.7715C26.0846 28.7715 26.2245 28.8236 26.3352 28.9276C26.4459 29.0287 26.5012 29.1465 26.5012 29.2812C26.5012 29.4006 26.4613 29.5016 26.3813 29.5842C26.3014 29.6669 26.206 29.7082 26.0953 29.7082C25.9877 29.7082 25.8662 29.6561 25.7309 29.5521C25.5987 29.4449 25.5003 29.3914 25.4357 29.3914C25.3803 29.3914 25.3204 29.422 25.2558 29.4832C25.1174 29.6087 24.9744 29.8153 24.8268 30.103V32.1187C24.8268 32.3513 24.856 32.5273 24.9144 32.6467C24.9544 32.7293 25.0252 32.7982 25.1266 32.8533C25.2281 32.9084 25.3742 32.9359 25.5648 32.9359V33.1012H23.4014V32.9359C23.6167 32.9359 23.7766 32.9022 23.8812 32.8349C23.9581 32.7859 24.0119 32.7079 24.0426 32.6007C24.058 32.5487 24.0657 32.4003 24.0657 32.1554V30.5254C24.0657 30.0357 24.0549 29.7449 24.0334 29.6531C24.0149 29.5582 23.978 29.4893 23.9227 29.4465C23.8704 29.4036 23.8043 29.3822 23.7243 29.3822C23.629 29.3822 23.5214 29.4051 23.4014 29.4511L23.3553 29.2858L24.6331 28.7715H24.8268Z" fill="#1E2232"/>
<path d="M27.7746 27.5135V28.8955H28.7617V29.2169H27.7746V31.9442C27.7746 32.2166 27.813 32.4003 27.8899 32.4951C27.9698 32.59 28.0713 32.6375 28.1943 32.6375C28.2958 32.6375 28.3942 32.6069 28.4895 32.5457C28.5849 32.4814 28.6587 32.388 28.711 32.2656H28.8909C28.7832 32.5655 28.631 32.7921 28.4342 32.9451C28.2374 33.0951 28.0344 33.1701 27.8253 33.1701C27.6838 33.1701 27.5455 33.1318 27.4102 33.0553C27.2748 32.9757 27.1749 32.864 27.1103 32.7201C27.0457 32.5732 27.0135 32.3482 27.0135 32.0452V29.2169H26.3446V29.0654C26.5137 28.998 26.6859 28.8848 26.8612 28.7256C27.0396 28.5634 27.198 28.3721 27.3363 28.1517C27.4071 28.0354 27.5055 27.8227 27.6316 27.5135H27.7746Z" fill="#1E2232"/>
<path d="M33.2273 28.7715C33.8669 28.7715 34.3805 29.0133 34.7679 29.497C35.097 29.9102 35.2615 30.3846 35.2615 30.9203C35.2615 31.2968 35.1708 31.6779 34.9894 32.0636C34.8079 32.4492 34.5573 32.74 34.2375 32.9359C33.9207 33.1318 33.5671 33.2298 33.1765 33.2298C32.54 33.2298 32.0341 32.9772 31.6589 32.4722C31.3422 32.0467 31.1838 31.5692 31.1838 31.0397C31.1838 30.654 31.2791 30.2714 31.4698 29.8918C31.6635 29.5092 31.9172 29.2276 32.2309 29.047C32.5446 28.8634 32.8767 28.7715 33.2273 28.7715ZM33.0843 29.07C32.9213 29.07 32.7568 29.119 32.5907 29.2169C32.4277 29.3118 32.2955 29.4801 32.194 29.722C32.0925 29.9638 32.0418 30.2744 32.0418 30.654C32.0418 31.2662 32.1632 31.7942 32.4062 32.238C32.6522 32.6819 32.9751 32.9038 33.3749 32.9038C33.6732 32.9038 33.9192 32.7813 34.1129 32.5365C34.3067 32.2916 34.4035 31.8707 34.4035 31.2738C34.4035 30.527 34.2421 29.9393 33.9192 29.5107C33.7008 29.2169 33.4225 29.07 33.0843 29.07Z" fill="#1E2232"/>
<path d="M37.3467 29.2261V31.9901C37.3467 32.3819 37.3897 32.6298 37.4758 32.7339C37.5896 32.8686 37.7418 32.9359 37.9325 32.9359H38.3154V33.1012H35.7922V32.9359H35.9813C36.1043 32.9359 36.2165 32.9053 36.318 32.8441C36.4195 32.7829 36.4887 32.7002 36.5256 32.5962C36.5656 32.4921 36.5856 32.2901 36.5856 31.9901V29.2261H35.7645V28.8955H36.5856V28.62C36.5856 28.2007 36.6532 27.8456 36.7885 27.5548C36.9238 27.264 37.1299 27.0299 37.4066 26.8523C37.6865 26.6717 38.0002 26.5814 38.3477 26.5814C38.6705 26.5814 38.9673 26.6855 39.2379 26.8937C39.4163 27.0314 39.5055 27.186 39.5055 27.3574C39.5055 27.4492 39.4655 27.5365 39.3855 27.6191C39.3056 27.6987 39.2195 27.7385 39.1272 27.7385C39.0565 27.7385 38.9811 27.714 38.9012 27.665C38.8243 27.613 38.729 27.5043 38.6152 27.339C38.5014 27.1707 38.3969 27.0574 38.3015 26.9993C38.2062 26.9411 38.1001 26.912 37.9832 26.912C37.8418 26.912 37.7218 26.9503 37.6234 27.0268C37.525 27.1003 37.4543 27.2166 37.4113 27.3758C37.3682 27.5319 37.3467 27.9374 37.3467 28.5925V28.8955H38.4353V29.2261H37.3467Z" fill="#1E2232"/>
<path d="M45.9453 31.3794L46.0975 31.4116L45.5624 33.1012H40.719V32.9313H40.9543C41.2187 32.9313 41.4078 32.8456 41.5216 32.6742C41.5862 32.5763 41.6185 32.3498 41.6185 31.9947V27.9772C41.6185 27.5885 41.5754 27.3451 41.4893 27.2472C41.3694 27.1125 41.191 27.0452 40.9543 27.0452H40.719V26.8753H43.5513V27.0452C43.2191 27.0421 42.9854 27.0727 42.8501 27.137C42.7179 27.2013 42.6272 27.2824 42.578 27.3803C42.5288 27.4783 42.5042 27.7125 42.5042 28.0828V31.9947C42.5042 32.2487 42.5288 32.4232 42.578 32.5181C42.6149 32.5824 42.6718 32.6298 42.7486 32.6604C42.8255 32.691 43.0654 32.7064 43.4682 32.7064H43.9249C44.4046 32.7064 44.7414 32.6711 44.9351 32.6007C45.1288 32.5303 45.3057 32.4064 45.4656 32.2288C45.6255 32.0483 45.7854 31.7651 45.9453 31.3794Z" fill="#1E2232"/>
<path d="M47.4862 26.5723C47.6153 26.5723 47.7245 26.6182 47.8137 26.71C47.9059 26.7988 47.9521 26.9074 47.9521 27.036C47.9521 27.1646 47.9059 27.2747 47.8137 27.3666C47.7245 27.4584 47.6153 27.5043 47.4862 27.5043C47.357 27.5043 47.2463 27.4584 47.154 27.3666C47.0618 27.2747 47.0157 27.1646 47.0157 27.036C47.0157 26.9074 47.0602 26.7988 47.1494 26.71C47.2417 26.6182 47.3539 26.5723 47.4862 26.5723ZM47.869 28.7715V32.1508C47.869 32.414 47.8875 32.59 47.9244 32.6788C47.9644 32.7645 48.0212 32.8288 48.095 32.8716C48.1719 32.9145 48.3103 32.9359 48.5102 32.9359V33.1012H46.4575V32.9359C46.6635 32.9359 46.8019 32.916 46.8727 32.8762C46.9434 32.8364 46.9987 32.7706 47.0387 32.6788C47.0818 32.587 47.1033 32.411 47.1033 32.1508V30.53C47.1033 30.074 47.0895 29.7786 47.0618 29.6439C47.0403 29.5459 47.0064 29.4786 46.9603 29.4419C46.9142 29.4021 46.8511 29.3822 46.7712 29.3822C46.6851 29.3822 46.5805 29.4051 46.4575 29.4511L46.3929 29.2858L47.6661 28.7715H47.869Z" fill="#1E2232"/>
<path d="M48.6349 28.8955H50.623V29.0654H50.4939C50.374 29.0654 50.2817 29.0945 50.2171 29.1526C50.1556 29.2108 50.1249 29.2888 50.1249 29.3868C50.1249 29.4939 50.1572 29.6209 50.2217 29.7679L51.2043 32.0911L52.1914 29.6806C52.2621 29.5092 52.2975 29.3791 52.2975 29.2904C52.2975 29.2475 52.2852 29.2123 52.2606 29.1848C52.2268 29.1388 52.1837 29.1082 52.1314 29.0929C52.0792 29.0746 51.9731 29.0654 51.8132 29.0654V28.8955H53.1924V29.0654C53.0325 29.0776 52.9218 29.1098 52.8603 29.1618C52.7526 29.2536 52.6558 29.4067 52.5696 29.6209L51.0705 33.2298H50.8814L49.373 29.6806C49.3053 29.5153 49.2407 29.3975 49.1792 29.3271C49.1177 29.2536 49.0393 29.1924 48.944 29.1434C48.8917 29.1159 48.7887 29.0899 48.6349 29.0654V28.8955Z" fill="#1E2232"/>
<path d="M54.4611 26.5723C54.5902 26.5723 54.6994 26.6182 54.7886 26.71C54.8808 26.7988 54.927 26.9074 54.927 27.036C54.927 27.1646 54.8808 27.2747 54.7886 27.3666C54.6994 27.4584 54.5902 27.5043 54.4611 27.5043C54.3319 27.5043 54.2212 27.4584 54.129 27.3666C54.0367 27.2747 53.9906 27.1646 53.9906 27.036C53.9906 26.9074 54.0352 26.7988 54.1243 26.71C54.2166 26.6182 54.3288 26.5723 54.4611 26.5723ZM54.8439 28.7715V32.1508C54.8439 32.414 54.8624 32.59 54.8993 32.6788C54.9393 32.7645 54.9962 32.8288 55.07 32.8716C55.1469 32.9145 55.2852 32.9359 55.4851 32.9359V33.1012H53.4324V32.9359C53.6385 32.9359 53.7769 32.916 53.8476 32.8762C53.9183 32.8364 53.9737 32.7706 54.0136 32.6788C54.0567 32.587 54.0782 32.411 54.0782 32.1508V30.53C54.0782 30.074 54.0644 29.7786 54.0367 29.6439C54.0152 29.5459 53.9813 29.4786 53.9352 29.4419C53.8891 29.4021 53.8261 29.3822 53.7461 29.3822C53.66 29.3822 53.5554 29.4051 53.4324 29.4511L53.3678 29.2858L54.641 28.7715H54.8439Z" fill="#1E2232"/>
<path d="M57.0583 29.6623C57.5534 29.0684 58.0254 28.7715 58.4744 28.7715C58.705 28.7715 58.9034 28.8297 59.0695 28.946C59.2355 29.0593 59.3677 29.2475 59.4662 29.5107C59.5338 29.6944 59.5676 29.976 59.5676 30.3556V32.1508C59.5676 32.4171 59.5892 32.5977 59.6322 32.6926C59.666 32.7691 59.7199 32.8288 59.7937 32.8716C59.8705 32.9145 60.0105 32.9359 60.2134 32.9359V33.1012H58.1238V32.9359H58.2115C58.4083 32.9359 58.5451 32.9068 58.622 32.8487C58.702 32.7875 58.7573 32.6987 58.7881 32.5824C58.8004 32.5365 58.8065 32.3926 58.8065 32.1508V30.429C58.8065 30.0464 58.7558 29.7694 58.6543 29.598C58.5559 29.4235 58.3883 29.3363 58.1515 29.3363C57.7856 29.3363 57.4211 29.5352 57.0583 29.9332V32.1508C57.0583 32.4355 57.0752 32.6115 57.109 32.6788C57.1521 32.7676 57.2105 32.8334 57.2843 32.8762C57.3612 32.916 57.5149 32.9359 57.7456 32.9359V33.1012H55.656V32.9359H55.7482C55.9635 32.9359 56.108 32.8824 56.1818 32.7752C56.2587 32.665 56.2972 32.4569 56.2972 32.1508V30.5897C56.2972 30.0847 56.2849 29.777 56.2603 29.6669C56.2387 29.5567 56.2034 29.4817 56.1542 29.4419C56.108 29.4021 56.045 29.3822 55.965 29.3822C55.8789 29.3822 55.7759 29.4051 55.656 29.4511L55.5868 29.2858L56.8599 28.7715H57.0583V29.6623Z" fill="#1E2232"/>
<path d="M61.4914 31.5677C61.233 31.4422 61.0347 31.2677 60.8963 31.0443C60.7579 30.8178 60.6887 30.5683 60.6887 30.2959C60.6887 29.8796 60.8456 29.5215 61.1592 29.2215C61.476 28.9215 61.8804 28.7715 62.3724 28.7715C62.7753 28.7715 63.1243 28.8695 63.4195 29.0654H64.3144C64.4466 29.0654 64.5235 29.07 64.545 29.0792C64.5666 29.0853 64.5819 29.0975 64.5912 29.1159C64.6096 29.1434 64.6188 29.1924 64.6188 29.2628C64.6188 29.3424 64.6111 29.3975 64.5958 29.4281C64.5865 29.4434 64.5696 29.4557 64.545 29.4648C64.5235 29.474 64.4466 29.4786 64.3144 29.4786H63.7655C63.9377 29.699 64.0238 29.9806 64.0238 30.3234C64.0238 30.7152 63.8731 31.0504 63.5717 31.3289C63.2704 31.6075 62.866 31.7468 62.3586 31.7468C62.1494 31.7468 61.9357 31.7161 61.7174 31.6549C61.5821 31.7712 61.4898 31.8738 61.4406 31.9625C61.3945 32.0483 61.3714 32.1217 61.3714 32.1829C61.3714 32.235 61.396 32.2855 61.4452 32.3344C61.4975 32.3834 61.5975 32.4186 61.7451 32.4401C61.8312 32.4523 62.0464 32.463 62.3909 32.4722C63.0243 32.4875 63.4349 32.5089 63.6225 32.5365C63.9085 32.5763 64.136 32.6819 64.3052 32.8533C64.4774 33.0247 64.5635 33.2359 64.5635 33.4869C64.5635 33.8328 64.4005 34.1572 64.0745 34.4603C63.5948 34.9072 62.969 35.1306 62.1971 35.1306C61.6036 35.1306 61.1023 34.9974 60.6933 34.7311C60.4627 34.5781 60.3474 34.4189 60.3474 34.2536C60.3474 34.1802 60.3643 34.1067 60.3981 34.0333C60.4504 33.92 60.558 33.7624 60.721 33.5603C60.7425 33.5328 60.8994 33.3675 61.1915 33.0645C61.0316 32.9696 60.9178 32.8854 60.8502 32.812C60.7856 32.7354 60.7533 32.6497 60.7533 32.5548C60.7533 32.4477 60.7964 32.3222 60.8825 32.1783C60.9716 32.0345 61.1746 31.8309 61.4914 31.5677ZM62.294 28.9919C62.0664 28.9919 61.8758 29.0822 61.722 29.2628C61.5682 29.4434 61.4914 29.7204 61.4914 30.0939C61.4914 30.5775 61.5959 30.9524 61.805 31.2187C61.9649 31.4208 62.1679 31.5218 62.4139 31.5218C62.6476 31.5218 62.8398 31.4345 62.9905 31.2601C63.1412 31.0856 63.2165 30.8116 63.2165 30.4382C63.2165 29.9515 63.1104 29.5704 62.8983 29.295C62.7414 29.0929 62.54 28.9919 62.294 28.9919ZM61.4452 33.1012C61.3007 33.2573 61.1915 33.4027 61.1177 33.5374C61.0439 33.6721 61.007 33.796 61.007 33.9093C61.007 34.0562 61.0962 34.1848 61.2746 34.295C61.5821 34.4847 62.0264 34.5796 62.6077 34.5796C63.1612 34.5796 63.5687 34.4817 63.83 34.2858C64.0945 34.0929 64.2267 33.8863 64.2267 33.6659C64.2267 33.5068 64.1483 33.3935 63.9915 33.3262C63.8316 33.2588 63.5148 33.2191 63.0413 33.2068C62.3493 33.1884 61.8173 33.1532 61.4452 33.1012Z" fill="#1E2232"/>
<path d="M3.223 50.5194C2.54641 50.5194 1.949 50.3546 1.43076 50.0251C0.926923 49.6955 0.675003 49.2657 0.675003 48.7355C0.675003 48.4059 0.768573 48.105 0.955714 47.8328C1.14286 47.5606 1.42357 47.4173 1.79785 47.4029C2.21532 47.3743 2.51042 47.4817 2.68317 47.7253C2.85591 47.9689 2.94229 48.2268 2.94229 48.4991C2.95668 48.6997 2.9135 48.8931 2.81273 49.0794C2.8991 49.2083 3.02866 49.3015 3.2014 49.3588C3.37415 49.4018 3.51091 49.4233 3.61167 49.4233C4.00035 49.4089 4.28826 49.237 4.4754 48.9074C4.67694 48.5636 4.77771 47.9976 4.77771 47.2095V38.161C4.77771 37.8171 4.77771 37.4804 4.77771 37.1508C4.77771 36.8213 4.7849 36.5132 4.7993 36.2266C4.4826 36.241 4.13711 36.2553 3.76283 36.2696C3.40294 36.2839 3.07904 36.2983 2.79113 36.3126V35.1305H8.68607V36.0762C8.05267 36.0762 7.62081 36.2481 7.39048 36.592C7.17455 36.9216 7.06658 37.4302 7.06658 38.118V44.8668C7.06658 46.9014 6.75708 48.3558 6.13808 49.2298C5.51907 50.0895 4.54738 50.5194 3.223 50.5194Z" fill="#1E2232"/>
<path d="M15.3091 50.5194C14.287 50.5194 13.3657 50.2902 12.5452 49.8316C11.7246 49.3731 11.0696 48.7355 10.5802 47.9188C10.1051 47.0877 9.86762 46.1349 9.86762 45.0602C9.86762 43.8996 10.1051 42.8751 10.5802 41.9867C11.0696 41.084 11.7246 40.3748 12.5452 39.8589C13.3657 39.3431 14.2798 39.0852 15.2875 39.0852C16.3096 39.0852 17.2309 39.3216 18.0514 39.7945C18.872 40.253 19.5198 40.8978 19.9948 41.7288C20.4843 42.5455 20.729 43.4912 20.729 44.5659C20.729 45.7122 20.4915 46.7367 20.0164 47.6394C19.5414 48.5277 18.8936 49.2298 18.073 49.7457C17.2669 50.2615 16.3456 50.5194 15.3091 50.5194ZM15.4603 49.4448C16.1512 49.4448 16.6911 49.237 17.0797 48.8215C17.4828 48.3916 17.7707 47.8543 17.9435 47.2095C18.1162 46.5504 18.2026 45.8698 18.2026 45.1677C18.2026 44.5515 18.145 43.9497 18.0298 43.3623C17.9291 42.7605 17.7635 42.216 17.5332 41.7288C17.3029 41.2416 17.0006 40.8548 16.6263 40.5682C16.252 40.2673 15.7985 40.124 15.2659 40.1383C14.5749 40.1383 14.0135 40.3461 13.5816 40.7616C13.1642 41.1772 12.8619 41.7145 12.6747 42.3736C12.4876 43.0184 12.394 43.7062 12.394 44.4369C12.394 45.2823 12.502 46.0847 12.7179 46.8441C12.9339 47.6035 13.2649 48.2268 13.7112 48.714C14.1719 49.2012 14.7549 49.4448 15.4603 49.4448Z" fill="#1E2232"/>
<path d="M27.0148 50.5194C25.7912 50.5194 24.8915 50.1684 24.3156 49.4663C23.7398 48.7642 23.4519 47.5462 23.4519 45.8125V42.4381C23.4519 42.1945 23.4519 41.9437 23.4519 41.6858C23.4663 41.4279 23.4951 41.1628 23.5383 40.8906C23.2936 40.8906 23.0345 40.8978 22.7609 40.9121C22.4874 40.9264 22.2427 40.9407 22.0268 40.9551V39.8159H22.545C23.2648 39.8159 23.7974 39.7515 24.1429 39.6225C24.5028 39.4936 24.7619 39.3574 24.9203 39.2141H25.7408V45.7695C25.7408 46.9158 25.8991 47.7683 26.2158 48.3271C26.5325 48.8716 27.0652 49.1367 27.8137 49.1224C28.2888 49.1224 28.7566 48.9791 29.2173 48.6925C29.678 48.4059 30.0522 48.0692 30.3401 47.6823V42.5885C30.3401 42.2733 30.3473 41.9796 30.3617 41.7073C30.3761 41.4351 30.4049 41.1628 30.4481 40.8906C30.189 40.8906 29.9227 40.8978 29.6492 40.9121C29.3756 40.9264 29.1237 40.9407 28.8934 40.9551V39.8159H29.5196C30.153 39.8159 30.6496 39.7515 31.0095 39.6225C31.3694 39.4936 31.6285 39.3574 31.7869 39.2141H32.6074L32.5858 47.1235C32.5858 47.3528 32.5786 47.668 32.5642 48.0692C32.5498 48.4561 32.5282 48.8 32.4995 49.1009C32.7442 49.0865 32.9961 49.0722 33.2552 49.0579C33.5287 49.0436 33.7807 49.0364 34.011 49.0364V50.1755H30.5777C30.5489 49.9463 30.5201 49.7313 30.4913 49.5307C30.4625 49.3301 30.4409 49.1367 30.4265 48.9504C29.9947 49.366 29.4764 49.7313 28.8718 50.0466C28.2816 50.3618 27.6626 50.5194 27.0148 50.5194Z" fill="#1E2232"/>
<path d="M35.512 49.2728C35.9439 49.2728 36.2462 49.1725 36.419 48.9719C36.5917 48.7713 36.6925 48.4919 36.7213 48.1337C36.7644 47.7755 36.786 47.36 36.786 46.8871V42.4166C36.786 42.1873 36.786 41.9437 36.786 41.6858C36.8004 41.4279 36.8292 41.1628 36.8724 40.8906C36.6277 40.8906 36.3686 40.8978 36.0951 40.9121C35.8215 40.9264 35.5696 40.9407 35.3393 40.9551V39.8159H36.0735C36.6781 39.8159 37.1315 39.7515 37.4338 39.6225C37.7505 39.4936 37.9881 39.3574 38.1464 39.2141H38.9238C38.9526 39.4147 38.9742 39.6942 38.9885 40.0524C39.0029 40.4106 39.0173 40.8118 39.0317 41.256C39.4348 40.6685 39.9386 40.1598 40.5433 39.73C41.1479 39.3001 41.7957 39.0852 42.4866 39.0852C42.9329 39.0852 43.3144 39.207 43.6311 39.4506C43.9622 39.6798 44.1277 40.0595 44.1277 40.5897C44.1277 40.8189 44.0341 41.0769 43.847 41.3634C43.6599 41.65 43.3432 41.7861 42.8969 41.7718C42.5946 41.7575 42.3283 41.6428 42.098 41.4279C41.882 41.213 41.7813 40.9192 41.7957 40.5467C41.4502 40.5467 41.1047 40.6542 40.7592 40.8691C40.4137 41.0697 40.0898 41.3419 39.7875 41.6858C39.4852 42.0297 39.2405 42.4023 39.0533 42.8035V47.5104C39.0533 47.7683 39.0461 48.0334 39.0317 48.3056C39.0317 48.5636 39.0101 48.8286 38.967 49.1009C39.1973 49.0865 39.4348 49.0794 39.6795 49.0794C39.9243 49.0651 40.1474 49.0507 40.3489 49.0364V50.1755H35.512V49.2728Z" fill="#1E2232"/>
<path d="M45.2121 50.1755V49.2728C45.644 49.2728 45.9463 49.1725 46.119 48.9719C46.2918 48.7713 46.3925 48.4919 46.4213 48.1337C46.4645 47.7755 46.4861 47.36 46.4861 46.8871L46.5077 42.4166C46.5077 42.1873 46.5077 41.9437 46.5077 41.6858C46.5221 41.4279 46.5509 41.1628 46.5941 40.8906C46.3349 40.8906 46.0686 40.9049 45.7951 40.9336C45.5216 40.9479 45.2769 40.9551 45.0609 40.9551V39.8159C45.7087 39.8159 46.2126 39.7873 46.5725 39.73C46.9468 39.6727 47.2275 39.601 47.4146 39.515C47.6161 39.4147 47.7673 39.3144 47.8681 39.2141H48.6454C48.6742 39.4147 48.6886 39.601 48.6886 39.773C48.6886 39.9306 48.703 40.1527 48.7318 40.4392C49.1924 40.0667 49.7323 39.7515 50.3513 39.4936C50.9703 39.2213 51.5605 39.0852 52.1219 39.0852C53.4031 39.0852 54.3244 39.4721 54.8858 40.2458C55.4617 41.0195 55.7496 42.2303 55.7496 43.8781V47.5104C55.7496 47.7683 55.7424 48.0334 55.728 48.3056C55.7136 48.5636 55.692 48.8286 55.6632 49.1009C55.8935 49.0865 56.1239 49.0794 56.3542 49.0794C56.5989 49.0651 56.822 49.0507 57.0236 49.0364V50.1755H52.2083V49.2728C52.6402 49.2728 52.9425 49.1725 53.1152 48.9719C53.2879 48.7713 53.3887 48.4919 53.4175 48.1337C53.4607 47.7755 53.4823 47.36 53.4823 46.8871V43.8781C53.4679 42.7461 53.2879 41.8936 52.9425 41.3204C52.597 40.7473 52.0283 40.4679 51.2366 40.4822C50.7759 40.4822 50.3153 40.5969 49.8546 40.8261C49.4084 41.0554 49.0413 41.3348 48.7534 41.6643C48.7534 41.8219 48.7534 41.9867 48.7534 42.1587C48.7534 42.3163 48.7534 42.4739 48.7534 42.6315V47.5104C48.7534 47.7683 48.7462 48.0334 48.7318 48.3056C48.7174 48.5636 48.6958 48.8286 48.667 49.1009C48.8829 49.0865 49.1133 49.0794 49.358 49.0794C49.6027 49.0651 49.8258 49.0507 50.0274 49.0364V50.1755H45.2121Z" fill="#1E2232"/>
<path d="M63.7215 50.5194C62.7138 50.5194 61.8069 50.2902 61.0008 49.8316C60.209 49.3588 59.5828 48.6997 59.1222 47.8543C58.6615 46.9946 58.4312 45.9844 58.4312 44.8238C58.4312 43.8208 58.6543 42.8823 59.1006 42.0082C59.5612 41.1342 60.1946 40.4321 61.0008 39.9019C61.8213 39.3574 62.7786 39.0852 63.8727 39.0852C64.6644 39.0852 65.4058 39.2571 66.0967 39.601C66.7877 39.9306 67.3419 40.4607 67.7594 41.1915C68.1913 41.9079 68.4072 42.8536 68.4072 44.0286L60.9792 44.1575C60.9792 45.1462 61.0871 46.0202 61.3031 46.7796C61.5334 47.5247 61.9005 48.105 62.4043 48.5206C62.9082 48.9361 63.5631 49.1439 64.3693 49.1439C64.9595 49.1439 65.5857 48.9934 66.2479 48.6925C66.9101 48.3773 67.4499 47.9546 67.8674 47.4244L68.5368 48.0047C68.0905 48.6495 67.5867 49.1582 67.0253 49.5307C66.4782 49.8889 65.9096 50.1397 65.3194 50.283C64.7436 50.4406 64.2109 50.5194 63.7215 50.5194ZM61.0655 43.0399H66.0536C66.0536 42.2375 65.8808 41.5569 65.5353 40.9981C65.1898 40.4249 64.65 40.1383 63.9158 40.1383C63.1385 40.1383 62.5051 40.3819 62.0156 40.8691C61.5406 41.3419 61.2239 42.0655 61.0655 43.0399Z" fill="#1E2232"/>
<path d="M71.9946 56.0001C71.5195 56.0001 71.1092 55.8711 70.7637 55.6132C70.4326 55.3696 70.2671 55.0114 70.2671 54.5386C70.2671 54.2377 70.3607 53.9654 70.5478 53.7218C70.7493 53.4783 71.0085 53.3565 71.3252 53.3565C71.6707 53.3421 71.9154 53.4496 72.0593 53.6789C72.2177 53.9081 72.2969 54.1445 72.2969 54.3881C72.2969 54.4311 72.2969 54.4741 72.2969 54.5171C72.2969 54.5744 72.2897 54.6245 72.2753 54.6675C72.3185 54.6962 72.3832 54.7034 72.4696 54.689C72.8295 54.6604 73.175 54.3523 73.5061 53.7648C73.6788 53.4496 73.8732 53.0126 74.0891 52.4538C74.305 51.895 74.5425 51.2502 74.8017 50.5194L71.4115 43.4697C71.0229 42.6673 70.7493 42.044 70.591 41.5999C70.447 41.1413 70.3535 40.7831 70.3103 40.5252L69.2738 40.5682V39.4291H74.0459V40.3103H74.0027C73.4125 40.3676 73.0886 40.5897 73.031 40.9766C72.9878 41.3634 73.1246 41.8936 73.4413 42.567L75.8165 47.7683C76.09 47.0376 76.3636 46.2423 76.6371 45.3826C76.925 44.5229 77.2201 43.6417 77.5224 42.739C77.6088 42.4667 77.7095 42.1802 77.8247 41.8793C77.9399 41.564 78.055 41.2775 78.1702 41.0195C78.2998 40.7616 78.4221 40.5825 78.5373 40.4822L77.1337 40.5682V39.4291H80.675V40.3103C80.1568 40.4822 79.7609 40.7975 79.4874 41.256C79.2139 41.7145 78.9476 42.2948 78.6884 42.9969L75.9893 50.5624C75.5718 51.7517 75.1831 52.7475 74.8232 53.5499C74.4634 54.3666 74.0603 54.9756 73.614 55.3768C73.1822 55.7923 72.6423 56.0001 71.9946 56.0001Z" fill="#1E2232"/>
<defs>
<linearGradient id="paint0_linear" x1="40.4814" y1="3.94205e-08" x2="44.7219" y2="17.8112" gradientUnits="userSpaceOnUse">
<stop stop-color="#FFD16F"/>
<stop offset="1" stop-color="#FF865B"/>
</linearGradient>
</defs>
</svg>
