<svg width="32" height="32" viewBox="0 0 32 32" fill="none" xmlns="http://www.w3.org/2000/svg">
<g clip-path="url(#clip0)">
<path d="M31.7254 23.1907C31.2739 22.7392 30.7927 22.3309 30.2847 21.9653C29.2024 23.2153 27.9317 24.2658 26.4989 25.0929C24.2797 26.3745 21.7556 27.0586 19.1942 27.0748C20.5544 27.6233 22.0207 27.9111 23.5315 27.9111C26.6268 27.9111 29.5368 26.7057 31.7255 24.517C31.9013 24.3412 32.0001 24.1028 32.0001 23.8541C32 23.6055 31.9012 23.3666 31.7254 23.1907Z" fill="url(#paint0_linear)"/>
<path d="M1.71531 21.9653C1.20731 22.331 0.726125 22.7393 0.274625 23.1907C0.0988125 23.3666 0 23.6055 0 23.8541C0 24.1028 0.0988125 24.3412 0.274625 24.517C2.46331 26.7057 5.37331 27.9111 8.46856 27.9111C9.97931 27.9111 11.4457 27.6233 12.8058 27.0748C10.2443 27.0586 7.72038 26.3745 5.50088 25.0928C4.06825 24.2658 2.7975 23.2153 1.71531 21.9653Z" fill="url(#paint1_linear)"/>
<path d="M6.43846 23.4692C7.99702 24.3692 9.80896 24.9727 11.7408 25.1475C8.40271 23.3 6.59865 20.7349 5.74946 19.2641C4.81558 17.6467 4.1844 15.8943 3.87052 14.0503C2.93796 14.0903 2.00958 14.2295 1.10633 14.4696C0.693834 14.5681 0.387146 14.9394 0.387146 15.382C0.387146 15.464 0.397896 15.5457 0.419146 15.6249C1.37665 19.1962 3.71452 21.8967 6.43846 23.4692Z" fill="url(#paint2_linear)"/>
<path d="M20.2593 25.1475C22.191 24.9725 24.003 24.3691 25.5616 23.4691C28.2855 21.8967 30.6234 19.1962 31.581 15.6249C31.6022 15.5457 31.613 15.464 31.613 15.382C31.613 14.9394 31.3063 14.5681 30.8938 14.4696C29.9905 14.2295 29.0622 14.0902 28.1296 14.0503C27.8157 15.8943 27.1845 17.6467 26.2507 19.2641C25.4014 20.7349 23.5995 23.2987 20.2593 25.1475Z" fill="url(#paint3_linear)"/>
<path d="M11.7063 22.9342C10.759 21.404 9.28778 18.4667 9.28778 14.4403C9.28778 12.3999 9.66547 10.4152 10.4093 8.53223C9.38472 7.9478 8.28609 7.49329 7.14228 7.18692C6.64203 7.05304 6.12821 7.34967 5.99415 7.84973C4.9709 11.6671 5.69259 15.4162 7.37315 18.3267C8.39347 20.0939 9.85872 21.7086 11.7063 22.9342Z" fill="url(#paint4_linear)"/>
<path d="M20.2928 22.9348C22.1408 21.7091 23.6063 20.0941 24.6268 18.3267C26.3073 15.4161 27.029 11.6671 26.0058 7.84975C25.8717 7.34969 25.3579 7.053 24.8577 7.18694C23.7137 7.49332 22.615 7.94794 21.5902 8.5325C22.334 10.4154 22.7117 12.4 22.7117 14.4403C22.7117 18.4702 21.2379 21.4083 20.2928 22.9348Z" fill="url(#paint5_linear)"/>
<path d="M16.6629 4.36325C16.4871 4.18744 16.2481 4.08862 15.9995 4.08862C15.7508 4.08862 15.5124 4.18744 15.3366 4.36325C12.881 6.81881 11.1628 10.3636 11.1628 14.4402C11.1628 18.5187 12.883 22.0636 15.3366 24.5171C15.5124 24.6929 15.7514 24.7917 16 24.7917C16.2486 24.7917 16.4871 24.6929 16.6629 24.5171C19.1159 22.0642 20.8366 18.5196 20.8366 14.4402C20.8367 10.3617 19.1172 6.81744 16.6629 4.36325Z" fill="url(#paint6_linear)"/>
</g>
<defs>
<linearGradient id="paint0_linear" x1="25.5972" y1="21.9653" x2="25.5972" y2="27.9111" gradientUnits="userSpaceOnUse">
<stop stop-color="#96BBEF"/>
<stop offset="1" stop-color="#5B86EC"/>
</linearGradient>
<linearGradient id="paint1_linear" x1="6.40291" y1="21.9653" x2="6.40291" y2="27.9111" gradientUnits="userSpaceOnUse">
<stop stop-color="#96BBEF"/>
<stop offset="1" stop-color="#5B86EC"/>
</linearGradient>
<linearGradient id="paint2_linear" x1="6.06396" y1="14.0503" x2="6.06396" y2="25.1475" gradientUnits="userSpaceOnUse">
<stop stop-color="#96BBEF"/>
<stop offset="1" stop-color="#5B86EC"/>
</linearGradient>
<linearGradient id="paint3_linear" x1="25.9361" y1="14.0503" x2="25.9361" y2="25.1475" gradientUnits="userSpaceOnUse">
<stop stop-color="#96BBEF"/>
<stop offset="1" stop-color="#5B86EC"/>
</linearGradient>
<linearGradient id="paint4_linear" x1="8.61416" y1="7.15479" x2="8.61416" y2="22.9342" gradientUnits="userSpaceOnUse">
<stop stop-color="#96BBEF"/>
<stop offset="1" stop-color="#5B86EC"/>
</linearGradient>
<linearGradient id="paint5_linear" x1="23.3853" y1="7.15479" x2="23.3853" y2="22.9348" gradientUnits="userSpaceOnUse">
<stop stop-color="#96BBEF"/>
<stop offset="1" stop-color="#5B86EC"/>
</linearGradient>
<linearGradient id="paint6_linear" x1="15.9997" y1="4.08862" x2="15.9997" y2="24.7917" gradientUnits="userSpaceOnUse">
<stop stop-color="#96BBEF"/>
<stop offset="1" stop-color="#5B86EC"/>
</linearGradient>
<clipPath id="clip0">
<rect width="32" height="32" fill="white"/>
</clipPath>
</defs>
</svg>
