<svg width="339" height="213" viewBox="0 0 339 213" fill="none" xmlns="http://www.w3.org/2000/svg">
<path opacity="0.07" d="M231.455 212.728C296.44 218.306 336.399 136.449 338.838 117.633C342.156 104.966 293.395 94.186 283.308 92.4586C283.824 82.7065 285.42 33.6816 272.698 34.001C270.856 34.0019 240.861 34.7775 212.42 49.6523C202.884 30.9446 189.687 14.3332 173.606 0.800927C160.779 -6.57063 132.048 39.0918 126.607 49.732C98.0552 34.8563 68.1392 34.0815 66.3313 34.0815C53.5557 34.3247 55.156 82.2671 55.5611 92.4595C45.3079 94.2355 -2.73765 104.848 0.122572 117.572C0.900876 120.089 17.5722 179.955 64.7932 203.329C92.6819 221.307 153.364 208.458 169.483 199.009C177.809 202.616 203.062 212.728 231.455 212.728ZM281.499 105.72C296.446 108.081 310.959 112.641 324.565 119.251C308.834 171.085 260.308 217.827 193.513 193.801C228.827 187.371 277.565 151.093 281.563 105.656L281.499 105.72ZM267.62 47.3262C281.227 102.237 258.013 168.186 188.12 181.553C210.501 158.772 236.187 101.942 217.591 61.7582C237.134 51.3931 258.039 48.3073 267.62 47.3262ZM169.483 14.6954C225.529 62.2546 220.731 134.233 169.483 182.724C118.036 133.985 113.664 62.3259 169.483 14.6954ZM71.3441 47.3262C80.8611 48.3073 101.831 51.3931 121.468 61.8219C102.585 102.044 128.571 159.027 150.908 181.822C80.0979 167.117 58.2003 103.409 71.3441 47.3262ZM70.5666 191.791C36.1145 174.748 19.2692 133.476 14.3203 119.187C27.923 112.6 42.3972 107.981 57.306 105.467C61.6665 151.592 109.645 186.922 145.467 193.739C125.83 199.53 95.9144 204.357 70.5666 191.791Z" fill="url(#paint0_linear_223_1761)"/>
<defs>
<linearGradient id="paint0_linear_223_1761" x1="-28.2718" y1="78.3136" x2="339.67" y2="211.143" gradientUnits="userSpaceOnUse">
<stop stop-color="#3D8BE8"/>
<stop offset="1" stop-color="#89BEEC"/>
</linearGradient>
</defs>
</svg>
