<svg width="59" height="64" viewBox="0 0 59 64" fill="none" xmlns="http://www.w3.org/2000/svg">
<g filter="url(#filter0_d_3347_64508)">
<path d="M45 25.107C45 16.7638 38.0602 10 29.5 10C20.9398 10 14 16.7638 14 25.107C14 37.1601 29.5 46 29.5 46C29.5 46 45 37.6426 45 25.107Z" fill="white"/>
</g>
<path d="M41.1255 25.4282C41.1255 19.0371 35.9207 13.8571 29.5001 13.8571C23.0794 13.8571 17.8755 19.0371 17.8755 25.4282C17.8755 31.8183 23.0794 37 29.5001 37C35.9207 37 41.1255 31.8183 41.1255 25.4282Z" fill="#FBF3E8"/>
<path d="M34.8826 30.384H24.1187C23.8981 30.384 23.7151 30.5662 23.7151 30.7858C23.7151 31.0055 23.8981 31.1876 24.1187 31.1876H34.8826C35.1033 31.1876 35.2863 31.0055 35.2863 30.7858C35.2863 30.5662 35.1033 30.384 34.8826 30.384Z" fill="url(#paint0_linear_3347_64508)"/>
<path d="M32.1915 20.0715H26.8095C25.1949 20.0715 24.6567 21.0305 24.6567 22.2144V30.7858H34.3442V22.2144C34.3442 21.0305 33.806 20.0715 32.1915 20.0715ZM28.4241 28.2412H26.8095C26.5889 28.2412 26.4059 28.059 26.4059 27.8394C26.4059 27.6197 26.5889 27.4376 26.8095 27.4376H28.4241C28.6448 27.4376 28.8277 27.6197 28.8277 27.8394C28.8277 28.059 28.6448 28.2412 28.4241 28.2412ZM28.4241 25.8305H26.8095C26.5889 25.8305 26.4059 25.6483 26.4059 25.4287C26.4059 25.209 26.5889 25.0269 26.8095 25.0269H28.4241C28.6448 25.0269 28.8277 25.209 28.8277 25.4287C28.8277 25.6483 28.6448 25.8305 28.4241 25.8305ZM28.4241 23.4197H26.8095C26.5889 23.4197 26.4059 23.2376 26.4059 23.018C26.4059 22.7983 26.5889 22.6162 26.8095 22.6162H28.4241C28.6448 22.6162 28.8277 22.7983 28.8277 23.018C28.8277 23.2376 28.6448 23.4197 28.4241 23.4197ZM32.1915 28.2412H30.5769C30.3562 28.2412 30.1732 28.059 30.1732 27.8394C30.1732 27.6197 30.3562 27.4376 30.5769 27.4376H32.1915C32.4121 27.4376 32.5951 27.6197 32.5951 27.8394C32.5951 28.059 32.4121 28.2412 32.1915 28.2412ZM32.1915 25.8305H30.5769C30.3562 25.8305 30.1732 25.6483 30.1732 25.4287C30.1732 25.209 30.3562 25.0269 30.5769 25.0269H32.1915C32.4121 25.0269 32.5951 25.209 32.5951 25.4287C32.5951 25.6483 32.4121 25.8305 32.1915 25.8305ZM32.1915 23.4197H30.5769C30.3562 23.4197 30.1732 23.2376 30.1732 23.018C30.1732 22.7983 30.3562 22.6162 30.5769 22.6162H32.1915C32.4121 22.6162 32.5951 22.7983 32.5951 23.018C32.5951 23.2376 32.4121 23.4197 32.1915 23.4197Z" fill="url(#paint1_linear_3347_64508)"/>
<defs>
<filter id="filter0_d_3347_64508" x="0" y="0" width="59" height="64" filterUnits="userSpaceOnUse" color-interpolation-filters="sRGB">
<feFlood flood-opacity="0" result="BackgroundImageFix"/>
<feColorMatrix in="SourceAlpha" type="matrix" values="0 0 0 0 0 0 0 0 0 0 0 0 0 0 0 0 0 0 127 0" result="hardAlpha"/>
<feOffset dy="4"/>
<feGaussianBlur stdDeviation="7"/>
<feComposite in2="hardAlpha" operator="out"/>
<feColorMatrix type="matrix" values="0 0 0 0 0.721136 0 0 0 0 0.728947 0 0 0 0 0.748831 0 0 0 0.2 0"/>
<feBlend mode="normal" in2="BackgroundImageFix" result="effect1_dropShadow_3347_64508"/>
<feBlend mode="normal" in="SourceGraphic" in2="effect1_dropShadow_3347_64508" result="shape"/>
</filter>
<linearGradient id="paint0_linear_3347_64508" x1="19.408" y1="30.0559" x2="21.0897" y2="35.5473" gradientUnits="userSpaceOnUse">
<stop stop-color="#FFD16F"/>
<stop offset="1" stop-color="#FF865B"/>
</linearGradient>
<linearGradient id="paint1_linear_3347_64508" x1="21.0508" y1="15.6965" x2="36.8089" y2="18.9275" gradientUnits="userSpaceOnUse">
<stop stop-color="#FFD16F"/>
<stop offset="1" stop-color="#FF865B"/>
</linearGradient>
</defs>
</svg>
