<svg width="59" height="64" viewBox="0 0 59 64" fill="none" xmlns="http://www.w3.org/2000/svg">
<g filter="url(#filter0_d_3347_64528)">
<path d="M45 25.107C45 16.7638 38.0602 10 29.5 10C20.9398 10 14 16.7638 14 25.107C14 37.1601 29.5 46 29.5 46C29.5 46 45 37.6426 45 25.107Z" fill="white"/>
</g>
<path d="M41.1255 25.4282C41.1255 19.0371 35.9207 13.8571 29.5001 13.8571C23.0794 13.8571 17.8755 19.0371 17.8755 25.4282C17.8755 31.8183 23.0794 37 29.5001 37C35.9207 37 41.1255 31.8183 41.1255 25.4282Z" fill="#EDF5FC"/>
<g clip-path="url(#clip0_3347_64528)">
<path d="M30.8508 25.0245H32.0655L31.9071 23.8484H30.7554L30.8508 25.0245Z" fill="#3D8BE8"/>
<path d="M30.7262 23.4831H31.8556L31.6789 22.1953H30.6267L30.7262 23.4831Z" fill="#3D8BE8"/>
<path d="M30.5967 21.8317H31.6306L31.4559 20.5398H30.4951L30.5967 21.8317Z" fill="#3D8BE8"/>
<path d="M31.4026 20.1761L31.2442 19H30.3728L30.4662 20.1761H31.4026Z" fill="#3D8BE8"/>
<path d="M28.5041 20.5398H27.5433L27.3687 21.8317H28.4026L28.5041 20.5398Z" fill="#3D8BE8"/>
<path d="M28.627 19H27.7556L27.5972 20.1761H28.5356L28.627 19Z" fill="#3D8BE8"/>
<path d="M28.6177 23.7044L28.5161 25.0247H30.4803L30.3788 23.7044C30.3775 23.6902 30.3775 23.6759 30.3788 23.6617L30.2488 22.0469C30.2477 22.034 30.2477 22.0211 30.2488 22.0083L30.1208 20.3833C30.1197 20.3704 30.1197 20.3575 30.1208 20.3447L30.005 19H28.9894L28.8899 20.3569C28.8909 20.3704 28.8909 20.384 28.8899 20.3975L28.7639 22.0225C28.765 22.0353 28.765 22.0483 28.7639 22.0611L28.636 23.6861C28.6302 23.6925 28.6241 23.6986 28.6177 23.7044ZM29.4038 19.6195H29.5947C29.6202 19.6168 29.646 19.6195 29.6703 19.6274C29.6947 19.6353 29.7172 19.6483 29.7362 19.6654C29.7553 19.6826 29.7705 19.7035 29.7809 19.7269C29.7914 19.7504 29.7968 19.7757 29.7968 19.8013C29.7968 19.827 29.7914 19.8523 29.7809 19.8757C29.7705 19.8991 29.7553 19.9201 29.7362 19.9372C29.7172 19.9544 29.6947 19.9673 29.6703 19.9752C29.646 19.9831 29.6202 19.9858 29.5947 19.9831H29.4038C29.3783 19.9858 29.3525 19.9831 29.3281 19.9752C29.3037 19.9673 29.2813 19.9544 29.2623 19.9372C29.2432 19.9201 29.228 19.8991 29.2175 19.8757C29.2071 19.8523 29.2017 19.827 29.2017 19.8013C29.2017 19.7757 29.2071 19.7504 29.2175 19.7269C29.228 19.7035 29.2432 19.6826 29.2623 19.6654C29.2813 19.6483 29.3037 19.6353 29.3281 19.6274C29.3525 19.6195 29.3783 19.6168 29.4038 19.6195ZM29.2839 21.0922H29.7146C29.74 21.0895 29.7658 21.0922 29.7902 21.1001C29.8146 21.108 29.837 21.1209 29.8561 21.1381C29.8751 21.1552 29.8904 21.1762 29.9008 21.1996C29.9112 21.223 29.9166 21.2484 29.9166 21.274C29.9166 21.2996 29.9112 21.325 29.9008 21.3484C29.8904 21.3718 29.8751 21.3927 29.8561 21.4099C29.837 21.427 29.8146 21.44 29.7902 21.4479C29.7658 21.4558 29.74 21.4585 29.7146 21.4558H29.2839C29.2584 21.4585 29.2327 21.4558 29.2083 21.4479C29.1839 21.44 29.1615 21.427 29.1424 21.4099C29.1234 21.3927 29.1081 21.3718 29.0977 21.3484C29.0873 21.325 29.0819 21.2996 29.0819 21.274C29.0819 21.2484 29.0873 21.223 29.0977 21.1996C29.1081 21.1762 29.1234 21.1552 29.1424 21.1381C29.1615 21.1209 29.1839 21.108 29.2083 21.1001C29.2327 21.0922 29.2584 21.0895 29.2839 21.0922ZM29.1925 22.5669H29.8019C29.8504 22.5669 29.8969 22.5861 29.9312 22.6204C29.9654 22.6547 29.9847 22.7012 29.9847 22.7497C29.9847 22.7982 29.9654 22.8447 29.9312 22.879C29.8969 22.9132 29.8504 22.9325 29.8019 22.9325H29.1925C29.144 22.9325 29.0975 22.9132 29.0633 22.879C29.029 22.8447 29.0097 22.7982 29.0097 22.7497C29.0097 22.7012 29.029 22.6547 29.0633 22.6204C29.0975 22.5861 29.144 22.5669 29.1925 22.5669ZM29.093 24.0395H29.9055C29.954 24.0395 30.0005 24.0588 30.0348 24.0931C30.069 24.1274 30.0883 24.1739 30.0883 24.2223C30.0883 24.2708 30.069 24.3173 30.0348 24.3516C30.0005 24.3859 29.954 24.4052 29.9055 24.4052H29.093C29.0445 24.4052 28.998 24.3859 28.9637 24.3516C28.9294 24.3173 28.9102 24.2708 28.9102 24.2223C28.9102 24.1739 28.9294 24.1274 28.9637 24.0931C28.998 24.0588 29.0445 24.0395 29.093 24.0395Z" fill="#3D8BE8"/>
<path d="M28.2442 23.8484H27.0925L26.9341 25.0245H28.1488L28.2442 23.8484Z" fill="#3D8BE8"/>
<path d="M28.3725 22.1953H27.3203L27.1436 23.4831H28.2729L28.3725 22.1953Z" fill="#3D8BE8"/>
<path d="M32.1852 25.3882L26.8003 25.3943L26.4246 25.8188H32.5752L32.1852 25.3882Z" fill="#3D8BE8"/>
<path d="M35.5607 27.0051H32.585V27.4947H35.5607V27.0051Z" fill="#3D8BE8"/>
<path d="M26.4138 27.0051H23.438V27.4947H26.4138V27.0051Z" fill="#3D8BE8"/>
<path d="M35.6632 31.4739H35.2814V27.901H32.5859V31.4739H32.1796V26.1724H26.8212V31.4739H26.4149V27.901H23.7195V31.4739H23.3376C23.2718 31.4797 23.2106 31.5099 23.166 31.5586C23.1214 31.6073 23.0967 31.6709 23.0967 31.737C23.0967 31.803 23.1214 31.8666 23.166 31.9153C23.2106 31.964 23.2718 31.9942 23.3376 32H35.6632C35.729 31.9942 35.7902 31.964 35.8348 31.9153C35.8794 31.8666 35.9042 31.803 35.9042 31.737C35.9042 31.6709 35.8794 31.6073 35.8348 31.5586C35.7902 31.5099 35.729 31.4797 35.6632 31.4739ZM25.5273 30.7305H24.6092V29.3086C24.6092 29.1869 24.6575 29.0701 24.7436 28.984C24.8297 28.8979 24.9465 28.8496 25.0682 28.8496C25.19 28.8496 25.3067 28.8979 25.3928 28.984C25.4789 29.0701 25.5273 29.1869 25.5273 29.3086V30.7305ZM30.5485 31.4739H28.4523V28.8211C28.4523 28.6835 28.4794 28.5472 28.5321 28.42C28.5847 28.2928 28.662 28.1773 28.7593 28.08C28.8566 27.9826 28.9722 27.9054 29.0993 27.8528C29.2265 27.8001 29.3628 27.773 29.5004 27.773C29.6381 27.773 29.7744 27.8001 29.9015 27.8528C30.0287 27.9054 30.1442 27.9826 30.2416 28.08C30.3389 28.1773 30.4161 28.2928 30.4688 28.42C30.5214 28.5472 30.5485 28.6835 30.5485 28.8211V31.4739ZM34.3917 30.7305H33.4735V29.3086C33.4735 29.1869 33.5219 29.0701 33.608 28.984C33.6941 28.8979 33.8109 28.8496 33.9326 28.8496C34.0544 28.8496 34.1711 28.8979 34.2572 28.984C34.3433 29.0701 34.3917 29.1869 34.3917 29.3086V30.7305Z" fill="#3D8BE8"/>
</g>
<defs>
<filter id="filter0_d_3347_64528" x="0" y="0" width="59" height="64" filterUnits="userSpaceOnUse" color-interpolation-filters="sRGB">
<feFlood flood-opacity="0" result="BackgroundImageFix"/>
<feColorMatrix in="SourceAlpha" type="matrix" values="0 0 0 0 0 0 0 0 0 0 0 0 0 0 0 0 0 0 127 0" result="hardAlpha"/>
<feOffset dy="4"/>
<feGaussianBlur stdDeviation="7"/>
<feComposite in2="hardAlpha" operator="out"/>
<feColorMatrix type="matrix" values="0 0 0 0 0.721136 0 0 0 0 0.728947 0 0 0 0 0.748831 0 0 0 0.2 0"/>
<feBlend mode="normal" in2="BackgroundImageFix" result="effect1_dropShadow_3347_64528"/>
<feBlend mode="normal" in="SourceGraphic" in2="effect1_dropShadow_3347_64528" result="shape"/>
</filter>
<clipPath id="clip0_3347_64528">
<rect width="13" height="13" fill="white" transform="translate(23 19)"/>
</clipPath>
</defs>
</svg>
