<svg width="60" height="60" viewBox="0 0 60 60" fill="none" xmlns="http://www.w3.org/2000/svg">
	<defs>
		<linearGradient id="paint0_linear_5383488" x1="40" y1="47" x2="40" y2="12" gradientUnits="userSpaceOnUse">
			<stop stop-color="#3D8BE8"/>
			<stop offset="1" stop-color="#89BEEC"/>
		</linearGradient>
	</defs>
	<circle cx="30" cy="30" r="30" fill="#89BEEC" fill-opacity="0.1"/>
	<path fill-rule="evenodd" clip-rule="evenodd" d="M30 12C26.6863 12 24 14.6863 24 18V27C24 30.3137 26.6863 33 30 33C33.3137 33 36 30.3137 36 27V18C36 14.6863 33.3137 12 30 12ZM26 18C26 15.7909 27.7909 14 30 14C32.2091 14 34 15.7909 34 18V19H33C32.4477 19 32 19.4477 32 20C32 20.5523 32.4477 21 33 21H34V24H33C32.4477 24 32 24.4477 32 25C32 25.5523 32.4477 26 33 26H34V27C34 29.2091 32.2091 31 30 31C27.7909 31 26 29.2091 26 27V18ZM22 26C22 25.4477 21.5523 25 21 25C20.4477 25 20 25.4477 20 26V27C20 32.1853 23.9467 36.4489 29 36.9506V40H25C24.4477 40 24 40.4477 24 41V46C24 46.5523 24.4477 47 25 47H35C35.5523 47 36 46.5523 36 46V41C36 40.4477 35.5523 40 35 40H31V36.9506C36.0533 36.4489 40 32.1853 40 27V26C40 25.4477 39.5523 25 39 25C38.4477 25 38 25.4477 38 26V27C38 31.4183 34.4183 35 30 35C25.5817 35 22 31.4183 22 27V26ZM30 42H26V45H34V42H30Z" fill="url(#paint0_linear_5383488)"/>
</svg>
