<?xml version="1.0" encoding="utf-8"?>
<!-- Generator: Adobe Illustrator 22.0.0, SVG Export Plug-In . SVG Version: 6.00 Build 0)  -->
<svg version="1.1" id="Layer_1" xmlns="http://www.w3.org/2000/svg" xmlns:xlink="http://www.w3.org/1999/xlink" x="0px" y="0px"
	 viewBox="0 0 500 500" style="enable-background:new 0 0 500 500;" xml:space="preserve">
<style type="text/css">
	.st0{fill:#FDDF7F;}
	.st1{fill:#ECF4F7;}
	.st2{fill:#83E1E5;}
	.st3{fill:#1C1D21;}
	.st4{fill:#AAB1BA;}
</style>
<g>
	<path class="st1" d="M404.375,345.508h-70.463c-4.512,0-8.169-3.657-8.169-8.169v-26.477c0-22.159-17.964-40.123-40.123-40.123
		h-35.621h-35.62c-22.159,0-40.123,17.964-40.123,40.123v26.477c0,4.512-3.657,8.169-8.169,8.169H95.624
		c-5.634,0-10.558,4.241-10.942,9.862c-0.422,6.164,4.428,11.307,10.502,11.353l35.146,0.127
		c10.173,0.037,20.253,1.947,29.734,5.634l36.994,14.387v44.655h52.942h52.942V386.87l36.994-14.387
		c9.482-3.687,19.561-5.597,29.734-5.634l35.146-0.127c6.074-0.046,10.923-5.19,10.502-11.353
		C414.933,349.748,410.009,345.508,404.375,345.508z"/>
</g>
<g>
	<path class="st0" d="M145.72,345.508H95.264c-5.858,0-10.608,4.749-10.608,10.608c0,5.827,4.7,10.563,10.527,10.607l35.146,0.127
		c5.177,0.019,10.328,0.528,15.391,1.504V345.508z"/>
</g>
<g>
	<circle class="st0" cx="250" cy="210.458" r="60.281"/>
</g>
<g>
	<path class="st2" d="M214.379,270.739h35.618c-33.291-0.001-60.278-26.99-60.278-60.281c0-33.292,26.989-60.281,60.281-60.281
		s60.281,26.989,60.281,60.281c0,33.291-26.987,60.28-60.278,60.281h35.617c22.159,0,40.123,17.964,40.123,40.123v1.559
		c31.113-23.15,51.27-60.202,51.27-101.963c0-70.147-56.866-127.013-127.013-127.013c-70.147,0-127.013,56.866-127.013,127.013
		c0,41.761,20.156,78.812,51.269,101.962v-1.558C174.256,288.703,192.22,270.739,214.379,270.739z"/>
</g>
<g>
	<path class="st4" d="M353.211,495H146.789c-16.354,0-29.612-13.258-29.612-29.612v-4.251c0-16.354,13.258-29.612,29.612-29.612
		h206.421c16.354,0,29.612,13.258,29.612,29.612v4.251C382.823,481.742,369.565,495,353.211,495z"/>
</g>
<g>
	<rect x="211.863" y="431.525" class="st0" width="76.274" height="63.475"/>
</g>
<g>
	<path class="st0" d="M354.279,345.508h50.456c5.858,0,10.608,4.749,10.608,10.608c0,5.827-4.7,10.563-10.527,10.607l-35.146,0.127
		c-5.177,0.019-10.328,0.528-15.391,1.504V345.508z"/>
</g>
<path class="st3" d="M61.974,431.525c0-2.761,2.239-5,5-5h5.975v-5.975c0-2.761,2.239-5,5-5s5,2.239,5,5v5.975h5.975
	c2.761,0,5,2.239,5,5s-2.239,5-5,5h-5.975v5.975c0,2.761-2.239,5-5,5s-5-2.239-5-5v-5.975h-5.975
	C64.212,436.525,61.974,434.287,61.974,431.525z M427.052,426.525v-5.975c0-2.761-2.238-5-5-5s-5,2.239-5,5v5.975h-5.975
	c-2.762,0-5,2.239-5,5s2.238,5,5,5h5.975v5.975c0,2.761,2.238,5,5,5s5-2.239,5-5v-5.975h5.975c2.762,0,5-2.239,5-5s-2.238-5-5-5
	H427.052z M159.389,299.586c2.043-1.858,2.192-5.021,0.334-7.063c-20.465-22.498-31.736-51.642-31.736-82.064
	c0-67.278,54.735-122.013,122.013-122.013s122.013,54.735,122.013,122.013c0,30.422-11.271,59.567-31.735,82.064
	c-1.858,2.043-1.709,5.205,0.334,7.063c0.958,0.872,2.162,1.301,3.362,1.301c1.359,0,2.714-0.551,3.7-1.636
	c22.144-24.342,34.339-55.876,34.339-88.793c0-72.792-59.221-132.013-132.013-132.013c-72.792,0-132.013,59.221-132.013,132.013
	c0,32.917,12.195,64.451,34.339,88.793C154.184,301.295,157.346,301.444,159.389,299.586z M44.205,490h-7.096c-2.761,0-5,2.239-5,5
	s2.239,5,5,5h7.096c2.761,0,5-2.239,5-5S46.966,490,44.205,490z M443.055,495c0,2.761-2.238,5-5,5h-84.844h-9.184H155.973h-9.183
	H61.946c-2.761,0-5-2.239-5-5s2.239-5,5-5h60.537c-6.357-6.279-10.305-14.992-10.305-24.612v-4.251
	c0-19.085,15.527-34.612,34.612-34.612h206.421c19.085,0,34.611,15.527,34.611,34.612v4.251c0,9.62-3.948,18.333-10.305,24.612
	h60.538C440.816,490,443.055,492.239,443.055,495z M155.973,490h50.89v-41.271c0-2.761,2.239-5,5-5s5,2.239,5,5v9.534h66.274
	v-21.737H146.79c-13.571,0-24.612,11.041-24.612,24.612v4.251c0,13.571,11.041,24.612,24.612,24.612H155.973z M353.211,490
	c13.57,0,24.611-11.041,24.611-24.612v-4.251c0-13.571-11.041-24.612-24.611-24.612h-60.074v40.802c0,2.761-2.238,5-5,5
	s-5-2.239-5-5v-9.064h-66.274V490h127.165H353.211z M462.892,490h-7.097c-2.762,0-5,2.239-5,5s2.238,5,5,5h7.097
	c2.762,0,5-2.239,5-5S465.653,490,462.892,490z M116.331,319.93c8.43,0,15.288,6.858,15.288,15.288c0,1.861-0.351,3.638-0.963,5.29
	h35.431c1.748,0,3.169-1.421,3.169-3.169v-26.477c0-24.881,20.242-45.123,45.123-45.123h0.961
	c-18.376-11.563-30.621-32.013-30.621-55.281c0-35.996,29.285-65.281,65.281-65.281s65.281,29.285,65.281,65.281
	c0,23.268-12.246,43.718-30.621,55.281h0.96c24.881,0,45.123,20.242,45.123,45.123v26.477c0,1.748,1.422,3.169,3.169,3.169h35.431
	c-0.612-1.651-0.963-3.428-0.963-5.29c0-8.43,6.858-15.288,15.288-15.288s15.288,6.858,15.288,15.288
	c0,1.861-0.351,3.638-0.963,5.29h6.382c8.376,0,15.373,6.378,15.931,14.521c0.298,4.353-1.166,8.506-4.121,11.695
	c-2.915,3.145-7.045,4.967-11.331,5l-35.166,0.127c-4.836,0.018-9.623,0.481-14.326,1.38c-0.046,0.01-0.092,0.021-0.138,0.03
	c-4.581,0.884-9.084,2.177-13.475,3.885l-33.807,13.147v25.274c0,2.761-2.238,5-5,5s-5-2.239-5-5V386.87
	c0-0.004,0.001-0.008,0.001-0.013v-67.175c0-2.761,2.238-5,5-5s5,2.239,5,5v59.878l30.181-11.737c3.655-1.421,7.38-2.583,11.156-3.5
	v-13.816h-15.367c-7.262,0-13.169-5.908-13.169-13.169v-26.477c0-19.367-15.756-35.123-35.123-35.123h-71.241
	c-19.367,0-35.123,15.756-35.123,35.123v26.477c0,7.261-5.908,13.169-13.169,13.169H150.72v13.816
	c3.776,0.916,7.501,2.078,11.156,3.5l30.182,11.737v-59.878c0-2.761,2.239-5,5-5s5,2.239,5,5v67.188v1.771v26.923
	c0,2.761-2.239,5-5,5s-5-2.239-5-5v-25.274l-33.806-13.147c-4.391-1.708-8.894-3.001-13.475-3.885
	c-0.047-0.009-0.093-0.019-0.139-0.03c-4.704-0.898-9.49-1.362-14.327-1.38l-35.146-0.127c-4.306-0.033-8.436-1.854-11.35-4.999
	c-2.956-3.189-4.419-7.343-4.122-11.695c0.557-8.142,7.554-14.521,15.931-14.521h6.381c-0.612-1.651-0.963-3.428-0.963-5.29
	C101.042,326.789,107.901,319.93,116.331,319.93z M378.38,335.218c0,2.916,2.372,5.288,5.288,5.288s5.288-2.372,5.288-5.288
	s-2.372-5.288-5.288-5.288S378.38,332.302,378.38,335.218z M404.375,350.508h-45.096v12.013c3.429-0.419,6.887-0.658,10.372-0.671
	l35.146-0.127c1.544-0.012,2.99-0.65,4.053-1.797c1.062-1.146,1.587-2.642,1.479-4.215
	C410.133,352.842,407.462,350.508,404.375,350.508z M250,265.739c30.482,0,55.281-24.799,55.281-55.281
	c0-30.482-24.799-55.281-55.281-55.281c-30.482,0-55.281,24.799-55.281,55.281C194.719,240.94,219.518,265.739,250,265.739z
	 M140.72,350.508H95.624c-3.087,0-5.758,2.334-5.954,5.203c-0.107,1.573,0.418,3.07,1.479,4.215
	c1.063,1.147,2.509,1.785,4.072,1.797l35.126,0.127c3.485,0.013,6.943,0.252,10.373,0.671V350.508z M111.042,335.218
	c0,2.916,2.372,5.288,5.288,5.288s5.288-2.372,5.288-5.288s-2.372-5.288-5.288-5.288S111.042,332.302,111.042,335.218z M245,29.67
	v33.594c0,2.761,2.239,5,5,5s5-2.239,5-5V29.67c0-2.761-2.238-5-5-5S245,26.909,245,29.67z M250,14.199c2.761,0,5-2.239,5-5V5
	c0-2.761-2.239-5-5-5s-5,2.239-5,5v4.199C245,11.96,247.238,14.199,250,14.199z M351.036,107.146c1.279,0,2.56-0.488,3.535-1.464
	l23.755-23.754c1.953-1.953,1.953-5.119,0-7.071c-1.951-1.952-5.119-1.952-7.07,0L347.501,98.61c-1.953,1.953-1.953,5.119,0,7.071
	C348.477,106.657,349.757,107.146,351.036,107.146z M389.266,68.916c1.279,0,2.559-0.488,3.535-1.464l2.97-2.969
	c1.953-1.952,1.953-5.118,0.001-7.071c-1.953-1.953-5.118-1.953-7.071,0l-2.97,2.969c-1.953,1.952-1.953,5.118-0.001,7.071
	C386.706,68.427,387.986,68.916,389.266,68.916z M390.167,203.182c0,2.761,2.238,5,5,5h33.594c2.762,0,5-2.239,5-5s-2.238-5-5-5
	h-33.594C392.405,198.182,390.167,200.421,390.167,203.182z M458.431,203.182c0-2.761-2.238-5-5-5h-4.199c-2.762,0-5,2.239-5,5
	s2.238,5,5,5h4.199C456.192,208.182,458.431,205.943,458.431,203.182z M71.24,208.182h33.594c2.761,0,5-2.239,5-5s-2.239-5-5-5
	H71.24c-2.761,0-5,2.239-5,5S68.479,208.182,71.24,208.182z M50.769,198.182h-4.199c-2.761,0-5,2.239-5,5s2.239,5,5,5h4.199
	c2.761,0,5-2.239,5-5S53.53,198.182,50.769,198.182z M145.428,105.681c0.977,0.976,2.256,1.464,3.536,1.464s2.559-0.488,3.536-1.464
	c1.953-1.953,1.953-5.119,0-7.071l-23.754-23.754c-1.953-1.952-5.118-1.952-7.071,0c-1.953,1.953-1.953,5.119,0,7.071
	L145.428,105.681z M107.198,67.452c0.977,0.976,2.256,1.464,3.536,1.464s2.559-0.488,3.536-1.464c1.953-1.953,1.953-5.119,0-7.071
	l-2.969-2.969c-1.953-1.952-5.118-1.952-7.071,0c-1.953,1.953-1.953,5.119,0,7.071L107.198,67.452z"/>
</svg>
