<svg width="52" height="54" viewBox="0 0 52 54" fill="none" xmlns="http://www.w3.org/2000/svg">
<path d="M51.4076 26.388C47.1449 19.7518 46.8671 17.8863 46.8551 17.789C44.8496 -2.97352 20.2739 -4.0497 10.4528 6.79426C9.79413 7.61353 11.0343 8.66079 11.7078 7.84078C20.7137 -2.033 43.3984 -1.13171 45.2276 17.9096C45.2397 18.2513 45.5552 20.3092 50.0502 27.3066C50.1981 27.5433 50.2617 27.823 50.2307 28.1004C50.1712 28.3684 49.9648 28.5867 49.5877 28.8268C48.312 29.5368 46.99 30.16 45.6305 30.6922C44.4135 31.0145 45.9698 36.1993 45.1937 39.5333C45.2551 40.6881 41.1386 41.525 38.2143 41.2974C36.3866 41.2975 35.7317 42.2421 35.7317 43.1133V49.2415C34.3654 53.6291 20.8379 52.7414 17.6649 50.621C17.2275 50.3512 16.9982 49.8429 17.0852 49.3368C17.4126 47.0367 17.7142 42.5319 15.9222 38.1223C15.5402 37.129 14.006 37.7569 14.4121 38.7336C16.0591 42.7998 15.7793 46.9673 15.4639 49.0967C15.2881 50.2653 15.8373 51.424 16.853 52.0279C21.3857 54.6633 31.3285 54.6561 35.831 52.014C36.792 51.4248 37.3782 50.3788 37.3789 49.2515L37.369 43.1233C37.3835 43.0364 37.9867 42.8897 38.3851 42.9249C48.1402 43.3189 47.3738 39.3734 46.8154 31.9782C49.1832 30.9457 53.3645 29.5503 51.4076 26.388Z" fill="url(#paint0_linear_262_2081)"/>
<path d="M29.0439 34.2924C37.1743 34.9919 42.1736 24.7266 42.4788 22.367C42.8939 20.7785 36.7933 19.4266 35.5313 19.21C35.5959 17.9871 35.7956 11.8391 34.2038 11.8791C33.9734 11.8792 30.2207 11.9765 26.6624 13.8419C25.4693 11.4958 23.8181 9.41269 21.8063 7.71567C20.2015 6.79124 16.6068 12.5175 15.9261 13.8519C12.354 11.9864 8.61114 11.8892 8.38495 11.8892C6.78657 11.9197 6.98679 17.9319 7.03748 19.2101C5.75467 19.4328 -0.256392 20.7637 0.101456 22.3594C0.198831 22.675 2.28461 30.1825 8.19252 33.1137C11.6817 35.3683 19.2738 33.757 21.2904 32.572C22.3322 33.0243 25.4916 34.2924 29.0439 34.2924ZM35.305 20.8731C37.175 21.1691 38.9908 21.7409 40.693 22.5699C38.7249 29.0701 32.6537 34.9319 24.2969 31.9189C28.7151 31.1125 34.8128 26.5631 35.313 20.8651L35.305 20.8731ZM33.5686 13.5502C35.271 20.4363 32.3666 28.7066 23.6221 30.3829C26.4222 27.526 29.6359 20.3993 27.3093 15.36C29.7543 14.0602 32.3699 13.6732 33.5686 13.5502ZM21.2904 9.45812C28.3024 15.4223 27.7022 24.4487 21.2904 30.5298C14.8539 24.4177 14.3068 15.4312 21.2904 9.45812ZM9.01211 13.5502C10.2028 13.6732 12.8263 14.0602 15.2832 15.368C12.9208 20.4121 16.1719 27.5581 18.9665 30.4167C10.1073 28.5725 7.36767 20.5833 9.01211 13.5502ZM8.91484 31.6669C4.60447 29.5296 2.49692 24.3539 1.87776 22.5619C3.57961 21.7359 5.39051 21.1566 7.25578 20.8413C7.80133 26.6257 13.804 31.0562 18.2858 31.911C15.829 32.6374 12.0861 33.2426 8.91484 31.6669Z" fill="url(#paint1_linear_262_2081)"/>
<defs>
<linearGradient id="paint0_linear_262_2081" x1="6.79238" y1="19.8542" x2="56.3703" y2="28.5275" gradientUnits="userSpaceOnUse">
<stop stop-color="#3D8BE8"/>
<stop offset="1" stop-color="#89BEEC"/>
</linearGradient>
<linearGradient id="paint1_linear_262_2081" x1="-3.45101" y1="17.4362" x2="42.6077" y2="34.0248" gradientUnits="userSpaceOnUse">
<stop stop-color="#3D8BE8"/>
<stop offset="1" stop-color="#89BEEC"/>
</linearGradient>
</defs>
</svg>
