<svg width="61" height="60" viewBox="0 0 61 60" fill="none" xmlns="http://www.w3.org/2000/svg">
<path fill-rule="evenodd" clip-rule="evenodd" d="M14.8947 19.5202C16.3411 12.6652 22.6234 7.5 30.1438 7.5C37.6647 7.5 43.9465 12.6652 45.3929 19.5202H48.342C49.5843 19.5202 50.7758 19.9969 51.6543 20.8457C52.5329 21.6945 53.0263 22.8455 53.0263 24.0457V44.7112H54.2943C55.4542 44.7112 56.3938 45.6195 56.3938 46.74V48.7419C56.3938 51.8529 53.7833 54.375 50.5631 54.375H9.72505C6.50433 54.375 3.8938 51.8529 3.8938 48.7419V46.74C3.8938 45.6195 4.83398 44.7112 5.99326 44.7112H7.2613V24.0457C7.2613 22.8455 7.75523 21.6945 8.6338 20.8457C9.51183 19.9969 10.7033 19.5202 11.9461 19.5202H14.8947ZM54.2943 46.74H5.99326V48.7419C5.99326 50.7324 7.66416 52.3467 9.72505 52.3467H50.5631C52.624 52.3467 54.2943 50.7324 54.2943 48.7419V46.74ZM27.5193 50.5575H32.7683C33.3479 50.5575 33.8183 50.1031 33.8183 49.5431C33.8183 48.9836 33.3479 48.5292 32.7683 48.5292H27.5193C26.9402 48.5292 26.4699 48.9836 26.4699 49.5431C26.4699 50.1031 26.9402 50.5575 27.5193 50.5575ZM45.6731 21.5485C45.695 21.8751 45.7063 22.2037 45.7063 22.535C45.7063 30.833 38.7329 37.57 30.1438 37.57C21.5547 37.57 14.5813 30.833 14.5813 22.535C14.5813 22.2037 14.5925 21.8751 14.6145 21.5485H11.9461C11.2604 21.5485 10.6031 21.812 10.1183 22.2798C9.63344 22.7482 9.3613 23.3833 9.3613 24.0457V44.7112H50.9268V24.0457C50.9268 23.3833 50.6542 22.7482 50.1699 22.2798C49.6851 21.812 49.0272 21.5485 48.342 21.5485H45.6731ZM34.7284 27.8793C33.2504 27.6107 31.6792 27.4663 30.0517 27.4663C28.4895 27.4663 26.9793 27.5993 25.5527 27.8477C26.1425 30.7983 27.2033 33.4181 28.6031 35.4832C29.1083 35.5386 29.6225 35.5675 30.1438 35.5675C30.665 35.5675 31.1793 35.5386 31.6845 35.4832C33.0795 33.4259 34.1375 30.8169 34.7284 27.8793ZM23.5325 28.2907C21.8954 28.7281 20.4072 29.3258 19.1268 30.053C20.765 32.2888 23.1136 34.0045 25.8533 34.8932C24.8268 32.9736 24.0292 30.7372 23.5325 28.2907ZM36.7454 28.3378C36.2483 30.7662 35.4543 32.9855 34.4349 34.8932C37.144 34.0144 39.4706 32.3266 41.1061 30.1275C39.8424 29.3926 38.3692 28.786 36.7454 28.3378ZM42.1829 16.6535C40.7177 17.5049 39.0008 18.2062 37.1043 18.7113C37.2543 19.9151 37.3331 21.1588 37.3331 22.4315C37.3331 23.7745 37.2452 25.0855 37.0786 26.352C38.9858 26.8576 40.7118 27.5615 42.1829 28.4165C43.1108 26.6485 43.6336 24.6502 43.6336 22.535C43.6336 20.4197 43.1108 18.4215 42.1829 16.6535ZM18.0624 16.7353C17.1613 18.4825 16.6545 20.4518 16.6545 22.535C16.6545 24.6181 17.1613 26.5874 18.0624 28.3347C19.5484 27.4906 21.2868 26.7981 23.2031 26.3054C23.0402 25.0539 22.9545 23.7585 22.9545 22.4315C22.9545 21.1754 23.0317 19.9472 23.1779 18.7584C21.2713 18.2657 19.542 17.5758 18.0624 16.7353ZM35.0729 19.1636C33.484 19.4514 31.7981 19.6067 30.0517 19.6067C28.3711 19.6067 26.7468 19.4628 25.2109 19.1957C25.0904 20.2458 25.0277 21.327 25.0277 22.4315C25.0277 23.6068 25.099 24.7563 25.235 25.8701C26.7645 25.6056 28.3802 25.4638 30.0517 25.4638C31.7895 25.4638 33.4668 25.6175 35.0488 25.9022C35.1875 24.7791 35.2604 23.6187 35.2604 22.4315C35.2604 21.3156 35.1961 20.2236 35.0729 19.1636ZM31.834 9.60438C31.2806 9.5371 30.7165 9.50294 30.1438 9.50294C29.5711 9.50294 29.007 9.5371 28.4536 9.60438C27.0972 11.6803 26.0745 14.2893 25.5136 17.2155C26.9509 17.4686 28.4745 17.6037 30.0517 17.6037C31.6936 17.6037 33.2783 17.4572 34.7681 17.1835C34.2061 14.2707 33.1861 11.6736 31.834 9.60438ZM25.7209 10.2208C23.0381 11.1208 20.7388 12.8174 19.1268 15.017C20.397 15.7384 21.8718 16.3326 23.4934 16.7689C23.9659 14.3514 24.7309 12.1352 25.7209 10.2208ZM34.5667 10.2208C35.5502 12.1228 36.312 14.3229 36.785 16.7213C38.3933 16.2741 39.8531 15.6712 41.1061 14.9424C39.4974 12.7796 37.2195 11.111 34.5667 10.2208Z" fill="url(#paint0_linear)"/>
<defs>
<linearGradient id="paint0_linear" x1="30.1438" y1="7.5" x2="30.1438" y2="54.375" gradientUnits="userSpaceOnUse">
<stop stop-color="#96BBEF"/>
<stop offset="1" stop-color="#5B86EC"/>
</linearGradient>
</defs>
</svg>
