<svg width="32" height="32" viewBox="0 0 32 32" fill="none" xmlns="http://www.w3.org/2000/svg">
<path d="M4.89504 3.77625C4.89417 3.77625 4.8932 3.77625 4.89234 3.77625C4.58969 3.77625 4.30503 3.89423 4.09008 4.10864C3.87276 4.32542 3.75305 4.61407 3.75305 4.92135V22.0921C3.75305 22.7217 4.26732 23.2352 4.89956 23.2368C7.56495 23.2432 12.0305 23.7987 15.1112 27.0225V9.05292C15.1112 8.83948 15.0566 8.63897 14.9537 8.47304C12.4253 4.40116 7.56645 3.78249 4.89504 3.77625Z" fill="url(#paint0_linear)"/>
<path d="M28.2471 22.092V4.92123C28.2471 4.61394 28.1274 4.3253 27.9101 4.10851C27.6951 3.8941 27.4102 3.77612 27.1079 3.77612C27.1069 3.77612 27.106 3.77612 27.1051 3.77612C24.4338 3.78248 19.575 4.40115 17.0464 8.47303C16.9435 8.63895 16.8891 8.83947 16.8891 9.05291V27.0224C19.9697 23.7986 24.4353 23.2431 27.1007 23.2367C27.7328 23.2351 28.2471 22.7216 28.2471 22.092Z" fill="url(#paint1_linear)"/>
<path d="M30.8552 7.73608H30.0249V22.0921C30.0249 23.6997 28.7151 25.0106 27.1049 25.0146C24.8441 25.02 21.1164 25.4621 18.4763 27.9608C23.0423 26.8428 27.8557 27.5696 30.5989 28.1947C30.9414 28.2727 31.2953 28.1921 31.5697 27.9734C31.8432 27.7552 32.0001 27.4291 32.0001 27.079V8.88098C32.0002 8.2497 31.4865 7.73608 30.8552 7.73608Z" fill="url(#paint2_linear)"/>
<path d="M1.97517 22.0921V7.73608H1.14489C0.513726 7.73608 0 8.2497 0 8.88098V27.0787C0 27.4289 0.156876 27.7549 0.430331 27.9731C0.704541 28.1917 1.05816 28.2726 1.40122 28.1944C4.14439 27.5691 8.95788 26.8425 13.5237 27.9605C10.8837 25.4619 7.15596 25.0199 4.89515 25.0145C3.28513 25.0106 1.97517 23.6997 1.97517 22.0921Z" fill="url(#paint3_linear)"/>
<defs>
<linearGradient id="paint0_linear" x1="9.43211" y1="3.77625" x2="9.43211" y2="27.0225" gradientUnits="userSpaceOnUse">
<stop stop-color="#96BBEF"/>
<stop offset="1" stop-color="#5B86EC"/>
</linearGradient>
<linearGradient id="paint1_linear" x1="22.5681" y1="3.77612" x2="22.5681" y2="27.0224" gradientUnits="userSpaceOnUse">
<stop stop-color="#96BBEF"/>
<stop offset="1" stop-color="#5B86EC"/>
</linearGradient>
<linearGradient id="paint2_linear" x1="25.2382" y1="7.73608" x2="25.2382" y2="28.2238" gradientUnits="userSpaceOnUse">
<stop stop-color="#96BBEF"/>
<stop offset="1" stop-color="#5B86EC"/>
</linearGradient>
<linearGradient id="paint3_linear" x1="6.76183" y1="7.73608" x2="6.76183" y2="28.2235" gradientUnits="userSpaceOnUse">
<stop stop-color="#96BBEF"/>
<stop offset="1" stop-color="#5B86EC"/>
</linearGradient>
</defs>
</svg>
