<svg width="60" height="60" viewBox="0 0 60 60" fill="none" xmlns="http://www.w3.org/2000/svg">
	<defs>
		<linearGradient id="paint0_linear_5383478" x1="49.5" y1="51" x2="49.5" y2="13.5" gradientUnits="userSpaceOnUse">
			<stop stop-color="#3D8BE8"/>
			<stop offset="1" stop-color="#89BEEC"/>
		</linearGradient>
	</defs>
	<circle cx="30" cy="30" r="30" fill="#89BEEC" fill-opacity="0.1"/>
	<path fill-rule="evenodd" clip-rule="evenodd" d="M30.8846 13.5769C30.6415 13.4756 30.3683 13.4743 30.1243 13.5733L11.6243 21.0733C11.2469 21.2263 11 21.5928 11 22C11 22.4072 11.2469 22.7737 11.6243 22.9267L16 24.7007V37.5C16 37.6166 16.0204 37.7322 16.0602 37.8417L17 37.5C16.0602 37.8417 16.0609 37.8435 16.0609 37.8435L16.0616 37.8454L16.0631 37.8497L16.0669 37.8596L16.0769 37.8855C16.0849 37.9054 16.0952 37.9304 16.1081 37.9602C16.1341 38.0199 16.1707 38.099 16.2199 38.1945C16.3183 38.3855 16.4673 38.6424 16.6827 38.9425C17.1144 39.5439 17.8086 40.3128 18.8864 41.0687C21.0493 42.5856 24.6829 44 30.6849 44C33.6771 44 36.0805 43.5915 38 42.9808V46C38 46.5523 38.4477 47 39 47C39.5523 47 40 46.5523 40 46V42.2009C40.7561 41.8453 41.4085 41.4609 41.9691 41.0709C43.0464 40.3216 43.7684 39.563 44.228 38.9755C44.4575 38.6821 44.6212 38.432 44.7308 38.2477C44.7857 38.1555 44.8271 38.0797 44.8565 38.0232C44.8712 37.9949 44.8829 37.9714 44.8918 37.9531L44.9031 37.9295L44.9072 37.9206L44.9089 37.917L44.9097 37.9153C44.9097 37.9153 44.9104 37.9138 44 37.5L44.9104 37.9138C44.9694 37.7838 45 37.6427 45 37.5V24.5417L48.8846 22.9231C49.2573 22.7678 49.5 22.4037 49.5 22C49.5 21.5963 49.2573 21.2322 48.8846 21.0769L30.8846 13.5769ZM40.8271 39.4291C40.578 39.6023 40.303 39.7772 40 39.9499V26.625L43 25.375V37.2451C42.9296 37.3617 42.8169 37.5334 42.6528 37.7432C42.3056 38.187 41.7267 38.8034 40.8271 39.4291ZM38 40.868V27.4583L30.8846 30.4231C30.6415 30.5244 30.3683 30.5257 30.1243 30.4267L18 25.5115V37.2828C18.0569 37.3927 18.1549 37.5637 18.3075 37.7763C18.6159 38.2061 19.152 38.8122 20.0348 39.4313C21.7932 40.6644 25.0021 42 30.6849 42C33.8283 42 36.2108 41.5207 38 40.868ZM30.4061 21.0862L38.9644 24.8898L45.9 22L30.4948 15.5812L14.6617 22L17.1596 23.0127C17.3114 23.037 17.4519 23.0956 17.5728 23.1802L30.4948 28.4188L36.4227 25.9489L29.5939 22.9138C29.0892 22.6895 28.8619 22.0986 29.0862 21.5939C29.3105 21.0892 29.9015 20.8619 30.4061 21.0862ZM39 51C39.5523 51 40 50.5523 40 50C40 49.4477 39.5523 49 39 49C38.4477 49 38 49.4477 38 50C38 50.5523 38.4477 51 39 51Z" fill="url(#paint0_linear_5383478)"/>
</svg>
