<svg width="45" height="36" viewBox="0 0 45 36" fill="none" xmlns="http://www.w3.org/2000/svg">
<path fill-rule="evenodd" clip-rule="evenodd" d="M43.5295 27.2276C44.5685 29.6834 44.7026 32.3366 44.6971 34.6066C44.6967 34.807 44.6168 34.999 44.4749 35.1405C44.333 35.282 44.1407 35.3615 43.9403 35.3613H43.9386C43.839 35.3613 43.7403 35.3417 43.6484 35.3034C43.5564 35.2651 43.473 35.2089 43.4028 35.1382C43.3327 35.0675 43.2772 34.9836 43.2396 34.8913C43.202 34.7991 43.1831 34.7004 43.1838 34.6008C43.1893 32.4846 43.0677 30.023 42.1371 27.8198C41.2703 25.7759 39.7525 24.2501 38.0181 23.6512C37.9844 23.6396 37.9487 23.6358 37.9134 23.631V23.631C37.828 23.6194 37.7451 23.5944 37.6677 23.5569C37.636 23.5416 37.6045 23.5248 37.57 23.5177V23.5177C37.1012 23.4044 36.6182 23.3665 36.1391 23.4045C35.8658 23.4262 35.618 23.5869 35.3465 23.6252V23.6252C35.3112 23.631 35.2754 23.6339 35.2396 23.6339V23.6339C35.1286 23.6332 35.0149 23.6276 34.9102 23.6647C33.8026 24.057 32.8804 24.8382 32.4988 25.8546C32.4454 25.9959 32.351 26.1181 32.2277 26.2055V26.2055C32.0357 26.3416 31.8479 26.5559 31.8863 26.7881C31.9125 26.9463 31.9367 27.1072 31.9589 27.2711C32.0634 28.0462 32.1307 28.8328 32.1952 29.5934C32.2652 31.1884 32.5221 32.7696 32.9606 34.3047C32.9934 34.3994 33.007 34.4997 33.0007 34.5998C32.9944 34.6998 32.9683 34.7976 32.9239 34.8875C32.8794 34.9774 32.8176 35.0576 32.742 35.1234C32.6663 35.1892 32.5784 35.2392 32.4832 35.2708C32.388 35.3023 32.2876 35.3147 32.1876 35.3071C32.0876 35.2994 31.9902 35.272 31.9009 35.2264C31.8116 35.1808 31.7323 35.1179 31.6675 35.0414C31.6027 34.9649 31.5537 34.8763 31.5234 34.7808C31.0475 33.1338 30.7669 31.4366 30.6874 29.7241C30.6242 28.9809 30.5588 28.2117 30.459 27.4744C30.0816 24.679 29.1382 22.7224 27.6525 21.6629C26.3962 20.7659 24.7079 20.5134 23.3778 20.3943C21.6451 20.1501 19.8789 20.3396 18.2375 20.9459C16.1202 21.8835 14.4638 24.139 13.8095 26.9808C13.1964 29.6398 13.4284 32.4556 13.6525 35.1785C13.6692 35.3788 13.6057 35.5775 13.4759 35.731C13.3461 35.8845 13.1607 35.9802 12.9604 35.997C12.9396 35.9994 12.9187 36.0003 12.8977 35.9999C12.7074 36 12.5239 35.9285 12.384 35.7993C12.2441 35.6702 12.1581 35.493 12.143 35.3032C11.9108 32.4643 11.6684 29.5295 12.3343 26.6412C12.386 26.4164 12.4453 26.1974 12.5086 25.9795C12.5324 25.8976 12.4951 25.812 12.4336 25.753V25.753C11.4034 24.8182 10.1572 23.8342 8.72406 23.6339C6.38612 23.3059 4.23425 25.2101 3.32189 27.2595C2.29139 29.5789 2.32128 32.3394 2.34799 34.7778C2.35001 34.9786 2.27234 35.1721 2.13202 35.3157C1.99169 35.4593 1.80015 35.5415 1.59935 35.5442H1.59326C1.39392 35.5441 1.20266 35.4654 1.06098 35.3252C0.919293 35.185 0.838628 34.9946 0.836488 34.7952C0.80746 32.203 0.776111 29.2624 1.94247 26.6441C2.4095 25.6069 3.08098 24.6782 3.9136 23.9118C4.2906 23.5648 4.46446 23.0461 4.4113 22.5364C4.40426 22.469 4.39851 22.4013 4.39404 22.3336C4.36386 21.8759 4.08162 21.4653 3.69665 21.2159V21.2159C2.98305 20.6547 2.46831 19.8793 2.2281 19.0039C1.7264 17.5785 1.42598 16.0908 1.33489 14.5839C1.32072 14.3495 1.09072 14.1826 0.874235 14.0915V14.0915C0.735393 14.033 0.617284 13.9342 0.535176 13.8078V13.8078C0.534002 13.8057 0.532525 13.8038 0.531301 13.8018C0.190214 13.2256 0.00701553 12.5696 0.000197518 11.9C-0.00663276 11.2292 0.163794 10.5686 0.494244 9.98484C1.1088 8.92234 2.03485 8.07418 3.14714 7.55514C4.88149 6.63548 6.89756 6.39939 8.79749 6.89336C9.76958 7.16396 10.6583 7.67393 11.3822 8.3768C12.1062 9.07968 12.6423 9.95298 12.9416 10.9166C13.2276 11.9223 13.1862 12.9929 12.8233 13.9735C12.4604 14.9541 11.7948 15.7939 10.9229 16.3711C10.8046 16.4456 10.6675 16.4848 10.5276 16.4842V16.4842C10.4735 16.4842 10.4254 16.5169 10.4165 16.5702C10.3737 16.826 10.3257 17.0819 10.2678 17.3377C10.0394 18.2913 9.58084 19.1731 8.93367 19.9067C8.84468 20.0076 8.82929 20.1517 8.85352 20.2841V20.2841L8.91417 20.6461C9.06842 21.5667 9.85244 22.2838 10.6966 22.6824V22.6824C12.0429 23.3181 13.7301 22.9399 14.6936 21.8047C15.5296 20.8198 16.5244 20.0488 17.6264 19.5612C17.7087 19.5287 17.7914 19.4984 17.8743 19.469C18.0155 19.4191 18.081 19.2579 18.0746 19.1083V19.1083L18.0454 18.4048C18.0081 17.5105 17.3623 16.7747 16.773 16.101V16.101C16.2185 15.4174 15.8326 14.613 15.6464 13.7527C15.5745 13.4875 15.508 13.2209 15.4469 12.9531C15.2331 12.0161 14.4098 11.3353 13.647 10.7507V10.7507C13.2117 10.417 12.8776 9.96886 12.6821 9.45643C12.3403 8.49159 12.2504 7.45561 12.4208 6.44631C12.653 4.39401 13.4078 1.70591 15.6816 0.553483C17.0514 -0.0590711 18.5939 -0.166988 20.0358 0.248742C22.4265 0.805571 24.5812 2.08046 26.2166 3.89149C26.6241 4.34281 27.0243 4.90655 26.8578 5.49141V5.49141C26.7877 5.73752 26.6499 5.95772 26.4615 6.12775C26.3847 6.19704 26.2885 6.23985 26.1882 6.2651V6.2651C25.7066 6.38633 25.3762 6.85056 25.446 7.34225C25.762 9.57039 25.6471 11.8415 25.1044 14.0314C24.981 14.6267 24.7496 15.1943 24.4217 15.7063C24.4162 15.7147 24.4107 15.7231 24.4052 15.7314C24.0556 16.2562 23.7088 16.8341 23.7515 17.4632V17.4632C23.8087 18.3047 24.4669 18.9668 25.2947 19.129C26.3923 19.3441 27.5416 19.7206 28.5332 20.4292C29.1152 20.8448 29.6282 21.3598 30.0714 21.9715C30.7584 22.9198 32.514 23.1666 33.5451 22.6116V22.6116C34.0614 22.3337 34.4336 21.8223 34.5418 21.246C34.5797 21.0439 34.6294 20.8438 34.6907 20.6469V20.6469C34.6961 20.6309 34.6929 20.6137 34.6794 20.6035C34.629 20.5656 34.5791 20.5272 34.5319 20.4843C33.9027 19.927 33.4036 19.2383 33.0698 18.4668C32.6685 17.5928 32.3989 16.6645 32.2695 15.7121C32.2572 15.6219 32.1681 15.5633 32.077 15.564V15.564C31.9455 15.5638 31.8163 15.5295 31.702 15.4644C31.5877 15.3992 31.4923 15.3056 31.425 15.1925C30.8647 14.2529 30.5209 13.2001 30.4189 12.1109C30.3168 11.0217 30.4591 9.92357 30.8352 8.89628C31.2312 7.86162 31.8787 6.94193 32.7192 6.22023C33.5598 5.49854 34.5669 4.99752 35.6495 4.76258C36.752 4.55056 37.8918 4.64948 38.9413 5.04833C39.9907 5.44718 40.9085 6.13031 41.5919 7.02106C42.2576 7.94462 42.6274 9.04834 42.6524 10.1865C42.6773 11.3247 42.3564 12.4438 41.7318 13.3957V13.3957C41.5479 13.6562 41.287 13.9082 41.257 14.2257C41.1466 15.3934 40.9165 16.547 40.5701 17.6685C40.3451 18.4777 39.9779 19.2405 39.4859 19.9212C39.3925 20.0474 39.2909 20.1671 39.1818 20.2797C39.067 20.3982 39.028 20.5697 39.0187 20.7344C39.0179 20.7484 39.0167 20.7625 39.0152 20.7765C39.0151 20.7771 39.0149 20.7778 39.0149 20.7784V20.7784C39.0147 20.7797 39.015 20.7811 39.0148 20.7825L38.9736 21.1296C38.8891 21.8418 39.3025 22.5086 39.9143 22.8827C41.4439 23.8181 42.7307 25.3421 43.5295 27.2276ZM5.93885 22.5743C5.93864 22.5743 5.93858 22.574 5.93877 22.5739C6.37757 22.381 6.8381 22.2432 7.30988 22.1632C7.48033 22.1343 7.60077 21.9754 7.5722 21.8049L7.55562 21.706C7.50952 21.4308 7.20051 21.2871 6.94713 21.4038C6.91883 21.4169 6.89041 21.4297 6.86189 21.4422C6.66796 21.5187 6.46843 21.5795 6.26522 21.6242C6.05689 21.6701 5.88932 21.8393 5.89337 22.0525C5.89668 22.2271 5.91192 22.4013 5.93905 22.5741C5.93906 22.5742 5.93897 22.5743 5.93885 22.5743V22.5743ZM9.45668 11.6277C9.45658 11.6277 9.45655 11.6276 9.45665 11.6276C9.5167 11.606 9.57877 11.5906 9.64193 11.5814C9.84178 11.562 10.0412 11.6226 10.1964 11.7499C10.3517 11.8772 10.4502 12.0608 10.4704 12.2606C10.4989 12.4603 10.5231 12.6606 10.543 12.8612C10.6073 13.511 11.3336 13.7505 11.4988 13.1187V13.1187C11.6532 12.5284 11.6474 11.9075 11.482 11.3202C11.2538 10.6054 10.8501 9.95913 10.308 9.44042C9.76585 8.9217 9.10245 8.54695 8.37833 8.35044C6.84679 7.96074 5.2248 8.15973 3.83279 8.9079C2.99844 9.29055 2.29874 9.91561 1.8249 10.7018C1.61732 11.06 1.51121 11.4641 1.51261 11.8715C1.51349 12.1264 1.83689 12.2334 2.09167 12.2403V12.2403V12.2403C2.32471 12.2509 2.56896 12.3063 2.78344 12.2146C3.72167 11.8134 4.4952 11.0963 4.96547 10.1821C5.02459 10.0645 5.11337 9.96437 5.22305 9.89158C5.33272 9.81878 5.45949 9.77592 5.59083 9.76713C5.72217 9.75833 5.85353 9.78402 5.97193 9.84154C6.09033 9.89906 6.19167 9.98643 6.26594 10.0951C6.59664 10.5708 7.0403 10.957 7.55709 11.219C8.07388 11.4809 8.64762 11.6104 9.22682 11.5959C9.30463 11.5946 9.38216 11.6052 9.45671 11.6276C9.45681 11.6276 9.45679 11.6277 9.45668 11.6277V11.6277ZM8.80795 16.9342C8.80765 16.9342 8.80743 16.9339 8.80749 16.9336C8.9692 16.1996 9.06285 15.4534 9.0879 14.7045C9.11849 13.7897 8.3138 13.1173 7.45157 12.8102V12.8102C6.43854 12.4494 5.17852 12.5398 4.27663 13.1255C4.23654 13.1515 4.19612 13.1771 4.1554 13.2021C3.40962 13.6613 2.81206 14.4169 2.91351 15.2868C3.04101 16.38 3.28891 17.4573 3.65368 18.4989C3.723 18.7686 3.82996 19.0255 3.97022 19.2625C4.27969 19.7854 4.81678 20.182 5.42398 20.205V20.205C5.72991 20.2166 6.03437 20.1571 6.31355 20.0315C6.93879 19.7407 7.48891 19.3101 7.92149 18.7731C8.35394 18.2363 8.65737 17.6074 8.8084 16.9348C8.80847 16.9345 8.80824 16.9342 8.80795 16.9342V16.9342ZM21.7261 4.70305C23.1312 5.12439 23.7289 3.53143 22.4519 2.80957C21.5926 2.32384 20.6649 1.95776 19.6938 1.72624C18.597 1.3954 17.4188 1.45911 16.364 1.90625C14.6911 2.75387 14.1137 4.93679 13.9233 6.61753C13.7901 7.37073 13.8433 8.14508 14.078 8.87303C14.1524 9.08078 14.2726 9.26903 14.4298 9.42383C14.4334 9.42733 14.4369 9.4308 14.4405 9.43426C14.661 9.64694 14.9582 9.43051 14.9451 9.12449V9.12449C14.9425 9.06229 14.956 9.00063 14.9734 8.94085C15.0057 8.82947 15.013 8.71189 14.9943 8.59664V8.59664C14.9486 8.3154 14.7751 8.02265 14.9321 7.78488C14.9545 7.75102 14.9797 7.71882 15.0075 7.68866C16.0755 6.52518 16.8678 5.13618 17.3257 3.6247C17.3528 3.5352 17.3962 3.45213 17.4531 3.37938C17.5331 3.27714 17.6175 3.17533 17.7045 3.079V3.079C17.8406 2.93174 18.0295 2.84436 18.2298 2.8362C18.4294 2.82807 18.6241 2.89927 18.7715 3.03404C18.7725 3.03496 18.7728 3.03729 18.7739 3.03805V3.03805C18.775 3.03873 18.7756 3.03877 18.7765 3.03958C19.6238 3.80651 20.6314 4.3748 21.7261 4.70305V4.70305ZM23.7861 6.60874C23.7862 6.60874 23.7862 6.60868 23.7862 6.6086C23.7841 6.59533 23.7824 6.58199 23.7812 6.56861C23.7795 6.55043 23.7647 6.53591 23.7465 6.53551C22.7648 6.51377 21.7988 6.33567 20.8832 6.01282C19.6192 5.56713 18.0634 6.03065 17.3299 7.15236C17.1048 7.49647 16.862 7.82918 16.6022 8.14908C16.4221 8.37087 16.4446 8.69775 16.454 8.98331V8.98331C16.499 10.4611 16.7178 11.9284 17.106 13.355C17.2366 13.985 17.5076 14.5774 17.899 15.088C18.0446 15.2681 18.2362 15.4055 18.4534 15.4858C18.4832 15.4968 18.5133 15.5066 18.5437 15.5153C18.9248 15.6248 19.357 15.4066 19.7124 15.5826V15.5826C19.8927 15.6718 20.0301 15.829 20.0944 16.0195C20.1588 16.2101 20.1448 16.4183 20.0556 16.5986C19.9666 16.7784 19.8099 16.9157 19.6199 16.9802C19.6191 16.9805 19.6182 16.9807 19.6173 16.9807V16.9807C19.6165 16.9807 19.6156 16.9808 19.6149 16.9811C19.6091 16.9828 19.6033 16.9845 19.5975 16.986C19.5414 17.0008 19.5036 17.05 19.5061 17.1079L19.535 17.8039C19.5613 18.435 20.1443 18.891 20.7731 18.8317C20.8426 18.8252 20.9121 18.8193 20.9817 18.8139C21.6973 18.7591 22.2804 18.1634 22.2318 17.4473L22.217 17.2283C22.1963 16.9233 21.9778 16.6656 21.8463 16.3896V16.3896C21.775 16.24 21.7549 16.0711 21.7892 15.909C21.8234 15.7469 21.9101 15.6006 22.0357 15.4926C22.1614 15.3846 22.3192 15.321 22.4846 15.3116C22.6269 15.2883 22.7625 15.2345 22.8819 15.1538C23.0014 15.0731 23.102 14.9674 23.1767 14.8441C23.396 14.4805 23.551 14.0818 23.6347 13.6655C24.2081 11.3537 24.2597 8.94319 23.786 6.60889C23.786 6.60881 23.786 6.60874 23.7861 6.60874V6.60874ZM37.0808 21.9035C37.2301 21.9179 37.3669 21.8132 37.3845 21.6642L37.3919 21.6017C37.4105 21.4453 37.2656 21.3183 37.1097 21.3406V21.3406C37.0042 21.3522 36.8982 21.358 36.7921 21.358C36.6493 21.3538 36.507 21.3416 36.3658 21.3213C36.2096 21.2989 36.0547 21.3903 36.0245 21.5452V21.5452C35.9889 21.7272 36.1434 21.883 36.3288 21.8779C36.5797 21.871 36.8309 21.8795 37.0808 21.9035ZM40.4386 10.3447C40.5708 10.3326 40.7039 10.3558 40.8243 10.4119V10.4119C40.9461 10.4687 41.1411 10.4029 41.1401 10.2685C41.1339 9.42852 40.8674 8.60734 40.3721 7.92083C39.8565 7.2635 39.1703 6.76032 38.3884 6.46601C37.6066 6.1717 36.7589 6.09754 35.9378 6.2517C35.1069 6.4341 34.3344 6.82043 33.6901 7.37584C33.0458 7.93125 32.5498 8.63841 32.2468 9.43333C31.9925 10.1496 31.8806 10.903 31.9115 11.6521C31.9281 12.0541 32.4378 12.0377 32.549 11.651V11.651C32.5767 11.5553 32.623 11.4662 32.6853 11.3885C32.7476 11.3108 32.8247 11.2462 32.912 11.1984C32.9994 11.1507 33.0954 11.1208 33.1944 11.1103C33.2934 11.0997 33.3935 11.1088 33.489 11.1372V11.1372C33.5965 11.1691 33.7162 11.1751 33.8097 11.1131C34.7649 10.4793 35.5682 9.64103 36.161 8.65816C36.2355 8.53381 36.3441 8.43344 36.474 8.36901C36.6038 8.30458 36.7494 8.27884 36.8935 8.29474C37.0376 8.31063 37.174 8.36754 37.2867 8.45873C37.3994 8.54992 37.4835 8.67151 37.5291 8.80911C37.7189 9.3326 38.0778 9.77789 38.5491 10.0744C38.928 10.3128 39.3622 10.4442 39.8058 10.4576C40.0204 10.4642 40.2249 10.3686 40.4383 10.3447V10.3447H40.4386ZM39.1235 17.2187C39.1236 17.2187 39.1237 17.2186 39.1237 17.2185C39.4746 16.0848 39.6945 14.9166 39.7803 13.7368C39.8523 12.7483 38.9969 11.9979 38.1074 11.561V11.561V11.561C37.2941 11.1616 36.2027 11.1429 35.5113 11.7285C35.2636 11.9383 35.0049 12.135 34.7362 12.3177C34.1771 12.6979 33.7271 13.255 33.6909 13.9302C33.6194 15.2646 33.8732 16.6022 34.4376 17.8253C34.6811 18.3964 35.0449 18.9083 35.5041 19.3261C35.6989 19.5014 35.9265 19.6366 36.1736 19.7238C36.4208 19.8109 36.6828 19.8483 36.9445 19.834C37.487 19.7409 37.9707 19.4374 38.2905 18.9894C38.6684 18.4518 38.9501 17.8527 39.1233 17.2188C39.1233 17.2187 39.1234 17.2187 39.1235 17.2187V17.2187Z" fill="#FF8A23"/>
</svg>
