<svg width="112" height="112" viewBox="0 0 112 112" fill="none" xmlns="http://www.w3.org/2000/svg">
<g clip-path="url(#clip0)">
<path d="M67.3716 62.5113H104.787C103.054 78.2181 90.0995 90.5112 74.2375 90.5112H70.8045V97.5112H74.2375C95.0597 97.5112 112 80.2401 112 59.0112V17.0113C112 15.0767 110.465 13.5112 108.567 13.5112H67.3716C65.4741 13.5112 63.9386 15.0765 63.9386 17.0113V59.0112C63.9388 60.9457 65.4741 62.5113 67.3716 62.5113Z" fill="#32193C" fill-opacity="0.02"/>
<path d="M3.42153 62.5113H40.8369C39.1036 78.2181 26.1493 90.5112 10.2874 90.5112H6.85434V97.5112H10.2874C31.1096 97.5112 48.0498 80.2401 48.0498 59.0112V17.0113C48.0498 15.0767 46.5145 13.5112 44.6168 13.5112H3.42153C1.52405 13.5112 -0.011528 15.0765 -0.011528 17.0113V59.0112C-0.011528 60.9457 1.52381 62.5113 3.42153 62.5113Z" fill="#32193C" fill-opacity="0.02"/>
</g>
<defs>
<clipPath id="clip0">
<rect width="112" height="112" fill="white" transform="translate(112 112) rotate(-180)"/>
</clipPath>
</defs>
</svg>
