<svg width="20" height="20" viewBox="0 0 20 20" fill="none" xmlns="http://www.w3.org/2000/svg">
<path d="M9.99922 0C4.4767 0 0 4.4767 0 9.99922C0 14.2301 2.6317 17.8389 6.34356 19.2999C6.32717 18.9581 6.32951 17.1888 7.56107 11.9059C7.72575 10.1436 7.49707 9.51846 7.49707 8.78639C7.49707 7.1248 8.36026 6.77437 8.86444 6.77437C9.58324 6.77437 10.576 7.04909 10.576 8.20729C10.576 9.53407 9.49426 9.88293 9.49426 9.88293C9.49426 9.88293 9.41622 10.2224 9.32647 11.1652C9.23671 12.1096 9.61445 13.132 11.1551 13.132C13.6252 13.132 14.0061 9.70343 14.0061 8.75985C14.0061 7.45649 13.0508 4.81074 10.0851 4.81074C6.12971 4.81074 5.44915 8.35402 5.44915 9.29915C5.44915 9.70343 5.56076 10.4168 5.63724 10.7219C6.38414 10.8429 6.30688 11.8653 5.98767 12.1556C5.63256 12.4748 3.80785 12.8549 3.80785 8.84961C3.80785 5.03551 7.20752 3.07032 10.1912 3.07032C13.0313 3.07032 16.125 5.03005 16.125 8.80512C16.125 12.1751 13.7025 14.8287 11.1582 14.8287C9.63006 14.8287 8.81995 13.5698 8.81995 13.5698C8.81995 14.7483 6.65574 18.7981 6.37868 19.3124C7.50254 19.7503 8.72083 19.9992 10 19.9992C15.5225 19.9992 20 15.5225 20 9.99922C20 4.47592 15.5217 0 9.99922 0Z" fill="#1E2232"/>
</svg>
