<svg width="25" height="24" viewBox="0 0 25 24" fill="none" xmlns="http://www.w3.org/2000/svg">
<g clip-path="url(#clip0_2731_7530)">
<path fill-rule="evenodd" clip-rule="evenodd" d="M12.5047 0C12.9189 0 13.2547 0.335786 13.2547 0.75V2.25C13.2547 2.66421 12.9189 3 12.5047 3C12.0905 3 11.7547 2.66421 11.7547 2.25V0.75C11.7547 0.335786 12.0905 0 12.5047 0ZM20.6837 3.35335C20.9865 3.63595 21.0029 4.11054 20.7203 4.41338L19.8121 5.38668C19.5295 5.68952 19.0549 5.70594 18.7521 5.42335C18.4493 5.14075 18.4328 4.66616 18.7154 4.36332L19.6236 3.39002C19.9062 3.08718 20.3808 3.07076 20.6837 3.35335ZM4.26002 3.3714C4.5529 3.07849 5.02777 3.07846 5.32068 3.37135L6.29407 4.34465C6.58698 4.63753 6.587 5.1124 6.29412 5.4053C6.00124 5.69822 5.52637 5.69824 5.23346 5.40535L4.26007 4.43206C3.96716 4.13917 3.96714 3.66431 4.26002 3.3714ZM12.5046 5.45123C9.10869 5.45123 6.33991 8.22 6.33991 11.6159C6.33991 12.3615 6.44691 13.0352 6.67343 13.6682C6.81298 14.0582 6.60994 14.4875 6.21994 14.627C5.82994 14.7666 5.40065 14.5636 5.26111 14.1736C4.96891 13.3569 4.83991 12.5094 4.83991 11.6159C4.83991 7.39159 8.28024 3.95123 12.5046 3.95123C16.729 3.95123 20.1693 7.39159 20.1693 11.6159C20.1693 12.4777 20.0225 13.3073 19.7738 14.0622C19.6442 14.4556 19.2202 14.6695 18.8267 14.5399C18.4334 14.4103 18.2195 13.9863 18.3491 13.5929C18.5511 12.9796 18.6693 12.3082 18.6693 11.6159C18.6693 8.22 15.9005 5.45123 12.5046 5.45123ZM9.44979 9.3111C9.44979 7.62682 10.8205 6.25616 12.5048 6.25616C14.1892 6.25616 15.5596 7.62743 15.5596 9.31148C15.5596 10.2131 15.1668 11.0247 14.5435 11.5843C15.5246 11.8943 16.3894 12.5477 16.9476 13.4249L16.9558 13.438L18.414 15.837C18.4232 15.8522 18.432 15.8678 18.4402 15.8837C18.4428 15.8869 18.4492 15.8939 18.4611 15.9041C18.4874 15.9265 18.5272 15.9532 18.5789 15.9791C18.5933 15.9863 18.6074 15.9939 18.6214 16.0021L21.438 17.6451C22.2084 18.0787 22.5254 19.0769 22.1129 19.9017C21.9113 20.3051 21.5981 20.5922 21.2269 20.7472C21.3037 20.9847 21.3455 21.2362 21.3455 21.4949C21.3455 22.9293 20.0597 24.1325 18.5228 23.932L18.5217 23.9318L12.5517 23.1444L6.59574 23.9293C5.01102 24.1944 3.75811 22.8885 3.75811 21.4942C3.75811 21.2777 3.7873 21.0664 3.84181 20.864C3.44476 20.7155 3.10885 20.4197 2.89651 19.9951C2.46528 19.1326 2.84227 18.2225 3.52762 17.7656C3.54008 17.7572 3.55279 17.7493 3.56574 17.7418L6.38807 16.0954C6.40198 16.0873 6.41616 16.0796 6.43057 16.0724C6.47357 16.0509 6.49699 16.0275 6.5185 15.9844C6.52773 15.966 6.53771 15.9479 6.54843 15.9303L8.00664 13.5313C8.59231 12.5692 9.48744 11.9146 10.5222 11.6334C9.86626 11.0726 9.44979 10.2394 9.44979 9.3111ZM13.2785 12.8843L11.75 12.9761C11.7351 12.977 11.72 12.9775 11.705 12.9775C10.6868 12.9775 9.80574 13.4609 9.28839 14.3105M9.28839 14.3105L7.84411 16.6865C7.68136 16.9967 7.43698 17.24 7.12582 17.4016L4.34568 19.0234C4.27516 19.0744 4.23832 19.1336 4.22372 19.1799C4.21021 19.2227 4.21004 19.268 4.23815 19.3242C4.27489 19.3977 4.31233 19.4293 4.33672 19.4443C4.35916 19.4581 4.39205 19.4711 4.44234 19.4736C4.45147 19.4707 4.46464 19.4661 4.48663 19.4582C4.49056 19.4569 4.49487 19.4553 4.49952 19.4536C4.51816 19.447 4.5422 19.4384 4.56839 19.4293L7.70964 18.081C7.99524 17.949 8.20959 17.706 8.42634 17.3076C8.53659 17.105 8.63551 16.8855 8.74786 16.6354L8.75161 16.627C8.85856 16.3889 8.97901 16.1207 9.11896 15.8658C9.28366 15.5655 9.63091 15.415 9.96264 15.5C10.2944 15.5851 10.5265 15.884 10.5265 16.2266V18.9509L14.483 18.9502V16.2266C14.483 15.888 14.7098 15.5914 15.0365 15.5027C15.3632 15.414 15.7088 15.5552 15.88 15.8473C16.0277 16.0991 16.1555 16.369 16.2689 16.6106C16.2761 16.626 16.2833 16.6412 16.2904 16.6564C16.4 16.8899 16.4982 17.0992 16.6066 17.2957C16.835 17.7102 17.05 17.9545 17.3111 18.0779L20.4519 19.3409C20.4806 19.3524 20.5087 19.3657 20.5358 19.3807C20.5397 19.3807 20.5439 19.3807 20.5484 19.3807C20.6094 19.3807 20.6476 19.3664 20.6727 19.3509C20.6971 19.3359 20.7346 19.3043 20.7713 19.2309C20.7975 19.1785 20.8014 19.1199 20.7841 19.0637C20.7659 19.0046 20.7309 18.9682 20.7016 18.9519L20.6879 18.9441L17.8844 17.3087C17.6408 17.1834 17.3141 16.9602 17.1192 16.5947L15.6782 14.2241C15.1574 13.4102 14.2295 12.8918 13.2785 12.8843M12.5518 20.4509L6.20152 20.5037C5.73514 20.5037 5.25811 20.9543 5.25811 21.4942C5.25811 22.0706 5.78396 22.548 6.35523 22.4486C6.36537 22.4469 6.37555 22.4453 6.38575 22.444L12.4538 21.6443C12.5189 21.6358 12.5848 21.6358 12.6498 21.6443L18.7168 22.4446C18.7171 22.4447 18.7174 22.4447 18.7177 22.4447C19.3442 22.5259 19.8455 22.0359 19.8455 21.4949C19.8455 20.9551 19.3684 20.5045 18.902 20.5045H18.8957L12.5518 20.4509ZM15.983 18.9798L16.008 18.98C15.9996 18.9721 15.9913 18.9642 15.983 18.9562V18.9798ZM12.5048 7.7562C11.6489 7.7562 10.9498 8.4552 10.9498 9.3111C10.9498 10.1669 11.6489 10.866 12.5048 10.866C13.3607 10.866 14.0596 10.1672 14.0596 9.31148C14.0596 8.45543 13.3604 7.7562 12.5048 7.7562ZM24.0733 11.5444C24.0869 11.9584 23.7623 12.305 23.3483 12.3186L21.9133 12.3656C21.4994 12.3791 21.1527 12.0545 21.1391 11.6405C21.1256 11.2265 21.4502 10.8799 21.8642 10.8664L23.2991 10.8194C23.7131 10.8058 24.0598 11.1305 24.0733 11.5444ZM0.888672 11.569C0.888672 11.1547 1.22446 10.819 1.63867 10.819H3.13876C3.55297 10.819 3.88876 11.1547 3.88876 11.569C3.88876 11.9832 3.55297 12.319 3.13876 12.319H1.63867C1.22446 12.319 0.888672 11.9832 0.888672 11.569Z" fill="#ED994E"/>
</g>
<defs>
<clipPath id="clip0_2731_7530">
<rect width="24" height="24" fill="white" transform="translate(0.138672)"/>
</clipPath>
</defs>
</svg>
