<svg width="21" height="20" viewBox="0 0 21 20" fill="none" xmlns="http://www.w3.org/2000/svg">
<g clip-path="url(#clip0_2737_1633)">
<path d="M3.889 18.3333V14.1667M3.889 5.83332V1.66666M1.80566 3.74999H5.97233M1.80566 16.25H5.97233M10.9723 2.49999L9.52718 6.25738C9.29217 6.8684 9.17467 7.17391 8.99194 7.43089C8.82999 7.65865 8.631 7.85765 8.40324 8.0196C8.14625 8.20233 7.84074 8.31983 7.22971 8.55484L3.47233 9.99999L7.22972 11.4451C7.84074 11.6801 8.14625 11.7977 8.40324 11.9804C8.631 12.1423 8.82999 12.3413 8.99194 12.5691C9.17467 12.8261 9.29217 13.1316 9.52718 13.7426L10.9723 17.5L12.4175 13.7426C12.6525 13.1316 12.77 12.8261 12.9527 12.5691C13.1147 12.3413 13.3137 12.1423 13.5414 11.9804C13.7984 11.7977 14.1039 11.6801 14.7149 11.4451L18.4723 9.99999L14.7149 8.55484C14.1039 8.31983 13.7984 8.20233 13.5414 8.0196C13.3137 7.85765 13.1147 7.65865 12.9527 7.43089C12.77 7.17391 12.6525 6.8684 12.4175 6.25737L10.9723 2.49999Z" stroke="#E47D6C" stroke-width="1.66667" stroke-linecap="round" stroke-linejoin="round"/>
</g>
<defs>
<clipPath id="clip0_2737_1633">
<rect width="20" height="20" fill="white" transform="translate(0.138672)"/>
</clipPath>
</defs>
</svg>
