<svg width="61" height="60" viewBox="0 0 61 60" fill="none" xmlns="http://www.w3.org/2000/svg">
<path d="M8.12772 27.4597H10.668V38.4677C10.668 38.9352 11.0465 39.3145 11.5148 39.3145H14.9019C15.3702 39.3145 15.7487 38.9352 15.7487 38.4677V25.7661H20.8293V31.6936C20.8293 32.161 21.2078 32.5403 21.6761 32.5403H25.0632C25.5315 32.5403 25.91 32.161 25.91 31.6936V24.0726C25.91 22.2046 24.3909 20.6855 22.5229 20.6855H19.1358V17.2984H28.4503C28.9186 17.2984 29.2971 16.919 29.2971 16.4516V13.0645C29.2971 12.5971 28.9186 12.2177 28.4503 12.2177H18.267C18.8047 11.5081 19.1358 10.6343 19.1358 9.67742V7.98387C19.1358 5.64931 17.2365 3.75 14.9019 3.75C12.5674 3.75 10.668 5.64931 10.668 7.98387V9.67742C10.668 10.6343 10.9991 11.5081 11.5368 12.2177H11.5148C9.18026 12.2177 7.28094 14.1171 7.28094 16.4516V26.6129C7.28094 27.0803 7.65945 27.4597 8.12772 27.4597ZM12.3616 9.67742V7.98387C12.3616 6.58331 13.5013 5.44355 14.9019 5.44355C16.3025 5.44355 17.4422 6.58331 17.4422 7.98387V9.67742C17.4422 11.078 16.3025 12.2177 14.9019 12.2177C13.5013 12.2177 12.3616 11.078 12.3616 9.67742ZM8.97449 16.4516C8.97449 15.051 10.1143 13.9113 11.5148 13.9113H27.6035V15.6048H18.289C17.8207 15.6048 17.4422 15.9842 17.4422 16.4516V21.5323C17.4422 21.9997 17.8207 22.379 18.289 22.379H22.5229C23.4569 22.379 24.2164 23.1386 24.2164 24.0726V30.8468H22.5229V24.9194C22.5229 24.4519 22.1444 24.0726 21.6761 24.0726H14.9019C14.4336 24.0726 14.0551 24.4519 14.0551 24.9194V37.621H12.3616V17.2984H10.668V25.7661H8.97449V16.4516Z" fill="url(#paint0_linear)"/>
<path d="M31.8374 17.2984H41.1519V20.6855H37.7648C35.8968 20.6855 34.3777 22.2046 34.3777 24.0726V31.6936C34.3777 32.161 34.7562 32.5403 35.2245 32.5403H38.6116C39.0798 32.5403 39.4583 32.161 39.4583 31.6936V25.7661H44.539V38.4677C44.539 38.9352 44.9175 39.3145 45.3858 39.3145H48.7729C49.2411 39.3145 49.6196 38.9352 49.6196 38.4677V27.4597H52.16C52.6282 27.4597 53.0067 27.0803 53.0067 26.6129V16.4516C53.0067 14.1171 51.1074 12.2177 48.7729 12.2177H48.7508C49.2885 11.5081 49.6196 10.6343 49.6196 9.67742V7.98387C49.6196 5.64931 47.7203 3.75 45.3858 3.75C43.0512 3.75 41.1519 5.64931 41.1519 7.98387V9.67742C41.1519 10.6343 41.483 11.5081 42.0207 12.2177H31.8374C31.3691 12.2177 30.9906 12.5971 30.9906 13.0645V16.4516C30.9906 16.919 31.3691 17.2984 31.8374 17.2984ZM42.8454 9.67742V7.98387C42.8454 6.58331 43.9852 5.44355 45.3858 5.44355C46.7863 5.44355 47.9261 6.58331 47.9261 7.98387V9.67742C47.9261 11.078 46.7863 12.2177 45.3858 12.2177C43.9852 12.2177 42.8454 11.078 42.8454 9.67742ZM32.6841 13.9113H48.7729C50.1734 13.9113 51.3132 15.051 51.3132 16.4516V25.7661H49.6196V17.2984H47.9261V37.621H46.2325V24.9194C46.2325 24.4519 45.854 24.0726 45.3858 24.0726H38.6116C38.1433 24.0726 37.7648 24.4519 37.7648 24.9194V30.8468H36.0712V24.0726C36.0712 23.1386 36.8308 22.379 37.7648 22.379H41.9987C42.4669 22.379 42.8454 21.9997 42.8454 21.5323V16.4516C42.8454 15.9842 42.4669 15.6048 41.9987 15.6048H32.6841V13.9113Z" fill="url(#paint1_linear)"/>
<path d="M55.547 41.0081H39.4583V35.0807C39.4583 34.6132 39.0798 34.2339 38.6115 34.2339H21.6761C21.2078 34.2339 20.8293 34.6132 20.8293 35.0807V41.0081H4.74057C4.27231 41.0081 3.8938 41.3874 3.8938 41.8549V55.4032C3.8938 55.8707 4.27231 56.25 4.74057 56.25H21.6761H38.6115H55.547C56.0153 56.25 56.3938 55.8707 56.3938 55.4032V41.8549C56.3938 41.3874 56.0153 41.0081 55.547 41.0081ZM27.6035 35.9274H32.6841V43.1978L30.7425 41.2562C30.4114 40.9251 29.8762 40.9251 29.5451 41.2562L27.6035 43.1978V35.9274ZM5.58735 42.7016H20.8293V54.5565H5.58735V42.7016ZM22.5228 41.8549V35.9274H25.9099V45.2419C25.9099 45.584 26.1157 45.8931 26.4324 46.0244C26.7482 46.1556 27.1132 46.0828 27.3554 45.8406L30.1438 43.0522L32.9322 45.8406C33.094 46.0024 33.3107 46.0887 33.5309 46.0887C33.6401 46.0887 33.7502 46.0676 33.8552 46.0244C34.1719 45.8931 34.3777 45.584 34.3777 45.2419V35.9274H37.7648V41.8549V54.5565H22.5228V41.8549ZM54.7003 54.5565H39.4583V42.7016H54.7003V54.5565Z" fill="url(#paint2_linear)"/>
<defs>
<linearGradient id="paint0_linear" x1="18.289" y1="3.75" x2="18.289" y2="39.3145" gradientUnits="userSpaceOnUse">
<stop stop-color="#96BBEF"/>
<stop offset="1" stop-color="#5B86EC"/>
</linearGradient>
<linearGradient id="paint1_linear" x1="41.9987" y1="3.75" x2="41.9987" y2="39.3145" gradientUnits="userSpaceOnUse">
<stop stop-color="#96BBEF"/>
<stop offset="1" stop-color="#5B86EC"/>
</linearGradient>
<linearGradient id="paint2_linear" x1="30.1438" y1="34.2339" x2="30.1438" y2="56.25" gradientUnits="userSpaceOnUse">
<stop stop-color="#96BBEF"/>
<stop offset="1" stop-color="#5B86EC"/>
</linearGradient>
</defs>
</svg>
