<svg width="60" height="60" viewBox="0 0 60 60" fill="none" xmlns="http://www.w3.org/2000/svg">
	<defs>
		<linearGradient id="paint0_linear_1853574" x1="48" y1="48" x2="48" y2="12" gradientUnits="userSpaceOnUse">
			<stop stop-color="#3D8BE8"/>
			<stop offset="1" stop-color="#89BEEC"/>
		</linearGradient>
	</defs>
	<g id="ic_volunteer/suitable-for-all">
		<circle id="Oval" cx="30" cy="30" r="30" fill="#89BEEC" fill-opacity="0.1"/>
		<path id="Union" fill-rule="evenodd" clip-rule="evenodd" d="M15 12C13.3431 12 12 13.3431 12 15V25C12 26.6569 13.3431 28 15 28H17C17.5523 28 18 27.5523 18 27C18 25.8954 18.8954 25 20 25C21.1046 25 22 25.8954 22 27C22 27.5523 22.4477 28 23 28H25C26.6569 28 28 26.6569 28 25V23.874C29.7252 23.4299 31 21.8638 31 20C31 18.1362 29.7252 16.5701 28 16.126V15C28 13.3431 26.6569 12 25 12H15ZM14 15C14 14.4477 14.4477 14 15 14H25C25.5523 14 26 14.4477 26 15V17C26 17.5523 26.4477 18 27 18C28.1046 18 29 18.8954 29 20C29 21.1046 28.1046 22 27 22C26.4477 22 26 22.4477 26 23V25C26 25.5523 25.5523 26 25 26H23.874C23.4299 24.2748 21.8638 23 20 23C18.1362 23 16.5701 24.2748 16.126 26H15C14.4477 26 14 25.5523 14 25V15ZM45 48C46.6569 48 48 46.6569 48 45V35C48 33.3431 46.6569 32 45 32H43C42.4477 32 42 32.4477 42 33C42 34.1046 41.1046 35 40 35C38.8954 35 38 34.1046 38 33C38 32.4477 37.5523 32 37 32H35C33.3431 32 32 33.3431 32 35V36.126C30.2748 36.5701 29 38.1362 29 40C29 41.8638 30.2748 43.4299 32 43.874V45C32 46.6569 33.3431 48 35 48H45ZM46 45C46 45.5523 45.5523 46 45 46H35C34.4477 46 34 45.5523 34 45V43C34 42.4477 33.5523 42 33 42C31.8954 42 31 41.1046 31 40C31 38.8954 31.8954 38 33 38C33.5523 38 34 37.5523 34 37V35C34 34.4477 34.4477 34 35 34H36.126C36.5701 35.7252 38.1362 37 40 37C41.8638 37 43.4299 35.7252 43.874 34H45C45.5523 34 46 34.4477 46 35V45ZM45 12C46.6569 12 48 13.3431 48 15V25C48 26.6569 46.6569 28 45 28H43.874C43.4299 29.7252 41.8638 31 40 31C38.1362 31 36.5701 29.7252 36.126 28H35C33.3431 28 32 26.6569 32 25V23C32 22.4477 32.4477 22 33 22C34.1046 22 35 21.1046 35 20C35 18.8954 34.1046 18 33 18C32.4477 18 32 17.5523 32 17V15C32 13.3431 33.3431 12 35 12H45ZM46 15C46 14.4477 45.5523 14 45 14H35C34.4477 14 34 14.4477 34 15V16.126C35.7252 16.5701 37 18.1362 37 20C37 21.8638 35.7252 23.4299 34 23.874V25C34 25.5523 34.4477 26 35 26H37C37.5523 26 38 26.4477 38 27C38 28.1046 38.8954 29 40 29C41.1046 29 42 28.1046 42 27C42 26.4477 42.4477 26 43 26H45C45.5523 26 46 25.5523 46 25V15ZM12 45C12 46.6569 13.3431 48 15 48H25C26.6569 48 28 46.6569 28 45V43C28 42.4477 27.5523 42 27 42C25.8954 42 25 41.1046 25 40C25 38.8954 25.8954 38 27 38C27.5523 38 28 37.5523 28 37V35C28 33.3431 26.6569 32 25 32H23.874C23.4299 30.2748 21.8638 29 20 29C18.1362 29 16.5701 30.2748 16.126 32H15C13.3431 32 12 33.3431 12 35V45ZM15 46C14.4477 46 14 45.5523 14 45V35C14 34.4477 14.4477 34 15 34H17C17.5523 34 18 33.5523 18 33C18 31.8954 18.8954 31 20 31C21.1046 31 22 31.8954 22 33C22 33.5523 22.4477 34 23 34H25C25.5523 34 26 34.4477 26 35V36.126C24.2748 36.5701 23 38.1362 23 40C23 41.8638 24.2748 43.4299 26 43.874V45C26 45.5523 25.5523 46 25 46H15Z" fill="url(#paint0_linear_1853574)"/>
	</g>
</svg>
