<svg width="12" height="12" viewBox="0 0 12 12" fill="none" xmlns="http://www.w3.org/2000/svg">
<g id="fi_8022265" clip-path="url(#clip0_23_2081)">
<g id="Group">
<path id="Vector" d="M8.98311 9.64601L9.64602 10.3089C9.82909 10.492 10.1259 10.492 10.3089 10.3089C10.492 10.1258 10.492 9.82905 10.3089 9.64601L9.64602 8.9831C9.46295 8.80003 9.16616 8.80003 8.98311 8.9831C8.80006 9.16617 8.80006 9.46296 8.98311 9.64601Z" fill="#7C7976"/>
<path id="Vector_2" d="M2.35403 3.0169C2.5371 3.19997 2.83389 3.19997 3.01694 3.0169C3.20001 2.83383 3.20001 2.53704 3.01694 2.35399L2.35403 1.69109C2.17096 1.50802 1.87417 1.50802 1.69113 1.69109C1.50808 1.87416 1.50806 2.17095 1.69113 2.35399L2.35403 3.0169Z" fill="#7C7976"/>
<path id="Vector_3" d="M11.5312 5.53125H10.5938C10.3349 5.53125 10.125 5.74111 10.125 6C10.125 6.25889 10.3349 6.46875 10.5938 6.46875H11.5312C11.7901 6.46875 12 6.25889 12 6C12 5.74111 11.7901 5.53125 11.5312 5.53125Z" fill="#7C7976"/>
<path id="Vector_4" d="M0.46875 6.46875H1.40625C1.66514 6.46875 1.875 6.25889 1.875 6C1.875 5.74111 1.66514 5.53125 1.40625 5.53125H0.46875C0.209859 5.53125 0 5.74111 0 6C0 6.25889 0.209859 6.46875 0.46875 6.46875Z" fill="#7C7976"/>
<path id="Vector_5" d="M9.31458 3.15419C9.43456 3.15419 9.55451 3.10842 9.64603 3.0169L10.3089 2.35399C10.492 2.17094 10.492 1.87413 10.3089 1.69108C10.1259 1.50804 9.82908 1.50801 9.64603 1.69108L8.98313 2.35399C8.80006 2.53704 8.80006 2.83385 8.98313 3.0169C9.07467 3.10842 9.19463 3.15419 9.31458 3.15419Z" fill="#7C7976"/>
<path id="Vector_6" d="M2.35404 8.9831L1.69114 9.64601C1.50807 9.82905 1.50807 10.1259 1.69114 10.3089C1.87421 10.492 2.171 10.492 2.35404 10.3089L3.01695 9.64601C3.20002 9.46296 3.20002 9.16615 3.01695 8.9831C2.83388 8.80005 2.53709 8.80005 2.35404 8.9831Z" fill="#7C7976"/>
<path id="Vector_7" d="M6 12C6.25889 12 6.46875 11.7901 6.46875 11.5312V10.5938C6.46875 10.3349 6.25889 10.125 6 10.125C5.74111 10.125 5.53125 10.3349 5.53125 10.5938V11.5312C5.53125 11.7901 5.74111 12 6 12Z" fill="#7C7976"/>
<path id="Vector_8" d="M6 1.875C6.25889 1.875 6.46875 1.66514 6.46875 1.40625V0.46875C6.46875 0.209859 6.25889 0 6 0C5.74111 0 5.53125 0.209859 5.53125 0.46875V1.40625C5.53125 1.66514 5.74111 1.875 6 1.875Z" fill="#7C7976"/>
<path id="Vector_9" d="M2.71875 6C2.71875 7.80928 4.19072 9.28125 6 9.28125C7.80928 9.28125 9.28125 7.80928 9.28125 6C9.28125 4.19072 7.80928 2.71875 6 2.71875C4.19072 2.71875 2.71875 4.19072 2.71875 6ZM8.34375 6C8.34375 7.29234 7.29234 8.34375 6 8.34375C4.70766 8.34375 3.65625 7.29234 3.65625 6C3.65625 4.70766 4.70766 3.65625 6 3.65625C7.29234 3.65625 8.34375 4.70766 8.34375 6Z" fill="#7C7976"/>
</g>
</g>
<defs>
<clipPath id="clip0_23_2081">
<rect width="12" height="12" fill="white"/>
</clipPath>
</defs>
</svg>
