<svg width="107" height="52" viewBox="0 0 107 52" fill="none" xmlns="http://www.w3.org/2000/svg">
              <g clip-path="url(#clip0_4344_74349)">
              <mask id="mask0_4344_74349" style="mask-type:luminance" maskUnits="userSpaceOnUse" x="0" y="0" width="107" height="107">
              <path d="M106.5 0H0.5V106.122H106.5V0Z" fill="white"></path>
              </mask>
              <g mask="url(#mask0_4344_74349)">
              <path d="M62.7092 -0.784764L55.0236 47.2812L80.0052 5.51982L56.3624 48.0553L94.1044 17.3666L57.3562 49.2412L103.306 33.3267L57.8845 50.6958L106.5 51.475L57.8846 52.2438L103.302 69.6228L57.3554 53.6983L94.0973 85.5808L56.3618 54.8838L79.9956 97.4243L55.0225 55.6581L62.6981 103.725L53.5001 55.9263L44.2914 103.723L51.9772 55.6573L26.9954 97.4188L50.6382 54.8836L12.8963 85.5719L49.6446 53.6973L3.69469 69.612L49.1159 52.2429L0.500298 51.4638L49.116 50.6949L3.69854 33.316L49.645 49.2404L12.9036 17.3579L50.639 48.0547L27.0052 5.51418L51.9781 47.2809L44.3025 -0.786728L53.5008 47.0122L62.7092 -0.784764Z" fill="white"></path>
              </g>
              </g>
              <defs>
              <clipPath id="clip0_4344_74349">
              <rect width="106" height="52" fill="white" transform="translate(0.5)"></rect>
              </clipPath>
              </defs>
              </svg>