<svg width="60" height="60" viewBox="0 0 60 60" fill="none" xmlns="http://www.w3.org/2000/svg">
	<circle cx="30" cy="30" r="30" fill="#89BEEC" fill-opacity="0.1"/>
	<path fill-rule="evenodd" clip-rule="evenodd" d="M37.6984 42.4815C38.0609 42.1708 38.5226 42 39 42H39.4C41.1132 42 42.2777 41.9984 43.1779 41.9249C44.0548 41.8533 44.5032 41.7234 44.816 41.564C45.5686 41.1805 46.1805 40.5686 46.564 39.816C46.7234 39.5032 46.8533 39.0548 46.9249 38.1779C46.9984 37.2777 47 36.1132 47 34.4V25.6C47 23.8868 46.9984 22.7223 46.9249 21.8221C46.8533 20.9452 46.7234 20.4968 46.564 20.184C46.1805 19.4314 45.5686 18.8195 44.816 18.436C44.5032 18.2766 44.0548 18.1467 43.1779 18.0751C42.2777 18.0016 41.1132 18 39.4 18L20.6 18C18.8868 18 17.7223 18.0016 16.8221 18.0751C15.9452 18.1467 15.4968 18.2766 15.184 18.436C14.4314 18.8195 13.8195 19.4314 13.436 20.184C13.2766 20.4968 13.1467 20.9452 13.0751 21.8221C13.0016 22.7223 13 23.8868 13 25.6L13 34.4C13 36.1132 13.0016 37.2777 13.0751 38.1779C13.1467 39.0548 13.2766 39.5032 13.436 39.816C13.8195 40.5686 14.4314 41.1805 15.184 41.564C15.4968 41.7234 15.9452 41.8533 16.8221 41.9249C17.7223 41.9984 18.8868 42 20.6 42H32C33.1046 42 34 42.8954 34 44V45.6516L37.6984 42.4815ZM39 44H39.4C42.7603 44 44.4405 44 45.7239 43.346C46.8529 42.7708 47.7708 41.8529 48.346 40.7239C49 39.4405 49 37.7603 49 34.4V25.6C49 22.2397 49 20.5595 48.346 19.2761C47.7708 18.1471 46.8529 17.2292 45.7239 16.654C44.4405 16 42.7603 16 39.4 16L20.6 16C17.2397 16 15.5595 16 14.2761 16.654C13.1471 17.2292 12.2292 18.1471 11.654 19.2761C11 20.5595 11 22.2397 11 25.6L11 34.4C11 37.7603 11 39.4405 11.654 40.7239C12.2292 41.8529 13.1471 42.7708 14.2761 43.346C15.5595 44 17.2397 44 20.6 44H32V46.5212C32 47.6282 32 48.1817 32.2248 48.4575C32.4202 48.6973 32.7156 48.8331 33.0248 48.8255C33.3806 48.8166 33.8008 48.4564 34.6413 47.7361L39 44Z" fill="url(#paint0_linear_1853584)"/>
	<path d="M17 25C17 24.4477 17.4477 24 18 24H36C36.5523 24 37 24.4477 37 25C37 25.5523 36.5523 26 36 26H18C17.4477 26 17 25.5523 17 25Z" fill="url(#paint1_linear_1853584)"/>
	<path d="M17 30C17 29.4477 17.4477 29 18 29H42C42.5523 29 43 29.4477 43 30C43 30.5523 42.5523 31 42 31H18C17.4477 31 17 30.5523 17 30Z" fill="url(#paint2_linear_1853584)"/>
	<path d="M17 35C17 34.4477 17.4477 34 18 34H32C32.5523 34 33 34.4477 33 35C33 35.5523 32.5523 36 32 36H18C17.4477 36 17 35.5523 17 35Z" fill="url(#paint3_linear_1853584)"/>
	<defs>
		<linearGradient id="paint0_linear_1853584" x1="49" y1="48.8258" x2="49" y2="16" gradientUnits="userSpaceOnUse">
			<stop stop-color="#3D8BE8"/>
			<stop offset="1" stop-color="#89BEEC"/>
		</linearGradient>
		<linearGradient id="paint1_linear_1853584" x1="49" y1="48.8258" x2="49" y2="16" gradientUnits="userSpaceOnUse">
			<stop stop-color="#3D8BE8"/>
			<stop offset="1" stop-color="#89BEEC"/>
		</linearGradient>
		<linearGradient id="paint2_linear_1853584" x1="49" y1="48.8258" x2="49" y2="16" gradientUnits="userSpaceOnUse">
			<stop stop-color="#3D8BE8"/>
			<stop offset="1" stop-color="#89BEEC"/>
		</linearGradient>
		<linearGradient id="paint3_linear_1853584" x1="49" y1="48.8258" x2="49" y2="16" gradientUnits="userSpaceOnUse">
			<stop stop-color="#3D8BE8"/>
			<stop offset="1" stop-color="#89BEEC"/>
		</linearGradient>
	</defs>
</svg>
