<svg width="52" height="48" viewBox="0 0 52 48" fill="none" xmlns="http://www.w3.org/2000/svg">
<path d="M5.38281 18.8594C4.81641 18.6641 4.44531 17.9805 4.81641 17.0039C8.41016 7.43359 16.418 2.72656 25.2461 2.72656C28.9766 2.72656 31.9844 3.41016 34.9531 5.26562C35.4414 5.57812 35.793 6.00781 35.4805 6.69141C35.1875 7.33594 34.4453 7.33594 33.7812 6.94531C31.457 5.61719 28.7227 4.91406 25.2461 4.91406C17.6094 4.91406 10.0898 9.28906 6.94531 18.0781C6.67188 18.8203 5.94922 19.0742 5.38281 18.8594ZM46.0078 25.9492C45.3828 25.9492 44.9922 25.4414 44.9141 24.7969C44.25 17.707 41.457 13.0586 37.6094 9.46484C37.0234 8.9375 37.0625 8.29297 37.4336 7.88281C37.7656 7.49219 38.4492 7.33594 39.0156 7.84375C43.5273 11.7891 46.1445 16.8086 47.0234 24.7578C47.082 25.4414 46.6328 25.9492 46.0078 25.9492ZM8.50781 36.1641C8.19531 35.7148 8.27344 35.0117 8.74219 34.6211C9.66016 33.8203 10.1484 32.5508 10.1484 31.2227C10.1289 29.1914 8.91797 27.0234 8.91797 23.8203C8.91797 14.9727 16.2617 7.60938 25.1289 7.60938C35.6758 7.60938 42.5312 16.0469 42.5312 28.4883C42.5312 33.1758 41.6914 36.5742 40.9297 38.6445C40.6953 39.2891 39.9336 39.4844 39.3867 39.25C38.8789 38.9766 38.6445 38.332 38.8984 37.7266C39.6211 35.9492 40.3438 32.8633 40.3438 28.5078C40.3242 17.3555 34.3672 9.79688 25.1289 9.79688C17.4727 9.79688 11.1055 16.1641 11.1055 23.8203C11.1055 27.1797 12.2773 28.5469 12.2773 31.2422C12.2773 33.2344 11.5742 35.1484 10.168 36.3398C9.62109 36.8086 8.87891 36.6719 8.50781 36.1641ZM17.2969 29.2109C17.5117 29.8555 17.2969 30.4805 16.7109 30.7148C16.0078 31.0078 15.4219 30.6953 15.1484 30.0508C14.4648 28.3906 13.8008 26.3984 13.8008 23.9375C13.8008 17.5312 18.8398 12.4922 25.2461 12.4922C27.1797 12.4922 29.1523 13.0586 30.4414 13.8203C31.1055 14.2109 31.2617 14.875 30.9688 15.4219C30.7539 15.8516 30.207 16.0273 29.6016 15.7539C27.8633 14.9141 27.2383 14.6992 25.2461 14.6992C20.0508 14.6992 16.0078 18.7422 16.0078 23.9375C16.0078 26.2031 16.8086 27.8828 17.2969 29.2109ZM32.668 18.3711C32.2188 17.707 32.3945 16.9844 32.9609 16.6719C33.5078 16.3789 34.1914 16.5742 34.6016 17.1992C36.3789 20.0312 37.6484 23.5469 37.6484 29.4648C37.6484 34.875 36.0859 39.9922 33.7031 43.2148C33.3125 43.7422 32.5117 43.7617 32.043 43.332C31.6133 42.9023 31.6523 42.2383 32.0039 41.7695C34.1328 39.1133 35.5 34.4648 35.5 29.543C35.5 24.9336 34.5625 21.125 32.668 18.3711ZM17.2188 42.375C16.6914 42.8242 15.9883 42.7656 15.5781 42.1992C15.2461 41.7109 15.3242 41.0859 15.8516 40.6562C18.5273 38.4883 19.9727 35.0117 19.9531 31.1445C19.9336 28.4297 18.7617 25.7148 18.7617 23.5078C18.7617 19.8359 21.5547 17.4141 25.1875 17.4141C30.6562 17.4141 32.5117 22.6094 32.5312 29.1719C32.5703 35.8906 29.9922 41.9844 26.9453 44.7578C26.4375 45.2266 25.6758 45.1289 25.3047 44.6016C24.9922 44.1133 25.0898 43.5078 25.5586 43.1172C28.4492 40.5781 30.6562 35.4219 30.4805 29.3281C30.3633 24.0547 29.0938 19.6016 25.1875 19.6016C22.6484 19.6016 20.9102 21.2422 20.9102 23.7031C20.9102 25.5781 22.1406 27.707 22.1602 31.1445C22.1797 35.6953 20.4219 39.7969 17.2188 42.375ZM6.24219 30.5C5.63672 30.6953 5.01172 30.3633 4.81641 29.6992C4.05469 26.9844 3.87891 24.3477 4.05469 22.1406C4.11328 21.5352 4.52344 21.0664 5.28516 21.125C5.87109 21.1641 6.26172 21.5547 6.24219 22.2773C6.14453 25.0117 6.4375 27.1016 6.92578 29.0742C7.08203 29.7383 6.80859 30.3242 6.24219 30.5ZM27.1016 33.2148C26.9648 33.918 26.3789 34.2891 25.7539 34.1719C25.0703 34.0742 24.8359 33.5078 24.9531 32.9219C25.4023 30.4609 25.2461 27.668 24.3477 24.8359C24.1328 24.1523 24.4844 23.625 25.0508 23.4297C25.6562 23.2344 26.2227 23.5469 26.4766 24.2695C27.4336 27.1992 27.6484 30.5781 27.1016 33.2148ZM13.1172 39.7969C12.4141 40.1484 11.7891 39.875 11.5547 39.3867C11.3398 38.9375 11.4375 38.332 12.1406 37.8438C13.5859 36.8672 14.5039 35.5781 15.0312 33.8594C15.2461 33.2344 15.832 32.9023 16.3789 33.0977C16.9844 33.293 17.2383 33.957 17.082 34.5039C16.5352 36.5156 14.5625 39.0547 13.1172 39.7969ZM21.7891 43.9375C21.2422 44.3477 20.4805 44.2695 20.168 43.7227C19.8359 43.2148 19.9727 42.5703 20.4609 42.1797C21.7695 41.1641 23 39.6211 23.9961 37.0039C24.1719 36.4961 24.7383 36.1641 25.4023 36.3984C26.0273 36.6133 26.125 37.3359 25.9883 37.7656C25.2461 40.2656 23.332 42.8242 21.7891 43.9375Z" fill="#ED994E"/>
</svg>
