<svg width="61" height="60" viewBox="0 0 61 60" fill="none" xmlns="http://www.w3.org/2000/svg">
<path d="M30.142 10.269C19.258 10.269 10.4136 19.1178 10.4136 30.0018C10.4136 40.8858 19.258 49.7302 30.142 49.7302C41.026 49.7302 49.8747 40.8858 49.8747 30.0018C49.8747 19.1178 41.026 10.269 30.142 10.269ZM30.142 12.591C39.7714 12.591 47.5527 20.3723 47.5527 30.0018C47.5527 39.6312 39.7714 47.4125 30.142 47.4125C20.5126 47.4125 12.7313 39.6312 12.7313 30.0018C12.7313 20.3723 20.5126 12.591 30.142 12.591Z" fill="url(#paint0_linear)"/>
<path d="M30.1438 5.62512C29.99 5.62291 29.8372 5.65132 29.6945 5.70866C29.5517 5.766 29.4218 5.85115 29.3122 5.95915C29.2027 6.06715 29.1157 6.19584 29.0563 6.33776C28.9969 6.47968 28.9663 6.63201 28.9663 6.78585C28.9663 6.9397 28.9969 7.09202 29.0563 7.23395C29.1157 7.37587 29.2027 7.50455 29.3122 7.61256C29.4218 7.72056 29.5517 7.8057 29.6945 7.86304C29.8372 7.92038 29.99 7.94879 30.1438 7.94658C42.3374 7.94658 52.1974 17.8066 52.1974 30.0002C52.1974 42.1938 42.3374 52.0537 30.1438 52.0537C29.99 52.0515 29.8372 52.0799 29.6945 52.1372C29.5517 52.1946 29.4218 52.2797 29.3122 52.3877C29.2027 52.4957 29.1157 52.6245 29.0563 52.7664C28.9969 52.9083 28.9663 53.0606 28.9663 53.2144C28.9663 53.3683 28.9969 53.5206 29.0563 53.6625C29.1157 53.8044 29.2027 53.9331 29.3122 54.0411C29.4218 54.1491 29.5517 54.2343 29.6945 54.2916C29.8372 54.3489 29.99 54.3774 30.1438 54.3751C43.592 54.3751 54.5188 43.4484 54.5188 30.0002C54.5188 16.552 43.592 5.62512 30.1438 5.62512Z" fill="url(#paint1_linear)"/>
<path d="M8.09023 30.0001C8.09022 30.3079 7.96793 30.6032 7.75026 30.8208C7.53258 31.0385 7.23735 31.1608 6.92951 31.1608C6.62168 31.1608 6.32645 31.0385 6.10877 30.8208C5.89109 30.6032 5.7688 30.3079 5.7688 30.0001C5.7688 29.8477 5.79882 29.6967 5.85715 29.5559C5.91548 29.4151 6.00098 29.2871 6.10876 29.1793C6.21654 29.0716 6.3445 28.986 6.48533 28.9277C6.62615 28.8694 6.77709 28.8394 6.92951 28.8394C7.08194 28.8394 7.23288 28.8694 7.3737 28.9277C7.51453 28.986 7.64248 29.0716 7.75027 29.1793C7.85805 29.2871 7.94355 29.4151 8.00188 29.5559C8.06021 29.6967 8.09023 29.8477 8.09023 30.0001Z" fill="url(#paint2_linear)"/>
<path d="M24.4374 8.6961C24.2902 8.73555 24.1366 8.74561 23.9855 8.72571C23.8344 8.70582 23.6887 8.65634 23.5567 8.58012C23.4246 8.50391 23.309 8.40247 23.2162 8.28154C23.1234 8.16061 23.0553 8.02257 23.0159 7.87533C22.9362 7.57798 22.9779 7.26116 23.1318 6.99456C23.2857 6.72797 23.5392 6.53341 23.8366 6.45374C24.1339 6.37406 24.4508 6.41579 24.7174 6.56971C24.984 6.72363 25.1785 6.97715 25.2582 7.2745C25.2976 7.42173 25.3077 7.57532 25.2878 7.72644C25.2679 7.87757 25.2184 8.02326 25.1422 8.15527C25.066 8.28728 24.9645 8.40299 24.8436 8.49578C24.7227 8.58858 24.5847 8.65665 24.4374 8.6961Z" fill="url(#paint3_linear)"/>
<path d="M19.118 10.8991C18.8514 11.0531 18.5346 11.0948 18.2373 11.0151C17.9399 10.9354 17.6864 10.7409 17.5324 10.4743C17.4562 10.3423 17.4068 10.1966 17.3869 10.0455C17.367 9.89433 17.3771 9.74076 17.4165 9.59353C17.456 9.44629 17.524 9.30826 17.6168 9.18733C17.7096 9.0664 17.8253 8.96493 17.9573 8.88872C18.0893 8.8125 18.235 8.76305 18.3862 8.74315C18.5373 8.72325 18.6908 8.73333 18.8381 8.77278C18.9853 8.81223 19.1234 8.88029 19.2443 8.97308C19.3652 9.06588 19.4667 9.18157 19.5429 9.31357C19.6968 9.58017 19.7385 9.897 19.6588 10.1944C19.5791 10.4917 19.3846 10.7452 19.118 10.8991Z" fill="url(#paint4_linear)"/>
<path d="M14.5501 14.4044C14.3325 14.6221 14.0372 14.7443 13.7294 14.7443C13.4216 14.7444 13.1263 14.622 12.9087 14.4044C12.8009 14.2966 12.7154 14.1687 12.657 14.0278C12.5987 13.887 12.5687 13.7361 12.5687 13.5836C12.5687 13.4312 12.5987 13.2803 12.657 13.1394C12.7154 12.9986 12.8008 12.8707 12.9086 12.7629C13.1263 12.5452 13.4216 12.4229 13.7294 12.4229C14.0372 12.4229 14.3325 12.5452 14.5501 12.7629C14.7678 12.9806 14.8901 13.2758 14.8901 13.5836C14.8901 13.8915 14.7678 14.1867 14.5501 14.4044Z" fill="url(#paint5_linear)"/>
<path d="M11.0452 18.9723C10.8912 19.2389 10.6377 19.4335 10.3404 19.5131C10.043 19.5928 9.7262 19.5511 9.4596 19.3972C9.3276 19.321 9.21191 19.2195 9.11911 19.0986C9.02632 18.9777 8.95826 18.8396 8.91881 18.6924C8.87936 18.5452 8.86928 18.3916 8.88918 18.2405C8.90908 18.0893 8.95853 17.9436 9.03475 17.8116C9.11096 17.6796 9.21243 17.5639 9.33336 17.4711C9.45429 17.3783 9.59232 17.3103 9.73956 17.2708C9.88679 17.2314 10.0404 17.2213 10.1915 17.2412C10.3426 17.2611 10.4883 17.3105 10.6203 17.3868C10.8869 17.5407 11.0815 17.7942 11.1611 18.0916C11.2408 18.3889 11.1991 18.7057 11.0452 18.9723Z" fill="url(#paint6_linear)"/>
<path d="M8.84169 24.2916C8.80224 24.4388 8.73416 24.5769 8.64137 24.6978C8.54858 24.8187 8.43289 24.9202 8.30088 24.9964C8.16888 25.0726 8.02316 25.1221 7.87203 25.142C7.72091 25.1619 7.56734 25.1518 7.42011 25.1124C7.27287 25.0729 7.13485 25.0048 7.01392 24.912C6.89299 24.8192 6.79153 24.7035 6.71532 24.5715C6.63911 24.4395 6.58963 24.2938 6.56974 24.1427C6.54984 23.9916 6.55991 23.838 6.59936 23.6908C6.63881 23.5435 6.70689 23.4055 6.79968 23.2846C6.89247 23.1636 7.00816 23.0622 7.14017 22.986C7.27218 22.9098 7.41789 22.8603 7.56902 22.8404C7.72014 22.8205 7.87371 22.8305 8.02095 22.87C8.16818 22.9094 8.30621 22.9775 8.42713 23.0703C8.54806 23.1631 8.64952 23.2788 8.72573 23.4108C8.80194 23.5428 8.85142 23.6885 8.87131 23.8396C8.89121 23.9908 8.88114 24.1444 8.84169 24.2916Z" fill="url(#paint7_linear)"/>
<path d="M8.8417 35.7083C8.88115 35.8556 8.89122 36.0092 8.87132 36.1603C8.85143 36.3114 8.80195 36.4571 8.72574 36.5891C8.64953 36.7211 8.54807 36.8368 8.42714 36.9296C8.30621 37.0224 8.16819 37.0905 8.02095 37.1299C7.87372 37.1694 7.72015 37.1794 7.56903 37.1596C7.4179 37.1397 7.27219 37.0902 7.14018 37.014C7.00817 36.9377 6.89248 36.8363 6.79969 36.7154C6.7069 36.5944 6.63882 36.4564 6.59937 36.3092C6.5197 36.0118 6.56141 35.695 6.71533 35.4284C6.86925 35.1618 7.12277 34.9672 7.42012 34.8876C7.71746 34.8079 8.03429 34.8496 8.30089 35.0035C8.56749 35.1575 8.76202 35.411 8.8417 35.7083Z" fill="url(#paint8_linear)"/>
<path d="M11.045 41.0281C11.1989 41.2947 11.2406 41.6115 11.1609 41.9089C11.0813 42.2062 10.8867 42.4597 10.6201 42.6136C10.3535 42.7676 10.0367 42.8093 9.73935 42.7296C9.442 42.6499 9.1885 42.4554 9.03457 42.1888C8.95836 42.0568 8.90887 41.9111 8.88898 41.76C8.86908 41.6088 8.87916 41.4553 8.91861 41.308C8.95806 41.1608 9.02612 41.0228 9.11891 40.9018C9.21171 40.7809 9.32741 40.6795 9.45942 40.6032C9.72602 40.4493 10.0428 40.4076 10.3402 40.4873C10.6375 40.567 10.891 40.7615 11.045 41.0281Z" fill="url(#paint9_linear)"/>
<path d="M14.5502 45.5957C14.7678 45.8134 14.8901 46.1087 14.8901 46.4165C14.8901 46.7243 14.7678 47.0196 14.5502 47.2372C14.3325 47.4549 14.0373 47.5772 13.7294 47.5772C13.4216 47.5772 13.1263 47.4549 12.9087 47.2373C12.8009 47.1295 12.7154 47.0015 12.6571 46.8607C12.5987 46.7199 12.5687 46.5689 12.5687 46.4165C12.5687 46.2641 12.5987 46.1131 12.6571 45.9723C12.7154 45.8315 12.8009 45.7035 12.9087 45.5957C13.0164 45.488 13.1444 45.4025 13.2852 45.3441C13.426 45.2858 13.577 45.2558 13.7294 45.2558C13.8818 45.2558 14.0328 45.2858 14.1736 45.3441C14.3144 45.4025 14.4424 45.488 14.5502 45.5957Z" fill="url(#paint10_linear)"/>
<path d="M19.1181 49.1007C19.3847 49.2547 19.5792 49.5082 19.6589 49.8055C19.7386 50.1029 19.6968 50.4197 19.5429 50.6863C19.389 50.9529 19.1355 51.1474 18.8381 51.2271C18.5408 51.3068 18.224 51.265 17.9574 51.1111C17.8254 51.0349 17.7097 50.9335 17.6169 50.8125C17.5241 50.6916 17.456 50.5536 17.4166 50.4063C17.3771 50.2591 17.367 50.1055 17.3869 49.9544C17.4068 49.8033 17.4563 49.6576 17.5325 49.5256C17.6864 49.259 17.94 49.0644 18.2373 48.9848C18.5347 48.9051 18.8515 48.9468 19.1181 49.1007Z" fill="url(#paint11_linear)"/>
<path d="M24.4373 51.3041C24.5846 51.3436 24.7226 51.4117 24.8435 51.5045C24.9645 51.5973 25.0659 51.713 25.1421 51.845C25.2183 51.977 25.2678 52.1227 25.2877 52.2738C25.3076 52.4249 25.2975 52.5785 25.2581 52.7257C25.2186 52.873 25.1506 53.011 25.0578 53.1319C24.965 53.2529 24.8493 53.3543 24.7173 53.4305C24.5853 53.5067 24.4395 53.5562 24.2884 53.5761C24.1373 53.596 23.9837 53.586 23.8365 53.5465C23.6893 53.5071 23.5512 53.439 23.4303 53.3462C23.3094 53.2534 23.2079 53.1377 23.1317 53.0057C23.0555 52.8737 23.006 52.728 22.9861 52.5769C22.9662 52.4257 22.9763 52.2721 23.0158 52.1249C23.0552 51.9777 23.1233 51.8396 23.2161 51.7187C23.3089 51.5978 23.4246 51.4963 23.5566 51.4201C23.6886 51.3439 23.8343 51.2944 23.9854 51.2745C24.1365 51.2546 24.2901 51.2647 24.4373 51.3041Z" fill="url(#paint12_linear)"/>
<path d="M30.125 14.8961C29.8178 14.9006 29.5249 15.0267 29.3105 15.2467C29.0961 15.4667 28.9777 15.7628 28.9812 16.07V30.002C28.9826 30.3094 29.1058 30.6036 29.3239 30.8202L36.2856 37.7862C36.3933 37.8943 36.5213 37.98 36.6622 38.0386C36.8031 38.0972 36.9541 38.1275 37.1067 38.1277C37.2592 38.1279 37.4104 38.0981 37.5514 38.0399C37.6924 37.9817 37.8206 37.8963 37.9287 37.7885C38.0367 37.6808 38.1225 37.5527 38.181 37.4119C38.2396 37.271 38.2698 37.12 38.27 36.9674C38.2702 36.8148 38.2403 36.6637 38.1821 36.5226C38.1239 36.3816 38.0385 36.2534 37.9307 36.1454L31.3032 29.5179V16.07C31.3049 15.915 31.2756 15.7612 31.217 15.6177C31.1583 15.4742 31.0715 15.3439 30.9617 15.2345C30.8519 15.1251 30.7213 15.0388 30.5776 14.9807C30.4339 14.9226 30.28 14.8938 30.125 14.8961Z" fill="url(#paint13_linear)"/>
<defs>
<linearGradient id="paint0_linear" x1="30.1441" y1="10.269" x2="30.1441" y2="49.7302" gradientUnits="userSpaceOnUse">
<stop stop-color="#96BBEF"/>
<stop offset="1" stop-color="#5B86EC"/>
</linearGradient>
<linearGradient id="paint1_linear" x1="41.7426" y1="5.625" x2="41.7426" y2="54.3753" gradientUnits="userSpaceOnUse">
<stop stop-color="#96BBEF"/>
<stop offset="1" stop-color="#5B86EC"/>
</linearGradient>
<linearGradient id="paint2_linear" x1="6.92951" y1="28.8394" x2="6.92951" y2="31.1608" gradientUnits="userSpaceOnUse">
<stop stop-color="#96BBEF"/>
<stop offset="1" stop-color="#5B86EC"/>
</linearGradient>
<linearGradient id="paint3_linear" x1="25.2582" y1="7.2745" x2="23.0159" y2="7.87533" gradientUnits="userSpaceOnUse">
<stop stop-color="#96BBEF"/>
<stop offset="1" stop-color="#5B86EC"/>
</linearGradient>
<linearGradient id="paint4_linear" x1="19.5429" y1="9.31356" x2="17.5324" y2="10.4743" gradientUnits="userSpaceOnUse">
<stop stop-color="#96BBEF"/>
<stop offset="1" stop-color="#5B86EC"/>
</linearGradient>
<linearGradient id="paint5_linear" x1="14.5501" y1="12.7629" x2="12.9086" y2="14.4044" gradientUnits="userSpaceOnUse">
<stop stop-color="#96BBEF"/>
<stop offset="1" stop-color="#5B86EC"/>
</linearGradient>
<linearGradient id="paint6_linear" x1="10.6203" y1="17.3868" x2="9.45959" y2="19.3972" gradientUnits="userSpaceOnUse">
<stop stop-color="#96BBEF"/>
<stop offset="1" stop-color="#5B86EC"/>
</linearGradient>
<linearGradient id="paint7_linear" x1="8.02095" y1="22.87" x2="7.42011" y2="25.1124" gradientUnits="userSpaceOnUse">
<stop stop-color="#96BBEF"/>
<stop offset="1" stop-color="#5B86EC"/>
</linearGradient>
<linearGradient id="paint8_linear" x1="7.42012" y1="34.8876" x2="8.02095" y2="37.1299" gradientUnits="userSpaceOnUse">
<stop stop-color="#96BBEF"/>
<stop offset="1" stop-color="#5B86EC"/>
</linearGradient>
<linearGradient id="paint9_linear" x1="9.45942" y1="40.6032" x2="10.6201" y2="42.6136" gradientUnits="userSpaceOnUse">
<stop stop-color="#96BBEF"/>
<stop offset="1" stop-color="#5B86EC"/>
</linearGradient>
<linearGradient id="paint10_linear" x1="12.9087" y1="45.5957" x2="14.5502" y2="47.2372" gradientUnits="userSpaceOnUse">
<stop stop-color="#96BBEF"/>
<stop offset="1" stop-color="#5B86EC"/>
</linearGradient>
<linearGradient id="paint11_linear" x1="17.5325" y1="49.5256" x2="19.5429" y2="50.6863" gradientUnits="userSpaceOnUse">
<stop stop-color="#96BBEF"/>
<stop offset="1" stop-color="#5B86EC"/>
</linearGradient>
<linearGradient id="paint12_linear" x1="23.0158" y1="52.1249" x2="25.2581" y2="52.7257" gradientUnits="userSpaceOnUse">
<stop stop-color="#96BBEF"/>
<stop offset="1" stop-color="#5B86EC"/>
</linearGradient>
<linearGradient id="paint13_linear" x1="33.6255" y1="14.896" x2="33.6255" y2="38.1277" gradientUnits="userSpaceOnUse">
<stop stop-color="#96BBEF"/>
<stop offset="1" stop-color="#5B86EC"/>
</linearGradient>
</defs>
</svg>
