<svg width="24" height="24" viewBox="0 0 24 24" fill="none" xmlns="http://www.w3.org/2000/svg">
<path fill-rule="evenodd" clip-rule="evenodd" d="M6.27934 6.27934C5.90689 6.65179 5.90689 7.25565 6.27934 7.6281L10.6512 12L6.27934 16.3719C5.90689 16.7444 5.90689 17.3482 6.27934 17.7207C6.65179 18.0931 7.25565 18.0931 7.6281 17.7207L12 13.3488L16.3719 17.7207C16.7444 18.0931 17.3482 18.0931 17.7207 17.7207C18.0931 17.3482 18.0931 16.7444 17.7207 16.3719L13.3488 12L17.7207 7.6281C18.0931 7.25565 18.0931 6.65179 17.7207 6.27934C17.3482 5.90689 16.7444 5.90689 16.3719 6.27934L12 10.6512L7.6281 6.27934C7.25565 5.90689 6.65179 5.90689 6.27934 6.27934Z" fill="#31364E"/>
</svg>
