<svg width="40" height="46" viewBox="0 0 40 46" fill="none" xmlns="http://www.w3.org/2000/svg">
<path fill-rule="evenodd" clip-rule="evenodd" d="M29.5784 12.3549C29.5554 12.2651 29.5303 12.1759 29.503 12.0874C29.3364 11.5475 29.0284 11.0664 28.701 10.6061L28.5939 10.4555C28.2861 10.0227 27.9571 9.59743 27.5274 9.28538C27.0879 8.96624 26.5961 8.72239 26.072 8.56582C25.292 8.33281 24.4658 8.3007 23.6701 8.47253C22.3637 8.71903 21.0697 9.41862 19.9745 10.3116C19.2716 10.8847 18.1936 10.8283 17.5229 10.2178V10.2178C17.0394 9.78304 16.4777 9.44409 15.8677 9.21888C15.1396 8.95853 14.3608 8.87141 13.5932 8.96466C12.8256 9.05792 12.0902 9.32886 11.4456 9.75596C10.7832 10.1756 10.2397 10.7584 9.86698 11.4483C9.4943 12.1382 9.30499 12.9124 9.31718 13.6964C9.35551 15.639 10.1099 17.3465 11.2447 18.8506C12.8357 20.9587 15.1851 22.6573 17.2029 24.0395L20.7745 26.5977C20.8422 26.6442 21.5106 27.1059 21.7908 27.2627C21.9489 27.3582 22.1333 27.4006 22.3173 27.3839C22.5012 27.3672 22.6749 27.2922 22.8132 27.1698C23.3097 26.6178 23.7592 26.0253 24.1571 25.3985C24.7399 24.5012 25.2669 23.546 25.8 22.6981C26.78 21.1387 28.0214 19.411 28.8382 17.5816C29.4537 16.3005 29.7628 14.8939 29.7413 13.4728C29.726 13.0956 29.6714 12.7209 29.5784 12.3549ZM27.4884 16.9776C27.488 16.9776 27.4876 16.9779 27.4874 16.9783C26.6999 18.7435 25.4941 20.4042 24.5485 21.9082C24.0191 22.7503 23.4959 23.6999 22.9178 24.5913C22.7792 24.8037 22.6375 25.0127 22.4915 25.2158C22.2867 25.5008 21.8937 25.5621 21.6003 25.3694V25.3694L18.04 22.817C16.1436 21.5161 13.9208 19.9394 12.4262 17.9591C11.4793 16.7046 10.8292 15.2877 10.7966 13.6674C10.7912 13.1343 10.9227 12.6088 11.1785 12.1411C11.4343 11.6733 11.8058 11.279 12.2575 10.9959C12.7084 10.6942 13.2236 10.5022 13.7619 10.4351C14.3002 10.3681 14.8468 10.4278 15.3578 10.6096C15.7948 10.7722 16.1966 11.0166 16.542 11.3298C17.1026 11.864 17.5947 12.466 18.0069 13.1215C18.1179 13.2834 18.2885 13.3946 18.4813 13.431C18.6742 13.4675 18.8736 13.4262 19.036 13.316V13.316C19.0458 13.3083 19.0568 13.3021 19.0682 13.2972C19.187 13.2461 19.2903 13.1645 19.3676 13.0605C20.3144 11.778 21.5956 10.7805 23.0711 10.1771C24.3136 9.70913 25.6402 9.69367 26.7685 10.5756C26.9964 10.7538 27.1794 10.9812 27.3464 11.2174V11.2174C27.6853 11.6968 27.9332 12.2343 28.0776 12.8033L28.1228 12.9814C28.2165 13.3502 28.2727 13.7294 28.2481 14.1092C28.1837 15.1035 27.9267 16.0777 27.4894 16.977C27.4892 16.9774 27.4888 16.9776 27.4884 16.9776V16.9776ZM38.4172 18.6415C38.4168 18.6415 38.4165 18.6411 38.4164 18.6407L38.037 15.0264C37.8628 13.3248 37.6772 11.6057 37.4136 9.90115C37.2361 8.75127 37.0233 7.61016 36.7561 6.48641C36.5576 5.5688 36.2799 4.67012 35.9263 3.80045C35.6658 3.17968 35.3111 2.60276 34.8748 2.0901C34.2231 1.37227 33.3876 0.84622 32.4586 0.568608C31.2016 0.156276 29.7808 0.0661576 28.5568 0.0284089C26.697 -0.0325698 24.8386 0.0110544 22.9816 0.0981669C20.2251 0.231739 17.4709 0.463971 14.7155 0.609158L6.79557 1.01282C5.80203 1.0799 4.81689 1.23937 3.85291 1.48907C3.14952 1.68404 2.49014 2.01232 1.91059 2.45604C1.03947 3.15294 0.550477 4.17205 0.300754 5.31612C-0.0186578 6.7738 0.0553896 8.44066 0.023158 9.70379C-0.0291094 11.7742 0.0124126 13.8387 0.0945886 15.8945C0.218288 18.9609 0.432585 22.0214 0.557447 25.1023C0.615522 26.5193 0.649205 28.1687 1.10161 29.6119C1.40763 30.6988 2.04646 31.6624 2.92836 32.3675C3.9356 33.0992 5.10691 33.5728 6.33968 33.7468C8.06683 34.0429 9.94033 33.9587 11.5113 33.9064L14.0352 33.831V33.831C14.2097 33.8204 14.3685 33.9226 14.4355 34.084C14.4372 34.0881 14.4388 34.0919 14.4403 34.0953L15.4377 35.9972L19.3822 42.8384L20.575 44.9204C20.6941 45.1745 20.8274 45.4218 20.9743 45.6609C21.0902 45.8186 21.2561 45.9322 21.445 45.9832C21.6103 46.018 21.7825 45.9984 21.9358 45.9272C22.0891 45.856 22.2151 45.7372 22.2952 45.5883C22.3478 45.4925 22.4619 45.2456 22.4767 45.2166L23.0865 43.9708L25.7289 38.6948L27.2376 35.9634C27.6548 35.2082 28.4461 34.7508 29.3022 34.644V34.644C30.1553 34.5365 31.0021 34.3594 31.8375 34.1707C32.695 33.9958 33.5399 33.7639 34.3667 33.4767C34.9553 33.2663 35.5146 32.9814 36.0308 32.6288C37.9002 31.3163 38.7496 29.4201 39.0373 27.312C39.4322 24.4376 38.7433 21.1567 38.4181 18.6422C38.418 18.6418 38.4177 18.6415 38.4172 18.6415V18.6415ZM37.5717 27.1117C37.5712 27.1117 37.5709 27.112 37.5708 27.1124C37.3385 28.8108 36.688 30.3583 35.1809 31.4151C34.7685 31.6957 34.3219 31.922 33.8518 32.0887C33.0874 32.3524 32.3066 32.5659 31.5143 32.7276C30.7259 32.9018 29.9262 33.0732 29.1202 33.1748C28.7795 33.2185 28.437 33.2459 28.0938 33.257C27.7785 33.2671 27.4413 33.1858 27.158 33.3245V33.3245C27.0149 33.3946 26.8982 33.5091 26.8253 33.6509L24.4297 37.9833L21.7548 43.3233V43.3233C21.6786 43.4791 21.4592 43.4863 21.3729 43.3358L20.6496 42.0748L16.7296 35.277L15.7911 33.4913C15.7379 33.3722 15.6578 33.0557 15.5669 32.864C15.4903 32.6949 15.3708 32.5487 15.2202 32.4401C15.1011 32.362 14.9655 32.3123 14.8241 32.2949C14.5501 32.2965 14.2765 32.3149 14.0047 32.35L11.4613 32.4256C9.98185 32.475 8.21521 32.5679 6.58766 32.2862C5.59334 32.1533 4.64682 31.7783 3.83113 31.1944C3.19107 30.6728 2.73013 29.9641 2.51283 29.1675C2.09876 27.8492 2.08772 26.3364 2.03517 25.0413C1.90972 21.9605 1.69572 18.9028 1.5726 15.8364C1.49129 13.8096 1.44977 11.7799 1.50174 9.73852C1.53078 8.5567 1.44687 6.99749 1.74566 5.63273C1.91989 4.8342 2.22304 4.09949 2.83166 3.61457C3.26123 3.28989 3.74949 3.0513 4.2696 2.91188C5.14298 2.68633 6.03584 2.54439 6.93611 2.48795L14.791 2.08726C17.5438 1.94498 20.296 1.70978 23.0505 1.57911C24.8685 1.49199 26.6877 1.44844 28.5095 1.50651C29.6022 1.54426 30.874 1.6052 31.9969 1.97398C32.6724 2.1699 33.2817 2.54638 33.7592 3.06288C34.0954 3.46214 34.3682 3.9107 34.5682 4.39282C34.8878 5.18256 35.1378 5.99868 35.3153 6.83194C35.5735 7.91504 35.7782 9.01849 35.9501 10.1277C36.2097 11.8061 36.3926 13.5018 36.5633 15.1772L36.9478 18.8302C37.2599 21.2314 37.9474 24.3642 37.5725 27.111C37.5724 27.1114 37.5721 27.1117 37.5717 27.1117V27.1117ZM12.6064 13.9838C12.606 13.9838 12.6056 13.9835 12.6056 13.9831C12.5736 13.6206 12.6397 13.2561 12.7968 12.9278C12.9541 12.5993 13.1968 12.3193 13.4995 12.1168C13.542 12.0865 13.5781 12.0479 13.6056 12.0035C13.6331 11.9592 13.6516 11.9098 13.6599 11.8582C13.6682 11.8066 13.6661 11.754 13.6539 11.7032C13.6416 11.6525 13.6194 11.6046 13.5885 11.5624C13.5576 11.5203 13.5187 11.4847 13.474 11.4578C13.4292 11.4309 13.3796 11.4131 13.3279 11.4055C13.2762 11.3979 13.2235 11.4006 13.1729 11.4136C13.1223 11.4265 13.0748 11.4493 13.0331 11.4808C12.6197 11.7583 12.2886 12.142 12.0748 12.5917C11.861 13.0413 11.7722 13.5403 11.8179 14.0362C11.905 15.3312 12.7517 16.7105 13.5529 17.6803C13.5859 17.7203 13.6264 17.7535 13.6722 17.7779C13.718 17.8022 13.7682 17.8174 13.8198 17.8224C13.8714 17.8274 13.9235 17.8221 13.9731 17.8069C14.0228 17.7918 14.0689 17.767 14.1089 17.734C14.149 17.7011 14.1821 17.6605 14.2065 17.6147C14.2309 17.5689 14.246 17.5188 14.251 17.4672C14.256 17.4156 14.2507 17.3634 14.2356 17.3138C14.2204 17.2642 14.1957 17.218 14.1627 17.178C13.4581 16.3244 12.6844 15.1226 12.6072 13.9846C12.6072 13.9842 12.6068 13.9838 12.6064 13.9838V13.9838ZM15.2693 18.5312C15.2316 18.4954 15.1873 18.4674 15.1387 18.4489C15.0902 18.4304 15.0385 18.4216 14.9866 18.4233C14.9347 18.4249 14.8836 18.4368 14.8363 18.4583C14.7891 18.4798 14.7465 18.5105 14.7112 18.5486C14.6401 18.6258 14.6023 18.7279 14.606 18.8329C14.6098 18.9378 14.6548 19.037 14.7312 19.1089L15.4296 19.742C15.5081 19.8113 15.611 19.8466 15.7155 19.8401C15.8201 19.8336 15.9178 19.7857 15.9871 19.7071C16.0564 19.6286 16.0917 19.5257 16.0851 19.4211C16.0786 19.3166 16.0308 19.2189 15.9522 19.1496L15.2693 18.5312ZM17.2653 20.3925C17.2223 20.3623 17.1736 20.3409 17.1222 20.3297C17.0708 20.3185 17.0177 20.3177 16.9659 20.3273C16.9142 20.3369 16.8649 20.3568 16.821 20.3857C16.777 20.4146 16.7393 20.452 16.71 20.4957C16.6806 20.5394 16.6604 20.5884 16.6503 20.6401C16.6402 20.6917 16.6405 20.7449 16.6513 20.7964C16.662 20.848 16.6829 20.8967 16.7127 20.9401C16.7426 20.9834 16.7808 21.0203 16.8251 21.0487L19.9417 23.1336C19.9848 23.164 20.0334 23.1854 20.0849 23.1967C20.1364 23.208 20.1896 23.2089 20.2414 23.1993C20.2932 23.1897 20.3426 23.1698 20.3866 23.1409C20.4306 23.1119 20.4684 23.0743 20.4977 23.0305C20.527 22.9867 20.5472 22.9375 20.5572 22.8858C20.5672 22.834 20.5667 22.7808 20.5558 22.7293C20.5449 22.6777 20.5238 22.6289 20.4938 22.5856C20.4637 22.5424 20.4253 22.5055 20.3808 22.4773L17.2653 20.3925ZM2.87609 13.7807C2.98086 13.7796 3.08098 13.7372 3.15466 13.6627C3.22834 13.5882 3.26963 13.4876 3.26955 13.3828C3.26113 11.6086 2.97598 9.57602 3.25677 7.73794C3.38888 6.55016 3.91865 5.44189 4.76004 4.59316C4.79741 4.55715 4.82732 4.51412 4.84806 4.46655C4.86881 4.41897 4.87997 4.36772 4.88093 4.31583C4.88189 4.26394 4.87262 4.21243 4.85364 4.16412C4.83467 4.11581 4.80637 4.07176 4.77035 4.03439C4.73433 3.99702 4.69131 3.96708 4.64373 3.94634C4.59616 3.9256 4.54496 3.91441 4.49307 3.91345C4.44118 3.91249 4.38961 3.9217 4.3413 3.94067C4.29299 3.95964 4.24889 3.98802 4.21152 4.02404C3.24446 4.99253 2.63289 6.25924 2.47595 7.61885C2.18906 9.49757 2.47131 11.5737 2.47973 13.3856C2.48034 13.4907 2.52254 13.5912 2.5971 13.6652C2.67165 13.7393 2.77249 13.7808 2.87754 13.7807H2.87609ZM3.05031 17.0763C3.15497 17.0722 3.25375 17.0268 3.32503 16.9501C3.39632 16.8734 3.43432 16.7716 3.43071 16.667L3.36218 15.2267C3.35794 15.1221 3.3123 15.0234 3.2353 14.9524C3.1583 14.8814 3.05625 14.8438 2.95159 14.848C2.84693 14.8523 2.74824 14.8979 2.67723 14.9749C2.60622 15.0519 2.5687 15.154 2.57294 15.2586L2.64147 16.696C2.64563 16.8008 2.6911 16.8995 2.76794 16.9708C2.84478 17.0421 2.94673 17.08 3.05148 17.0763H3.05031ZM3.50998 25.1081C3.56189 25.106 3.61287 25.0936 3.65999 25.0717C3.7071 25.0498 3.74942 25.0188 3.7845 24.9805C3.81959 24.9422 3.84675 24.8972 3.86442 24.8484C3.88209 24.7995 3.88992 24.7477 3.88747 24.6958L3.53466 18.3772C3.53376 18.325 3.52255 18.2737 3.50167 18.2259C3.48078 18.1781 3.45065 18.1349 3.41299 18.0989C3.37534 18.0628 3.33091 18.0346 3.28228 18.0158C3.23365 17.997 3.18177 17.9879 3.12964 17.9893C3.07752 17.9906 3.02617 18.0023 2.97857 18.0236C2.93097 18.0449 2.88806 18.0754 2.85231 18.1133C2.81656 18.1513 2.78869 18.196 2.77029 18.2447C2.7519 18.2935 2.74334 18.3455 2.74513 18.3976L3.0991 24.7335C3.10148 24.7852 3.11404 24.8359 3.13605 24.8827C3.15806 24.9295 3.1891 24.9715 3.22737 25.0063C3.26565 25.0411 3.31042 25.0681 3.35911 25.0856C3.40781 25.103 3.45947 25.1107 3.51114 25.1081H3.50998ZM8.52097 30.756C8.5202 30.756 8.51943 30.7559 8.51867 30.7557L6.91317 30.4598C6.24205 30.2791 5.6458 29.8896 5.2107 29.3476C4.56433 28.5317 4.28644 27.4427 3.98358 26.3073C3.97093 26.2565 3.94828 26.2087 3.91695 26.1667C3.88563 26.1247 3.84625 26.0893 3.80112 26.0626C3.75599 26.036 3.70601 26.0186 3.65409 26.0114C3.60217 26.0043 3.54935 26.0076 3.4987 26.0211C3.44806 26.0346 3.40061 26.058 3.35911 26.09C3.31762 26.122 3.28291 26.1619 3.25702 26.2075C3.23112 26.2531 3.21455 26.3034 3.20828 26.3554C3.20201 26.4074 3.20615 26.4602 3.22047 26.5106C3.55295 27.7564 3.88282 28.944 4.5925 29.8383C5.12642 30.5096 5.86072 30.9928 6.68842 31.2176L8.43705 31.5429C8.48872 31.5484 8.54098 31.5437 8.59082 31.529C8.64067 31.5143 8.68713 31.4899 8.72756 31.4572C8.76799 31.4246 8.8016 31.3843 8.82647 31.3387C8.85133 31.2931 8.86697 31.243 8.87248 31.1914C8.87799 31.1397 8.87326 31.0874 8.85858 31.0375C8.8439 30.9877 8.81954 30.9413 8.7869 30.9009C8.75426 30.8604 8.71398 30.8268 8.66835 30.8019C8.62272 30.777 8.57264 30.7615 8.52097 30.756V30.756ZM17.5897 33.3605C17.5423 33.2672 17.4598 33.1965 17.3603 33.164C17.2608 33.1315 17.1525 33.1399 17.0592 33.1873C16.9658 33.2346 16.8951 33.3171 16.8626 33.4165C16.8301 33.516 16.8384 33.6244 16.8858 33.7177L18.8955 37.2603C18.9485 37.3499 19.0347 37.4149 19.1354 37.4414C19.2361 37.4678 19.3431 37.4535 19.4333 37.4015C19.5235 37.3496 19.5896 37.2641 19.6172 37.1638C19.6448 37.0634 19.6317 36.9562 19.5808 36.8655L17.5897 33.3605ZM20.4481 38.4044C20.393 38.3164 20.3056 38.2536 20.2046 38.2296C20.1036 38.2056 19.9972 38.2223 19.9084 38.2761C19.8196 38.3299 19.7555 38.4163 19.73 38.517C19.7045 38.6176 19.7197 38.7243 19.7721 38.8139L20.6917 40.3731C20.717 40.4192 20.7511 40.46 20.7923 40.4927C20.8335 40.5255 20.8808 40.5497 20.9314 40.5639C20.9821 40.5781 21.0351 40.582 21.0873 40.5754C21.1395 40.5688 21.1898 40.5518 21.2354 40.5255C21.2809 40.4991 21.3207 40.4639 21.3524 40.422C21.3841 40.38 21.4071 40.332 21.4201 40.281C21.433 40.2301 21.4356 40.177 21.4277 40.1249C21.4198 40.0729 21.4016 40.0231 21.3741 39.9782L20.4481 38.4044Z" fill="#FF8A23"/>
</svg>
