<svg width="60" height="60" viewBox="0 0 60 60" fill="none" xmlns="http://www.w3.org/2000/svg">
	<defs>
		<linearGradient id="paint0_linear_1853563" x1="51" y1="44" x2="51" y2="14" gradientUnits="userSpaceOnUse">
			<stop stop-color="#3D8BE8"/>
			<stop offset="1" stop-color="#89BEEC"/>
		</linearGradient>
	</defs>
	<circle cx="30" cy="30" r="30" fill="#89BEEC" fill-opacity="0.1"/>
	<path fill-rule="evenodd" clip-rule="evenodd" d="M30 16.6822C31.0749 15.0655 32.913 14 35 14H46C46.5523 14 47 14.4477 47 15V18H50C50.5523 18 51 18.4477 51 19V43C51 43.5523 50.5523 44 50 44H30H10C9.44772 44 9 43.5523 9 43V19C9 18.4477 9.44772 18 10 18H13V15C13 14.4477 13.4477 14 14 14H25C27.087 14 28.9251 15.0655 30 16.6822ZM31 20V36V38H45V16H35C32.7909 16 31 17.7909 31 20ZM29 38V36V20C29 17.7909 27.2091 16 25 16H15V38H29ZM29 40V42H11V20H13V39C13 39.5523 13.4477 40 14 40H29ZM47 39V20H49V42H31V40H46C46.5523 40 47 39.5523 47 39ZM17.0001 22.0009C16.9996 21.4486 17.447 21.0005 17.9993 21L25.9993 20.9933C26.5515 20.9929 26.9996 21.4402 27.0001 21.9925C27.0006 22.5448 26.5532 22.9929 26.0009 22.9933L18.0009 23C17.4487 23.0005 17.0006 22.5531 17.0001 22.0009ZM33.9993 21C33.447 21.0005 32.9996 21.4486 33.0001 22.0009C33.0006 22.5531 33.4487 23.0005 34.0009 23L42.0009 22.9933C42.5532 22.9929 43.0006 22.5448 43.0001 21.9925C42.9996 21.4402 42.5515 20.9929 41.9993 20.9933L33.9993 21ZM17.0001 27.0076C16.9996 26.4553 17.447 26.0072 17.9993 26.0067L25.9993 26C26.5515 25.9996 26.9996 26.4469 27.0001 26.9992C27.0006 27.5515 26.5532 27.9996 26.0009 28L18.0009 28.0067C17.4487 28.0072 17.0006 27.5599 17.0001 27.0076ZM33.9993 26.0067C33.447 26.0072 32.9996 26.4553 33.0001 27.0076C33.0006 27.5599 33.4487 28.0072 34.0009 28.0067L42.0009 28C42.5532 27.9996 43.0006 27.5515 43.0001 26.9992C42.9996 26.4469 42.5515 25.9996 41.9993 26L33.9993 26.0067Z" fill="url(#paint0_linear_1853563)"/>
</svg>
