<svg width="60" height="60" viewBox="0 0 60 60" fill="none" xmlns="http://www.w3.org/2000/svg">
	<defs>
		<linearGradient id="paint0_linear_1853587" x1="44" y1="48" x2="44" y2="10" gradientUnits="userSpaceOnUse">
			<stop stop-color="#3D8BE8"/>
			<stop offset="1" stop-color="#89BEEC"/>
		</linearGradient>
		<linearGradient id="paint1_linear_1853587" x1="44" y1="48" x2="44" y2="10" gradientUnits="userSpaceOnUse">
			<stop stop-color="#3D8BE8"/>
			<stop offset="1" stop-color="#89BEEC"/>
		</linearGradient>
		<linearGradient id="paint2_linear_1853587" x1="44" y1="48" x2="44" y2="10" gradientUnits="userSpaceOnUse">
			<stop stop-color="#3D8BE8"/>
			<stop offset="1" stop-color="#89BEEC"/>
		</linearGradient>
	</defs>
	<circle cx="30" cy="30" r="30" fill="#89BEEC" fill-opacity="0.1"/>
	<path fill-rule="evenodd" clip-rule="evenodd" d="M40 26H20C18.8954 26 18 26.8954 18 28V44C18 45.1046 18.8954 46 20 46H40C41.1046 46 42 45.1046 42 44V28C42 26.8954 41.1046 26 40 26ZM20 24C17.7909 24 16 25.7909 16 28V44C16 46.2091 17.7909 48 20 48H40C42.2091 48 44 46.2091 44 44V28C44 25.7909 42.2091 24 40 24H20Z" fill="url(#paint0_linear_1853587)"/>
	<path fill-rule="evenodd" clip-rule="evenodd" d="M22 18C22 13.5817 25.5817 10 30 10C34.4183 10 38 13.5817 38 18C38 18.5523 37.5523 19 37 19C36.4477 19 36 18.5523 36 18C36 14.6863 33.3137 12 30 12C26.6863 12 24 14.6863 24 18V25C24 25.5523 23.5523 26 23 26C22.4477 26 22 25.5523 22 25V18Z" fill="url(#paint1_linear_1853587)"/>
	<path fill-rule="evenodd" clip-rule="evenodd" d="M30 37C30.5523 37 31 36.5523 31 36C31 35.4477 30.5523 35 30 35C29.4477 35 29 35.4477 29 36C29 36.5523 29.4477 37 30 37ZM30 39C31.6569 39 33 37.6569 33 36C33 34.3431 31.6569 33 30 33C28.3431 33 27 34.3431 27 36C27 37.6569 28.3431 39 30 39Z" fill="url(#paint2_linear_1853587)"/>
</svg>
