<svg width="25" height="24" viewBox="0 0 25 24" fill="none" xmlns="http://www.w3.org/2000/svg">
<path d="M14 4.06069C14 2.72433 12.3843 2.05508 11.4393 3.00003L6.93934 7.50003H5.00905C3.86772 7.50003 2.69106 8.16447 2.3493 9.40508C2.12147 10.2322 2 11.1025 2 12C2 12.8975 2.12147 13.7679 2.3493 14.595C2.69106 15.8356 3.86772 16.5 5.00905 16.5H6.93934L11.4393 21C12.3843 21.945 14 21.2757 14 19.9394V4.06069Z" fill="#31364E"/>
<path d="M19.0837 5.10567C19.3766 4.81278 19.8514 4.81278 20.1443 5.10567C23.952 8.91328 23.952 15.0866 20.1443 18.8943C19.8514 19.1871 19.3766 19.1871 19.0837 18.8943C18.7908 18.6014 18.7908 18.1265 19.0837 17.8336C22.3055 14.6118 22.3055 9.38816 19.0837 6.16633C18.7908 5.87344 18.7908 5.39856 19.0837 5.10567Z" fill="#31364E"/>
<path d="M16.4323 7.7574C16.7252 7.46451 17.2001 7.46451 17.493 7.7574C19.8361 10.1005 19.8361 13.8995 17.493 16.2427C17.2001 16.5356 16.7252 16.5356 16.4323 16.2427C16.1394 15.9498 16.1394 15.4749 16.4323 15.182C18.1897 13.4247 18.1897 10.5754 16.4323 8.81806C16.1394 8.52517 16.1394 8.0503 16.4323 7.7574Z" fill="#31364E"/>
</svg>
