<svg width="35" height="40" viewBox="0 0 35 40" fill="none" xmlns="http://www.w3.org/2000/svg">
<path fill-rule="evenodd" clip-rule="evenodd" d="M6.16089 7.70305C5.10638 8.36996 4.96608 9.81168 5.78866 10.7498C12.6512 18.5765 20.349 25.2456 28.1939 32.0919C29.4372 33.177 31.79 32.7794 31.9122 31.1337V31.1337C32.1716 27.6334 32.2933 24.1233 32.3763 20.6131C32.4215 18.7081 32.201 16.7998 32.285 14.8981C32.2863 14.869 32.2904 14.84 32.2969 14.8111C32.5013 13.9097 34.5289 13.9376 34.5371 14.8619V14.8619C34.5796 20.0826 34.8499 25.3362 34.3931 30.5207C33.9122 35.9755 30.6104 38.843 25.2054 39.3901C19.2609 39.9899 13.3094 40.27 7.33951 39.6537C3.64347 39.2747 0.458948 36.2326 0.245372 31.8029C-0.0874099 25.4119 -0.0816908 19.0077 0.262509 12.6173C0.499486 8.52708 3.41143 5.96946 7.2113 4.80271C9.03065 4.2424 11.0253 4.21934 12.9495 4.06772C13.7679 4.00181 14.7787 4.16002 14.7079 5.31029C14.6383 6.4342 13.6598 6.22654 12.8951 6.19688C10.5546 6.07023 8.22445 6.59135 6.16089 7.70305V7.70305ZM23.4249 31.1152C19.346 27.4983 13.1217 27.8157 9.43136 31.8283L5.33817 36.279C5.24758 36.3775 5.21308 36.5152 5.24654 36.6448V36.6448C5.28664 36.8001 5.41684 36.9157 5.57583 36.9368C13.1818 37.9442 20.7545 37.9458 28.268 36.2097C28.4285 36.1727 28.5463 36.0356 28.5597 35.8714V35.8714C28.5694 35.7523 28.5225 35.6355 28.433 35.5562C26.7649 34.0769 25.0967 32.5976 23.4249 31.1152ZM3.16904 33.9816C3.2182 34.2191 3.42784 34.3907 3.67041 34.3869V34.3869C3.80529 34.3848 3.93356 34.3281 4.0259 34.2297C6.19823 31.9164 8.37096 29.6025 10.5623 27.269C12.7181 24.9735 12.7103 21.3952 10.5444 19.1093C8.84966 17.3206 7.15899 15.5364 5.43824 13.7208C4.33884 12.5609 2.42634 13.1111 2.2928 14.7037V14.7037C2.23677 19.5355 2.18931 24.3739 2.32048 29.2057C2.36356 30.8046 2.84007 32.3922 3.16904 33.9816ZM27.0485 11.8362C27.0478 11.8362 27.0471 11.8368 27.0471 11.8375C27.0472 13.4224 27.146 14.9941 26.9947 16.5394C26.94 17.0997 26.3448 17.9863 25.8972 18.0522C24.9018 18.2005 24.8975 17.2612 24.8975 16.5064V16.5064C24.8975 13.769 23.0532 11.5499 21.1265 9.60528C19.8319 8.29874 19.4498 6.82582 19.8571 5.03011C20.1749 3.59121 20.9785 2.30562 22.1328 1.38963C23.2871 0.473634 24.7217 -0.0169662 26.1951 0.000448127C29.0204 0.0268155 31.4716 1.90886 31.9828 4.44012C32.642 7.69972 31.0679 10.1189 27.0491 11.836C27.0489 11.8361 27.0487 11.8362 27.0485 11.8362V11.8362ZM25.7014 9.3906C27.8639 9.40049 29.6895 7.77555 29.7376 5.7947C29.7201 4.88387 29.3457 4.01635 28.6948 3.37893C28.0439 2.74151 27.1688 2.38522 26.2578 2.38677C24.1649 2.32745 22.1379 4.15003 22.1201 6.1111C22.1049 7.91067 23.709 9.38072 25.7027 9.3906H25.7014Z" fill="#FF8A23"/>
</svg>
