<svg width="48" height="48" viewBox="0 0 48 48" fill="none" xmlns="http://www.w3.org/2000/svg">
<g clip-path="url(#clip0)">
<path d="M33.7843 40.7433C33.3513 40.6763 33.0244 40.6298 32.7583 40.5923C31.9409 40.4762 31.7214 40.4451 30.7658 40.1476C30.3892 40.0303 28.916 38.5444 28.916 35.6363C28.916 31.8898 29.8055 28.5813 30.1877 27.333C30.1978 27.3004 30.2227 27.2061 30.2572 27.0784C30.3204 26.844 30.7842 25.4284 30.7842 25.4284C31.0356 24.7083 31.2958 23.9634 31.4649 23.1982L31.474 23.159C31.7291 22.0512 32.5668 18.0015 32.6262 12.3999C32.6262 11.8347 32.1563 11.3429 31.8757 11.0492C31.8244 10.9952 31.7788 10.948 31.7448 10.9083C31.4746 10.5941 31.1189 10.2062 30.7069 9.75735C30.4355 9.46131 30.1366 9.13517 29.8145 8.77842C29.2992 8.20852 28.7246 7.68713 28.1687 7.18314C27.4852 6.56368 26.7788 5.92307 26.1983 5.20087C25.3306 4.12191 24.5285 2.23344 24.6737 0.711456C24.6957 0.481835 24.6422 0.283478 24.5229 0.152452C24.3906 0.0067656 24.183 -0.0386397 24.0003 0.0336196C23.8172 -0.0386397 23.6095 0.0067656 23.4774 0.152452C23.3584 0.283478 23.3045 0.481835 23.3268 0.711456C23.4717 2.23344 22.6696 4.12191 21.8022 5.20087C21.2214 5.92307 20.5151 6.56368 19.8315 7.18314C19.2759 7.68713 18.7009 8.20852 18.1859 8.77842C17.8639 9.13517 17.5646 9.46131 17.2934 9.75735C16.8812 10.2062 16.5258 10.5941 16.2553 10.9083C16.2213 10.948 16.1761 10.9952 16.1246 11.0492C15.844 11.3429 15.374 11.8347 15.374 12.4028C15.4336 18.0015 16.2712 22.0512 16.5264 23.159L16.5354 23.1982C16.7044 23.9634 16.9648 24.7084 17.2159 25.4284C17.2159 25.4284 17.6796 26.844 17.7428 27.0784C17.7774 27.2061 17.8024 27.3004 17.8126 27.333C18.1946 28.5813 19.084 31.8898 19.084 35.6363C19.084 38.5446 17.611 40.0303 17.2345 40.1476C16.2789 40.4451 16.0593 40.4762 15.2417 40.5923C14.9756 40.6298 14.649 40.6763 14.2159 40.7433C9.52271 41.2428 9.01599 43.5726 9.01599 44.5513C9.01599 44.8136 9.15182 45.6659 9.77128 46.4517C10.3279 47.1577 11.4366 47.9998 13.5587 47.9998C13.8771 47.9998 14.2139 47.9808 14.56 47.9435C15.9723 47.7917 17.3957 47.5636 18.772 47.3432C19.272 47.2632 19.7711 47.1832 20.2711 47.1066C20.9371 47.0045 22.1375 46.9368 23.8384 46.9056C23.918 46.9041 23.9734 46.9029 24.0003 46.9021C24.0271 46.9029 24.0825 46.9042 24.1619 46.9056C25.863 46.9368 27.0633 47.0045 27.7295 47.1066C28.2292 47.1832 28.7284 47.2632 29.2282 47.3432C30.6046 47.5636 32.0282 47.7917 33.4403 47.9435C33.7864 47.9807 34.1232 47.9998 34.4415 47.9998C36.564 47.9998 37.673 47.1581 38.2292 46.4517C38.8487 45.6661 38.9843 44.8135 38.9843 44.5513C38.984 43.5726 38.4775 41.2428 33.7843 40.7433ZM26.4818 21.6694C26.4119 21.6694 26.3456 21.6542 26.2786 21.6224C26.0602 21.5354 25.7803 21.1183 25.7542 20.9564C26.8416 20.1998 27.5762 18.7626 27.5762 17.1131C27.5762 14.6772 27.3191 12.7023 24 12.7023C20.6809 12.7023 20.4237 14.6772 20.4237 17.1131C20.4237 18.7626 21.1584 20.1998 22.2457 20.9564C22.2201 21.1179 21.9338 21.5151 21.7214 21.6224C21.6545 21.6542 21.5883 21.6694 21.5181 21.6694C20.8193 21.6696 19.9434 20.139 19.7133 19.5299C19.3214 18.495 18.8322 16.7163 18.7273 14.1205L18.723 14.0207C18.6961 13.4738 19.5198 12.0755 19.6289 11.8363C19.7789 11.5069 21.7245 8.54114 22.3024 7.83853C22.5069 7.5901 23.5433 6.21393 24.0001 5.60653C24.4568 6.21393 25.493 7.5901 25.6975 7.83853C26.2757 8.54114 28.2209 11.5069 28.3711 11.8363C28.4803 12.0755 29.304 13.4738 29.2773 14.0207L29.273 14.1205C29.1679 16.7164 28.6789 18.4951 28.2866 19.5299C28.0566 20.1388 27.181 21.6694 26.4818 21.6694Z" fill="url(#paint0_linear)"/>
</g>
<defs>
<linearGradient id="paint0_linear" x1="24.0001" y1="-0.000183105" x2="24.0001" y2="47.9998" gradientUnits="userSpaceOnUse">
<stop stop-color="#96BBEF"/>
<stop offset="1" stop-color="#5B86EC"/>
</linearGradient>
<clipPath id="clip0">
<rect width="48" height="48" fill="white"/>
</clipPath>
</defs>
</svg>
