<svg width="47" height="46" viewBox="0 0 47 46" fill="none" xmlns="http://www.w3.org/2000/svg">
<g clip-path="url(#clip0_380_14)">
<path fill-rule="evenodd" clip-rule="evenodd" d="M35.6649 8.19665C35.1276 8.19554 34.6021 8.35345 34.1546 8.64985C33.7071 8.94626 33.3577 9.36786 33.1504 9.86211C32.9431 10.3563 32.8872 10.9009 32.9899 11.4268C33.0925 11.9527 33.349 12.4364 33.7271 12.8171C34.1051 13.1977 34.5878 13.458 35.1141 13.5654C35.6404 13.6728 36.1868 13.6224 36.6844 13.4204C37.182 13.2184 37.6084 12.8742 37.9099 12.4308C38.2115 11.9874 38.3745 11.4647 38.3786 10.929C38.3803 10.5719 38.3115 10.2182 38.176 9.88759C38.0406 9.55702 37.8412 9.25601 37.5892 9.0023C37.3372 8.74858 37.0375 8.54715 36.7074 8.40891C36.3772 8.27068 36.0229 8.19836 35.6649 8.19665ZM23.6012 11.663C21.354 11.6688 19.159 12.3388 17.2934 13.5881C15.4278 14.8374 13.9753 16.6099 13.1194 18.682C12.2636 20.7541 12.0427 23.0328 12.4847 25.2299C12.9267 27.4271 14.0118 29.4442 15.6029 31.0268C17.194 32.6093 19.2197 33.6861 21.4242 34.1211C23.6286 34.5561 25.9129 34.3301 27.9884 33.4712C30.064 32.6122 31.8378 31.1589 33.0856 29.2952C34.3335 27.4315 34.9995 25.2411 34.9995 23.0002C34.9901 19.9912 33.7853 17.1084 31.649 14.9835C29.5127 12.8586 26.619 11.6646 23.6016 11.663H23.6012ZM23.6012 30.2589C22.1625 30.2546 20.7573 29.825 19.5632 29.0248C18.3691 28.2245 17.4395 27.0895 16.892 25.7628C16.3444 24.436 16.2034 22.9771 16.4868 21.5705C16.7701 20.1638 17.4651 18.8726 18.484 17.8596C19.5029 16.8467 20.7999 16.1575 22.2113 15.8792C23.6227 15.6009 25.0852 15.7457 26.4139 16.2957C27.7427 16.8458 28.8783 17.7763 29.6772 18.9695C30.476 20.1628 30.9024 21.5654 30.9024 23.0002C30.8962 24.9272 30.1244 26.7729 28.7559 28.1335C27.3875 29.4941 25.534 30.2585 23.6016 30.2589H23.6012ZM32.6502 45.9999H14.1719C10.4908 46.002 6.95933 44.5476 4.35257 41.9558C1.74582 39.3639 0.27684 35.8465 0.268066 32.1757V13.8246C0.27684 10.1538 1.74582 6.63603 4.35257 4.04417C6.95933 1.4523 10.4908 -0.00206075 14.1719 2.19164e-06H32.6526C36.3336 -0.00173725 39.8649 1.45277 42.4716 4.04456C45.0783 6.63636 46.5474 10.1539 46.5565 13.8246V32.1757C46.5474 35.8464 45.0783 39.3636 42.4716 41.9554C39.8649 44.5472 36.3336 46.0017 32.6526 45.9999H32.6502ZM14.1715 4.32254C12.9188 4.32082 11.6781 4.56551 10.5202 5.04216C9.36223 5.51882 8.30984 6.21828 7.42312 7.10068C6.5364 7.98309 5.83274 9.03098 5.35233 10.1847C4.87191 11.3384 4.62417 12.5754 4.62326 13.8246V32.1757C4.62417 33.4249 4.87191 34.6615 5.35233 35.8152C5.83274 36.9689 6.5364 38.0168 7.42312 38.8992C8.30984 39.7816 9.36223 40.4811 10.5202 40.9578C11.6781 41.4344 12.9188 41.6791 14.1715 41.6774H32.6526C33.9054 41.6791 35.1461 41.4344 36.3041 40.9578C37.462 40.4811 38.5144 39.7816 39.4012 38.8992C40.2879 38.0168 40.9916 36.9689 41.4721 35.8152C41.9526 34.6615 42.2003 33.4249 42.2013 32.1757V13.8246C42.2003 12.5754 41.9526 11.3384 41.4721 10.1847C40.9916 9.03098 40.2879 7.98308 39.4012 7.10068C38.5144 6.21829 37.462 5.51881 36.3041 5.04216C35.1461 4.56551 33.9054 4.32082 32.6526 4.32254H14.1715Z" fill="#808080"/>
</g>
<defs>
<clipPath id="clip0_380_14">
<rect width="46.2868" height="46" fill="white" transform="translate(0.264648)"/>
</clipPath>
</defs>
</svg>
