<svg width="50" height="35" viewBox="0 0 50 35" fill="none" xmlns="http://www.w3.org/2000/svg">
<path fill-rule="evenodd" clip-rule="evenodd" d="M49.653 11.6133C49.6375 8.77407 48.4923 6.05693 46.4692 4.05919C44.4461 2.06146 41.7105 0.946448 38.8634 0.958844H11.2715C8.42432 0.946344 5.68862 2.06145 3.66542 4.05919C1.64222 6.05694 0.497033 8.774 0.481445 11.6133V24.3042C0.497033 27.1435 1.64222 29.8605 3.66542 31.8583C5.68862 33.856 8.42432 34.9711 11.2715 34.9586H38.863C41.7101 34.971 44.4457 33.856 46.4688 31.8583C48.4919 29.8606 49.6371 27.1434 49.6527 24.3042L49.653 11.6133ZM33.4267 18.8988L21.0537 24.9312C20.5686 25.2054 18.9204 24.8526 18.9204 24.3042V11.9265C18.9204 11.3782 20.5819 11.0254 21.0674 11.2996L32.911 17.6453C33.4082 17.9195 33.9295 18.6246 33.4251 18.8988H33.4267Z" fill="#808080"/>
</svg>
